<svg width="32" height="32" viewBox="0 0 32 32" fill="none" xmlns="http://www.w3.org/2000/svg">
<path d="M14.5221 8.70021C14.611 8.66688 14.7332 8.65577 14.811 8.70021C14.8332 8.71132 14.8554 8.73355 14.8443 8.75577V8.77799H14.8554C14.8332 8.84466 14.7221 8.83355 14.6665 8.85577C14.611 8.87799 14.5665 8.93355 14.511 8.93355C14.4554 8.93355 14.3665 8.91132 14.3554 8.85577C14.3443 8.77799 14.4554 8.70021 14.5221 8.70021ZM15.6554 8.85577C15.5999 8.83355 15.4887 8.84466 15.4776 8.77799V8.75577C15.4665 8.73355 15.4887 8.71132 15.4999 8.70021C15.5961 8.66129 15.7036 8.66129 15.7999 8.70021C15.8665 8.70021 15.9776 8.77799 15.9665 8.85577C15.9554 8.91132 15.8665 8.92243 15.811 8.92243C15.7554 8.92243 15.711 8.87799 15.6554 8.85577ZM13.6999 10.4669C14.0332 10.6891 14.4665 10.9891 15.011 10.9891C15.5554 10.9891 16.1999 10.6891 16.5887 10.4669C16.7999 10.3224 17.0887 10.1002 17.311 9.94466C17.4887 9.80021 17.4776 9.65577 17.6332 9.65577C17.7776 9.66688 17.6665 9.80021 17.4665 10.0224C17.2554 10.1669 16.9443 10.3891 16.6887 10.5447C16.1999 10.7669 15.6221 11.1335 15.011 11.1335C14.411 11.1335 13.9221 10.8335 13.5776 10.6113C13.3999 10.4669 13.2665 10.3224 13.1554 10.2447C12.9776 10.1002 12.9999 9.87799 13.0776 9.87799C13.1999 9.8891 13.2221 10.0224 13.2999 10.1002C13.411 10.1669 13.5443 10.3224 13.6999 10.4669Z" fill="#F9C105"/>
<path d="M15.9665 8.85564C15.9554 8.9112 15.8665 8.92231 15.811 8.92231C15.7554 8.92231 15.711 8.87787 15.6554 8.85564C15.5999 8.83342 15.4887 8.84453 15.4776 8.77787V8.75564C15.4665 8.73342 15.4887 8.7112 15.4999 8.70009C15.5961 8.66117 15.7036 8.66117 15.7999 8.70009C15.8665 8.70009 15.9776 8.77787 15.9665 8.85564Z" fill="black"/>
<path d="M20.9669 14.6888V15.711H20.3558C20.9107 16.7226 21.3078 17.8129 21.5336 18.9443C21.7003 18.9332 21.9003 18.9665 22.1114 19.011C22.2003 18.7777 22.2558 18.5443 22.2892 18.311C22.5003 16.7665 21.5225 15.2554 20.9669 14.6888ZM20.9669 14.6888V15.711H20.3558C20.9107 16.7226 21.3078 17.8129 21.5336 18.9443C21.7003 18.9332 21.9003 18.9665 22.1114 19.011C22.2003 18.7777 22.2558 18.5443 22.2892 18.311C22.5003 16.7665 21.5225 15.2554 20.9669 14.6888ZM26.1336 23.5443V23.4443L26.1225 23.4332C25.9336 23.211 25.8447 22.8443 25.7447 22.411C25.6558 21.9665 25.5447 21.5332 25.1892 21.2443C25.1225 21.1888 25.0558 21.1777 24.9781 21.0999C24.9147 21.0578 24.8424 21.0312 24.7669 21.0221C25.0781 20.111 25.1114 19.1888 24.9558 18.311C24.878 17.8332 24.7447 17.3665 24.5669 16.9221C23.9669 15.3554 22.9225 13.9888 22.1225 13.0554C21.7114 12.5332 21.2892 12.011 20.9669 11.4554C20.6003 10.8221 20.3558 10.1443 20.3669 9.31099C20.3892 7.76655 20.4892 5.35544 19.4003 3.85544C18.8225 3.04433 17.878 2.48877 16.3892 2.48877C16.2114 2.48877 16.0336 2.49988 15.8447 2.51099C14.4336 2.6221 13.5558 3.13321 13.0114 3.85544C11.7336 5.54432 12.3336 8.34433 12.2892 9.51099C12.2003 10.7221 11.9558 11.6777 11.1114 12.8665C10.7669 13.2665 10.3669 13.7554 9.97805 14.311C9.23361 15.3554 8.48916 16.5999 8.05583 17.8888C7.77805 18.7221 7.6225 19.5777 7.70027 20.3999L7.73361 20.6554C7.68916 20.6888 7.64472 20.7332 7.61138 20.7999C7.31138 21.0999 7.10027 21.4665 6.86694 21.7332C6.63361 21.9554 6.3225 22.0332 5.96694 22.1777C5.61138 22.3332 5.2225 22.4777 5.00027 22.9332C4.88916 23.1443 4.84472 23.3777 4.84472 23.5999C4.84472 23.8221 4.87805 24.0554 4.91138 24.1999C4.97805 24.6443 5.04472 25.011 4.95583 25.2777C4.67805 26.0332 4.64472 26.5554 4.83361 26.9332C5.03361 27.2999 5.43361 27.4443 5.88916 27.5999C6.80027 27.8221 8.03361 27.7443 9.01138 28.2665C10.0447 28.7777 11.1114 29.011 11.9447 28.7888C12.5447 28.6554 13.0447 28.2665 13.3114 27.7332C13.3669 27.7332 13.4114 27.7332 13.4669 27.7221C14.0892 27.6888 14.7781 27.4332 15.8447 27.3665C16.1447 27.3443 16.4669 27.3777 16.8225 27.4221C17.3892 27.511 18.0336 27.6332 18.7447 27.5888C18.7669 27.7332 18.8114 27.7999 18.8669 27.9554H18.878C19.3114 28.8221 20.1225 29.211 20.9892 29.1443C21.8558 29.0777 22.7781 28.5554 23.5336 27.6999C24.2336 26.8443 25.4225 26.4888 26.2003 26.0221C26.5892 25.811 26.9114 25.511 26.9336 25.0777C26.9558 24.6332 26.7114 24.1777 26.1336 23.5443ZM17.4892 7.64432C17.4447 7.49988 17.378 7.4221 17.2892 7.27766C17.1892 7.19988 17.1003 7.1221 16.9892 7.1221H16.9669C16.8669 7.1221 16.7669 7.15544 16.6781 7.27766C16.5669 7.37766 16.4892 7.49988 16.4447 7.64432C16.3892 7.78877 16.3558 7.93321 16.3447 8.08877V8.11099C16.3447 8.21099 16.3558 8.31099 16.3669 8.41099C16.1447 8.33321 15.878 8.25544 15.6892 8.17766C15.6781 8.11099 15.6669 8.03321 15.6669 7.96655V7.94432C15.6558 7.64432 15.7114 7.35544 15.8336 7.08877C15.9225 6.84432 16.0892 6.63321 16.3114 6.48877C16.5114 6.34432 16.7447 6.26655 16.9781 6.26655H17.0003C17.2336 6.26655 17.4447 6.34432 17.6558 6.48877C17.8669 6.64432 18.0225 6.85544 18.1447 7.08877C18.2669 7.36655 18.3225 7.58877 18.3336 7.88877C18.3336 7.86655 18.3447 7.84433 18.3447 7.8221V7.93321C18.3336 7.93321 18.3336 7.9221 18.3336 7.91099C18.3336 8.16655 18.2669 8.43321 18.1669 8.67766C18.1114 8.81099 18.0336 8.94432 17.9225 9.04432C17.8892 9.0221 17.8558 9.01099 17.8225 8.99988C17.7114 8.94432 17.6003 8.9221 17.5003 8.85544C17.4229 8.81794 17.3406 8.79175 17.2558 8.77766C17.3114 8.71099 17.4225 8.63321 17.4669 8.55544C17.5225 8.41099 17.5558 8.26655 17.5669 8.11099V8.08877C17.5669 7.94432 17.5447 7.78877 17.4892 7.64432ZM12.8669 7.15544C12.9225 6.93321 13.0336 6.73321 13.1892 6.55544C13.3336 6.41099 13.4781 6.33321 13.6558 6.33321H13.6892C13.8536 6.33559 14.0131 6.39005 14.1447 6.48877C14.3114 6.63321 14.4447 6.81099 14.5336 6.99988C14.6336 7.2221 14.6892 7.44432 14.7003 7.74432C14.7114 7.8221 14.7114 7.87766 14.7114 7.93321C14.7114 7.97766 14.7114 8.01099 14.7003 8.04432V8.13321C14.6718 8.14455 14.6419 8.15202 14.6114 8.15544C14.4336 8.2221 14.3003 8.31099 14.1669 8.37766C14.1781 8.28877 14.1781 8.18877 14.1669 8.08877V8.06655C14.1558 7.9221 14.1225 7.84432 14.0781 7.69988C14.041 7.58574 13.9761 7.48263 13.8892 7.39988C13.8602 7.37522 13.8266 7.35662 13.7904 7.34517C13.7541 7.33371 13.7159 7.32965 13.6781 7.33321H13.6558C13.5781 7.33321 13.5114 7.37766 13.4558 7.47766C13.3781 7.56655 13.3336 7.66655 13.3114 7.77766C13.2892 7.89988 13.2781 8.0221 13.2892 8.14432V8.16655C13.3003 8.31099 13.3336 8.38877 13.3781 8.53321C13.4336 8.67766 13.4892 8.75544 13.5669 8.83321C13.5781 8.84432 13.5892 8.85544 13.6003 8.85544C13.5225 8.9221 13.4781 8.93321 13.4114 9.01099C13.3657 9.04771 13.3126 9.07423 13.2558 9.08877C13.1447 8.94432 13.0447 8.79988 12.9558 8.63321C12.8447 8.39988 12.7892 8.15544 12.7781 7.89988C12.7558 7.64432 12.7892 7.38877 12.8669 7.15544ZM12.9892 9.49988C13.2336 9.34432 13.4114 9.18877 13.5336 9.1221C13.6447 9.04432 13.6892 9.01099 13.7225 8.97766H13.7336C13.9225 8.74432 14.2225 8.45544 14.6669 8.29988C14.8225 8.26655 15.0003 8.23321 15.2003 8.23321C15.5669 8.23321 16.0225 8.29988 16.5558 8.67766C16.8892 8.89988 17.1447 8.97766 17.7447 9.19988C18.0336 9.34432 18.2003 9.48877 18.2892 9.64432V9.48877C18.3669 9.65544 18.3669 9.84432 18.3003 10.011C18.1669 10.3665 17.7225 10.7332 17.1114 10.9554C16.8003 11.0999 16.5447 11.3221 16.2336 11.4665C15.9225 11.6221 15.5781 11.7999 15.1003 11.7665C14.9298 11.7807 14.7584 11.754 14.6003 11.6888C14.4669 11.6221 14.3447 11.5554 14.2336 11.4777C14.0114 11.3221 13.8225 11.0999 13.5447 10.9554C13.0892 10.6777 12.8447 10.3777 12.7669 10.1665C12.6892 9.86655 12.7669 9.64432 12.9892 9.49988ZM13.1669 26.8999C13.1003 27.7221 12.6225 28.1665 11.9003 28.3332C11.1669 28.4777 10.1892 28.3332 9.20027 27.8221C8.1225 27.2221 6.8225 27.2999 6.00027 27.1443C5.57805 27.0777 5.31138 26.9221 5.17805 26.6999C5.05583 26.4777 5.05583 26.0332 5.3225 25.3332C5.45583 24.9554 5.35583 24.4888 5.28916 24.0888C5.23361 23.6443 5.20027 23.2999 5.34472 23.0443C5.5225 22.6665 5.78916 22.5999 6.11138 22.4443C6.44472 22.2999 6.83361 22.2221 7.14472 21.9332V21.9221C7.43361 21.6221 7.64472 21.2554 7.90027 20.9888C8.11138 20.7665 8.3225 20.6221 8.64472 20.6221H8.65583C8.71138 20.6221 8.76694 20.6221 8.83361 20.6332C9.25583 20.6999 9.6225 21.011 9.97805 21.4665L11.0003 23.3221H11.0114C11.2781 23.911 11.8558 24.511 12.3447 25.1443C12.8336 25.811 13.2114 26.3999 13.1669 26.8888V26.8999ZM16.8225 26.1888C15.7225 26.4443 14.5558 26.3665 13.4669 25.7665C13.3336 25.6999 13.2003 25.6221 13.0781 25.5332C12.9558 25.3221 12.8003 25.1221 12.6225 24.9443C12.5407 24.8051 12.4355 24.681 12.3114 24.5777C12.5225 24.5777 12.7003 24.5443 12.8447 24.4999C13.0003 24.4221 13.1336 24.2888 13.1892 24.1332C13.3114 23.8332 13.1892 23.3554 12.8003 22.8332C12.4114 22.3221 11.7558 21.7332 10.8003 21.1443C10.4336 20.911 10.1558 20.6665 9.94472 20.3999C9.73361 20.1443 9.58916 19.8777 9.50027 19.5999C9.3225 18.9999 9.34472 18.3888 9.48916 17.7665C9.65583 17.0332 9.98916 16.3221 10.3114 15.711C10.5336 15.3221 10.7447 14.9777 10.9225 14.6999C11.0336 14.6221 10.9558 14.8332 10.4892 15.711L10.4558 15.7777C10.0114 16.611 9.17805 18.5554 10.3225 20.0665C10.3669 18.9665 10.6114 17.8777 11.0447 16.8665C11.1892 16.5332 11.3781 16.1443 11.5781 15.711C12.2336 14.3221 13.0336 12.5221 13.1114 11.011C13.1669 11.0554 13.3558 11.1665 13.4336 11.2332C13.6781 11.3888 13.8669 11.611 14.1003 11.7554C14.3336 11.9777 14.6336 12.1221 15.0892 12.1221C15.1336 12.1332 15.1669 12.1332 15.2114 12.1332C15.6669 12.1332 16.0336 11.9888 16.3336 11.8332C16.6558 11.6888 16.9114 11.4665 17.1558 11.3888H17.1669C17.6892 11.2443 18.1003 10.9443 18.3447 10.611C18.7447 12.1888 19.6892 14.4777 20.2892 15.5888C20.879 16.6343 21.2991 17.767 21.5336 18.9443C21.7003 18.9332 21.9003 18.9665 22.1114 19.011C22.2003 18.7777 22.2558 18.5443 22.2892 18.311C22.5003 16.7665 21.5225 15.2554 20.9669 14.6888C20.9336 14.6665 20.9003 14.6332 20.878 14.611C20.6336 14.3888 20.6225 14.2332 20.7447 14.2332C20.8225 14.2999 20.8892 14.3665 20.9669 14.4443C21.5892 15.0888 22.3114 16.1221 22.5892 17.2999C22.6781 17.6221 22.7225 17.9665 22.7225 18.311C22.7225 18.5888 22.6892 18.8777 22.6225 19.1554C22.6892 19.1888 22.7669 19.2221 22.8447 19.2332C24.0114 19.8221 24.4336 20.2665 24.2336 20.9332V20.8888H24.0114C24.1781 20.3665 23.8114 19.9665 22.8114 19.5332C21.7892 19.0888 20.9669 19.1554 20.8225 20.0443C20.8114 20.0888 20.8114 20.1221 20.8003 20.1999C20.7225 20.2221 20.6447 20.2554 20.5669 20.2665C20.0892 20.5665 19.8225 21.011 19.6781 21.5888C19.5336 22.1777 19.4892 22.8665 19.4447 23.6665C19.4225 24.0332 19.2558 24.5999 19.0892 25.1665C18.4114 25.6443 17.6447 26.011 16.8225 26.1888ZM26.0447 25.6221C25.3447 26.0665 24.0892 26.411 23.2892 27.3665C22.5892 28.1888 21.7447 28.6332 21.0003 28.6888C20.2558 28.7443 19.6114 28.4665 19.2336 27.6888H19.2225C18.9892 27.2443 19.0892 26.5443 19.2892 25.811C19.4892 25.0665 19.7669 24.311 19.8114 23.6999C19.8447 22.911 19.8892 22.2221 20.0225 21.6888C20.1669 21.1665 20.378 20.7999 20.7447 20.5888L20.8003 20.5665C20.8336 21.2332 21.1781 21.9443 21.7892 22.0999C22.4447 22.2443 23.4003 21.7221 23.8003 21.2443L24.0336 21.2332C24.3892 21.2221 24.6892 21.2443 24.9892 21.5332C25.2225 21.7554 25.3336 22.1221 25.4336 22.511C25.5336 22.9554 25.6114 23.3777 25.8892 23.6888C26.4447 24.2777 26.6225 24.6999 26.6114 24.9554C26.5892 25.2554 26.4003 25.3999 26.0447 25.6221ZM20.9669 14.6888V15.711H20.3558C20.9107 16.7226 21.3078 17.8129 21.5336 18.9443C21.7003 18.9332 21.9003 18.9665 22.1114 19.011C22.2003 18.7777 22.2558 18.5443 22.2892 18.311C22.5003 16.7665 21.5225 15.2554 20.9669 14.6888Z" fill="black"/>
<path d="M18.2885 9.48895V9.64451C18.1996 9.48895 18.0329 9.34451 17.7441 9.20006C17.1441 8.97784 16.8885 8.90007 16.5552 8.67784C16.0218 8.30007 15.5663 8.2334 15.1996 8.2334C14.9996 8.2334 14.8218 8.26673 14.6663 8.30007C14.2218 8.45562 13.9218 8.74451 13.733 8.97784H13.7218C13.6885 9.01118 13.6441 9.04451 13.533 9.12229C13.4107 9.18895 13.233 9.34451 12.9885 9.50006C12.7663 9.64451 12.6885 9.86673 12.7663 10.1667C12.8441 10.3778 13.0885 10.6778 13.5441 10.9556C13.8218 11.1001 14.0107 11.3223 14.233 11.4778C14.3441 11.5556 14.4663 11.6223 14.5996 11.689C14.7552 11.7556 14.9218 11.7778 15.0996 11.7667C15.5774 11.8001 15.9218 11.6223 16.233 11.4667C16.5441 11.3223 16.7996 11.1001 17.1107 10.9556C17.7218 10.7334 18.1663 10.3667 18.2996 10.0112C18.3663 9.84451 18.3663 9.65562 18.2885 9.48895ZM15.4774 8.75562C15.4663 8.7334 15.4885 8.71118 15.4996 8.70007C15.5958 8.66115 15.7034 8.66115 15.7996 8.70007C15.8663 8.70007 15.9774 8.77784 15.9663 8.85562C15.9552 8.91118 15.8663 8.92229 15.8107 8.92229C15.7552 8.92229 15.7107 8.87784 15.6552 8.85562C15.5996 8.8334 15.4885 8.84451 15.4774 8.77784V8.75562ZM14.5218 8.70007C14.6107 8.66673 14.733 8.65562 14.8107 8.70007C14.833 8.71118 14.8552 8.7334 14.8441 8.75562V8.77784H14.8552C14.833 8.84451 14.7218 8.8334 14.6663 8.85562C14.6107 8.87784 14.5663 8.9334 14.5107 8.9334C14.4552 8.9334 14.3663 8.91118 14.3552 8.85562C14.3441 8.77784 14.4552 8.70007 14.5218 8.70007ZM17.4663 10.0223C17.2552 10.1667 16.9441 10.389 16.6885 10.5445C16.1996 10.7667 15.6218 11.1334 15.0107 11.1334C14.4107 11.1334 13.9218 10.8334 13.5774 10.6112C13.3996 10.4667 13.2663 10.3223 13.1552 10.2445C12.9774 10.1001 12.9996 9.87784 13.0774 9.87784C13.1996 9.88895 13.2218 10.0223 13.2996 10.1001C13.4107 10.1667 13.5441 10.3223 13.6996 10.4667C14.033 10.689 14.4663 10.989 15.0107 10.989C15.5552 10.989 16.1996 10.689 16.5885 10.4667C16.7996 10.3223 17.0885 10.1001 17.3107 9.94451C17.4885 9.80006 17.4774 9.65562 17.633 9.65562C17.7774 9.66673 17.6663 9.80007 17.4663 10.0223ZM26.6107 24.9556C26.5885 25.2556 26.3996 25.4001 26.0441 25.6223C25.3441 26.0667 24.0885 26.4112 23.2885 27.3667C22.5885 28.189 21.7441 28.6334 20.9996 28.689C20.2552 28.7445 19.6107 28.4667 19.233 27.689H19.2218C18.9885 27.2445 19.0885 26.5445 19.2885 25.8112C19.4885 25.0667 19.7663 24.3112 19.8107 23.7001C19.8441 22.9112 19.8885 22.2223 20.0218 21.689C20.1663 21.1667 20.3774 20.8001 20.7441 20.589L20.7996 20.5667C20.8329 21.2334 21.1774 21.9445 21.7885 22.1001C22.4441 22.2445 23.3996 21.7223 23.7996 21.2445L24.0329 21.2334C24.3885 21.2223 24.6885 21.2445 24.9885 21.5334C25.2218 21.7556 25.3329 22.1223 25.4329 22.5112C25.5329 22.9556 25.6107 23.3778 25.8885 23.689C26.4441 24.2778 26.6218 24.7001 26.6107 24.9556ZM13.1663 26.889V26.9001C13.0996 27.7223 12.6218 28.1667 11.8996 28.3334C11.1663 28.4778 10.1885 28.3334 9.19962 27.8223C8.12184 27.2223 6.82184 27.3001 5.99962 27.1445C5.5774 27.0778 5.31073 26.9223 5.1774 26.7001C5.05517 26.4778 5.05517 26.0334 5.32184 25.3334C5.45517 24.9556 5.35517 24.489 5.28851 24.089C5.23295 23.6445 5.19962 23.3001 5.34406 23.0445C5.52184 22.6667 5.78851 22.6001 6.11073 22.4445C6.44406 22.3001 6.83295 22.2223 7.14406 21.9334V21.9223C7.43295 21.6223 7.64406 21.2556 7.89962 20.989C8.11073 20.7667 8.32184 20.6223 8.64406 20.6223H8.65517C8.71073 20.6223 8.76628 20.6223 8.83295 20.6334C9.25517 20.7001 9.62184 21.0112 9.9774 21.4667L10.9996 23.3223H11.0107C11.2774 23.9112 11.8552 24.5112 12.3441 25.1445C12.833 25.8112 13.2107 26.4001 13.1663 26.889Z" fill="#F9C105"/>
<path d="M14.8554 8.77799C14.8332 8.84466 14.7221 8.83355 14.6665 8.85577C14.611 8.87799 14.5665 8.93355 14.511 8.93355C14.4554 8.93355 14.3665 8.91132 14.3554 8.85577C14.3443 8.77799 14.4554 8.70021 14.5221 8.70021C14.611 8.66688 14.7332 8.65577 14.811 8.70021C14.8332 8.71132 14.8554 8.73355 14.8443 8.75577V8.77799H14.8554ZM17.4665 10.0224C17.2554 10.1669 16.9443 10.3891 16.6887 10.5447C16.1999 10.7669 15.6221 11.1335 15.011 11.1335C14.411 11.1335 13.9221 10.8335 13.5776 10.6113C13.3999 10.4669 13.2665 10.3224 13.1554 10.2447C12.9776 10.1002 12.9999 9.87799 13.0776 9.87799C13.1999 9.8891 13.2221 10.0224 13.2999 10.1002C13.411 10.1669 13.5443 10.3224 13.6999 10.4669C14.0332 10.6891 14.4665 10.9891 15.011 10.9891C15.5554 10.9891 16.1999 10.6891 16.5887 10.4669C16.7999 10.3224 17.0887 10.1002 17.311 9.94466C17.4887 9.80021 17.4776 9.65577 17.6332 9.65577C17.7776 9.66688 17.6665 9.80021 17.4665 10.0224Z" fill="black"/>
</svg>
