<svg width="61" height="61" viewBox="0 0 61 61" fill="none" xmlns="http://www.w3.org/2000/svg">
<g opacity="0.8">
<path d="M48.5123 0H12.2801C5.49411 0 0 5.4948 0 12.2816V48.526C0 55.3052 5.49411 60.8 12.2801 60.8H48.5199C55.2983 60.8 60.8 55.3052 60.8 48.5184V12.2816C60.7924 5.4948 55.2983 0 48.5123 0Z" fill="url(#paint0_linear_3106_18101)"/>
<path d="M30.1378 13.9684L31.3689 11.8404C32.1288 10.5104 33.8234 10.062 35.1532 10.822C36.483 11.582 36.9314 13.2768 36.1715 14.6068L24.3094 35.142H32.8887C35.6699 35.142 37.2277 38.41 36.0195 40.6748H10.8666C9.33163 40.6748 8.10059 39.4436 8.10059 37.9084C8.10059 36.3732 9.33163 35.142 10.8666 35.142H17.9186L26.9462 19.4936L24.127 14.5992C23.3671 13.2692 23.8154 11.5896 25.1453 10.8144C26.4751 10.0544 28.1545 10.5028 28.9296 11.8328L30.1378 13.9684ZM19.4688 43.5248L16.8091 48.138C16.0492 49.468 14.3546 49.9164 13.0248 49.1564C11.6949 48.3964 11.2466 46.7016 12.0065 45.3716L13.9823 41.9516C16.2164 41.26 18.0325 41.792 19.4688 43.5248ZM42.3723 35.1572H49.5686C51.1036 35.1572 52.3347 36.3884 52.3347 37.9236C52.3347 39.4588 51.1036 40.69 49.5686 40.69H45.5715L48.2692 45.3716C49.0291 46.7016 48.5807 48.3812 47.2509 49.1564C45.9211 49.9164 44.2417 49.468 43.4666 48.138C38.9223 40.2568 35.5104 34.3592 33.2458 30.43C30.9281 26.4324 32.5847 22.4196 34.2185 21.0592C36.0347 24.1752 38.7476 28.8796 42.3723 35.1572Z" fill="white"/>
</g>
<defs>
<linearGradient id="paint0_linear_3106_18101" x1="30.4" y1="0" x2="30.4" y2="60.8" gradientUnits="userSpaceOnUse">
<stop stop-color="#1CC5FC"/>
<stop offset="1" stop-color="#1F73F0"/>
</linearGradient>
</defs>
</svg>
