<svg width="46" height="46" viewBox="0 0 46 46" fill="none" xmlns="http://www.w3.org/2000/svg">
<path d="M36.7034 0H9.29084C4.15673 0 0 4.15725 0 9.292V36.7138C0 41.8428 4.15673 46 9.29084 46H36.7092C41.8375 46 46 41.8428 46 36.708V9.292C45.9943 4.15725 41.8375 0 36.7034 0Z" fill="url(#paint0_linear_8075_26212)"/>
<path d="M22.8018 10.568L23.7332 8.95805C24.3081 7.9518 25.5902 7.61255 26.5963 8.18755C27.6025 8.76255 27.9417 10.0448 27.3668 11.051L18.3921 26.5875H24.8831C26.9873 26.5875 28.1659 29.06 27.2518 30.7735H8.22164C7.06029 30.7735 6.12891 29.842 6.12891 28.6805C6.12891 27.519 7.06029 26.5875 8.22164 26.5875H13.557L20.3871 14.7483L18.2541 11.0453C17.6792 10.039 18.0184 8.7683 19.0245 8.1818C20.0307 7.6068 21.3013 7.94605 21.8877 8.9523L22.8018 10.568ZM14.7298 32.9298L12.7176 36.42C12.1427 37.4263 10.8606 37.7655 9.85444 37.1905C8.84832 36.6155 8.50911 35.3333 9.08404 34.327L10.5789 31.7395C12.2691 31.2163 13.6432 31.6188 14.7298 32.9298ZM32.0582 26.599H37.5027C38.6641 26.599 39.5955 27.5305 39.5955 28.692C39.5955 29.8535 38.6641 30.785 37.5027 30.785H34.4786L36.5196 34.327C37.0945 35.3333 36.7553 36.604 35.7492 37.1905C34.7431 37.7655 33.4725 37.4263 32.8861 36.42C29.448 30.4573 26.8666 25.9953 25.1533 23.0225C23.3997 19.998 24.6531 16.962 25.8892 15.9328C27.2633 18.2903 29.3158 21.8495 32.0582 26.599Z" fill="white"/>
<defs>
<linearGradient id="paint0_linear_8075_26212" x1="23" y1="0" x2="23" y2="46" gradientUnits="userSpaceOnUse">
<stop stop-color="#1CC5FC"/>
<stop offset="1" stop-color="#1F73F0"/>
</linearGradient>
</defs>
</svg>
