<svg width="200" height="201" viewBox="0 0 200 201" fill="none" xmlns="http://www.w3.org/2000/svg">
<g clip-path="url(#clip0_3456_2762)">
<path fill-rule="evenodd" clip-rule="evenodd" d="M40.4772 0.00134277H159.914C182.283 0.00134277 200.421 18.1088 200.451 40.4785V159.915C200.451 182.255 182.344 200.392 159.974 200.392H40.5074H40.4772C18.1074 200.392 0 182.285 0 159.945V40.4785V40.4483C0 18.1088 18.1377 0.00134277 40.4772 0.00134277ZM103.385 39.0276L99.334 46.0409L95.3438 38.9672C92.8347 34.6141 87.212 33.1027 82.859 35.6117C78.506 38.1208 76.9945 43.7132 79.5035 48.0965L88.8142 64.239L59.0684 115.81H35.822C30.7737 115.81 26.6927 119.891 26.6927 124.94C26.6927 129.988 30.7737 134.069 35.822 134.069H118.741C122.732 126.602 117.593 115.841 108.433 115.841H80.1383L119.225 48.1267C119.24 48.1116 119.248 48.0965 119.255 48.0813C119.263 48.0662 119.27 48.0511 119.285 48.036C121.764 43.6527 120.223 38.0603 115.839 35.5815C111.456 33.1027 105.864 34.6444 103.385 39.0276ZM55.4107 158.676L64.1772 143.47C59.4614 137.787 53.476 136.034 46.1 138.301L39.5704 149.546C37.0614 153.93 38.5426 159.522 42.9259 162.031C47.3092 164.54 52.9016 163.059 55.4107 158.676ZM163.39 115.901H139.69C127.75 95.1939 118.772 79.6862 112.756 69.4082C107.375 73.8822 101.904 87.1227 109.552 100.303C114.308 108.512 120.562 119.349 128.327 132.808C132.801 140.561 137.777 149.184 143.257 158.676C145.797 163.059 151.359 164.54 155.742 162.031C160.125 159.492 161.607 153.93 159.098 149.546L150.21 134.129H163.39H163.723C168.741 134.039 172.761 129.897 172.671 124.849C172.58 119.831 168.439 115.81 163.39 115.901Z" fill="url(#paint0_linear_3456_2762)"/>
</g>
<defs>
<linearGradient id="paint0_linear_3456_2762" x1="100.211" y1="0.00134277" x2="100.211" y2="200.422" gradientUnits="userSpaceOnUse">
<stop stop-color="#18BFFB"/>
<stop offset="1" stop-color="#2072F3"/>
</linearGradient>
<clipPath id="clip0_3456_2762">
<rect width="200" height="200.439" fill="white"/>
</clipPath>
</defs>
</svg>
