<svg width="100" height="100" viewBox="0 0 100 100" fill="none" xmlns="http://www.w3.org/2000/svg">
<path d="M94.7789 38.1088L64.1773 33.3808C61.5507 28.3954 52.5941 11.4078 52.5941 11.4078L49.6682 5.88184L35.1483 33.3808L4.52734 38.106L26.3961 59.3692L21.499 89.5296L49.6682 75.6584L77.8392 89.5222L72.9134 59.3692C76.8129 55.5714 90.0994 42.6633 90.7511 42.0289L94.7789 38.1088ZM68.99 58.0038L73.1497 83.1799L49.6682 71.6204L26.1597 83.19L30.3242 58.0038L12.0252 40.2282L37.6111 36.2668L49.6493 13.4589L61.6714 36.2668L87.2748 40.2282L68.99 58.0038Z" fill="#0079C2"/>
<path d="M32.4211 62.6432L40.9133 73.0056L44.556 71.2033L30.4563 45.0029L49.0232 69.0058L49.6607 68.6913L56.1439 71.8875L41.868 43.6858L66.1773 76.8346L69.4759 78.4503L68.9479 75.2457L53.2685 42.3687L66.7404 61.6648L66.0058 57.1727L70.1277 53.1733L64.6788 41.0629L71.7247 51.6296L81.7154 41.9234L59.772 38.5396L49.6607 19.3701L39.5415 38.5396L17.6094 41.9234L33.3139 57.1727L32.4211 62.6432Z" fill="#0079C2"/>
<path d="M31.5255 68.1279L29.8477 78.4587L35.7755 75.5427L31.5255 68.1279Z" fill="#0079C2"/>
</svg>
