<svg width="383" height="225" viewBox="0 0 383 225" fill="none" xmlns="http://www.w3.org/2000/svg">
<rect x="147" y="115" width="63" height="63" rx="31.5" fill="#006BE0" fill-opacity="0.15"/>
<path d="M164.026 159.338L163.761 155.98C163.706 155.284 164.07 154.632 164.512 154.19L174.787 143.915C173.362 139.948 174.368 135.562 177.362 132.568C181.627 128.303 188.443 128.314 192.719 132.59C196.973 136.844 196.984 143.705 192.741 147.947C189.825 150.864 185.692 151.726 181.229 150.334V154.4C181.218 155.494 180.356 156.355 179.273 156.355H174.721V159.338C174.71 160.432 173.882 161.305 172.777 161.305H165.949C164.844 161.305 164.104 160.432 164.026 159.338ZM167.308 158.002L171.44 157.979L171.407 155.295L173.683 153.019L177.914 153.052V148.986L180.555 146.345C183.825 148.533 187.836 148.168 190.399 145.605C193.349 142.655 193.36 137.893 190.388 134.921C187.416 131.949 182.632 131.938 179.682 134.888C177.097 137.473 176.743 141.451 178.654 144.334L167.297 155.692L167.308 158.002ZM185.284 140.026C184.3 139.042 184.311 137.44 185.284 136.468C186.278 135.474 187.847 135.474 188.841 136.468C189.825 137.451 189.825 139.042 188.841 140.026C187.869 140.998 186.267 141.009 185.284 140.026Z" fill="#006BE0"/>
<rect x="58" y="165" width="49" height="49" rx="24.5" fill="#E9EEF7" fill-opacity="0.05"/>
<rect x="58" y="165" width="49" height="49" rx="24.5" fill="url(#paint0_linear_18_20409)" fill-opacity="0.05"/>
<rect x="75" y="32" width="61" height="61" rx="30.5" fill="#E9EEF7" fill-opacity="0.05"/>
<rect x="75" y="32" width="61" height="61" rx="30.5" fill="url(#paint1_linear_18_20409)" fill-opacity="0.05"/>
<rect x="271" y="151" width="54" height="54" rx="27" fill="#E9EEF7" fill-opacity="0.05"/>
<rect x="271" y="151" width="54" height="54" rx="27" fill="url(#paint2_linear_18_20409)" fill-opacity="0.05"/>
<rect x="221" y="39" width="74" height="74" rx="37" fill="#E9EEF7" fill-opacity="0.05"/>
<rect x="221" y="39" width="74" height="74" rx="37" fill="url(#paint3_linear_18_20409)" fill-opacity="0.05"/>
<path d="M249.298 94.6016C246.478 94.6016 245.012 93.0986 245.012 90.0557V76.9189C245.012 74.2285 246.181 72.7441 248.407 72.4473V68.0312C248.407 61.1846 252.935 57.6406 258 57.6406C263.065 57.6406 267.593 61.1846 267.593 68.0312V72.4473C269.819 72.7441 270.97 74.2285 270.97 76.9189V90.0557C270.97 93.0986 269.504 94.6016 266.684 94.6016H249.298ZM251.877 67.6973V72.3916H264.123V67.6973C264.123 63.3555 261.303 60.9805 258 60.9805C254.679 60.9805 251.877 63.3555 251.877 67.6973ZM249.836 91.2803H266.164C266.943 91.2803 267.37 90.8164 267.37 89.9258V77.0488C267.37 76.1582 266.943 75.7129 266.164 75.7129H249.836C249.075 75.7129 248.611 76.1582 248.611 77.0488V89.9258C248.611 90.8164 249.075 91.2803 249.836 91.2803Z" fill="white" fill-opacity="0.5"/>
<path d="M98.1719 77.875C95.7969 77.875 94.5625 76.6094 94.5625 74.0469V62.9844C94.5625 60.7188 95.5469 59.4688 97.4219 59.2188V55.5C97.4219 49.7344 101.234 46.75 105.5 46.75C109.766 46.75 113.578 49.7344 113.578 55.5V59.2188C115.453 59.4688 116.422 60.7188 116.422 62.9844V74.0469C116.422 76.6094 115.188 77.875 112.812 77.875H98.1719ZM100.344 55.2188V59.1719H110.656V55.2188C110.656 51.5625 108.281 49.5625 105.5 49.5625C102.703 49.5625 100.344 51.5625 100.344 55.2188ZM98.625 75.0781H112.375C113.031 75.0781 113.391 74.6875 113.391 73.9375V63.0938C113.391 62.3438 113.031 61.9688 112.375 61.9688H98.625C97.9844 61.9688 97.5938 62.3438 97.5938 63.0938V73.9375C97.5938 74.6875 97.9844 75.0781 98.625 75.0781Z" fill="white" fill-opacity="0.5"/>
<path d="M291.359 191.512C289.207 191.512 288.088 190.365 288.088 188.042V178.017C288.088 175.964 288.98 174.831 290.679 174.604V171.234C290.679 166.009 294.134 163.305 298 163.305C301.866 163.305 305.321 166.009 305.321 171.234V174.604C307.02 174.831 307.898 175.964 307.898 178.017V188.042C307.898 190.365 306.779 191.512 304.627 191.512H291.359ZM293.327 170.979V174.562H302.673V170.979C302.673 167.666 300.521 165.854 298 165.854C295.465 165.854 293.327 167.666 293.327 170.979ZM291.77 188.977H304.23C304.825 188.977 305.151 188.623 305.151 187.943V178.116C305.151 177.437 304.825 177.097 304.23 177.097H291.77C291.189 177.097 290.835 177.437 290.835 178.116V187.943C290.835 188.623 291.189 188.977 291.77 188.977Z" fill="white" fill-opacity="0.5"/>
<path d="M76.5039 200.906C74.7227 200.906 73.7969 199.957 73.7969 198.035V189.738C73.7969 188.039 74.5352 187.102 75.9414 186.914V184.125C75.9414 179.801 78.8008 177.562 82 177.562C85.1992 177.562 88.0586 179.801 88.0586 184.125V186.914C89.4648 187.102 90.1914 188.039 90.1914 189.738V198.035C90.1914 199.957 89.2656 200.906 87.4844 200.906H76.5039ZM78.1328 183.914V186.879H85.8672V183.914C85.8672 181.172 84.0859 179.672 82 179.672C79.9023 179.672 78.1328 181.172 78.1328 183.914ZM76.8438 198.809H87.1562C87.6484 198.809 87.918 198.516 87.918 197.953V189.82C87.918 189.258 87.6484 188.977 87.1562 188.977H76.8438C76.3633 188.977 76.0703 189.258 76.0703 189.82V197.953C76.0703 198.516 76.3633 198.809 76.8438 198.809Z" fill="white" fill-opacity="0.5"/>
<path d="M154 119L128 91" stroke="white" stroke-opacity="0.05" stroke-width="2" stroke-linecap="round"/>
<path d="M206 122L226 104" stroke="white" stroke-opacity="0.05" stroke-width="2" stroke-linecap="round"/>
<path d="M215 155L265 170" stroke="white" stroke-opacity="0.05" stroke-width="2" stroke-linecap="round"/>
<path d="M110 178L145 162" stroke="white" stroke-opacity="0.05" stroke-width="2" stroke-linecap="round"/>
<defs>
<linearGradient id="paint0_linear_18_20409" x1="12.1111" y1="159.556" x2="61.178" y2="112.76" gradientUnits="userSpaceOnUse">
<stop stop-color="#808080" stop-opacity="0.8"/>
<stop offset="0.175288" stop-color="#808080" stop-opacity="0.5"/>
<stop offset="0.553328" stop-color="#808080" stop-opacity="0.8"/>
<stop offset="0.897554" stop-color="#808080" stop-opacity="0.5"/>
<stop offset="1" stop-color="#808080" stop-opacity="0.8"/>
</linearGradient>
<linearGradient id="paint1_linear_18_20409" x1="17.873" y1="25.2222" x2="78.9562" y2="-33.0337" gradientUnits="userSpaceOnUse">
<stop stop-color="#808080" stop-opacity="0.8"/>
<stop offset="0.175288" stop-color="#808080" stop-opacity="0.5"/>
<stop offset="0.553328" stop-color="#808080" stop-opacity="0.8"/>
<stop offset="0.897554" stop-color="#808080" stop-opacity="0.5"/>
<stop offset="1" stop-color="#808080" stop-opacity="0.8"/>
</linearGradient>
<linearGradient id="paint2_linear_18_20409" x1="220.429" y1="145" x2="274.502" y2="93.4292" gradientUnits="userSpaceOnUse">
<stop stop-color="#808080" stop-opacity="0.8"/>
<stop offset="0.175288" stop-color="#808080" stop-opacity="0.5"/>
<stop offset="0.553328" stop-color="#808080" stop-opacity="0.8"/>
<stop offset="0.897554" stop-color="#808080" stop-opacity="0.5"/>
<stop offset="1" stop-color="#808080" stop-opacity="0.8"/>
</linearGradient>
<linearGradient id="paint3_linear_18_20409" x1="151.698" y1="30.7778" x2="225.799" y2="-39.8934" gradientUnits="userSpaceOnUse">
<stop stop-color="#808080" stop-opacity="0.8"/>
<stop offset="0.175288" stop-color="#808080" stop-opacity="0.5"/>
<stop offset="0.553328" stop-color="#808080" stop-opacity="0.8"/>
<stop offset="0.897554" stop-color="#808080" stop-opacity="0.5"/>
<stop offset="1" stop-color="#808080" stop-opacity="0.8"/>
</linearGradient>
</defs>
</svg>
