<svg width="366" height="222" viewBox="0 0 366 222" fill="none" xmlns="http://www.w3.org/2000/svg">
<path d="M183.5 201C181.894 201 179.645 200.44 177.557 199.319C131.462 175.307 115 162.821 115 134.167V75.9783C115 64.7727 118.774 60.1304 128.572 56.0484C136.361 52.8468 165.03 43.002 172.418 40.7609C175.871 39.8004 180.047 39 183.5 39C186.953 39 191.209 39.7204 194.662 40.7609C201.97 43.082 230.639 52.8468 238.428 56.0484C248.306 60.2105 252 64.7727 252 75.9783V134.167C252 162.821 236.019 176.108 189.523 199.319C187.355 200.36 185.106 201 183.5 201Z" fill="#E9EEF7" fill-opacity="0.05"/>
<path d="M183.5 201C181.894 201 179.645 200.44 177.557 199.319C131.462 175.307 115 162.821 115 134.167V75.9783C115 64.7727 118.774 60.1304 128.572 56.0484C136.361 52.8468 165.03 43.002 172.418 40.7609C175.871 39.8004 180.047 39 183.5 39C186.953 39 191.209 39.7204 194.662 40.7609C201.97 43.082 230.639 52.8468 238.428 56.0484C248.306 60.2105 252 64.7727 252 75.9783V134.167C252 162.821 236.019 176.108 189.523 199.319C187.355 200.36 185.106 201 183.5 201Z" fill="url(#paint0_linear_23_20484)" fill-opacity="0.05"/>
<path d="M163.285 96.5703C156.4 96.5703 150.658 90.8574 150.658 83.9727C150.658 77.0586 156.371 71.3164 163.285 71.3164C170.17 71.3164 175.912 77.0586 175.912 83.9727C175.912 90.8574 170.17 96.5703 163.285 96.5703ZM161.791 90.7402C162.436 90.7402 162.963 90.4473 163.285 89.9199L169.408 80.3105C169.672 79.8711 169.789 79.5195 169.789 79.1094C169.789 78.377 169.086 77.7324 168.266 77.7324C167.738 77.7324 167.299 78.0254 166.947 78.5527L161.732 86.9316L159.447 84.0312C159.066 83.5332 158.656 83.2988 158.1 83.2988C157.309 83.2988 156.664 83.9727 156.664 84.8223C156.664 85.291 156.752 85.6426 157.045 85.9648L160.326 89.9199C160.766 90.418 161.176 90.7402 161.791 90.7402ZM184.672 86.1992C183.441 86.1992 182.445 85.2324 182.445 83.9727C182.445 82.7422 183.441 81.7754 184.672 81.7754H214.086C215.316 81.7754 216.342 82.7422 216.342 83.9727C216.342 85.2324 215.316 86.1992 214.086 86.1992H184.672ZM163.285 130.496C156.4 130.496 150.658 124.783 150.658 117.898C150.658 110.955 156.371 105.213 163.285 105.213C170.17 105.213 175.912 110.955 175.912 117.898C175.912 124.783 170.17 130.496 163.285 130.496ZM161.791 124.666C162.436 124.666 162.963 124.373 163.285 123.816L169.408 114.207C169.672 113.768 169.789 113.445 169.789 113.035C169.789 112.273 169.086 111.629 168.266 111.629C167.738 111.629 167.299 111.922 166.947 112.479L161.732 120.857L159.447 117.957C159.066 117.43 158.656 117.225 158.1 117.225C157.309 117.225 156.664 117.869 156.664 118.719C156.664 119.188 156.752 119.539 157.045 119.861L160.326 123.846C160.766 124.314 161.176 124.666 161.791 124.666ZM184.672 120.066C183.441 120.066 182.445 119.1 182.445 117.869C182.445 116.609 183.441 115.643 184.672 115.643H214.086C215.316 115.643 216.342 116.609 216.342 117.869C216.342 119.1 215.316 120.066 214.086 120.066H184.672Z" fill="white" fill-opacity="0.5"/>
<path d="M182.445 151.869C182.445 153.1 183.441 154.066 184.672 154.066H214.086C215.316 154.066 216.342 153.1 216.342 151.869C216.342 150.609 215.316 149.643 214.086 149.643H184.672C183.441 149.643 182.445 150.609 182.445 151.869Z" fill="white" fill-opacity="0.5"/>
<path fill-rule="evenodd" clip-rule="evenodd" d="M163.285 164.496C156.4 164.496 150.658 158.783 150.658 151.898C150.658 144.955 156.371 139.213 163.285 139.213C170.17 139.213 175.912 144.955 175.912 151.898C175.912 158.783 170.17 164.496 163.285 164.496ZM163.285 157.816C162.963 158.373 162.436 158.666 161.791 158.666C161.176 158.666 160.766 158.314 160.326 157.846L157.045 153.861C156.752 153.539 156.664 153.188 156.664 152.719C156.664 151.869 157.309 151.225 158.1 151.225C158.656 151.225 159.066 151.43 159.447 151.957L161.732 154.857L166.947 146.479C167.299 145.922 167.738 145.629 168.266 145.629C169.086 145.629 169.789 146.273 169.789 147.035C169.789 147.445 169.672 147.768 169.408 148.207L163.285 157.816Z" fill="white" fill-opacity="0.5"/>
<defs>
<linearGradient id="paint0_linear_23_20484" x1="-101.064" y1="-22.0524" x2="124.776" y2="-208.246" gradientUnits="userSpaceOnUse">
<stop stop-color="#808080" stop-opacity="0.8"/>
<stop offset="0.175288" stop-color="#808080" stop-opacity="0.5"/>
<stop offset="0.553328" stop-color="#808080" stop-opacity="0.8"/>
<stop offset="0.897554" stop-color="#808080" stop-opacity="0.5"/>
<stop offset="1" stop-color="#808080" stop-opacity="0.8"/>
</linearGradient>
</defs>
</svg>
