<svg width="366" height="222" viewBox="0 0 366 222" fill="none" xmlns="http://www.w3.org/2000/svg">
<rect x="139" y="107" width="63" height="63" rx="31.5" fill="#006BE0" fill-opacity="0.15"/>
<path d="M156.025 151.338L155.76 147.98C155.705 147.283 156.07 146.632 156.512 146.19L166.787 135.915C165.361 131.948 166.367 127.562 169.361 124.568C173.626 120.303 180.443 120.314 184.719 124.59C188.972 128.843 188.983 135.705 184.741 139.947C181.824 142.864 177.692 143.726 173.228 142.334V146.4C173.217 147.493 172.355 148.355 171.272 148.355H166.72V151.338C166.709 152.432 165.881 153.305 164.776 153.305L157.948 153.305C156.843 153.305 156.103 152.432 156.025 151.338ZM159.307 150.001L163.439 149.979L163.406 147.295L165.682 145.019L169.913 145.052V140.986L172.554 138.345C175.824 140.533 179.835 140.168 182.398 137.605C185.348 134.655 185.359 129.893 182.387 126.921C179.415 123.949 174.631 123.938 171.681 126.888C169.096 129.473 168.742 133.451 170.654 136.334L159.296 147.692L159.307 150.001ZM177.283 132.025C176.3 131.042 176.311 129.44 177.283 128.468C178.277 127.473 179.846 127.473 180.84 128.468C181.824 129.451 181.824 131.042 180.84 132.025C179.868 132.998 178.266 133.009 177.283 132.025Z" fill="#006BE0"/>
<rect x="50" y="157" width="49" height="49" rx="24.5" fill="#E9EEF7" fill-opacity="0.05"/>
<rect x="50" y="157" width="49" height="49" rx="24.5" fill="url(#paint0_linear_23_20452)" fill-opacity="0.05"/>
<rect x="67" y="24" width="61" height="61" rx="30.5" fill="#E9EEF7" fill-opacity="0.05"/>
<rect x="67" y="24" width="61" height="61" rx="30.5" fill="url(#paint1_linear_23_20452)" fill-opacity="0.05"/>
<rect x="263" y="143" width="54" height="54" rx="27" fill="#E9EEF7" fill-opacity="0.05"/>
<rect x="263" y="143" width="54" height="54" rx="27" fill="url(#paint2_linear_23_20452)" fill-opacity="0.05"/>
<rect x="213" y="31" width="74" height="74" rx="37" fill="#E9EEF7" fill-opacity="0.05"/>
<rect x="213" y="31" width="74" height="74" rx="37" fill="url(#paint3_linear_23_20452)" fill-opacity="0.05"/>
<path d="M241.279 86.7129C238.403 86.7129 236.993 85.2842 236.993 82.167V68.9746C236.993 66.21 238.106 64.7812 240.37 64.4844V60.1611C240.37 53.1104 245.064 49.7148 250 49.7148C254.936 49.7148 259.63 53.1104 259.63 60.1611V64.4844C261.894 64.7812 263.007 66.21 263.007 68.9746V82.167C263.007 85.2842 261.597 86.7129 258.721 86.7129H241.279ZM243.933 59.8271V64.4287H256.067V59.8271C256.067 55.5039 253.303 53.1289 250 53.1289C246.679 53.1289 243.933 55.5039 243.933 59.8271ZM241.873 83.3545H258.146C258.962 83.3545 259.352 82.9648 259.352 82V69.1416C259.352 68.1582 258.962 67.8057 258.146 67.8057H241.873C241.057 67.8057 240.648 68.1582 240.648 69.1416V82C240.648 82.9648 241.057 83.3545 241.873 83.3545Z" fill="white" fill-opacity="0.5"/>
<path d="M90.1562 69.9688C87.7344 69.9688 86.5469 68.7656 86.5469 66.1406V55.0312C86.5469 52.7031 87.4844 51.5 89.3906 51.25V47.6094C89.3906 41.6719 93.3438 38.8125 97.5 38.8125C101.656 38.8125 105.609 41.6719 105.609 47.6094V51.25C107.516 51.5 108.453 52.7031 108.453 55.0312V66.1406C108.453 68.7656 107.266 69.9688 104.844 69.9688H90.1562ZM92.3906 47.3281V51.2031H102.609V47.3281C102.609 43.6875 100.281 41.6875 97.5 41.6875C94.7031 41.6875 92.3906 43.6875 92.3906 47.3281ZM90.6562 67.1406H104.359C105.047 67.1406 105.375 66.8125 105.375 66V55.1719C105.375 54.3438 105.047 54.0469 104.359 54.0469H90.6562C89.9688 54.0469 89.625 54.3438 89.625 55.1719V66C89.625 66.8125 89.9688 67.1406 90.6562 67.1406Z" fill="white" fill-opacity="0.5"/>
<path d="M283.345 183.597C281.15 183.597 280.074 182.506 280.074 180.127V170.06C280.074 167.95 280.923 166.859 282.651 166.633V163.333C282.651 157.953 286.233 155.361 290 155.361C293.767 155.361 297.349 157.953 297.349 163.333V166.633C299.077 166.859 299.926 167.95 299.926 170.06V180.127C299.926 182.506 298.85 183.597 296.655 183.597H283.345ZM285.37 163.079V166.59H294.63V163.079C294.63 159.779 292.521 157.967 290 157.967C287.465 157.967 285.37 159.779 285.37 163.079ZM283.798 181.034H296.216C296.839 181.034 297.137 180.736 297.137 180V170.187C297.137 169.437 296.839 169.167 296.216 169.167H283.798C283.175 169.167 282.863 169.437 282.863 170.187V180C282.863 180.736 283.175 181.034 283.798 181.034Z" fill="white" fill-opacity="0.5"/>
<path d="M68.4922 192.977C66.6758 192.977 65.7852 192.074 65.7852 190.105V181.773C65.7852 180.027 66.4883 179.125 67.918 178.938V176.207C67.918 171.754 70.8828 169.609 74 169.609C77.1172 169.609 80.082 171.754 80.082 176.207V178.938C81.5117 179.125 82.2148 180.027 82.2148 181.773V190.105C82.2148 192.074 81.3242 192.977 79.5078 192.977H68.4922ZM70.168 175.996V178.902H77.832V175.996C77.832 173.266 76.0859 171.766 74 171.766C71.9023 171.766 70.168 173.266 70.168 175.996ZM68.8672 190.855H79.1445C79.6602 190.855 79.9062 190.609 79.9062 190V181.879C79.9062 181.258 79.6602 181.035 79.1445 181.035H68.8672C68.3516 181.035 68.0938 181.258 68.0938 181.879V190C68.0938 190.609 68.3516 190.855 68.8672 190.855Z" fill="white" fill-opacity="0.5"/>
<path d="M146 111L120 83" stroke="white" stroke-opacity="0.05" stroke-width="2" stroke-linecap="round"/>
<path d="M198 114L218 96" stroke="white" stroke-opacity="0.05" stroke-width="2" stroke-linecap="round"/>
<path d="M207 147L257 162" stroke="white" stroke-opacity="0.05" stroke-width="2" stroke-linecap="round"/>
<path d="M102 170L137 154" stroke="white" stroke-opacity="0.05" stroke-width="2" stroke-linecap="round"/>
<defs>
<linearGradient id="paint0_linear_23_20452" x1="4.11112" y1="151.556" x2="53.178" y2="104.76" gradientUnits="userSpaceOnUse">
<stop stop-color="#808080" stop-opacity="0.8"/>
<stop offset="0.175288" stop-color="#808080" stop-opacity="0.5"/>
<stop offset="0.553328" stop-color="#808080" stop-opacity="0.8"/>
<stop offset="0.897554" stop-color="#808080" stop-opacity="0.5"/>
<stop offset="1" stop-color="#808080" stop-opacity="0.8"/>
</linearGradient>
<linearGradient id="paint1_linear_23_20452" x1="9.87302" y1="17.2222" x2="70.9562" y2="-41.0337" gradientUnits="userSpaceOnUse">
<stop stop-color="#808080" stop-opacity="0.8"/>
<stop offset="0.175288" stop-color="#808080" stop-opacity="0.5"/>
<stop offset="0.553328" stop-color="#808080" stop-opacity="0.8"/>
<stop offset="0.897554" stop-color="#808080" stop-opacity="0.5"/>
<stop offset="1" stop-color="#808080" stop-opacity="0.8"/>
</linearGradient>
<linearGradient id="paint2_linear_23_20452" x1="212.429" y1="137" x2="266.502" y2="85.4292" gradientUnits="userSpaceOnUse">
<stop stop-color="#808080" stop-opacity="0.8"/>
<stop offset="0.175288" stop-color="#808080" stop-opacity="0.5"/>
<stop offset="0.553328" stop-color="#808080" stop-opacity="0.8"/>
<stop offset="0.897554" stop-color="#808080" stop-opacity="0.5"/>
<stop offset="1" stop-color="#808080" stop-opacity="0.8"/>
</linearGradient>
<linearGradient id="paint3_linear_23_20452" x1="143.698" y1="22.7778" x2="217.799" y2="-47.8934" gradientUnits="userSpaceOnUse">
<stop stop-color="#808080" stop-opacity="0.8"/>
<stop offset="0.175288" stop-color="#808080" stop-opacity="0.5"/>
<stop offset="0.553328" stop-color="#808080" stop-opacity="0.8"/>
<stop offset="0.897554" stop-color="#808080" stop-opacity="0.5"/>
<stop offset="1" stop-color="#808080" stop-opacity="0.8"/>
</linearGradient>
</defs>
</svg>
