<svg width="366" height="222" viewBox="0 0 366 222" fill="none" xmlns="http://www.w3.org/2000/svg">
<rect x="53" y="50" width="140" height="140" rx="70" fill="#E9EEF7" fill-opacity="0.05"/>
<rect x="53" y="50" width="140" height="140" rx="70" fill="url(#paint0_linear_23_20477)" fill-opacity="0.05"/>
<path d="M90.1611 121.835C90.1611 120.125 91.1669 118.943 93.0778 118.566C96.2459 118.013 97.5282 116.429 97.5282 112.506V106.095C97.5282 98.8786 100.847 95.5345 107.862 95.5345C108.491 95.5345 109.019 95.6099 109.471 95.7608C110.653 96.1379 111.232 96.9174 111.232 97.9734C111.232 99.0797 110.729 99.7586 109.798 100.06C109.522 100.161 109.145 100.236 108.742 100.261C104.719 100.563 103.236 102.273 103.236 106.749V114.518C103.236 118.843 100.797 121.332 96.6734 121.759C96.4974 121.759 96.4974 121.986 96.6734 121.986C100.797 122.413 103.236 124.902 103.236 129.227V136.996C103.236 141.447 104.719 143.182 108.742 143.509C109.069 143.534 109.346 143.584 109.622 143.634C110.704 143.936 111.232 144.59 111.232 145.746C111.232 146.802 110.653 147.632 109.471 148.009C109.094 148.11 108.591 148.185 108.063 148.185C100.872 148.185 97.5282 144.892 97.5282 137.675V131.238C97.5282 127.316 96.2711 125.707 93.0778 125.154C91.1669 124.802 90.1611 123.595 90.1611 121.835ZM155.987 121.835C155.987 123.595 154.982 124.802 153.071 125.154C149.877 125.707 148.62 127.316 148.62 131.238V137.675C148.62 144.892 145.301 148.185 138.085 148.185C137.582 148.185 137.054 148.11 136.677 148.009C135.495 147.632 134.917 146.802 134.917 145.746C134.917 144.59 135.445 143.936 136.526 143.634C136.803 143.584 137.079 143.534 137.406 143.509C141.429 143.182 142.913 141.447 142.913 136.996V129.227C142.913 124.902 145.352 122.413 149.475 121.986C149.651 121.986 149.651 121.759 149.475 121.759C145.352 121.332 142.913 118.843 142.913 114.518V106.749C142.913 102.273 141.429 100.563 137.406 100.261C137.004 100.236 136.627 100.161 136.35 100.06C135.42 99.7586 134.917 99.0797 134.917 97.9734C134.917 96.9174 135.495 96.1379 136.677 95.7608C137.13 95.6099 137.658 95.5345 138.286 95.5345C145.301 95.5345 148.62 98.8786 148.62 106.095V112.506C148.62 116.429 149.903 118.013 153.071 118.566C154.982 118.943 155.987 120.125 155.987 121.835ZM111.382 125.606C109.295 125.606 107.586 123.897 107.586 121.81C107.586 119.748 109.295 118.038 111.382 118.038C113.419 118.038 115.154 119.748 115.154 121.81C115.154 123.897 113.444 125.606 111.382 125.606ZM123.175 125.606C121.088 125.606 119.403 123.897 119.403 121.81C119.403 119.748 121.088 118.038 123.175 118.038C125.237 118.038 126.946 119.748 126.946 121.81C126.946 123.897 125.237 125.606 123.175 125.606ZM134.967 125.606C132.88 125.606 131.196 123.897 131.196 121.81C131.196 119.748 132.88 118.038 134.967 118.038C137.029 118.038 138.739 119.748 138.739 121.81C138.739 123.897 137.029 125.606 134.967 125.606Z" fill="white" fill-opacity="0.5"/>
<circle cx="243.689" cy="120" r="70.8046" fill="#191919" stroke="#191919" stroke-width="1.6092"/>
<path fill-rule="evenodd" clip-rule="evenodd" d="M243.747 50C205.007 50 173.689 81.354 173.689 120.143C173.689 151.15 193.756 177.396 221.593 186.685C225.073 187.383 226.348 185.176 226.348 183.319C226.348 181.693 226.234 176.119 226.234 170.311C206.745 174.493 202.687 161.95 202.687 161.95C199.555 153.82 194.914 151.731 194.914 151.731C188.536 147.434 195.379 147.434 195.379 147.434C202.455 147.899 206.167 154.634 206.167 154.634C212.43 165.317 222.521 162.299 226.581 160.44C227.16 155.911 229.017 152.776 230.989 151.034C215.445 149.408 199.092 143.369 199.092 116.426C199.092 108.762 201.874 102.491 206.282 97.614C205.587 95.8724 203.15 88.6709 206.979 79.0324C206.979 79.0324 212.894 77.174 226.232 86.2324C231.943 84.697 237.832 83.916 243.747 83.9094C249.663 83.9094 255.693 84.7232 261.261 86.2324C274.6 77.174 280.516 79.0324 280.516 79.0324C284.345 88.6709 281.907 95.8724 281.211 97.614C285.736 102.491 288.403 108.762 288.403 116.426C288.403 143.369 272.049 149.291 256.39 151.034C258.942 153.24 261.145 157.42 261.145 164.04C261.145 173.447 261.03 180.996 261.03 183.317C261.03 185.176 262.307 187.383 265.785 186.686C293.623 177.394 313.689 151.15 313.689 120.143C313.804 81.354 282.371 50 243.747 50Z" fill="#282828"/>
<defs>
<linearGradient id="paint0_linear_23_20477" x1="-78.1111" y1="34.4444" x2="62.0799" y2="-99.2577" gradientUnits="userSpaceOnUse">
<stop stop-color="#808080" stop-opacity="0.8"/>
<stop offset="0.175288" stop-color="#808080" stop-opacity="0.5"/>
<stop offset="0.553328" stop-color="#808080" stop-opacity="0.8"/>
<stop offset="0.897554" stop-color="#808080" stop-opacity="0.5"/>
<stop offset="1" stop-color="#808080" stop-opacity="0.8"/>
</linearGradient>
</defs>
</svg>
