<svg width="383" height="225" viewBox="0 0 383 225" fill="none" xmlns="http://www.w3.org/2000/svg">
<path d="M191.5 198C189.894 198 187.645 197.44 185.557 196.319C139.462 172.307 123 159.821 123 131.167V72.9783C123 61.7727 126.774 57.1304 136.572 53.0484C144.361 49.8468 173.03 40.002 180.418 37.7609C183.871 36.8004 188.047 36 191.5 36C194.953 36 199.209 36.7204 202.662 37.7609C209.97 40.082 238.639 49.8468 246.428 53.0484C256.306 57.2105 260 61.7727 260 72.9783V131.167C260 159.821 244.019 173.108 197.523 196.319C195.355 197.36 193.106 198 191.5 198Z" fill="#E9EEF7" fill-opacity="0.05"/>
<path d="M191.5 198C189.894 198 187.645 197.44 185.557 196.319C139.462 172.307 123 159.821 123 131.167V72.9783C123 61.7727 126.774 57.1304 136.572 53.0484C144.361 49.8468 173.03 40.002 180.418 37.7609C183.871 36.8004 188.047 36 191.5 36C194.953 36 199.209 36.7204 202.662 37.7609C209.97 40.082 238.639 49.8468 246.428 53.0484C256.306 57.2105 260 61.7727 260 72.9783V131.167C260 159.821 244.019 173.108 197.523 196.319C195.355 197.36 193.106 198 191.5 198Z" fill="url(#paint0_linear_18_20441)" fill-opacity="0.05"/>
<path d="M171.285 93.5703C164.4 93.5703 158.658 87.8574 158.658 80.9727C158.658 74.0586 164.371 68.3164 171.285 68.3164C178.17 68.3164 183.912 74.0586 183.912 80.9727C183.912 87.8574 178.17 93.5703 171.285 93.5703ZM169.791 87.7402C170.436 87.7402 170.963 87.4473 171.285 86.9199L177.408 77.3105C177.672 76.8711 177.789 76.5195 177.789 76.1094C177.789 75.377 177.086 74.7324 176.266 74.7324C175.738 74.7324 175.299 75.0254 174.947 75.5527L169.732 83.9316L167.447 81.0312C167.066 80.5332 166.656 80.2988 166.1 80.2988C165.309 80.2988 164.664 80.9727 164.664 81.8223C164.664 82.291 164.752 82.6426 165.045 82.9648L168.326 86.9199C168.766 87.418 169.176 87.7402 169.791 87.7402ZM192.672 83.1992C191.441 83.1992 190.445 82.2324 190.445 80.9727C190.445 79.7422 191.441 78.7754 192.672 78.7754H222.086C223.316 78.7754 224.342 79.7422 224.342 80.9727C224.342 82.2324 223.316 83.1992 222.086 83.1992H192.672ZM171.285 127.496C164.4 127.496 158.658 121.783 158.658 114.898C158.658 107.955 164.371 102.213 171.285 102.213C178.17 102.213 183.912 107.955 183.912 114.898C183.912 121.783 178.17 127.496 171.285 127.496ZM169.791 121.666C170.436 121.666 170.963 121.373 171.285 120.816L177.408 111.207C177.672 110.768 177.789 110.445 177.789 110.035C177.789 109.273 177.086 108.629 176.266 108.629C175.738 108.629 175.299 108.922 174.947 109.479L169.732 117.857L167.447 114.957C167.066 114.43 166.656 114.225 166.1 114.225C165.309 114.225 164.664 114.869 164.664 115.719C164.664 116.188 164.752 116.539 165.045 116.861L168.326 120.846C168.766 121.314 169.176 121.666 169.791 121.666ZM192.672 117.066C191.441 117.066 190.445 116.1 190.445 114.869C190.445 113.609 191.441 112.643 192.672 112.643H222.086C223.316 112.643 224.342 113.609 224.342 114.869C224.342 116.1 223.316 117.066 222.086 117.066H192.672Z" fill="white" fill-opacity="0.5"/>
<path d="M190.445 148.869C190.445 150.1 191.441 151.066 192.672 151.066H222.086C223.316 151.066 224.342 150.1 224.342 148.869C224.342 147.609 223.316 146.643 222.086 146.643H192.672C191.441 146.643 190.445 147.609 190.445 148.869Z" fill="white" fill-opacity="0.5"/>
<path fill-rule="evenodd" clip-rule="evenodd" d="M171.285 161.496C164.4 161.496 158.658 155.783 158.658 148.898C158.658 141.955 164.371 136.213 171.285 136.213C178.17 136.213 183.912 141.955 183.912 148.898C183.912 155.783 178.17 161.496 171.285 161.496ZM171.285 154.816C170.963 155.373 170.436 155.666 169.791 155.666C169.176 155.666 168.766 155.314 168.326 154.846L165.045 150.861C164.752 150.539 164.664 150.188 164.664 149.719C164.664 148.869 165.309 148.225 166.1 148.225C166.656 148.225 167.066 148.43 167.447 148.957L169.732 151.857L174.947 143.479C175.299 142.922 175.738 142.629 176.266 142.629C177.086 142.629 177.789 143.273 177.789 144.035C177.789 144.445 177.672 144.768 177.408 145.207L171.285 154.816Z" fill="white" fill-opacity="0.5"/>
<defs>
<linearGradient id="paint0_linear_18_20441" x1="-93.064" y1="-25.0524" x2="132.776" y2="-211.246" gradientUnits="userSpaceOnUse">
<stop stop-color="#808080" stop-opacity="0.8"/>
<stop offset="0.175288" stop-color="#808080" stop-opacity="0.5"/>
<stop offset="0.553328" stop-color="#808080" stop-opacity="0.8"/>
<stop offset="0.897554" stop-color="#808080" stop-opacity="0.5"/>
<stop offset="1" stop-color="#808080" stop-opacity="0.8"/>
</linearGradient>
</defs>
</svg>
