<svg width="80" height="80" viewBox="0 0 80 80" fill="none" xmlns="http://www.w3.org/2000/svg">
<path fill-rule="evenodd" clip-rule="evenodd" d="M15.0098 0.000976562C6.72549 0.000976562 0.00976562 6.71671 0.00976562 15.001V65.001C0.00976562 73.2852 6.72549 80.001 15.0098 80.001H65.0098C73.294 80.001 80.0098 73.2852 80.0098 65.001V15.001C80.0098 6.71671 73.294 0.000976562 65.0098 0.000976562H15.0098ZM21.4164 60.2332L37.4716 14.8959C38.3078 12.5346 41.7076 12.5347 42.5438 14.8959L58.5989 60.2332C59.4696 62.6919 56.5721 64.7714 54.4518 63.2095L41.6188 53.756C40.664 53.0527 39.3513 53.0527 38.3966 53.756L25.5636 63.2095C23.4433 64.7714 20.5457 62.6919 21.4164 60.2332Z" fill="white" fill-opacity="0.85"/>
</svg>
