<svg width="46" height="46" viewBox="0 0 46 46" fill="none" xmlns="http://www.w3.org/2000/svg">
<path d="M3.23147 42.7664C6.46502 46 11.6693 46 22.078 46H23.9179C34.3266 46 39.5309 46 42.7645 42.7664C45.9979 39.533 45.9979 34.3286 45.9979 23.9199V22.08C45.9979 11.6713 45.9979 6.46699 42.7645 3.23343C39.5309 0 34.3266 0 23.9179 0H22.078C11.6693 0 6.46502 0 3.23147 3.23343C-0.00195193 6.46699 -0.00195312 11.6713 -0.00195312 22.08V23.9199C-0.00195312 34.3286 -0.00195193 39.533 3.23147 42.7664Z" fill="#0077FF"/>
<path fill-rule="evenodd" clip-rule="evenodd" d="M35.5108 30.5747L32.4027 29.7982C32.0284 29.6908 31.7641 29.3541 31.7508 28.9627L31.3629 17.5231C31.2507 16.0091 30.1267 14.8048 28.9523 14.4502C28.8863 14.4302 28.8159 14.4571 28.7768 14.5138C28.7371 14.5715 28.7525 14.6513 28.8078 14.6941C29.0979 14.9187 29.8961 15.6514 29.8961 16.9151L29.8938 31.8721C29.8938 33.3163 28.5291 34.3755 27.1215 34.0239L23.9653 33.2354C23.6154 33.113 23.3722 32.7871 23.3595 32.4111L22.9717 20.9707C22.8595 19.4567 21.7355 18.2525 20.5611 17.8978C20.4951 17.878 20.4247 17.9047 20.3856 17.9614C20.346 18.0192 20.3613 18.099 20.4166 18.1418C20.7067 18.3663 21.5049 19.099 21.5049 20.3627L21.5026 32.8301L21.5044 32.8304V35.3211C21.5044 36.7653 20.1396 37.8247 18.7319 37.4729L9.8173 35.246C8.57791 34.9364 7.70898 33.8278 7.70898 32.5562V17.5759C7.70898 16.1317 9.07369 15.0725 10.4813 15.4241L16.0985 16.8274V14.1269C16.0985 12.6827 17.4632 11.6234 18.8709 11.9751L24.4877 13.3782V10.6777C24.4877 9.23352 25.8524 8.17417 27.2602 8.5259L36.1748 10.7528C37.4142 11.0624 38.2831 12.171 38.2831 13.4426V28.4229C38.2831 29.8671 36.9184 30.9263 35.5108 30.5747Z" fill="white"/>
</svg>
