<svg width="319" height="193" viewBox="0 0 319 193" fill="none" xmlns="http://www.w3.org/2000/svg">
<rect x="115" y="83" width="63" height="63" rx="31.5" fill="#006BE0" fill-opacity="0.15"/>
<path d="M132.026 127.338L131.761 123.98C131.706 123.284 132.071 122.632 132.513 122.19L142.788 111.915C141.362 107.948 142.368 103.562 145.362 100.568C149.627 96.303 156.444 96.3141 160.72 100.59C164.973 104.844 164.984 111.705 160.742 115.947C157.825 118.864 153.693 119.726 149.229 118.334V122.4C149.218 123.494 148.356 124.355 147.273 124.355H142.721V127.338C142.71 128.432 141.882 129.305 140.777 129.305H133.949C132.844 129.305 132.104 128.432 132.026 127.338ZM135.308 126.002L139.44 125.979L139.407 123.295L141.683 121.019L145.914 121.052V116.986L148.555 114.345C151.825 116.533 155.836 116.168 158.399 113.605C161.349 110.655 161.36 105.893 158.388 102.921C155.416 99.9491 150.632 99.938 147.682 102.888C145.097 105.473 144.743 109.451 146.655 112.334L135.297 123.692L135.308 126.002ZM153.284 108.026C152.301 107.042 152.312 105.44 153.284 104.468C154.278 103.474 155.847 103.474 156.841 104.468C157.825 105.451 157.825 107.042 156.841 108.026C155.869 108.998 154.267 109.009 153.284 108.026Z" fill="#006BE0"/>
<rect x="26" y="133" width="49" height="49" rx="24.5" fill="#E9EEF7" fill-opacity="0.05"/>
<rect x="26" y="133" width="49" height="49" rx="24.5" fill="url(#paint0_linear_3075_12876)" fill-opacity="0.05"/>
<rect x="43" width="61" height="61" rx="30.5" fill="#E9EEF7" fill-opacity="0.05"/>
<rect x="43" width="61" height="61" rx="30.5" fill="url(#paint1_linear_3075_12876)" fill-opacity="0.05"/>
<rect x="239" y="119" width="54" height="54" rx="27" fill="#E9EEF7" fill-opacity="0.05"/>
<rect x="239" y="119" width="54" height="54" rx="27" fill="url(#paint2_linear_3075_12876)" fill-opacity="0.05"/>
<rect x="189" y="7" width="74" height="74" rx="37" fill="#E9EEF7" fill-opacity="0.05"/>
<rect x="189" y="7" width="74" height="74" rx="37" fill="url(#paint3_linear_3075_12876)" fill-opacity="0.05"/>
<path d="M217.298 62.6016C214.478 62.6016 213.012 61.0986 213.012 58.0557V44.9189C213.012 42.2285 214.181 40.7441 216.407 40.4473V36.0312C216.407 29.1846 220.935 25.6406 226 25.6406C231.065 25.6406 235.593 29.1846 235.593 36.0312V40.4473C237.819 40.7441 238.97 42.2285 238.97 44.9189V58.0557C238.97 61.0986 237.504 62.6016 234.684 62.6016H217.298ZM219.877 35.6973V40.3916H232.123V35.6973C232.123 31.3555 229.303 28.9805 226 28.9805C222.679 28.9805 219.877 31.3555 219.877 35.6973ZM217.836 59.2803H234.164C234.943 59.2803 235.37 58.8164 235.37 57.9258V45.0488C235.37 44.1582 234.943 43.7129 234.164 43.7129H217.836C217.075 43.7129 216.611 44.1582 216.611 45.0488V57.9258C216.611 58.8164 217.075 59.2803 217.836 59.2803Z" fill="white" fill-opacity="0.5"/>
<path d="M66.1719 45.875C63.7969 45.875 62.5625 44.6094 62.5625 42.0469V30.9844C62.5625 28.7188 63.5469 27.4688 65.4219 27.2188V23.5C65.4219 17.7344 69.2344 14.75 73.5 14.75C77.7656 14.75 81.5781 17.7344 81.5781 23.5V27.2188C83.4531 27.4688 84.4219 28.7188 84.4219 30.9844V42.0469C84.4219 44.6094 83.1875 45.875 80.8125 45.875H66.1719ZM68.3438 23.2188V27.1719H78.6562V23.2188C78.6562 19.5625 76.2812 17.5625 73.5 17.5625C70.7031 17.5625 68.3438 19.5625 68.3438 23.2188ZM66.625 43.0781H80.375C81.0312 43.0781 81.3906 42.6875 81.3906 41.9375V31.0938C81.3906 30.3438 81.0312 29.9688 80.375 29.9688H66.625C65.9844 29.9688 65.5938 30.3438 65.5938 31.0938V41.9375C65.5938 42.6875 65.9844 43.0781 66.625 43.0781Z" fill="white" fill-opacity="0.5"/>
<path d="M259.359 159.512C257.207 159.512 256.088 158.365 256.088 156.042V146.017C256.088 143.964 256.98 142.831 258.679 142.604V139.234C258.679 134.009 262.134 131.305 266 131.305C269.866 131.305 273.321 134.009 273.321 139.234V142.604C275.02 142.831 275.898 143.964 275.898 146.017V156.042C275.898 158.365 274.779 159.512 272.627 159.512H259.359ZM261.327 138.979V142.562H270.673V138.979C270.673 135.666 268.521 133.854 266 133.854C263.465 133.854 261.327 135.666 261.327 138.979ZM259.77 156.977H272.23C272.825 156.977 273.151 156.623 273.151 155.943V146.116C273.151 145.437 272.825 145.097 272.23 145.097H259.77C259.189 145.097 258.835 145.437 258.835 146.116V155.943C258.835 156.623 259.189 156.977 259.77 156.977Z" fill="white" fill-opacity="0.5"/>
<path d="M44.5039 168.906C42.7227 168.906 41.7969 167.957 41.7969 166.035V157.738C41.7969 156.039 42.5352 155.102 43.9414 154.914V152.125C43.9414 147.801 46.8008 145.562 50 145.562C53.1992 145.562 56.0586 147.801 56.0586 152.125V154.914C57.4648 155.102 58.1914 156.039 58.1914 157.738V166.035C58.1914 167.957 57.2656 168.906 55.4844 168.906H44.5039ZM46.1328 151.914V154.879H53.8672V151.914C53.8672 149.172 52.0859 147.672 50 147.672C47.9023 147.672 46.1328 149.172 46.1328 151.914ZM44.8438 166.809H55.1562C55.6484 166.809 55.918 166.516 55.918 165.953V157.82C55.918 157.258 55.6484 156.977 55.1562 156.977H44.8438C44.3633 156.977 44.0703 157.258 44.0703 157.82V165.953C44.0703 166.516 44.3633 166.809 44.8438 166.809Z" fill="white" fill-opacity="0.5"/>
<path d="M122 87L96 59" stroke="white" stroke-opacity="0.05" stroke-width="2" stroke-linecap="round"/>
<path d="M174 90L194 72" stroke="white" stroke-opacity="0.05" stroke-width="2" stroke-linecap="round"/>
<path d="M183 123L233 138" stroke="white" stroke-opacity="0.05" stroke-width="2" stroke-linecap="round"/>
<path d="M78 146L113 130" stroke="white" stroke-opacity="0.05" stroke-width="2" stroke-linecap="round"/>
<defs>
<linearGradient id="paint0_linear_3075_12876" x1="-19.8889" y1="127.556" x2="29.178" y2="80.7598" gradientUnits="userSpaceOnUse">
<stop stop-color="#808080" stop-opacity="0.8"/>
<stop offset="0.175288" stop-color="#808080" stop-opacity="0.5"/>
<stop offset="0.553328" stop-color="#808080" stop-opacity="0.8"/>
<stop offset="0.897554" stop-color="#808080" stop-opacity="0.5"/>
<stop offset="1" stop-color="#808080" stop-opacity="0.8"/>
</linearGradient>
<linearGradient id="paint1_linear_3075_12876" x1="-14.127" y1="-6.77778" x2="46.9562" y2="-65.0337" gradientUnits="userSpaceOnUse">
<stop stop-color="#808080" stop-opacity="0.8"/>
<stop offset="0.175288" stop-color="#808080" stop-opacity="0.5"/>
<stop offset="0.553328" stop-color="#808080" stop-opacity="0.8"/>
<stop offset="0.897554" stop-color="#808080" stop-opacity="0.5"/>
<stop offset="1" stop-color="#808080" stop-opacity="0.8"/>
</linearGradient>
<linearGradient id="paint2_linear_3075_12876" x1="188.429" y1="113" x2="242.502" y2="61.4292" gradientUnits="userSpaceOnUse">
<stop stop-color="#808080" stop-opacity="0.8"/>
<stop offset="0.175288" stop-color="#808080" stop-opacity="0.5"/>
<stop offset="0.553328" stop-color="#808080" stop-opacity="0.8"/>
<stop offset="0.897554" stop-color="#808080" stop-opacity="0.5"/>
<stop offset="1" stop-color="#808080" stop-opacity="0.8"/>
</linearGradient>
<linearGradient id="paint3_linear_3075_12876" x1="119.698" y1="-1.22222" x2="193.799" y2="-71.8934" gradientUnits="userSpaceOnUse">
<stop stop-color="#808080" stop-opacity="0.8"/>
<stop offset="0.175288" stop-color="#808080" stop-opacity="0.5"/>
<stop offset="0.553328" stop-color="#808080" stop-opacity="0.8"/>
<stop offset="0.897554" stop-color="#808080" stop-opacity="0.5"/>
<stop offset="1" stop-color="#808080" stop-opacity="0.8"/>
</linearGradient>
</defs>
</svg>
