<svg width="100" height="100" viewBox="0 0 100 100" fill="none" xmlns="http://www.w3.org/2000/svg">
<g clip-path="url(#clip0_8080_39739)">
<path d="M99.8603 50.0022C99.8603 22.4648 77.5369 0.140625 49.9997 0.140625C22.4749 0.140625 0.160153 22.446 0.140625 49.967V88.5517C0.155438 94.8005 5.22347 99.8591 11.4762 99.8591H50.0199C77.5479 99.8483 99.8603 77.5322 99.8603 50.0022Z" fill="#294172"/>
<path d="M28.8842 53.2197H46.8036V71.1391C46.8036 81.0306 38.7757 89.0585 28.8842 89.0585C18.9927 89.0585 10.9648 81.0306 10.9648 71.1391C10.9648 61.2476 18.9927 53.2197 28.8842 53.2197Z" stroke="#3C6EB4" stroke-width="10.9401"/>
<path d="M64.6392 53.2549H46.7198V35.3355C46.7198 25.444 54.7477 17.4161 64.6392 17.4161C74.5307 17.4161 82.5586 25.444 82.5586 35.3355C82.5586 45.227 74.5307 53.2549 64.6392 53.2549Z" stroke="#3C6EB4" stroke-width="10.9401"/>
<path d="M52.2867 47.7637V71.1143C52.2867 84.0372 41.809 94.515 28.8857 94.515C26.9251 94.515 25.5312 94.2937 23.7163 93.8193C21.0699 93.1267 18.9071 90.9569 18.9062 88.4331C18.9062 85.3825 21.1206 83.1635 24.4307 83.1635C26.0061 83.1635 26.5778 83.466 28.8857 83.466C35.6991 83.466 41.2257 77.9472 41.2376 71.1338V60.401C41.2376 59.4393 40.4561 58.6601 39.4928 58.6601L31.3785 58.6585C28.3552 58.6585 25.9126 56.2471 25.9126 53.2156C25.911 50.1652 28.3803 47.7637 31.4362 47.7637" fill="white"/>
<path d="M41.2367 58.7109V35.3603C41.2367 22.4375 51.7144 11.9596 64.6377 11.9596C66.5984 11.9596 67.9922 12.1809 69.8071 12.6553C72.4536 13.3479 74.6163 15.5177 74.6172 18.0415C74.6172 21.0921 72.4028 23.3111 69.0927 23.3111C67.5173 23.3111 66.9457 23.0086 64.6377 23.0086C57.8244 23.0086 52.2978 28.5274 52.2858 35.3408V46.0736C52.2858 47.0353 53.0673 47.8145 54.0306 47.8145L62.1449 47.8161C65.1682 47.8161 67.6109 50.2275 67.6109 53.259C67.6125 56.3094 65.1432 58.7109 62.0872 58.7109" fill="white"/>
</g>
<defs>
<clipPath id="clip0_8080_39739">
<rect width="100" height="100" fill="white"/>
</clipPath>
</defs>
</svg>
