<svg width="24" height="24" viewBox="0 0 24 24" fill="none" xmlns="http://www.w3.org/2000/svg">
<path d="M12 24C5.43659 24 0 18.575 0 12C0 5.43659 5.42498 0 11.9884 0C18.5634 0 24 5.43659 24 12C24 18.575 18.5634 24 12 24ZM10.7106 17.7386C11.1404 17.7386 11.5121 17.5179 11.7793 17.1229L17.2159 8.64279C17.3785 8.38722 17.5179 8.09681 17.5179 7.82962C17.5179 7.22556 16.9952 6.81897 16.4143 6.81897C16.0426 6.81897 15.7173 7.01646 15.4734 7.42304L10.6641 15.1133L8.42207 12.2672C8.13166 11.8955 7.85286 11.7561 7.49274 11.7561C6.88867 11.7561 6.42401 12.2439 6.42401 12.8364C6.42401 13.1268 6.52856 13.4056 6.73766 13.6612L9.58374 17.1229C9.909 17.5411 10.2691 17.7386 10.7106 17.7386Z" fill="#04A45A"/>
</svg>
