<svg width="50" height="50" viewBox="0 0 50 50" fill="none" xmlns="http://www.w3.org/2000/svg">
<g clip-path="url(#clip0_2119_3949)">
<path opacity="0.08" d="M50 25C50 38.8071 38.8071 50 25 50C11.1929 50 0 38.8071 0 25C0 11.1929 11.1929 0 25 0C38.8071 0 50 11.1929 50 25Z" fill="#677380"/>
<path d="M28.3086 17.4238C27.5889 18.2939 26.3857 18.9385 25.4297 18.9385C25.3115 18.9385 25.2041 18.917 25.1396 18.9062C25.1289 18.8525 25.0967 18.6914 25.0967 18.5195C25.0967 17.4238 25.6553 16.3281 26.2676 15.6406C27.0303 14.7383 28.3193 14.0723 29.3936 14.0293C29.415 14.1475 29.4258 14.2979 29.4258 14.4482C29.4258 15.5439 28.9639 16.6289 28.3086 17.4238ZM29.0605 19.1641C29.6621 19.1641 31.8428 19.2285 33.2715 21.2803C33.1426 21.377 30.9834 22.6016 30.9834 25.3301C30.9834 28.4775 33.7334 29.6055 33.8193 29.627C33.8086 29.7021 33.3789 31.1523 32.3691 32.6455C31.4561 33.9453 30.5 35.2666 29.0605 35.2666C27.6104 35.2666 27.2344 34.418 25.5801 34.418C23.9473 34.418 23.3672 35.2881 22.0566 35.2881C20.7246 35.2881 19.8008 34.0742 18.748 32.5918C17.5127 30.8408 16.5244 28.123 16.5244 25.5449C16.5244 21.4199 19.21 19.2285 21.8633 19.2285C23.2598 19.2285 24.4199 20.1416 25.3115 20.1416C26.1494 20.1416 27.46 19.1641 29.0605 19.1641Z" fill="#677380"/>
</g>
<defs>
<clipPath id="clip0_2119_3949">
<rect width="50" height="50" fill="white"/>
</clipPath>
</defs>
</svg>
