<svg width="50" height="50" viewBox="0 0 50 50" fill="none" xmlns="http://www.w3.org/2000/svg">
<g clip-path="url(#clip0_2119_3950)">
<path opacity="0.08" d="M50 25C50 38.8071 38.8071 50 25 50C11.1929 50 0 38.8071 0 25C0 11.1929 11.1929 0 25 0C38.8071 0 50 11.1929 50 25Z" fill="#677380"/>
<path fill-rule="evenodd" clip-rule="evenodd" d="M16.1202 18.2719C15.8586 17.7339 16.0787 17.0777 16.6119 16.8064C17.1452 16.535 17.7896 16.7512 18.0513 17.2893L19.941 21.1746C21.3759 20.1602 23.1276 19.5641 25.0186 19.5641C26.9236 19.5641 28.6873 20.169 30.1281 21.1973L32.0961 17.3011C32.3659 16.767 33.0135 16.5606 33.5426 16.8399C34.0717 17.1193 34.2819 17.7786 34.0122 18.3127L31.7811 22.7296C33.0567 24.2573 33.8243 26.224 33.8243 28.3699V33H16.2128V28.3699C16.2128 26.2125 16.9886 24.2364 18.2765 22.7052L16.1202 18.2719ZM21.386 27.0996C22.1684 27.0996 22.8027 26.4653 22.8027 25.6829C22.8027 24.9005 22.1684 24.2663 21.386 24.2663C20.6036 24.2663 19.9693 24.9005 19.9693 25.6829C19.9693 26.4653 20.6036 27.0996 21.386 27.0996ZM30.0471 25.6829C30.0471 26.4653 29.4129 27.0996 28.6305 27.0996C27.8481 27.0996 27.2138 26.4653 27.2138 25.6829C27.2138 24.9005 27.8481 24.2663 28.6305 24.2663C29.4129 24.2663 30.0471 24.9005 30.0471 25.6829Z" fill="#677380"/>
</g>
<defs>
<clipPath id="clip0_2119_3950">
<rect width="50" height="50" fill="white"/>
</clipPath>
</defs>
</svg>
