<svg width="50" height="50" viewBox="0 0 50 50" fill="none" xmlns="http://www.w3.org/2000/svg">
<g clip-path="url(#clip0_2119_3947)">
<path opacity="0.08" d="M50 25C50 38.8071 38.8071 50 25 50C11.1929 50 0 38.8071 0 25C0 11.1929 11.1929 0 25 0C38.8071 0 50 11.1929 50 25Z" fill="#677380"/>
<path d="M17.208 35.1377C14.9629 35.1377 13.835 34.0312 13.835 31.8184V18.6914C13.835 16.4785 14.9629 15.3613 17.208 15.3613H35.792C38.0479 15.3613 39.165 16.4785 39.165 18.6914V31.8184C39.165 34.0312 38.0479 35.1377 35.792 35.1377H17.208ZM15.5645 18.7881V21.4629H37.4355V18.7881C37.4355 17.6709 36.834 17.0908 35.7705 17.0908H17.2295C16.1553 17.0908 15.5645 17.6709 15.5645 18.7881ZM33.6543 20.6572C32.9238 20.668 32.29 20.0234 32.29 19.2822C32.29 18.5303 32.9238 17.8965 33.6543 17.8965C34.3955 17.8965 35.0186 18.5303 35.0186 19.2822C35.0186 20.0234 34.3955 20.6357 33.6543 20.6572ZM15.5645 27.4355H37.4355V23.085H15.5645V27.4355ZM33.6543 26.6084C32.9238 26.6191 32.29 25.9746 32.29 25.2334C32.29 24.4814 32.9238 23.8477 33.6543 23.8477C34.3955 23.8477 35.0186 24.4814 35.0186 25.2334C35.0186 25.9746 34.3955 26.5869 33.6543 26.6084ZM17.2295 33.4082H35.7705C36.834 33.4082 37.4355 32.8389 37.4355 31.7217V29.0576H15.5645V31.7217C15.5645 32.8389 16.1553 33.4082 17.2295 33.4082ZM33.6543 32.5596C32.9238 32.5703 32.29 31.9258 32.29 31.1846C32.29 30.4326 32.9238 29.7988 33.6543 29.7988C34.3955 29.7988 35.0186 30.4326 35.0186 31.1846C35.0186 31.9258 34.3955 32.5381 33.6543 32.5596Z" fill="#677380"/>
</g>
<defs>
<clipPath id="clip0_2119_3947">
<rect width="50" height="50" fill="white"/>
</clipPath>
</defs>
</svg>
