<svg width="110" height="30" viewBox="0 0 110 30" fill="none" xmlns="http://www.w3.org/2000/svg">
<path fill-rule="evenodd" clip-rule="evenodd" d="M13.9856 5.95837L7.5635 24.0933C7.21522 25.0768 8.37425 25.9086 9.22236 25.2838L14.3556 21.5024C14.7375 21.2211 15.2625 21.2211 15.6444 21.5024L20.7776 25.2838C21.6258 25.9086 22.7848 25.0768 22.4365 24.0933L16.0144 5.95837C15.68 5.01388 14.32 5.01388 13.9856 5.95837Z" fill="url(#paint0_linear_847_168)"/>
<path d="M46.655 18.4427C46.765 18.4427 46.8625 18.4852 46.9475 18.5702L47.7425 19.4327C47.3025 19.9777 46.76 20.3952 46.115 20.6852C45.475 20.9752 44.705 21.1202 43.805 21.1202C43 21.1202 42.275 20.9827 41.63 20.7077C40.99 20.4327 40.4425 20.0502 39.9875 19.5602C39.5325 19.0702 39.1825 18.4852 38.9375 17.8052C38.6975 17.1252 38.5775 16.3827 38.5775 15.5777C38.5775 14.7627 38.7075 14.0177 38.9675 13.3427C39.2275 12.6627 39.5925 12.0777 40.0625 11.5877C40.5375 11.0977 41.1025 10.7177 41.7575 10.4477C42.4125 10.1727 43.1375 10.0352 43.9325 10.0352C44.7225 10.0352 45.4225 10.1652 46.0325 10.4252C46.6475 10.6852 47.17 11.0252 47.6 11.4452L46.925 12.3827C46.885 12.4427 46.8325 12.4952 46.7675 12.5402C46.7075 12.5852 46.6225 12.6077 46.5125 12.6077C46.4375 12.6077 46.36 12.5877 46.28 12.5477C46.2 12.5027 46.1125 12.4502 46.0175 12.3902C45.9225 12.3252 45.8125 12.2552 45.6875 12.1802C45.5625 12.1052 45.4175 12.0377 45.2525 11.9777C45.0875 11.9127 44.895 11.8602 44.675 11.8202C44.46 11.7752 44.21 11.7527 43.925 11.7527C43.44 11.7527 42.995 11.8402 42.59 12.0152C42.19 12.1852 41.845 12.4352 41.555 12.7652C41.265 13.0902 41.04 13.4902 40.88 13.9652C40.72 14.4352 40.64 14.9727 40.64 15.5777C40.64 16.1877 40.725 16.7302 40.895 17.2052C41.07 17.6802 41.305 18.0802 41.6 18.4052C41.895 18.7302 42.2425 18.9802 42.6425 19.1552C43.0425 19.3252 43.4725 19.4102 43.9325 19.4102C44.2075 19.4102 44.455 19.3952 44.675 19.3652C44.9 19.3352 45.105 19.2877 45.29 19.2227C45.48 19.1577 45.6575 19.0752 45.8225 18.9752C45.9925 18.8702 46.16 18.7427 46.325 18.5927C46.375 18.5477 46.4275 18.5127 46.4825 18.4877C46.5375 18.4577 46.595 18.4427 46.655 18.4427Z" fill="#2D343C"/>
<path d="M59.2326 15.5777C59.2326 16.3727 59.1001 17.1102 58.8351 17.7902C58.5751 18.4652 58.2051 19.0502 57.7251 19.5452C57.2451 20.0402 56.6676 20.4277 55.9926 20.7077C55.3176 20.9827 54.5676 21.1202 53.7426 21.1202C52.9226 21.1202 52.1751 20.9827 51.5001 20.7077C50.8251 20.4277 50.2451 20.0402 49.7601 19.5452C49.2801 19.0502 48.9076 18.4652 48.6426 17.7902C48.3776 17.1102 48.2451 16.3727 48.2451 15.5777C48.2451 14.7827 48.3776 14.0477 48.6426 13.3727C48.9076 12.6927 49.2801 12.1052 49.7601 11.6102C50.2451 11.1152 50.8251 10.7302 51.5001 10.4552C52.1751 10.1752 52.9226 10.0352 53.7426 10.0352C54.2926 10.0352 54.8101 10.1002 55.2951 10.2302C55.7801 10.3552 56.2251 10.5352 56.6301 10.7702C57.0351 11.0002 57.3976 11.2827 57.7176 11.6177C58.0426 11.9477 58.3176 12.3177 58.5426 12.7277C58.7676 13.1377 58.9376 13.5827 59.0526 14.0627C59.1726 14.5427 59.2326 15.0477 59.2326 15.5777ZM57.1701 15.5777C57.1701 14.9827 57.0901 14.4502 56.9301 13.9802C56.7701 13.5052 56.5426 13.1027 56.2476 12.7727C55.9526 12.4427 55.5926 12.1902 55.1676 12.0152C54.7476 11.8402 54.2726 11.7527 53.7426 11.7527C53.2126 11.7527 52.7351 11.8402 52.3101 12.0152C51.8901 12.1902 51.5301 12.4427 51.2301 12.7727C50.9351 13.1027 50.7076 13.5052 50.5476 13.9802C50.3876 14.4502 50.3076 14.9827 50.3076 15.5777C50.3076 16.1727 50.3876 16.7077 50.5476 17.1827C50.7076 17.6527 50.9351 18.0527 51.2301 18.3827C51.5301 18.7077 51.8901 18.9577 52.3101 19.1327C52.7351 19.3077 53.2126 19.3952 53.7426 19.3952C54.2726 19.3952 54.7476 19.3077 55.1676 19.1327C55.5926 18.9577 55.9526 18.7077 56.2476 18.3827C56.5426 18.0527 56.7701 17.6527 56.9301 17.1827C57.0901 16.7077 57.1701 16.1727 57.1701 15.5777Z" fill="#2D343C"/>
<path d="M72.7644 10.1552V21.0002H70.9869V13.9952C70.9869 13.7152 71.0019 13.4127 71.0319 13.0877L67.7544 19.2452C67.5994 19.5402 67.3619 19.6877 67.0419 19.6877H66.7569C66.4369 19.6877 66.1994 19.5402 66.0444 19.2452L62.7294 13.0652C62.7444 13.2302 62.7569 13.3927 62.7669 13.5527C62.7769 13.7127 62.7819 13.8602 62.7819 13.9952V21.0002H61.0044V10.1552H62.5269C62.6169 10.1552 62.6944 10.1577 62.7594 10.1627C62.8244 10.1677 62.8819 10.1802 62.9319 10.2002C62.9869 10.2202 63.0344 10.2527 63.0744 10.2977C63.1194 10.3427 63.1619 10.4027 63.2019 10.4777L66.4494 16.5002C66.5344 16.6602 66.6119 16.8252 66.6819 16.9952C66.7569 17.1652 66.8294 17.3402 66.8994 17.5202C66.9694 17.3352 67.0419 17.1577 67.1169 16.9877C67.1919 16.8127 67.2719 16.6452 67.3569 16.4852L70.5594 10.4777C70.5994 10.4027 70.6419 10.3427 70.6869 10.2977C70.7319 10.2527 70.7794 10.2202 70.8294 10.2002C70.8844 10.1802 70.9444 10.1677 71.0094 10.1627C71.0744 10.1577 71.1519 10.1552 71.2419 10.1552H72.7644Z" fill="#2D343C"/>
<path d="M78.7091 15.6077C79.0791 15.6077 79.4016 15.5627 79.6766 15.4727C79.9516 15.3777 80.1791 15.2452 80.3591 15.0752C80.5441 14.9002 80.6816 14.6902 80.7716 14.4452C80.8616 14.1952 80.9066 13.9177 80.9066 13.6127C80.9066 13.3227 80.8616 13.0602 80.7716 12.8252C80.6816 12.5902 80.5466 12.3902 80.3666 12.2252C80.1866 12.0602 79.9591 11.9352 79.6841 11.8502C79.4091 11.7602 79.0841 11.7152 78.7091 11.7152H77.2016V15.6077H78.7091ZM78.7091 10.1552C79.4341 10.1552 80.0616 10.2402 80.5916 10.4102C81.1216 10.5802 81.5591 10.8177 81.9041 11.1227C82.2491 11.4277 82.5041 11.7927 82.6691 12.2177C82.8391 12.6427 82.9241 13.1077 82.9241 13.6127C82.9241 14.1377 82.8366 14.6202 82.6616 15.0602C82.4866 15.4952 82.2241 15.8702 81.8741 16.1852C81.5241 16.5002 81.0841 16.7452 80.5541 16.9202C80.0291 17.0952 79.4141 17.1827 78.7091 17.1827H77.2016V21.0002H75.1841V10.1552H78.7091Z" fill="#2D343C"/>
<path d="M89.4395 16.9052L88.1195 13.2977C88.0545 13.1377 87.987 12.9477 87.917 12.7277C87.847 12.5077 87.777 12.2702 87.707 12.0152C87.642 12.2702 87.5745 12.5102 87.5045 12.7352C87.4345 12.9552 87.367 13.1477 87.302 13.3127L85.9895 16.9052H89.4395ZM93.002 21.0002H91.442C91.267 21.0002 91.1245 20.9577 91.0145 20.8727C90.9045 20.7827 90.822 20.6727 90.767 20.5427L89.957 18.3302H85.4645L84.6545 20.5427C84.6145 20.6577 84.537 20.7627 84.422 20.8577C84.307 20.9527 84.1645 21.0002 83.9945 21.0002H82.4195L86.687 10.1552H88.742L93.002 21.0002Z" fill="#2D343C"/>
<path d="M99.8995 12.1277C99.8395 12.2327 99.7745 12.3102 99.7045 12.3602C99.6395 12.4052 99.557 12.4277 99.457 12.4277C99.352 12.4277 99.237 12.3902 99.112 12.3152C98.992 12.2352 98.847 12.1477 98.677 12.0527C98.507 11.9577 98.307 11.8727 98.077 11.7977C97.852 11.7177 97.5845 11.6777 97.2745 11.6777C96.9945 11.6777 96.7495 11.7127 96.5395 11.7827C96.3295 11.8477 96.152 11.9402 96.007 12.0602C95.867 12.1802 95.762 12.3252 95.692 12.4952C95.622 12.6602 95.587 12.8427 95.587 13.0427C95.587 13.2977 95.657 13.5102 95.797 13.6802C95.942 13.8502 96.132 13.9952 96.367 14.1152C96.602 14.2352 96.8695 14.3427 97.1695 14.4377C97.4695 14.5327 97.777 14.6352 98.092 14.7452C98.407 14.8502 98.7145 14.9752 99.0145 15.1202C99.3145 15.2602 99.582 15.4402 99.817 15.6602C100.052 15.8752 100.24 16.1402 100.38 16.4552C100.525 16.7702 100.597 17.1527 100.597 17.6027C100.597 18.0927 100.512 18.5527 100.342 18.9827C100.177 19.4077 99.932 19.7802 99.607 20.1002C99.287 20.4152 98.8945 20.6652 98.4295 20.8502C97.9645 21.0302 97.432 21.1202 96.832 21.1202C96.487 21.1202 96.147 21.0852 95.812 21.0152C95.477 20.9502 95.1545 20.8552 94.8445 20.7302C94.5395 20.6052 94.252 20.4552 93.982 20.2802C93.712 20.1052 93.472 19.9102 93.262 19.6952L93.8545 18.7277C93.9045 18.6577 93.9695 18.6002 94.0495 18.5552C94.1295 18.5052 94.2145 18.4802 94.3045 18.4802C94.4295 18.4802 94.5645 18.5327 94.7095 18.6377C94.8545 18.7377 95.027 18.8502 95.227 18.9752C95.427 19.1002 95.6595 19.2152 95.9245 19.3202C96.1945 19.4202 96.517 19.4702 96.892 19.4702C97.467 19.4702 97.912 19.3352 98.227 19.0652C98.542 18.7902 98.6995 18.3977 98.6995 17.8877C98.6995 17.6027 98.627 17.3702 98.482 17.1902C98.342 17.0102 98.1545 16.8602 97.9195 16.7402C97.6845 16.6152 97.417 16.5102 97.117 16.4252C96.817 16.3402 96.512 16.2477 96.202 16.1477C95.892 16.0477 95.587 15.9277 95.287 15.7877C94.987 15.6477 94.7195 15.4652 94.4845 15.2402C94.2495 15.0152 94.0595 14.7352 93.9145 14.4002C93.7745 14.0602 93.7045 13.6427 93.7045 13.1477C93.7045 12.7527 93.782 12.3677 93.937 11.9927C94.097 11.6177 94.327 11.2852 94.627 10.9952C94.927 10.7052 95.297 10.4727 95.737 10.2977C96.177 10.1227 96.682 10.0352 97.252 10.0352C97.892 10.0352 98.482 10.1352 99.022 10.3352C99.562 10.5352 100.022 10.8152 100.402 11.1752L99.8995 12.1277Z" fill="#2D343C"/>
<path d="M108.132 12.1277C108.072 12.2327 108.007 12.3102 107.937 12.3602C107.872 12.4052 107.789 12.4277 107.689 12.4277C107.584 12.4277 107.469 12.3902 107.344 12.3152C107.224 12.2352 107.079 12.1477 106.909 12.0527C106.739 11.9577 106.539 11.8727 106.309 11.7977C106.084 11.7177 105.817 11.6777 105.507 11.6777C105.227 11.6777 104.982 11.7127 104.772 11.7827C104.562 11.8477 104.384 11.9402 104.239 12.0602C104.099 12.1802 103.994 12.3252 103.924 12.4952C103.854 12.6602 103.819 12.8427 103.819 13.0427C103.819 13.2977 103.889 13.5102 104.029 13.6802C104.174 13.8502 104.364 13.9952 104.599 14.1152C104.834 14.2352 105.102 14.3427 105.402 14.4377C105.702 14.5327 106.009 14.6352 106.324 14.7452C106.639 14.8502 106.947 14.9752 107.247 15.1202C107.547 15.2602 107.814 15.4402 108.049 15.6602C108.284 15.8752 108.472 16.1402 108.612 16.4552C108.757 16.7702 108.829 17.1527 108.829 17.6027C108.829 18.0927 108.744 18.5527 108.574 18.9827C108.409 19.4077 108.164 19.7802 107.839 20.1002C107.519 20.4152 107.127 20.6652 106.662 20.8502C106.197 21.0302 105.664 21.1202 105.064 21.1202C104.719 21.1202 104.379 21.0852 104.044 21.0152C103.709 20.9502 103.387 20.8552 103.077 20.7302C102.772 20.6052 102.484 20.4552 102.214 20.2802C101.944 20.1052 101.704 19.9102 101.494 19.6952L102.087 18.7277C102.137 18.6577 102.202 18.6002 102.282 18.5552C102.362 18.5052 102.447 18.4802 102.537 18.4802C102.662 18.4802 102.797 18.5327 102.942 18.6377C103.087 18.7377 103.259 18.8502 103.459 18.9752C103.659 19.1002 103.892 19.2152 104.157 19.3202C104.427 19.4202 104.749 19.4702 105.124 19.4702C105.699 19.4702 106.144 19.3352 106.459 19.0652C106.774 18.7902 106.932 18.3977 106.932 17.8877C106.932 17.6027 106.859 17.3702 106.714 17.1902C106.574 17.0102 106.387 16.8602 106.152 16.7402C105.917 16.6152 105.649 16.5102 105.349 16.4252C105.049 16.3402 104.744 16.2477 104.434 16.1477C104.124 16.0477 103.819 15.9277 103.519 15.7877C103.219 15.6477 102.952 15.4652 102.717 15.2402C102.482 15.0152 102.292 14.7352 102.147 14.4002C102.007 14.0602 101.937 13.6427 101.937 13.1477C101.937 12.7527 102.014 12.3677 102.169 11.9927C102.329 11.6177 102.559 11.2852 102.859 10.9952C103.159 10.7052 103.529 10.4727 103.969 10.2977C104.409 10.1227 104.914 10.0352 105.484 10.0352C106.124 10.0352 106.714 10.1352 107.254 10.3352C107.794 10.5352 108.254 10.8152 108.634 11.1752L108.132 12.1277Z" fill="#2D343C"/>
<defs>
<linearGradient id="paint0_linear_847_168" x1="15" y1="5.25" x2="15" y2="25.5" gradientUnits="userSpaceOnUse">
<stop stop-color="#FD5A09"/>
<stop offset="1" stop-color="#F33202"/>
</linearGradient>
</defs>
</svg>
