<svg width="50" height="50" viewBox="0 0 50 50" fill="none" xmlns="http://www.w3.org/2000/svg">
<path opacity="0.08" d="M50 25C50 38.8071 38.8071 50 25 50C11.1929 50 0 38.8071 0 25C0 11.1929 11.1929 0 25 0C38.8071 0 50 11.1929 50 25Z" fill="#677380"/>
<path fill-rule="evenodd" clip-rule="evenodd" d="M18.8561 34.3073L23.6677 30.8066C24.7572 30.0139 26.2428 30.0139 27.3323 30.8066M18.8561 34.3073L25.5 15.7776L32.1439 34.3073L27.3323 30.8066M17.5078 35.2883C17.508 35.2881 17.5082 35.288 17.5083 35.2879ZM16.5762 35.3328L24.2827 13.8395C24.684 12.7201 26.316 12.7202 26.7173 13.8396L34.4238 35.3328C34.8417 36.4984 33.4509 37.4843 32.4332 36.7438L26.2733 32.2621C25.8151 31.9287 25.1849 31.9287 24.7267 32.2621L18.5668 36.7438C17.5491 37.4843 16.1583 36.4984 16.5762 35.3328Z" fill="#677380"/>
</svg>
