<svg width="50" height="50" viewBox="0 0 50 50" fill="none" xmlns="http://www.w3.org/2000/svg">
<circle opacity="0.08" cx="25" cy="25" r="25" fill="#677380"/>
<path d="M18.3252 36.3516C17.5625 36.3516 17.1436 35.8574 17.1436 35.0303V32.0869H15.7256C12.9219 32.0869 11.0742 30.4004 11.0742 27.4785V17.585C11.0742 14.6738 12.9219 12.9766 15.7256 12.9766H31.0977C34.0195 12.9766 35.749 14.6738 35.749 17.585V18.4014H37.4355C40.1318 18.4014 41.9258 20.0342 41.9258 22.8486V29.1973C41.9258 32.001 40.1318 33.6338 37.4355 33.6338H36.9844V36.2119C36.9844 37.0283 36.5654 37.5547 35.8242 37.5547C35.3086 37.5547 34.9541 37.2646 34.2988 36.7061L30.7109 33.6338H27.0049C25.5117 33.6338 24.3408 33.1719 23.5674 32.3232L19.9688 35.5566C19.2812 36.1582 18.8945 36.3516 18.3252 36.3516ZM18.7656 31.3672V34.4395L22.7295 30.7764C22.5898 30.3037 22.5254 29.7773 22.5254 29.1973V22.8486C22.5254 20.0342 24.1904 18.4014 27.0049 18.4014H34.0195V17.6494C34.0195 15.6514 32.8916 14.5986 30.9902 14.5986H15.833C13.9316 14.5986 12.8037 15.6514 12.8037 17.6494V27.4355C12.8037 29.4336 13.9316 30.4756 15.833 30.4756H17.9277C18.4004 30.4756 18.7656 30.7549 18.7656 31.3672ZM35.373 35.6104V32.8926C35.373 32.291 35.7383 32.0117 36.2002 32.0117H37.3389C39.1221 32.0117 40.1963 31.0449 40.1963 29.1436V22.9023C40.1963 21.0117 39.1221 20.0234 37.3389 20.0234H27.1123C25.3184 20.0234 24.2549 21.0117 24.2549 22.9023L24.2441 29.1436C24.2441 31.0449 25.3184 32.0117 27.1123 32.0117H30.6465C31.2373 32.0117 31.4951 32.1406 31.9248 32.5166L35.373 35.6104Z" fill="#677380"/>
</svg>
