<svg width="50" height="50" viewBox="0 0 50 50" fill="none" xmlns="http://www.w3.org/2000/svg">
<path opacity="0.08" d="M50 25C50 38.8071 38.8071 50 25 50C11.1929 50 0 38.8071 0 25C0 11.1929 11.1929 0 25 0C38.8071 0 50 11.1929 50 25Z" fill="#677380"/>
<path d="M16.7822 34.0742C14.1611 34.0742 12.5928 32.5488 12.5928 29.9277V20.5498C12.5928 17.9395 14.2793 16.4141 16.7822 16.4141H28.0078C30.6289 16.4141 32.1973 17.9395 32.1973 20.5498V22.0322L36.2578 18.5947C36.6875 18.2402 37.1602 17.9932 37.6006 17.9932C38.5459 17.9932 39.1689 18.6914 39.1689 19.6904V30.7979C39.1689 31.7969 38.5459 32.4951 37.6006 32.4951C37.1602 32.4951 36.6875 32.248 36.2578 31.8936L32.1973 28.4561V29.9277C32.1973 32.5488 30.6289 34.0742 28.0078 34.0742H16.7822ZM17.083 32.4521H27.707C29.458 32.4521 30.4678 31.5391 30.4678 29.6807V20.8076C30.4678 18.9385 29.458 18.0254 27.707 18.0254H17.083C15.3213 18.0254 14.3223 18.9385 14.3223 20.8076V29.6807C14.3223 31.5391 15.3213 32.4521 17.083 32.4521ZM37.0635 30.4326C37.1602 30.4971 37.2246 30.5508 37.3213 30.5508C37.4502 30.5508 37.5039 30.4541 37.5039 30.3037V20.1846C37.5039 20.0342 37.4502 19.9268 37.3213 19.9268C37.2246 19.9268 37.1602 19.9805 37.0635 20.0557L32.1973 24.0732V26.415L37.0635 30.4326Z" fill="#677380"/>
</svg>
