<svg width="50" height="50" viewBox="0 0 50 50" fill="none" xmlns="http://www.w3.org/2000/svg">
<path opacity="0.08" d="M50 25C50 38.8071 38.8071 50 25 50C11.1929 50 0 38.8071 0 25C0 11.1929 11.1929 0 25 0C38.8071 0 50 11.1929 50 25Z" fill="#677380"/>
<path d="M11.25 33.5693C10.584 33.5693 10.0361 33.0215 10.0361 32.3447C10.0361 31.668 10.584 31.1201 11.25 31.1201H13.6025V18.3691C13.6025 16.8652 14.4834 16.0918 15.9014 16.0918H35.377C36.5693 16.0918 37.2676 16.6826 37.3428 17.8213H16.3633C15.6758 17.8213 15.332 18.165 15.332 18.8525V31.1201H29.6191C29.6191 31.3672 29.6299 31.6035 29.6299 31.8506C29.6514 32.5166 29.8232 33.0859 30.124 33.5693H11.25ZM32.96 33.709C31.6279 33.709 30.8652 32.9785 30.8652 31.7002V21.001C30.8652 19.7227 31.6279 18.9814 32.96 18.9814H37.8584C39.1797 18.9814 39.9531 19.7227 39.9531 21.001V31.7002C39.9531 32.9785 39.1904 33.709 37.8584 33.709H32.96ZM32.9814 32.3018H37.8262C38.2988 32.3018 38.5459 32.0439 38.5459 31.5605V21.1406C38.5459 20.6465 38.2988 20.3887 37.8262 20.3887H36.8594C36.8164 20.3887 36.7949 20.4209 36.7949 20.4531V20.5498C36.7949 20.9258 36.5371 21.1729 36.1719 21.1729H34.6465C34.2705 21.1729 34.0234 20.9258 34.0234 20.5498V20.4531C34.0234 20.4209 33.9912 20.3887 33.959 20.3887H32.9814C32.5088 20.3887 32.2725 20.6465 32.2725 21.1406V31.5605C32.2725 32.0439 32.5088 32.3018 32.9814 32.3018ZM33.9375 31.7539C33.7119 31.7539 33.583 31.6143 33.583 31.3779C33.583 31.1738 33.7227 31.0127 33.9375 31.0127H36.8594C37.0742 31.0127 37.2354 31.1738 37.2354 31.3779C37.2354 31.6035 37.0742 31.7539 36.8594 31.7539H33.9375Z" fill="#677380"/>
</svg>
