<svg width="40" height="40" viewBox="0 0 40 40" fill="none" xmlns="http://www.w3.org/2000/svg">
<circle opacity="0.05" cx="20" cy="20" r="20" fill="#009FE6"/>
<path d="M29.9688 20.2441C29.9688 20.5127 29.8613 20.7598 29.6465 20.9639L22.5029 28.0859C22.2881 28.29 22.0625 28.3867 21.8047 28.3867C21.2783 28.3867 20.8701 28 20.8701 27.4629C20.8701 27.2051 20.9561 26.9473 21.1279 26.7861L23.5342 24.3369L27.1543 21.0391L24.5547 21.2002H10.9658C10.4072 21.2002 10.0205 20.8027 10.0205 20.2441C10.0205 19.6855 10.4072 19.2881 10.9658 19.2881H24.5547L27.1436 19.4492L23.5342 16.1514L21.1279 13.7021C20.9561 13.5303 20.8701 13.2832 20.8701 13.0254C20.8701 12.4883 21.2783 12.1016 21.8047 12.1016C22.0625 12.1016 22.2881 12.1875 22.5244 12.4238L29.6465 19.5244C29.8613 19.7285 29.9688 19.9756 29.9688 20.2441Z" fill="#009FE6"/>
</svg>
