<svg width="132" height="132" viewBox="0 0 132 132" fill="none" xmlns="http://www.w3.org/2000/svg">
<rect width="132" height="132" rx="20" fill="#5654B2" fill-opacity="0.05"/>
<path fill-rule="evenodd" clip-rule="evenodd" d="M33 101.163C33 108.938 36.6808 112.711 43.8585 112.711H87.7066C94.8842 112.711 98.5651 108.938 98.5651 101.163V67.897C98.5651 61.0414 95.6204 57.2686 89.9151 56.5324V45.7659C89.9151 29.0181 78.7345 20 65.8055 20C52.8306 20 41.696 29.0181 41.696 45.7659V56.5324C35.9447 57.2686 33 60.9954 33 67.897V101.163ZM51.3122 56.4404V45.0758C51.3122 34.9074 57.8457 29.2021 65.8055 29.2021C73.7194 29.2021 80.3449 34.9074 80.3449 45.0758V56.4404H51.3122ZM53.5188 99.2907L64.1089 69.3859C64.6604 67.8284 66.903 67.8284 67.4545 69.3859L78.0446 99.2907C78.6189 100.913 76.7077 102.284 75.3091 101.254L66.8444 95.0183C66.2146 94.5544 65.3488 94.5544 64.719 95.0183L56.2543 101.254C54.8557 102.284 52.9445 100.913 53.5188 99.2907Z" fill="#333E49"/>
</svg>
