<svg width="290" height="290" viewBox="0 0 290 290" fill="none" xmlns="http://www.w3.org/2000/svg">
<g clip-path="url(#clip0_3075_12908)">
<path d="M14.696 169.668C18.5803 190.864 29.0607 207.484 42.5008 222.825C44.0396 224.581 45.5596 226.249 47.061 227.829L86.7981 227.629C86.9262 227.284 87.1445 226.978 87.4303 226.745C87.7161 226.512 88.0591 226.359 88.4237 226.303C88.7883 226.247 89.1612 226.29 89.5038 226.426C89.8465 226.563 90.1463 226.789 90.3724 227.08C90.5984 227.372 90.7424 227.718 90.7894 228.084C90.8365 228.45 90.7848 228.822 90.6398 229.161C90.4948 229.5 90.2617 229.794 89.9647 230.013C89.6678 230.232 89.3177 230.367 88.9508 230.405L88.9967 239.545L112.038 239.43L111.978 227.487L139.172 227.351L139.064 205.73L139.844 205.726L139.957 228.128L112.763 228.264L112.823 240.206L69.776 240.422C69.6814 240.93 69.4008 241.385 68.989 241.697C68.5772 242.009 68.0638 242.156 67.5492 242.11C67.0345 242.064 66.5556 241.828 66.2059 241.447C65.8563 241.067 65.6611 240.569 65.6586 240.053C65.656 239.536 65.8461 239.037 66.1919 238.653C66.5377 238.269 67.0143 238.028 67.5284 237.976C68.0426 237.925 68.5574 238.067 68.9723 238.375C69.3872 238.683 69.6724 239.135 69.772 239.642L88.2005 239.549L88.1543 230.347C87.7325 230.225 87.36 229.973 87.0904 229.627C86.8208 229.28 86.6679 228.857 86.6538 228.419L47.8377 228.613C77.3641 259.313 101.193 258.936 119.941 254.15C138.253 249.469 146.888 239.021 166.799 229.523L166.779 225.62L149.896 225.705L149.893 224.924L167.556 224.836L167.578 229.136C169.018 228.466 170.506 227.803 172.064 227.139C179.278 224.05 186.918 222.07 194.725 221.265L194.711 218.408L220.164 218.28C220.261 217.775 220.542 217.323 220.953 217.013C221.364 216.703 221.876 216.557 222.389 216.603C222.902 216.649 223.379 216.884 223.729 217.262C224.078 217.64 224.274 218.135 224.279 218.65C224.279 218.852 224.246 219.052 224.181 219.244C228.981 218.682 233.75 217.876 238.469 216.83C267.403 210.441 283.676 171.222 283.564 148.844C283.451 126.466 272.893 102.696 256.51 77.4884C241.245 54.0005 224.186 35.051 172.064 32.5005C119.941 29.95 116.702 49.7645 69.776 50C22.8501 50.2355 6.73415 126.083 14.696 169.668ZM45.5769 145.199L33.0883 145.261L33.1927 166.055C33.7007 166.15 34.1552 166.43 34.4673 166.842C34.7794 167.254 34.9268 167.767 34.8806 168.282C34.8344 168.796 34.598 169.275 34.2175 169.625C33.837 169.975 33.3398 170.17 32.8231 170.172C32.3064 170.175 31.8073 169.985 31.4233 169.639C31.0393 169.293 30.7981 168.817 30.7467 168.303C30.6953 167.788 30.8375 167.274 31.1455 166.859C31.4535 166.444 31.9051 166.159 32.4122 166.059L32.3038 144.469L44.7924 144.407L44.7226 130.49L45.5031 130.486L45.5769 145.199ZM90.8701 188.23L64.7455 188.361C64.6509 188.869 64.3703 189.324 63.9585 189.636C63.5467 189.948 63.0333 190.095 62.5187 190.049C62.004 190.003 61.5251 189.766 61.1755 189.386C60.8259 189.005 60.6307 188.508 60.6281 187.991C60.6255 187.475 60.8157 186.976 61.1614 186.592C61.5072 186.208 61.9837 185.966 62.4979 185.915C63.0121 185.864 63.5269 186.006 63.9418 186.314C64.3567 186.622 64.6419 187.074 64.7416 187.581L90.8896 187.449L90.8701 188.23ZM230.712 189.214C230.196 189.213 229.699 189.018 229.319 188.669C228.939 188.32 228.703 187.842 228.657 187.328L190.044 187.521L190.04 186.741L228.739 186.547C228.841 186.173 229.045 185.835 229.328 185.571C229.611 185.307 229.963 185.128 230.343 185.053C230.723 184.979 231.116 185.012 231.478 185.149C231.84 185.286 232.157 185.522 232.392 185.83C232.627 186.137 232.772 186.505 232.809 186.89C232.847 187.275 232.776 187.664 232.604 188.011C232.433 188.358 232.167 188.65 231.838 188.855C231.509 189.059 231.13 189.167 230.743 189.167L230.712 189.214ZM191.108 100.937L204.291 100.871L204.264 95.4069C203.893 95.3382 203.547 95.1697 203.265 94.9194C202.982 94.6691 202.773 94.3465 202.66 93.9863C202.547 93.6261 202.535 93.2419 202.624 92.8751C202.713 92.5083 202.9 92.1727 203.166 91.9045C203.432 91.6362 203.765 91.4454 204.131 91.3527C204.497 91.2599 204.881 91.2686 205.243 91.3779C205.604 91.4872 205.929 91.6929 206.182 91.9729C206.435 92.253 206.607 92.5967 206.679 92.9672L231.844 92.8409L231.909 105.931L242.642 105.877C242.743 105.514 242.942 105.186 243.215 104.928C243.489 104.669 243.828 104.49 244.196 104.409L244.095 84.4197L256.584 84.357C256.763 83.873 257.117 83.4732 257.575 83.2357C258.034 82.9982 258.564 82.9399 259.063 83.0722C259.562 83.2046 259.994 83.5181 260.274 83.9516C260.554 84.3851 260.663 84.9074 260.579 85.4168C260.495 85.9261 260.224 86.3859 259.82 86.7065C259.415 87.0271 258.906 87.1854 258.391 87.1506C257.876 87.1158 257.392 86.8904 257.034 86.5183C256.676 86.1462 256.47 85.6542 256.455 85.1382L244.895 85.1962L244.992 104.405C245.36 104.482 245.701 104.658 245.977 104.914C246.253 105.17 246.455 105.496 246.56 105.857L262.67 105.776C262.811 105.277 263.132 104.848 263.572 104.573C264.012 104.298 264.538 104.197 265.049 104.289C265.559 104.382 266.016 104.661 266.332 105.073C266.647 105.485 266.797 105.999 266.753 106.516C266.71 107.033 266.474 107.515 266.094 107.868C265.714 108.22 265.216 108.419 264.697 108.424C264.179 108.429 263.677 108.24 263.29 107.895C262.903 107.55 262.658 107.073 262.604 106.557L246.689 106.637C246.637 107.145 246.4 107.616 246.022 107.959C245.644 108.302 245.152 108.493 244.642 108.496C244.131 108.498 243.638 108.312 243.256 107.973C242.875 107.633 242.632 107.165 242.576 106.658L231.133 106.715L231.067 93.6098L206.683 93.7321C206.607 94.1402 206.41 94.5161 206.118 94.8111C205.826 95.1062 205.452 95.3069 205.044 95.3873L205.076 101.632L191.143 101.702L191.108 100.937ZM241.249 128.543C241.34 128.071 241.591 127.644 241.961 127.337C242.331 127.029 242.797 126.86 243.278 126.857C243.759 126.855 244.226 127.02 244.599 127.324C244.972 127.627 245.228 128.051 245.324 128.523L252.208 128.488C252.302 127.98 252.583 127.526 252.995 127.214C253.407 126.901 253.92 126.754 254.435 126.8C254.949 126.847 255.428 127.083 255.778 127.463C256.128 127.844 256.323 128.341 256.325 128.858C256.328 129.375 256.138 129.874 255.792 130.258C255.446 130.642 254.97 130.883 254.455 130.934C253.941 130.986 253.426 130.843 253.012 130.535C252.597 130.227 252.311 129.776 252.212 129.269L245.327 129.303C245.24 129.774 244.992 130.2 244.627 130.509C244.262 130.818 243.801 130.991 243.322 130.999L243.352 136.877L261.304 136.787C261.333 136.269 261.554 135.781 261.923 135.417C262.293 135.053 262.785 134.841 263.303 134.82C263.821 134.8 264.328 134.973 264.725 135.307C265.122 135.64 265.381 136.11 265.45 136.624C265.52 137.138 265.395 137.659 265.101 138.086C264.806 138.513 264.363 138.814 263.858 138.932C263.354 139.05 262.823 138.975 262.37 138.723C261.917 138.47 261.575 138.058 261.409 137.567L242.567 137.661L242.533 130.855C242.205 130.724 241.916 130.514 241.691 130.242C241.466 129.97 241.313 129.647 241.245 129.3L29.8991 130.361C29.8046 130.869 29.5239 131.324 29.1122 131.636C28.7004 131.948 28.187 132.095 27.6723 132.049C27.1577 132.003 26.6787 131.766 26.3291 131.386C25.9795 131.005 25.7844 130.508 25.7818 129.991C25.7792 129.475 25.9693 128.976 26.3151 128.592C26.6609 128.208 27.1374 127.966 27.6516 127.915C28.1657 127.864 28.6806 128.006 29.0955 128.314C29.5104 128.622 29.7956 129.073 29.8952 129.581L241.249 128.543ZM29.141 92.8357C29.0717 93.3456 28.8148 93.8114 28.4205 94.1421C28.0262 94.4727 27.5228 94.6445 27.0086 94.6239C26.4944 94.6033 26.0063 94.3918 25.6397 94.0306C25.2731 93.6695 25.0544 93.1846 25.0261 92.6708C24.9978 92.1569 25.1621 91.651 25.4868 91.2518C25.8116 90.8526 26.2734 90.5888 26.7823 90.5119C27.2911 90.435 27.8103 90.5505 28.2386 90.8359C28.6668 91.1213 28.9732 91.5561 29.0981 92.0553L59.0473 91.905L59.0871 99.8353C59.4606 99.933 59.7989 100.134 60.0627 100.416C60.3266 100.698 60.5053 101.049 60.5781 101.428L93.8524 101.261L93.8563 102.041L60.582 102.208C60.4916 102.681 60.2398 103.107 59.8698 103.415C59.4997 103.722 59.0344 103.892 58.5532 103.894C58.0721 103.897 57.6051 103.732 57.232 103.428C56.8589 103.124 56.6029 102.701 56.5076 102.229L29.1888 102.366C29.0942 102.874 28.8137 103.329 28.4019 103.641C27.9901 103.953 27.4767 104.1 26.962 104.054C26.4474 104.008 25.9685 103.771 25.6188 103.391C25.2692 103.01 25.074 102.513 25.0714 101.996C25.0688 101.48 25.259 100.981 25.6048 100.597C25.9506 100.213 26.4271 99.9714 26.9413 99.9201C27.4554 99.8687 27.9703 100.011 28.3852 100.319C28.8001 100.627 29.0852 101.078 29.1849 101.586L56.5037 101.448C56.587 101.014 56.8068 100.618 57.131 100.317C57.4552 100.016 57.8669 99.8271 58.3062 99.7768L58.2707 92.6895L29.141 92.8357Z" fill="#464C4F" fill-opacity="0.2"/>
<path d="M90.8701 188.23L64.7455 188.361C64.6509 188.869 64.3703 189.324 63.9585 189.636C63.5467 189.948 63.0333 190.095 62.5187 190.049C62.004 190.003 61.5251 189.766 61.1755 189.386C60.8259 189.005 60.6307 188.508 60.6281 187.991C60.6255 187.475 60.8157 186.976 61.1614 186.592C61.5072 186.208 61.9837 185.966 62.4979 185.915C63.0121 185.864 63.5269 186.006 63.9418 186.314C64.3567 186.622 64.6419 187.074 64.7416 187.581L90.8896 187.449L90.8701 188.23Z" fill="#464C4F" fill-opacity="0.2"/>
<path d="M230.712 189.214C230.196 189.213 229.699 189.018 229.319 188.669C228.939 188.32 228.703 187.842 228.657 187.328L190.044 187.521L190.04 186.741L228.739 186.547C228.841 186.173 229.045 185.835 229.328 185.571C229.611 185.307 229.963 185.128 230.343 185.053C230.723 184.979 231.116 185.012 231.478 185.149C231.84 185.286 232.157 185.522 232.392 185.83C232.627 186.137 232.772 186.505 232.809 186.89C232.847 187.275 232.776 187.664 232.604 188.011C232.433 188.358 232.167 188.65 231.838 188.855C231.509 189.059 231.13 189.167 230.743 189.167L230.712 189.214Z" fill="#464C4F" fill-opacity="0.2"/>
<path d="M238.48 211.03H212.95C210.396 211.03 208.325 213.1 208.325 215.655V245.41C208.325 247.964 210.396 250.035 212.95 250.035H238.48C241.034 250.035 243.105 247.964 243.105 245.41V215.655C243.105 213.1 241.034 211.03 238.48 211.03Z" fill="#008AC7"/>
<path d="M225.73 217.48C230.532 217.48 234.425 213.587 234.425 208.785C234.425 203.983 230.532 200.09 225.73 200.09C220.928 200.09 217.035 203.983 217.035 208.785C217.035 213.587 220.928 217.48 225.73 217.48Z" fill="#253B54" stroke="#253B54" stroke-width="0.5" stroke-linecap="round" stroke-linejoin="round"/>
<path d="M224.25 220.705L212.155 226.925L217.455 247.775H234.735L239.8 226.925L227.13 220.82L224.25 220.705Z" fill="#808080" stroke="#253B54" stroke-width="0.5" stroke-linecap="round" stroke-linejoin="round"/>
<path d="M212.155 226.925L207.54 246.345C207.403 246.902 207.44 247.489 207.646 248.025C207.851 248.561 208.216 249.021 208.69 249.345L214.805 253.545H218.5L214.125 245.825L216.315 241.68L212.155 226.925Z" fill="#808080" stroke="#253B54" stroke-width="0.5" stroke-linecap="round" stroke-linejoin="round"/>
<path d="M239.8 226.925L244.42 246.345C244.555 246.902 244.517 247.488 244.312 248.024C244.107 248.56 243.743 249.02 243.27 249.345L237.155 253.545H233.465L237.845 245.825L235.655 241.68L239.8 226.925Z" fill="#808080" stroke="#253B54" stroke-width="0.5" stroke-linecap="round" stroke-linejoin="round"/>
<path d="M225.865 228.08C225.04 228.08 224.249 227.752 223.666 227.169C223.083 226.586 222.755 225.795 222.755 224.97V217.365H229V224.97C228.999 225.38 228.918 225.786 228.76 226.165C228.602 226.544 228.37 226.887 228.079 227.176C227.788 227.465 227.442 227.694 227.062 227.849C226.682 228.004 226.275 228.082 225.865 228.08Z" fill="white" fill-opacity="0.8" stroke="#253B54" stroke-width="0.5" stroke-linecap="round" stroke-linejoin="round"/>
<path d="M222.755 222.225C223.404 222.882 224.231 223.336 225.135 223.529C225.445 223.565 225.758 223.581 226.07 223.579C226.412 223.581 226.754 223.564 227.095 223.529V223.499C227.819 223.308 228.473 222.911 228.975 222.354V217.354H222.755V222.225Z" fill="#253B54" stroke="#253B54" stroke-width="0.5" stroke-linecap="round" stroke-linejoin="round"/>
<path d="M231.435 212.645L230.91 207.69C230.01 208.76 227.46 209.065 226.07 209.15C224.54 209.065 221.745 208.76 220.76 207.69L220.18 212.645C220.18 212.645 218.11 211.375 218.455 213.91C218.8 216.445 220.295 216.445 220.295 216.445C220.328 217.849 220.86 219.196 221.795 220.245C222.62 221.245 223.995 222.425 225.135 222.545C225.445 222.58 225.758 222.595 226.07 222.59C226.412 222.595 226.754 222.579 227.095 222.545V222.5C228.095 222.36 229.25 221.175 229.965 220.225C230.824 219.142 231.304 217.807 231.33 216.425C231.33 216.425 232.695 216.425 233.01 213.89C233.325 211.355 231.435 212.645 231.435 212.645Z" fill="white" fill-opacity="0.8" stroke="#253B54" stroke-width="0.5" stroke-linecap="round" stroke-linejoin="round"/>
<path d="M240.145 256.875H211.81V257.795H240.145V256.875Z" fill="#008AC7" stroke="#253B54" stroke-width="0.5" stroke-linecap="round" stroke-linejoin="round"/>
<path d="M240.15 256.875H211.81L208.98 241.325H242.98L240.15 256.875Z" fill="#008AC7" stroke="#253B54" stroke-width="0.5" stroke-linecap="round" stroke-linejoin="round"/>
<path d="M240.15 256.875L242.98 241.325L211.81 256.875H240.15Z" fill="#253B54" stroke="#253B54" stroke-width="0.5" stroke-linecap="round" stroke-linejoin="round"/>
<path d="M198.68 211.03H132.74C130.186 211.03 128.115 213.101 128.115 215.655V245.41C128.115 247.965 130.186 250.035 132.74 250.035H198.68C201.234 250.035 203.305 247.965 203.305 245.41V215.655C203.305 213.101 201.234 211.03 198.68 211.03Z" fill="#008AC7"/>
<path d="M160.875 208.5C160.875 208.5 160.735 209.775 159.175 211.475C157.615 213.175 156.765 212.75 157.045 213.6C157.325 214.45 158.465 215.02 158.465 215.02C158.465 215.02 158.04 220.125 158.89 221.115C159.74 222.105 163.14 221.68 163.14 221.68C163.14 221.68 163.71 224.09 163 225.65C162.29 227.21 162.435 227.92 162.435 227.92C162.435 227.92 168.385 226.5 169.52 225.37C170.655 224.24 168.815 218.28 170.09 213.175C171.365 208.07 162.575 206.63 160.875 208.5Z" fill="white" fill-opacity="0.8" stroke="#253B54" stroke-width="0.5" stroke-linecap="round" stroke-linejoin="round"/>
<path d="M184.545 245.045V225.345L186.675 220.38C186.675 220.38 187.95 216.695 187.95 215.845C187.95 214.995 187.38 215.135 186.815 216.27C186.25 217.405 186.25 218.115 185.68 218.68C185.045 219.24 184.377 219.761 183.68 220.24C183.68 220.24 183.825 217.83 183.825 217.405C183.825 216.98 183.115 216.835 182.69 217.69C182.265 218.545 182.975 218.115 181.98 219.955C180.985 221.795 181.555 225.06 181.555 225.06C181.555 225.06 178.58 237.535 177.87 239.66C177.16 241.785 177.445 244.48 180.705 245.895C183.965 247.31 184.545 245.045 184.545 245.045Z" fill="white" fill-opacity="0.8" stroke="#253B54" stroke-width="0.5" stroke-linecap="round" stroke-linejoin="round"/>
<path d="M180.155 230C180.155 230 184.545 243 184.545 245C184.545 248.685 182.545 249.82 180.86 248.97C179.175 248.12 177.035 243.5 177.035 243.5C177.035 243.5 179 230.87 180.155 230Z" fill="#808080" stroke="#253B54" stroke-width="0.5" stroke-linecap="round" stroke-linejoin="round"/>
<path d="M143.865 240.935C143.865 240.935 145 241.36 147.125 240.795C149.25 240.23 156.5 238.665 156.5 238.665C156.5 238.665 155.79 241.36 156.36 242.635C156.93 243.91 159.475 247.315 159.475 247.315L157.685 257.815H178.685L176.79 249.175C176.79 249.175 180.335 230.605 180.195 230.04C180.055 229.475 175.94 225.08 174.38 224.51C172.82 223.94 167.15 224.23 167.15 224.23L155.245 228.055C155.245 228.055 145.28 233.705 143.44 235C141.6 236.295 140.885 239.5 143.865 240.935Z" fill="#808080" stroke="#253B54" stroke-width="0.5" stroke-linecap="round" stroke-linejoin="round"/>
<path d="M156.48 238.665L160.165 238.385" stroke="#253B54" stroke-width="0.5" stroke-linecap="round" stroke-linejoin="round"/>
<path d="M158.89 227.895C158.89 227.895 163.285 228.46 163.71 234.84" stroke="#253B54" stroke-width="0.5" stroke-linecap="round" stroke-linejoin="round"/>
<path d="M165.835 202.235C165.835 202.235 162.715 198.835 160.165 200.675C157.615 202.515 159.165 207.175 160.59 209.465C162.015 211.755 164.985 212.725 165.41 213.435C165.835 214.145 164.41 219.67 164.41 222.51C164.41 225.35 168.945 227.325 171.91 227.325C174.875 227.325 178.29 224.35 178.715 223.5C178.93 223.087 179.119 222.662 179.28 222.225C179.28 222.225 176.445 222.935 176.165 220.1C175.885 217.265 178.575 215.42 178.575 210.46C178.575 205.5 172.64 198.55 165.835 202.235Z" fill="#253B54" stroke="#253B54" stroke-width="0.5" stroke-linecap="round" stroke-linejoin="round"/>
<path d="M169.11 212.505L164.685 210.264L160.458 218.61L164.883 220.851L169.11 212.505Z" fill="#008AC7" stroke="#253B54" stroke-width="0.5" stroke-linecap="round" stroke-linejoin="round"/>
<path d="M143.44 235C145.28 233.725 155.205 228.055 155.205 228.055L158.11 227.125C160.485 224.625 162.29 222.67 162.29 222.67C162.29 222.67 165.975 219.835 166.26 219.41C166.786 218.759 167.354 218.143 167.96 217.565C168.53 217 168.96 216.715 167.68 216.855C166.4 216.995 165.68 217.855 164.68 217.855C163.68 217.855 162.98 216.435 162.98 216.435C162.98 216.435 162.695 213.035 162.27 212.895C161.845 212.755 160.995 213.175 160.995 213.745C160.997 214.084 160.95 214.42 160.855 214.745C160.012 215.253 159.206 215.821 158.445 216.445C157.875 217.015 158.02 217.58 158.02 218.29V221.69C158.02 221.69 144.46 231.66 143.02 233.19C139.765 236.55 141.155 238.335 142.115 239.305C141.42 237.73 142.15 235.875 143.44 235Z" fill="white" fill-opacity="0.8" stroke="#253B54" stroke-width="0.5" stroke-linecap="round" stroke-linejoin="round"/>
<path d="M118.86 211.03H52.9199C50.3656 211.03 48.2949 213.1 48.2949 215.655V245.41C48.2949 247.964 50.3656 250.035 52.9199 250.035H118.86C121.414 250.035 123.485 247.964 123.485 245.41V215.655C123.485 213.1 121.414 211.03 118.86 211.03Z" fill="#008AC7"/>
<path d="M91.8951 244.03H45.2701V257.795H91.8951V244.03Z" fill="#253B54" stroke="#253B54" stroke-width="0.5" stroke-linecap="round" stroke-linejoin="round"/>
<path d="M72.17 238.26H66.335V244.425H72.17V238.26Z" fill="#253B54" stroke="#253B54" stroke-width="0.5" stroke-linecap="round" stroke-linejoin="round"/>
<path d="M83.9999 217.595H52.9999V239.095H83.9999V217.595Z" fill="#253B54" stroke="#253B54" stroke-width="0.5" stroke-linecap="round" stroke-linejoin="round"/>
<path d="M81.8399 219.095H55.1649V237.595H81.8399V219.095Z" fill="white" fill-opacity="0.8" stroke="#253B54" stroke-width="0.5" stroke-linecap="round" stroke-linejoin="round"/>
<path d="M80.0749 243H53.0599V244.165H80.0749V243Z" fill="white" fill-opacity="0.8" stroke="#253B54" stroke-width="0.5" stroke-linecap="round" stroke-linejoin="round"/>
<path d="M92.9999 243.93H44.1649V245.595H92.9999V243.93Z" fill="#253B54" stroke="#253B54" stroke-width="0.5" stroke-linecap="round" stroke-linejoin="round"/>
<path d="M93.9399 201.935C93.9399 201.935 90.6099 202.11 90.0799 204.39C89.5499 206.67 91.8349 207.39 91.8349 207.39C91.8349 207.39 91.6599 211.075 91.8349 211.6C91.987 212.176 92.1039 212.76 92.1849 213.35C92.1849 213.35 91.6599 216.155 91.8349 216.685C92.0099 217.215 93.5899 217.21 93.5899 217.21C93.5899 217.21 95.3399 221.415 96.9199 221.595C98.4999 221.775 100.075 220.715 100.075 220.715L100.95 223.5C100.95 223.5 109.72 220.695 109.195 220.87C108.67 221.045 107.79 216.84 107.79 216.84C107.79 216.84 110.595 208.25 109.195 204.215C107.795 200.18 100.425 196.675 93.9399 201.935Z" fill="white" fill-opacity="0.8" stroke="#253B54" stroke-width="0.5" stroke-linecap="round" stroke-linejoin="round"/>
<path d="M99.5499 214.735C99.3583 214.772 99.1785 214.855 99.0261 214.977C98.8737 215.099 98.7531 215.256 98.6749 215.435C98.6749 215.435 103.58 217.715 105.335 217.54C106.181 217.429 107.01 217.215 107.805 216.905V216.84C107.805 216.84 110.61 208.25 109.21 204.215C107.81 200.18 100.44 196.675 93.9549 201.935C93.9549 201.935 90.6249 202.11 90.0949 204.39C89.5649 206.67 91.8499 207.39 91.8499 207.39C91.8499 207.39 93.0749 208.09 93.6049 207.915C94.1067 207.67 94.5754 207.363 94.9999 207C94.9999 207 93.4249 210 93.9499 210.33C94.4749 210.66 95.8799 211.91 95.8799 211.91C95.8799 211.91 96.5799 213.485 97.1049 212.785C97.6299 212.085 97.3799 211.975 97.8049 211.21C97.9558 210.987 98.1695 210.813 98.4189 210.711C98.6684 210.609 98.9424 210.583 99.2066 210.637C99.4707 210.69 99.7131 210.821 99.9032 211.012C100.093 211.203 100.223 211.446 100.275 211.71C100.615 213.15 100.25 214.56 99.5499 214.735Z" fill="#253B54" stroke="#253B54" stroke-width="0.5" stroke-linecap="round" stroke-linejoin="round"/>
<path d="M106.335 220.165L98.835 223.665L97.335 226.165L110.665 222.83L112.335 223.33C112.335 223.33 111.335 219 106.335 220.165Z" fill="#808080" stroke="#253B54" stroke-width="0.5" stroke-linecap="round" stroke-linejoin="round"/>
<path d="M93 242.5L92.365 257.8H118.25C118.8 254.265 121.795 234.12 119.665 230.17C119.24 229.38 112.335 223.335 112.335 223.335C112.335 223.335 110 222 107.835 222.67C105.67 223.34 99.335 225.335 99.335 225.335L89.5 231.165L82.835 243.665L71.5 242L69.835 244.5L84.5 252.33L93 242.5Z" fill="#808080" stroke="#253B54" stroke-width="0.5" stroke-linecap="round" stroke-linejoin="round"/>
<path d="M69.8351 241.5L66.6651 239.17C66.6651 239.17 61.6651 239.67 61.0001 240.17C60.6068 240.461 60.3147 240.869 60.1651 241.335L62.5001 241.67L60.5001 242.17V243L64.5001 242.835L67.0001 244.335L69.8351 244.5L71.5001 242L69.8351 241.5Z" fill="white" fill-opacity="0.8" stroke="#253B54" stroke-width="0.5" stroke-linecap="round" stroke-linejoin="round"/>
<path d="M121.27 257.795L123.77 244.97C123.836 244.629 123.826 244.278 123.741 243.941C123.656 243.605 123.497 243.291 123.276 243.023C123.055 242.755 122.778 242.539 122.464 242.391C122.15 242.242 121.807 242.165 121.46 242.165H103.89C103.354 242.164 102.834 242.347 102.417 242.682C101.999 243.018 101.709 243.487 101.595 244.01L98.5599 257.795H121.27Z" fill="#253B54" stroke="#253B54" stroke-width="0.5" stroke-linecap="round" stroke-linejoin="round"/>
<path d="M152 21L152 52" stroke="white" stroke-opacity="0.2" stroke-width="0.5" stroke-miterlimit="10" stroke-dasharray="1.5 1.5"/>
<path d="M152.25 53.5147L156.615 45.9497H147.88L152.25 53.5147Z" fill="#4D5356"/>
<path d="M149.245 174.055C182.6 174.055 209.64 147.015 209.64 113.66C209.64 80.3044 182.6 53.2646 149.245 53.2646C115.89 53.2646 88.8501 80.3044 88.8501 113.66C88.8501 147.015 115.89 174.055 149.245 174.055Z" stroke="white" stroke-opacity="0.2" stroke-width="0.5" stroke-miterlimit="10" stroke-dasharray="1.51 1.51"/>
<path d="M152.145 178.505V194.845" stroke="white" stroke-opacity="0.2" stroke-width="0.5" stroke-miterlimit="10" stroke-dasharray="1.5 1.5"/>
<path d="M70.8651 195.22V185.39H226.465V198.015" stroke="white" stroke-opacity="0.2" stroke-width="0.5" stroke-miterlimit="10" stroke-dasharray="1.5 1.5"/>
<path d="M70.8751 199.36L75.2401 191.795H66.5051L70.8751 199.36Z" fill="#4D5356"/>
<path d="M152.25 199.36L156.615 191.795H147.88L152.25 199.36Z" fill="#4D5356"/>
<path d="M226.445 199.36L230.815 191.795H222.08L226.445 199.36Z" fill="#4D5356"/>
<path d="M198.79 91.9996C198.79 91.9996 178.315 89.3296 150.5 60.7046V60.3096L150.305 60.5046L150.115 60.3096V60.7046C122.32 89.3296 101.84 91.9996 101.84 91.9996C94.5451 151.96 145.215 172.5 150.125 174.36V174.5L150.315 174.43L150.51 174.5V174.36C155.42 172.5 206.09 151.935 198.79 91.9996Z" fill="#253B54"/>
<path d="M195 93.955C195 93.955 176.135 91.5 150.5 65.115V64.75L150.32 64.935L150.145 64.75V65.115C124.505 91.515 105.645 93.955 105.645 93.955C98.915 149.245 145.645 168.2 150.145 169.905V170.035L150.32 169.97L150.5 170.035V169.905C155.025 168.2 201.745 149.245 195 93.955Z" fill="#008AC7"/>
<path opacity="0.5" d="M185.77 98.805C185.77 98.805 170.77 96.87 150.455 75.93V75.645C150.41 75.69 150.365 75.74 150.315 75.785L150.175 75.645V75.93C129.84 96.87 114.865 98.805 114.865 98.805C109.525 142.655 146.585 157.69 150.175 159.04V159.145L150.315 159.09L150.455 159.145V159.04C154.05 157.69 191.105 142.655 185.77 98.805Z" fill="white" fill-opacity="0.8"/>
<path d="M145.835 120.645C145.835 120.645 128.5 129.81 128.165 130.81C127.83 131.81 130.665 150.645 131.665 157.31C132.349 162.346 132.739 167.418 132.835 172.5V175.335H178.835C178.835 175.335 182.165 126.5 181 126C179.835 125.5 159.5 118.835 159.5 118.835L145.835 120.645Z" fill="#DBDBDB" stroke="#253B54" stroke-width="0.5" stroke-linecap="round" stroke-linejoin="round"/>
<path d="M147 130.6C147 130.6 146.67 146.81 147 155.145C147.33 163.48 148.335 175.31 148.335 175.31" stroke="#253B54" stroke-width="0.5" stroke-linecap="round" stroke-linejoin="round"/>
<path d="M148.5 137.14C148.867 137.14 149.165 136.842 149.165 136.475C149.165 136.108 148.867 135.81 148.5 135.81C148.133 135.81 147.835 136.108 147.835 136.475C147.835 136.842 148.133 137.14 148.5 137.14Z" stroke="#253B54" stroke-width="0.5" stroke-linecap="round" stroke-linejoin="round"/>
<path d="M148.5 152.64C148.867 152.64 149.165 152.342 149.165 151.975C149.165 151.608 148.867 151.31 148.5 151.31C148.133 151.31 147.835 151.608 147.835 151.975C147.835 152.342 148.133 152.64 148.5 152.64Z" fill="#DBDBDB" stroke="#253B54" stroke-width="0.5" stroke-linecap="round" stroke-linejoin="round"/>
<path d="M150 164.145C150 164.277 149.961 164.407 149.887 164.517C149.813 164.628 149.708 164.714 149.585 164.764C149.462 164.815 149.327 164.828 149.197 164.801C149.067 164.775 148.948 164.711 148.854 164.617C148.761 164.522 148.698 164.403 148.672 164.272C148.647 164.142 148.661 164.007 148.712 163.885C148.764 163.762 148.851 163.658 148.961 163.585C149.072 163.512 149.202 163.474 149.335 163.475C149.512 163.476 149.681 163.547 149.805 163.673C149.93 163.798 150 163.968 150 164.145Z" fill="#DBDBDB" stroke="#253B54" stroke-width="0.5" stroke-linecap="round" stroke-linejoin="round"/>
<path d="M167.835 168.645L162.665 171.31C162.665 171.31 156.165 167.145 154 166.975C151.835 166.805 149.165 167.145 147.665 168.475C146.165 169.805 145.335 170.81 143.665 170.81C141.995 170.81 140 170.975 141 172.31C142 173.645 145.5 173.645 146.835 173.145C148.17 172.645 150.165 172.145 150.165 172.145C150.865 173.104 151.861 173.807 153 174.145C154.198 174.454 155.428 174.622 156.665 174.645C156.665 174.645 159.835 176.645 161.835 176.475C163.037 176.376 164.217 176.096 165.335 175.645L171.5 173.81C171.5 173.81 169.835 169.81 167.835 168.645Z" fill="#ABABAB" stroke="#253B54" stroke-width="0.5" stroke-linecap="round" stroke-linejoin="round"/>
<path d="M152.5 165.645C152.5 165.645 150.5 164.475 149.5 165.645C148.5 166.815 148.165 172.81 148.665 173.475C149.165 174.14 149.5 172.645 150.165 172.145C150.83 171.645 152.5 165.645 152.5 165.645Z" fill="#ABABAB" stroke="#253B54" stroke-width="0.5" stroke-linecap="round" stroke-linejoin="round"/>
<path d="M156 166.31C156 166.31 153.5 164.81 152.5 165.645C151.5 166.48 149.665 173.145 150.165 173.81C150.665 174.475 152.165 173.81 152.335 172.975C152.505 172.14 155.335 167.81 155.335 167.81L156 166.31Z" fill="#ABABAB" stroke="#253B54" stroke-width="0.5" stroke-linecap="round" stroke-linejoin="round"/>
<path d="M160 169C160 169 156.835 166 156 166.335C155.165 166.67 150.5 173.67 151.665 174.5C152.83 175.33 156.835 170.335 156.835 170.335L158.335 171.5" fill="#ABABAB"/>
<path d="M160 169C160 169 156.835 166 156 166.335C155.165 166.67 150.5 173.67 151.665 174.5C152.83 175.33 156.835 170.335 156.835 170.335L158.335 171.5" stroke="#253B54" stroke-width="0.5" stroke-linecap="round" stroke-linejoin="round"/>
<path d="M164.335 172.81C164.335 172.81 161.335 167.975 160.335 167.975C159.335 167.975 153.665 173.145 153.665 173.145C153.665 173.145 155.335 174.475 155.835 174.145C156.335 173.815 159.165 171.975 159.165 171.975C159.165 171.975 159.665 174.645 161.5 175.145" fill="#ABABAB"/>
<path d="M164.335 172.81C164.335 172.81 161.335 167.975 160.335 167.975C159.335 167.975 153.665 173.145 153.665 173.145C153.665 173.145 155.335 174.475 155.835 174.145C156.335 173.815 159.165 171.975 159.165 171.975C159.165 171.975 159.665 174.645 161.5 175.145" stroke="#253B54" stroke-width="0.5" stroke-linecap="round" stroke-linejoin="round"/>
<path d="M178.335 125.5C178.335 125.5 182.165 125.5 182.5 127.17C182.835 128.84 183.165 132.5 183.165 132.5C183.165 132.5 197.835 166.835 197.335 168.335C196.835 169.835 174.5 177.17 173.835 177.17C173.17 177.17 167.835 168.67 167.835 168.67L178.665 161.835L173 146.645" fill="#DBDBDB"/>
<path d="M178.335 125.5C178.335 125.5 182.165 125.5 182.5 127.17C182.835 128.84 183.165 132.5 183.165 132.5C183.165 132.5 197.835 166.835 197.335 168.335C196.835 169.835 174.5 177.17 173.835 177.17C173.17 177.17 167.835 168.67 167.835 168.67L178.665 161.835L173 146.645" stroke="#253B54" stroke-width="0.5" stroke-linecap="round" stroke-linejoin="round"/>
<path d="M176.165 136.145C176.165 136.145 171.335 140.31 171 145.645" stroke="#253B54" stroke-width="0.5" stroke-linecap="round" stroke-linejoin="round"/>
<path d="M172.165 136C172.165 136 169.5 140.145 169.5 145.145" stroke="#253B54" stroke-width="0.5" stroke-linecap="round" stroke-linejoin="round"/>
<path d="M178.665 161.81C178.665 161.81 181.835 158.975 183.165 158.975C184.495 158.975 187.5 159.645 188.165 162.475" stroke="#253B54" stroke-width="0.5" stroke-linecap="round" stroke-linejoin="round"/>
<path d="M180.835 158.645C180.835 158.645 185.335 155.975 186.835 157.145C187.839 158.012 188.635 159.094 189.165 160.31" stroke="#253B54" stroke-width="0.5" stroke-linecap="round" stroke-linejoin="round"/>
<path d="M128.165 130.81L123.165 162.81C123.165 162.81 117.665 166.81 119.665 172.81C120.455 175.18 122.665 176.31 132.835 175.31C133.35 169.266 133.35 163.189 132.835 157.145C132 146.5 128.165 130.81 128.165 130.81Z" fill="#DBDBDB" stroke="#253B54" stroke-width="0.5" stroke-linecap="round" stroke-linejoin="round"/>
<path d="M127 167.11C127 167.11 130.425 167.19 130.665 167.585C130.905 167.98 130.905 173.32 130.11 173.88C129.315 174.44 128.755 174.675 128.435 173.88C128.115 173.085 127.56 171.41 127.56 171.41C127.56 171.41 125.41 173.8 123.335 173.32C121.26 172.84 121.025 171.89 120.39 171.65C119.755 171.41 118.89 171.73 117.44 171.15C115.99 170.57 114.415 168.445 114.415 168.445C114.415 168.445 110.59 171.79 109.795 171.39C109 170.99 109.875 169.72 111.15 168.365C112.425 167.01 113.3 165.655 114.575 165.335C115.85 165.015 120.945 164.38 122.54 164.86C124.135 165.34 125.49 166.055 125.645 166.29C126.062 166.617 126.517 166.893 127 167.11Z" fill="#ABABAB" stroke="#253B54" stroke-width="0.5" stroke-linecap="round" stroke-linejoin="round"/>
<path d="M116.575 164.32C116.575 164.32 114.425 163.92 114.185 165.355C113.945 166.79 114.505 172.355 115.06 172.855C115.237 172.971 115.439 173.046 115.65 173.072C115.86 173.098 116.074 173.076 116.275 173.006C116.475 172.936 116.657 172.822 116.806 172.671C116.956 172.52 117.068 172.336 117.135 172.135C117.45 171.18 117.37 166.165 117.37 166.165C117.37 166.165 117.61 164.8 116.575 164.32Z" fill="#ABABAB" stroke="#253B54" stroke-width="0.5" stroke-linecap="round" stroke-linejoin="round"/>
<path d="M120.56 165.195C120.56 165.195 117.37 163.195 116.56 164.32C115.75 165.445 116.64 172.205 117.06 173.085C117.48 173.965 118.97 174.28 119.29 173.32C119.61 172.36 119.685 168.385 119.79 168.145" fill="#ABABAB"/>
<path d="M120.56 165.195C120.56 165.195 117.37 163.195 116.56 164.32C115.75 165.445 116.64 172.205 117.06 173.085C117.48 173.965 118.97 174.28 119.29 173.32C119.61 172.36 119.685 168.385 119.79 168.145" stroke="#253B54" stroke-width="0.5" stroke-linecap="round" stroke-linejoin="round"/>
<path d="M122.39 166.31C122.31 166.55 122.39 173.56 121.435 174.04C120.48 174.52 119.125 174.515 119.125 171.33C119.125 168.145 119.285 164.24 120.16 163.92C121.035 163.6 123.505 164.96 124.385 165.755" fill="#ABABAB"/>
<path d="M122.39 166.31C122.31 166.55 122.39 173.56 121.435 174.04C120.48 174.52 119.125 174.515 119.125 171.33C119.125 168.145 119.285 164.24 120.16 163.92C121.035 163.6 123.505 164.96 124.385 165.755" stroke="#253B54" stroke-width="0.5" stroke-linecap="round" stroke-linejoin="round"/>
<path d="M127.57 171.41L126.85 168.225" stroke="#253B54" stroke-width="0.5" stroke-linecap="round" stroke-linejoin="round"/>
<path d="M141.465 120.59V129.675L146.075 126.38L141.465 120.59Z" fill="#BABABA" stroke="#253B54" stroke-width="0.5" stroke-linecap="round" stroke-linejoin="round"/>
<path d="M146.995 130.595L141.465 120.59L146.865 116.765L146.995 130.595Z" fill="#DBDBDB" stroke="#253B54" stroke-width="0.5" stroke-linecap="round" stroke-linejoin="round"/>
<path d="M145.28 114.53C145.28 114.53 146.335 123.615 146.6 126.25C146.865 128.885 146.995 130.6 146.995 130.6C146.995 130.6 155.16 121.1 156.74 119.005C158.32 116.91 158.715 116.24 158.715 116.24L159.115 106.495L145.28 114.53Z" fill="#ABABAB" stroke="#253B54" stroke-width="0.5" stroke-linecap="round" stroke-linejoin="round"/>
<path d="M145.5 116.435C146.292 117.037 147.22 117.437 148.202 117.599C149.184 117.761 150.191 117.681 151.135 117.365C154.635 116.08 155.635 113.865 156.4 113.1C156.9 112.6 157.95 111.91 158.925 111.1L159.115 106.495L145.28 114.53C145.28 114.53 145.37 115.29 145.5 116.435Z" fill="#253B54" stroke="#253B54" stroke-width="0.5" stroke-linecap="round" stroke-linejoin="round"/>
<path d="M150.685 122.17L146.995 130.595L153.45 126.38L150.685 122.17Z" fill="#BABABA" stroke="#253B54" stroke-width="0.5" stroke-linecap="round" stroke-linejoin="round"/>
<path d="M150.685 122.17L153.71 130.335L162.67 118.745L160.035 113.345L150.685 122.17Z" fill="#DBDBDB" stroke="#253B54" stroke-width="0.5" stroke-linecap="round" stroke-linejoin="round"/>
<path d="M141.355 79.9399C138.758 81.8536 136.902 84.6054 136.1 87.7299C134.885 92.8249 137.455 98.3599 137.645 100.065C137.835 101.77 137.105 103.985 137.91 106.09C138.715 108.195 142.275 111.53 142.845 113.09C143.415 114.65 146.605 117.46 150.075 116.19C153.545 114.92 154.635 112.69 155.425 111.92C156.215 111.15 158.425 109.86 159.495 108.42C160.565 106.98 161.24 105.95 161.24 105.95C161.24 105.95 164.05 99.0449 164.29 92.8899C164.53 86.7349 160.88 79.7549 153.985 77.8349C147.09 75.9149 141.355 79.9399 141.355 79.9399Z" fill="#ABABAB" stroke="#253B54" stroke-width="0.5" stroke-linecap="round" stroke-linejoin="round"/>
<path opacity="0.5" d="M135.755 96.4996C135.755 96.4996 135.85 100.56 137.325 101.625C138.8 102.69 141.98 102.625 143.265 102.09C144.55 101.555 145.295 98.8446 145.835 98.0646C146.375 97.2846 148.13 97.6996 148.13 97.6996C148.13 97.6996 149.385 101.25 150.38 101.655C151.375 102.06 154.52 102.755 156.72 101.605C158.92 100.455 159.35 95.9996 159.35 95.9996C159.35 95.9996 160.63 95.7546 160.275 95.0946C159.92 94.4346 150.16 94.4446 149.005 94.8246C147.85 95.2046 147.7 95.7246 147.07 95.7146C146.44 95.7046 145.57 95.0447 144.94 95.0347C144.31 95.0247 135.555 95.1796 135.555 95.1796L135.755 96.4996Z" fill="#DBDBDB"/>
<path d="M154 77.8696C147.105 75.9496 141.37 79.9396 141.37 79.9396C139.241 81.5203 137.596 83.6641 136.62 86.1296C136.895 85.4796 138.025 83.0796 140.12 82.5446C142.555 81.9196 142.59 84.1446 145.665 83.3946C148.74 82.6446 153.52 80.2196 155.63 81.4246C157.74 82.6296 159.41 85.1396 158.55 87.7496C157.69 90.3596 157.605 92.3196 158.47 92.9846C159.335 93.6496 160.385 95.7596 160.47 97.0696C160.535 98.1496 161.97 98.8846 163.495 98.6896C163.937 96.7959 164.21 94.8666 164.31 92.9246C164.535 86.7746 160.88 79.7896 154 77.8696Z" fill="#253B54" stroke="#253B54" stroke-width="0.5" stroke-linecap="round" stroke-linejoin="round"/>
<path d="M143.87 102.89C143.87 102.89 143.06 104.06 143.8 104.595C143.977 104.78 144.214 104.896 144.468 104.922C144.723 104.949 144.979 104.884 145.19 104.74" stroke="#253B54" stroke-width="0.5" stroke-linecap="round" stroke-linejoin="round"/>
<path d="M144.71 104.08C145.275 104.575 145.968 104.901 146.71 105.02C147.845 105.165 149.03 104.02 149.03 104.02" stroke="#253B54" stroke-width="0.5" stroke-linecap="round" stroke-linejoin="round"/>
<path d="M148.62 104.5C148.62 104.5 148.98 105.03 150.02 104.39C150.02 104.39 151.43 104.01 150.605 102.43" stroke="#253B54" stroke-width="0.5" stroke-linecap="round" stroke-linejoin="round"/>
<path d="M143.945 107.345C143.945 107.345 147.815 108.845 151.2 106.65" stroke="#253B54" stroke-width="0.5" stroke-linecap="round" stroke-linejoin="round"/>
<path d="M153.3 98.36C153.275 99.045 152.94 99.6 152.555 99.595C152.17 99.59 151.88 99.025 151.91 98.34C151.94 97.655 152.27 97.1 152.655 97.105C153.04 97.11 153.33 97.67 153.3 98.36Z" fill="#253B54"/>
<path d="M143.41 98.4302C143.41 99.1202 143.05 99.6702 142.665 99.6652C142.28 99.6602 141.99 99.1002 142.02 98.4152C142.05 97.7302 142.38 97.1752 142.765 97.1802C143.15 97.1852 143.44 97.7452 143.41 98.4302Z" fill="#253B54"/>
<path d="M135.755 96.4996C135.755 96.4996 135.85 100.56 137.325 101.625C138.8 102.69 141.98 102.625 143.265 102.09C144.55 101.555 145.295 98.8446 145.835 98.0646C146.375 97.2846 148.13 97.6996 148.13 97.6996C148.13 97.6996 149.385 101.25 150.38 101.655C151.375 102.06 154.52 102.755 156.72 101.605C158.92 100.455 159.35 95.9996 159.35 95.9996C159.35 95.9996 160.63 95.7546 160.275 95.0946C159.92 94.4346 150.16 94.4446 149.005 94.8246C147.85 95.2046 147.7 95.7246 147.07 95.7146C146.44 95.7046 145.57 95.0447 144.94 95.0347C144.31 95.0247 135.555 95.1796 135.555 95.1796L135.755 96.4996Z" stroke="#253B54" stroke-width="0.5" stroke-linecap="round" stroke-linejoin="round"/>
<path d="M160.275 95.105L164.38 97.12L164.1 97.77L159.35 96.01L160.275 95.105Z" fill="#253B54" stroke="#253B54" stroke-width="0.5" stroke-linecap="round" stroke-linejoin="round"/>
<path d="M149 94.8346C147.845 95.2096 147.695 95.7346 147.065 95.7246C146.435 95.7146 145.565 95.0546 144.935 95.0446C144.305 95.0346 135.55 95.1897 135.55 95.1897L135.67 95.9696L144.845 95.8296C144.845 95.8296 146.185 95.7197 146.01 96.7597C145.76 98.2097 145.83 98.0696 145.83 98.0696C146.365 97.2896 148.125 97.7047 148.125 97.7047L148.25 98.0396C148.165 97.3796 148.095 96.3496 148.445 96.0046C148.975 95.5046 151.375 95.6496 153.535 95.5446C155.481 95.55 157.423 95.7055 159.345 96.0097L160.225 95.0596C159.445 94.4446 150.13 94.4646 149 94.8346Z" fill="#253B54" stroke="#253B54" stroke-width="0.5" stroke-linecap="round" stroke-linejoin="round"/>
<path d="M160.5 99.5597C160.5 99.5597 163.58 95.4047 165.065 96.3397C166.55 97.2747 165.365 101.585 164.4 103.54C163.435 105.495 161.135 105.985 160.69 104.41" fill="#ABABAB"/>
<path d="M160.5 99.5597C160.5 99.5597 163.58 95.4047 165.065 96.3397C166.55 97.2747 165.365 101.585 164.4 103.54C163.435 105.495 161.135 105.985 160.69 104.41" stroke="#253B54" stroke-width="0.5" stroke-linecap="round" stroke-linejoin="round"/>
<path d="M141.43 175.145H102.765L97.9051 148.31H136.57L141.43 175.145Z" fill="#253B54" stroke="#253B54" stroke-width="0.5" stroke-linecap="round" stroke-linejoin="round"/>
<path d="M139.93 175.145H101.265L96.405 148.31H135.07L139.93 175.145Z" fill="#008AC7" stroke="#253B54" stroke-width="0.5" stroke-linecap="round" stroke-linejoin="round"/>
<path d="M102.765 175.145H139.93L136.35 155.38L102.765 175.145Z" fill="#253B54" stroke="#253B54" stroke-width="0.5" stroke-linecap="round" stroke-linejoin="round"/>
<path d="M162.055 175.145H101.265V176.77H162.055V175.145Z" fill="#008AC7" stroke="#253B54" stroke-width="0.5" stroke-linecap="round" stroke-linejoin="round"/>
<path d="M162.055 175.145H140.45V176.77H162.055V175.145Z" fill="#253B54" stroke="#253B54" stroke-width="0.5" stroke-linecap="round" stroke-linejoin="round"/>
<line x1="25" y1="257.5" x2="259" y2="257.5" stroke="#253B54"/>
</g>
<defs>
<clipPath id="clip0_3075_12908">
<rect width="290" height="290" fill="white"/>
</clipPath>
</defs>
</svg>
