<svg width="100" height="100" viewBox="0 0 100 100" fill="none" xmlns="http://www.w3.org/2000/svg">
<path d="M50 0C22.379 0 0 22.379 0 50C0 77.621 22.379 100 50 100C77.621 100 100 77.621 100 50C100 22.379 77.621 0 50 0ZM60.4839 18.75C62.2984 15.7258 66.3306 14.7177 69.3548 16.5323C72.379 18.3468 73.3871 22.1774 71.5726 25.2016C69.9597 28.4274 65.9274 29.4355 62.9032 27.621C59.879 25.8065 58.6694 21.9758 60.4839 18.75ZM17.5403 56.4516C13.9113 56.4516 11.0887 53.629 11.0887 50C11.0887 46.5726 13.9113 43.75 17.5403 43.75C21.1694 43.75 23.9919 46.5726 23.9919 50C23.9919 53.629 21.1694 56.4516 17.5403 56.4516ZM23.1855 57.0565C27.621 53.629 27.621 46.7742 23.1855 43.1452C25 36.4919 29.0323 30.8468 34.6774 27.0161L39.3145 35.0806C29.0323 42.3387 29.0323 57.8629 39.3145 65.121L34.6774 72.9839C29.0323 69.3548 25 63.7097 23.1855 57.0565ZM69.3548 83.6694C66.129 85.4839 62.2984 84.4758 60.4839 81.25C58.6694 78.2258 59.879 74.3952 62.9032 72.5807C65.9274 70.7661 69.9597 71.7742 71.5726 75C73.3871 78.0242 72.379 81.8548 69.3548 83.6694ZM69.3548 69.7581C63.9113 67.5403 58.0645 70.9677 57.2581 76.8145C56.0484 77.0161 47.379 79.6371 37.7016 74.7984L42.1371 66.7339C53.629 71.9758 67.1371 64.3145 68.1452 51.8145H77.4194C77.0161 58.871 73.9919 65.121 69.3548 69.7581ZM68.1452 48.3871C67.1371 35.8871 53.8306 28.0242 42.1371 33.4677L37.7016 25.4032C47.379 20.5645 56.0484 23.1855 57.0565 23.3871C58.0645 29.2339 63.9113 32.6613 69.3548 30.4436C73.9919 35.0806 77.0161 41.3306 77.4194 48.3871H68.1452Z" fill="#C64F29"/>
</svg>
