<svg width="30" height="30" viewBox="0 0 30 30" fill="none" xmlns="http://www.w3.org/2000/svg">
<path d="M15.9998 9.6665C15.9998 9.11422 15.5521 8.6665 14.9998 8.6665C14.4476 8.6665 13.9998 9.11422 13.9998 9.6665V13.9998H9.6665C9.11422 13.9998 8.6665 14.4476 8.6665 14.9998C8.6665 15.5521 9.11422 15.9998 9.6665 15.9998H13.9998V20.3332C13.9998 20.8855 14.4476 21.3332 14.9998 21.3332C15.5521 21.3332 15.9998 20.8855 15.9998 20.3332V15.9998H20.3332C20.8855 15.9998 21.3332 15.5521 21.3332 14.9998C21.3332 14.4476 20.8855 13.9998 20.3332 13.9998H15.9998V9.6665Z" fill="#665EBE"/>
<path fill-rule="evenodd" clip-rule="evenodd" d="M28.3332 14.9998C28.3332 22.3636 22.3636 28.3332 14.9998 28.3332C7.63604 28.3332 1.6665 22.3636 1.6665 14.9998C1.6665 7.63604 7.63604 1.6665 14.9998 1.6665C22.3636 1.6665 28.3332 7.63604 28.3332 14.9998ZM26.3332 14.9998C26.3332 21.2591 21.2591 26.3332 14.9998 26.3332C8.74061 26.3332 3.6665 21.2591 3.6665 14.9998C3.6665 8.74061 8.74061 3.6665 14.9998 3.6665C21.2591 3.6665 26.3332 8.74061 26.3332 14.9998Z" fill="#665EBE"/>
<path d="M15.9998 9.6665C15.9998 9.11422 15.5521 8.6665 14.9998 8.6665C14.4476 8.6665 13.9998 9.11422 13.9998 9.6665V13.9998H9.6665C9.11422 13.9998 8.6665 14.4476 8.6665 14.9998C8.6665 15.5521 9.11422 15.9998 9.6665 15.9998H13.9998V20.3332C13.9998 20.8855 14.4476 21.3332 14.9998 21.3332C15.5521 21.3332 15.9998 20.8855 15.9998 20.3332V15.9998H20.3332C20.8855 15.9998 21.3332 15.5521 21.3332 14.9998C21.3332 14.4476 20.8855 13.9998 20.3332 13.9998H15.9998V9.6665Z" stroke="#665EBE" stroke-width="1.5" stroke-linecap="round" stroke-linejoin="round"/>
<path fill-rule="evenodd" clip-rule="evenodd" d="M28.3332 14.9998C28.3332 22.3636 22.3636 28.3332 14.9998 28.3332C7.63604 28.3332 1.6665 22.3636 1.6665 14.9998C1.6665 7.63604 7.63604 1.6665 14.9998 1.6665C22.3636 1.6665 28.3332 7.63604 28.3332 14.9998ZM26.3332 14.9998C26.3332 21.2591 21.2591 26.3332 14.9998 26.3332C8.74061 26.3332 3.6665 21.2591 3.6665 14.9998C3.6665 8.74061 8.74061 3.6665 14.9998 3.6665C21.2591 3.6665 26.3332 8.74061 26.3332 14.9998Z" stroke="#665EBE" stroke-width="1.5" stroke-linecap="round" stroke-linejoin="round"/>
</svg>
