<svg width="318" height="28" viewBox="0 0 318 28" fill="none" xmlns="http://www.w3.org/2000/svg">
<g clip-path="url(#clip0_723_44247)">
<rect y="12" width="2" height="4" rx="1" fill="#009FE6"/>
<rect x="5" y="6" width="3" height="16" rx="1.5" fill="#009FE6"/>
<rect x="11" y="9" width="2" height="10" rx="1" fill="#009FE6"/>
<rect x="16" y="11" width="3" height="6" rx="1.5" fill="#009FE6"/>
<rect x="22" y="9" width="2" height="10" rx="1" fill="#009FE6"/>
<rect x="27" y="7" width="3" height="14" rx="1.5" fill="#009FE6"/>
<rect width="2" height="18" rx="1" transform="matrix(1 0 0 -1 33 23)" fill="#009FE6"/>
<rect x="38" y="5" width="3" height="18" rx="1.5" fill="#009FE6"/>
<rect x="44" y="9" width="2" height="10" rx="1" fill="#009FE6"/>
<rect x="49" y="12" width="3" height="4" rx="1.5" fill="#009FE6"/>
<rect x="55" y="9" width="2" height="10" rx="1" fill="#009FE6"/>
<rect x="60" y="7" width="3" height="14" rx="1.5" fill="#009FE6"/>
<rect width="2" height="20" rx="1" transform="matrix(1 0 0 -1 66 24)" fill="#009FE6"/>
<rect x="71" y="4" width="3" height="20" rx="1.5" fill="#009FE6"/>
<rect width="2" height="14" rx="1" transform="matrix(1 0 0 -1 77 21)" fill="#009FE6"/>
<rect width="3" height="10" rx="1.5" transform="matrix(1 0 0 -1 82 19)" fill="#009FE6"/>
<rect width="2" height="4" rx="1" transform="matrix(1 0 0 -1 88 16)" fill="#009FE6"/>
<rect width="3" height="10" rx="1.5" transform="matrix(1 0 0 -1 93 19)" fill="#009FE6"/>
<rect x="99" y="11" width="2" height="6" rx="1" fill="#009FE6"/>
<rect x="104" y="6" width="3" height="16" rx="1.5" fill="#009FE6"/>
<rect x="110" y="3" width="2" height="22" rx="1" fill="#009FE6"/>
<rect x="115" width="3" height="28" rx="1.5" fill="#009FE6"/>
<rect width="2" height="22" rx="1" transform="matrix(1 0 0 -1 121 25)" fill="#009FE6"/>
<rect width="3" height="10" rx="1.5" transform="matrix(1 0 0 -1 126 19)" fill="#009FE6"/>
<rect x="132" y="9" width="2" height="10" rx="1" fill="#009FE6"/>
<rect x="137" y="5" width="3" height="18" rx="1.5" fill="#009FE6"/>
<rect x="143" width="2" height="28" rx="1" fill="#009FE6"/>
<rect x="148" y="2" width="3" height="24" rx="1.5" fill="#009FE6"/>
<rect width="2" height="16" rx="1" transform="matrix(1 0 0 -1 154 22)" fill="#009FE6"/>
<rect width="3" height="6" rx="1.5" transform="matrix(1 0 0 -1 159 17)" fill="#009FE6"/>
<rect x="165" y="9" width="2" height="10" rx="1" fill="#009FE6"/>
<rect x="170" y="11" width="3" height="6" rx="1.5" fill="#009FE6"/>
<rect x="176" y="9" width="2" height="10" rx="1" fill="#009FE6"/>
<rect x="181" y="6" width="3" height="16" rx="1.5" fill="#009FE6"/>
<rect width="2" height="18" rx="1" transform="matrix(1 0 0 -1 187 23)" fill="#009FE6"/>
<rect x="192" y="5" width="3" height="18" rx="1.5" fill="white" fill-opacity="0.1"/>
<rect width="2" height="16" rx="1" transform="matrix(1 0 0 -1 198 22)" fill="white" fill-opacity="0.1"/>
<rect width="3" height="10" rx="1.5" transform="matrix(1 0 0 -1 203 19)" fill="white" fill-opacity="0.1"/>
<rect width="2" height="6" rx="1" transform="matrix(1 0 0 -1 209 17)" fill="white" fill-opacity="0.1"/>
<rect width="3" height="12" rx="1.5" transform="matrix(1 0 0 -1 214 20)" fill="white" fill-opacity="0.1"/>
<rect x="220" y="11" width="2" height="6" rx="1" fill="white" fill-opacity="0.1"/>
<rect x="225" y="6" width="3" height="16" rx="1.5" fill="white" fill-opacity="0.1"/>
<rect width="2" height="24" rx="1" transform="matrix(1 0 0 -1 231 26)" fill="white" fill-opacity="0.1"/>
<rect width="3" height="28" rx="1.5" transform="matrix(1 0 0 -1 236 28)" fill="white" fill-opacity="0.1"/>
<rect width="2" height="18" rx="1" transform="matrix(1 0 0 -1 242 23)" fill="white" fill-opacity="0.1"/>
<rect width="3" height="12" rx="1.5" transform="matrix(1 0 0 -1 247 20)" fill="white" fill-opacity="0.1"/>
<rect x="253" y="9" width="2" height="10" rx="1" fill="white" fill-opacity="0.1"/>
<rect x="258" y="9" width="3" height="10" rx="1.5" fill="white" fill-opacity="0.1"/>
<rect width="2" height="18" rx="1" transform="matrix(1 0 0 -1 264 23)" fill="white" fill-opacity="0.1"/>
<rect width="3" height="22" rx="1.5" transform="matrix(1 0 0 -1 269 25)" fill="white" fill-opacity="0.1"/>
<rect width="2" height="24" rx="1" transform="matrix(1 0 0 -1 275 26)" fill="white" fill-opacity="0.1"/>
<rect width="3" height="20" rx="1.5" transform="matrix(1 0 0 -1 280 24)" fill="white" fill-opacity="0.1"/>
<rect width="2" height="24" rx="1" transform="matrix(1 0 0 -1 286 26)" fill="white" fill-opacity="0.1"/>
<rect width="3" height="16" rx="1.5" transform="matrix(1 0 0 -1 291 22)" fill="white" fill-opacity="0.1"/>
<rect width="2" height="20" rx="1" transform="matrix(1 0 0 -1 297 24)" fill="white" fill-opacity="0.1"/>
<rect width="3" height="18" rx="1.5" transform="matrix(1 0 0 -1 302 23)" fill="white" fill-opacity="0.1"/>
<rect width="2" height="12" rx="1" transform="matrix(1 0 0 -1 308 20)" fill="white" fill-opacity="0.1"/>
<rect width="3" height="4" rx="1.5" transform="matrix(1 0 0 -1 313 16)" fill="white" fill-opacity="0.1"/>
</g>
<defs>
<clipPath id="clip0_723_44247">
<rect width="318" height="28" fill="white"/>
</clipPath>
</defs>
</svg>
