<svg width="27" height="22" viewBox="0 0 27 22" fill="none" xmlns="http://www.w3.org/2000/svg">
<g opacity="0.5">
<path d="M11.8668 17.927L11.8629 17.9828L11.8994 17.8467L11.8668 17.927Z" fill="#677380"/>
<path d="M12.2214 17.888C12.1339 17.5964 12.0812 17.9547 12.0067 17.8612L12.0106 17.8056L12.0196 18.0593C12.0524 17.9792 12.1468 17.7945 12.2214 17.888Z" fill="#677380"/>
<path d="M12.5058 18.4856C12.4596 18.3671 12.5135 18.3739 12.4519 18.4788C12.4808 18.4543 12.4808 18.4543 12.5058 18.4856C12.4808 18.4543 12.4808 18.4543 12.5058 18.4856Z" fill="#677380"/>
<path d="M12.4807 18.4541C12.5012 18.5413 12.4515 18.4789 12.4807 18.4541Z" fill="#677380"/>
<path d="M12.6208 18.3877L12.588 18.4679C12.6089 18.5548 12.6378 18.5303 12.6338 18.586C12.6915 18.537 12.6955 18.4813 12.6208 18.3877Z" fill="#677380"/>
<path d="M12.636 18.165L12.6318 18.2212C12.6318 18.2212 12.6568 18.2526 12.636 18.165Z" fill="#677380"/>
<path d="M12.5997 18.3013L12.6324 18.2209C12.6074 18.1896 12.615 18.0779 12.6035 18.2454C12.5823 18.1582 12.6035 18.2454 12.5997 18.3013Z" fill="#677380"/>
<path d="M12.5455 18.2939C12.4957 18.2315 12.4708 18.2003 12.4788 18.0889C12.421 18.1379 12.4629 18.3117 12.5455 18.2939Z" fill="#677380"/>
<path d="M12.187 17.6027L12.137 17.54L12.1293 17.6518C12.1081 17.5645 12.2082 17.69 12.187 17.6027Z" fill="#677380"/>
<path d="M12.9677 18.46C12.9717 18.4043 12.9258 18.2861 12.876 18.2236L12.8431 18.3039C12.8929 18.3664 12.9467 18.3731 12.9677 18.46Z" fill="#677380"/>
<path d="M12.9008 18.2558L12.9373 18.1197C12.8835 18.1129 12.8796 18.1687 12.9008 18.2558Z" fill="#677380"/>
<path d="M12.5764 17.8487L12.5317 18.0957L12.6052 17.8242L12.5764 17.8487Z" fill="#677380"/>
<path d="M13.1867 18.4326L13.1748 18.5997L13.1907 18.377L13.1867 18.4326Z" fill="#677380"/>
<path d="M13.3232 18.422C13.3152 18.5334 13.3899 18.627 13.3859 18.6827C13.4148 18.6582 13.4227 18.5468 13.4555 18.4666C13.4267 18.4911 13.3729 18.4844 13.3232 18.422Z" fill="#677380"/>
<path d="M13.4668 18.2998C13.438 18.3243 13.4341 18.3801 13.4303 18.4359C13.4591 18.4114 13.463 18.3556 13.4668 18.2998Z" fill="#677380"/>
<path d="M13.0447 18.1338C13.0696 18.165 13.0902 18.2523 13.1151 18.2836L13.0447 18.1338Z" fill="#677380"/>
<path d="M12.7831 17.9874C12.791 17.876 12.8527 17.7713 12.7532 17.6465C12.7452 17.7579 12.7662 17.8448 12.7831 17.9874Z" fill="#677380"/>
<path d="M12.9489 17.9523L12.8701 17.9141C12.8662 17.97 12.9163 18.0327 12.8874 18.0572L12.9489 17.9523Z" fill="#677380"/>
<path d="M12.9812 17.8721L12.9485 17.9524L13.0024 17.9592L12.9812 17.8721Z" fill="#677380"/>
<path d="M13.3132 18.1675C13.317 18.1117 13.3459 18.0872 13.3747 18.0627C13.3497 18.0313 13.2959 18.0245 13.267 18.049C13.292 18.0803 13.2844 18.192 13.3132 18.1675Z" fill="#677380"/>
<path d="M13.6752 18.0178C13.6795 17.9618 13.7044 17.993 13.6752 18.0178Z" fill="#677380"/>
<path d="M13.2709 17.9934C13.2459 17.9621 13.242 18.0179 13.2382 18.0737C13.2382 18.0737 13.267 18.0493 13.2709 17.9934Z" fill="#677380"/>
<path d="M13.5283 18.1957C13.5032 18.1644 13.4782 18.133 13.4531 18.1016C13.474 18.1892 13.5241 18.252 13.5283 18.1957Z" fill="#677380"/>
<path d="M13.2306 18.1859C13.2594 18.1614 13.2344 18.1301 13.2383 18.0742C13.2094 18.0987 13.2094 18.0987 13.2056 18.1546C13.2056 18.1546 13.2056 18.1546 13.2306 18.1859Z" fill="#677380"/>
<path d="M13.5095 16.9005C13.5513 17.0743 13.5145 17.2102 13.4438 17.0609C13.407 17.1969 13.5614 17.6938 13.6779 17.9612C13.657 17.8743 13.661 17.8186 13.6938 17.7384C13.644 17.676 13.5156 17.5757 13.5275 17.4085C13.5892 17.3038 13.6061 17.4464 13.6559 17.5088C13.5603 17.3283 13.6758 17.2303 13.5881 16.9384L13.5513 17.0743C13.5553 17.0186 13.5344 16.9317 13.5095 16.9005Z" fill="#677380"/>
<path d="M13.5433 17.9729C13.5682 18.0041 13.5892 18.091 13.6639 18.1846C13.6967 18.1044 13.7007 18.0487 13.6509 17.9862L13.5433 17.9729Z" fill="#677380"/>
<path d="M13.4315 18.0147C13.3896 17.8409 13.4513 17.7362 13.3806 17.5869C13.3229 17.6359 13.3687 17.754 13.3359 17.8342C13.4473 17.7919 13.328 17.9456 13.4315 18.0147C13.4026 18.0392 13.4026 18.0392 13.3738 18.0637C13.3986 18.0949 13.4235 18.1261 13.4235 18.1261C13.3986 18.0949 13.3986 18.0949 13.3986 18.0949C13.4275 18.0704 13.4564 18.0459 13.4315 18.0147C13.4564 18.0459 13.4564 18.0459 13.4275 18.0704L13.4524 18.1016L13.5429 17.9724C13.5141 17.9969 13.4852 18.0214 13.4315 18.0147Z" fill="#677380"/>
<path d="M12.6967 17.2747C12.7217 17.3061 12.7217 17.3061 12.6967 17.2747C12.726 17.2499 12.7217 17.3061 12.6967 17.2747Z" fill="#677380"/>
<path d="M12.772 17.3681C12.772 17.3681 12.7929 17.4551 12.7391 17.4484C12.7142 17.4172 12.7182 17.3614 12.7222 17.3057C12.7182 17.3614 12.6853 17.4417 12.7352 17.5041C12.785 17.5666 12.8807 17.7472 12.9056 17.7785C12.8637 17.6045 12.8428 17.5175 12.772 17.3681Z" fill="#677380"/>
<path d="M13.1033 17.6631L13.1649 17.5584L13.0942 17.4092L13.1152 17.4961C13.0614 17.4894 13.0823 17.5763 13.1033 17.6631Z" fill="#677380"/>
<path d="M13.7255 18.0802L13.7385 18.2784L13.7583 18L13.7255 18.0802Z" fill="#677380"/>
<path d="M13.8369 18.0371L13.8543 18.1802L13.8619 18.0685L13.8369 18.0371Z" fill="#677380"/>
<path d="M19.3171 13.9623C19.292 13.9309 19.3213 13.9061 19.3171 13.9623Z" fill="#677380"/>
<path d="M19.1234 14.022L19.1442 14.1095C19.1484 14.0534 19.1776 14.0285 19.1234 14.022Z" fill="#677380"/>
<path d="M16.6846 17.1938C16.7843 17.3187 16.9046 17.531 16.8092 17.35L16.7388 17.2002C16.7344 17.2563 16.7095 17.225 16.6846 17.1938Z" fill="#677380"/>
<path d="M18.1287 15.4961L18.1038 15.4648C18.0998 15.5206 18.1496 15.583 18.1456 15.6387C18.1496 15.583 18.1247 15.5518 18.1287 15.4961Z" fill="#677380"/>
<path d="M20.1185 13.335L20.0767 13.1611C20.0478 13.1857 20.0976 13.2481 20.1185 13.335Z" fill="#677380"/>
<path d="M14.9984 17.681C15.0482 17.7434 15.1024 17.7498 15.1024 17.7498C15.0525 17.6873 14.9821 17.5376 14.9984 17.681Z" fill="#677380"/>
<path d="M20.0699 15.6315C20.0741 15.5753 20.0741 15.5753 20.0491 15.5439C20.0198 15.5688 20.0449 15.6002 20.0699 15.6315Z" fill="#677380"/>
<path d="M15.2391 17.7394L15.2141 17.708C15.1853 17.7325 15.1814 17.7883 15.1564 17.757C15.2064 17.8197 15.2314 17.851 15.2391 17.7394Z" fill="#677380"/>
<path d="M14.0184 17.3591C14.0184 17.3591 14.0226 17.3029 13.9976 17.2715C14.0226 17.3029 14.0476 17.3342 14.0184 17.3591Z" fill="#677380"/>
<path d="M15.1249 16.6301C15.1541 16.6053 15.1292 16.5741 15.1249 16.6301Z" fill="#677380"/>
<path d="M14.299 18.0118C14.274 17.9804 14.274 17.9804 14.299 18.0118C14.2698 18.0366 14.2698 18.0366 14.299 18.0118Z" fill="#677380"/>
<path d="M21.9294 13.0033C21.9043 12.9719 21.9336 12.9471 21.9294 13.0033Z" fill="#677380"/>
<path d="M16.6533 15.2793L16.6241 15.3041L16.649 15.3353L16.6533 15.2793Z" fill="#677380"/>
<path d="M16.6904 15.1436C16.7283 15.3732 16.7034 15.342 16.6785 15.3108L16.8908 15.759L16.6904 15.1436Z" fill="#677380"/>
<path d="M19.6902 13.7017L19.5621 13.6016C19.4994 13.3415 19.6028 13.4104 19.4537 13.2237C19.6902 13.7017 19.2809 13.3704 19.5174 13.8484L19.4429 13.7551C19.4429 13.7551 19.4181 13.7239 19.4717 13.7306C19.2691 13.5372 19.5801 14.1086 19.4728 14.0952C19.4192 14.0886 19.3695 14.0263 19.3486 13.9396L19.3367 14.1063C19.3079 14.1308 19.2622 14.013 19.3158 14.0196L19.2294 14.093C19.2503 14.1797 19.2672 14.322 19.2921 14.3531C19.2424 14.2909 19.296 14.2976 19.2464 14.2353L19.2633 14.3776C19.1639 14.2531 19.147 14.1108 19.2006 14.1175C18.9105 13.6327 19.2176 14.2597 18.9364 14.0285L18.9692 13.9485C18.7993 13.675 18.8162 13.8173 18.6632 13.6861C18.7377 13.7795 19.0149 14.0663 18.9782 14.2019C18.9533 14.1708 18.8997 14.1641 18.9454 14.282C18.85 14.1019 18.8461 14.1575 18.8173 14.1819L18.7258 13.9462C18.6931 14.0263 18.7924 14.1508 18.7845 14.2619C18.7309 14.2553 18.6355 14.0752 18.5361 13.9507C18.3713 13.9862 18.6484 14.2731 18.562 14.3464C18.4587 14.2775 18.4508 14.3887 18.435 14.611C18.3565 14.5732 18.3644 14.462 18.3147 14.3998L18.3525 14.6288L18.3028 14.5665C18.2949 14.6777 18.3943 14.8022 18.3615 14.8822C18.4778 15.1491 18.0595 14.5643 18.1182 14.88C18.0685 14.8177 18.0476 14.731 18.0267 14.6443C18.0109 14.8667 18.0149 14.8111 18.0487 15.0957L17.8957 14.9645C18.0199 15.1201 18.0577 15.3491 18.0706 15.547C18.1203 15.6093 18.17 15.6715 18.1948 15.7027L18.1829 15.8694C18.1581 15.8383 18.1372 15.7516 18.0915 15.6337L18.0876 15.6893C18.013 15.5959 17.9673 15.4781 17.9504 15.3358C17.9752 15.3669 18.0249 15.4292 18.0498 15.4603C18.008 15.2869 17.9375 15.1379 17.8917 15.0201C17.9166 15.0512 17.8878 15.0757 17.8878 15.0757C17.8629 15.0445 17.8669 14.9889 17.8669 14.9889C17.8421 14.9578 17.8629 15.0445 17.8878 15.0757L17.7427 14.8333L17.7884 14.9511L17.6066 14.8444C17.6405 15.129 17.7449 15.5626 17.6257 15.716C17.5591 15.5114 17.5134 15.3936 17.422 15.1579C17.567 15.4002 17.4875 14.9978 17.566 15.0356C17.5123 15.0289 17.4666 14.9111 17.4706 14.8555L17.4508 15.1334C17.3842 14.9289 17.3514 15.0089 17.3017 14.9467C17.4925 15.3069 17.3356 15.2313 17.2988 15.3669C17.2531 15.249 17.2074 15.1312 17.2898 15.1134C17.0911 14.8644 17.3903 15.6026 17.2164 15.3847C17.2164 15.3847 17.27 15.3913 17.2204 15.3291C17.2373 15.4714 17.1052 15.4269 17.0883 15.2846C16.981 15.2713 16.7834 15.3869 16.8957 15.7093C16.8708 15.6781 16.7625 15.3001 16.7376 15.269L16.9802 16.4207C16.8928 16.1295 16.5857 15.5025 16.5976 15.3357C16.5728 15.3046 16.4943 15.2668 16.4864 15.3779C16.5112 15.4091 16.6772 15.7381 16.6732 15.7937C16.5033 15.5202 16.549 15.6381 16.3751 15.4202C16.4248 15.4824 16.558 15.8916 16.5292 15.916C16.5083 15.8293 16.3712 15.4758 16.3463 15.4446L16.4219 15.9027C16.401 15.8159 16.2848 15.5491 16.2391 15.4313C16.2887 15.4936 16.1566 15.4491 16.1527 15.5047L16.2272 15.598C16.0951 15.5536 16.3445 16.2295 16.2084 16.2406C16.1876 16.1539 16.0583 15.6892 15.9799 15.6514C16.0177 15.8804 16.2552 16.7231 16.1858 16.9387L16.14 16.8209L16.1282 16.9877C16.0446 16.6408 15.9601 15.9293 15.9262 15.6447C15.8517 15.5513 15.8557 15.4957 15.7981 15.5447C15.7524 15.4268 15.7563 15.3712 15.7851 15.3468L15.657 15.2467C15.7484 15.4824 15.6372 15.5246 15.7286 15.7603L15.7772 15.4579C15.8686 15.6936 15.9403 16.2072 15.833 16.1939C15.7585 16.1005 15.7038 15.7292 15.6541 15.6669C15.675 15.7537 15.6134 15.8581 15.5886 15.827L15.5717 15.6847C15.4683 15.6158 15.5727 16.0494 15.4525 15.8381C15.4277 15.807 15.2578 15.5335 15.3283 15.6825C15.4694 15.9804 15.7855 16.8609 15.8233 17.0899C15.7984 17.0588 15.5958 16.8653 15.5252 16.7164C15.405 16.5051 15.4039 16.1405 15.3085 15.9604C15.3294 16.0471 15.3503 16.1338 15.3215 16.1583C15.2718 16.096 15.2549 15.9537 15.2261 15.9782C15.2887 16.2383 15.09 15.9893 15.2639 16.2072C15.2311 16.2872 15.1854 16.1694 15.1278 16.2183C15.1983 16.3673 15.2491 16.7942 15.2412 16.9053C15.2203 16.8186 15.1706 16.7564 15.1746 16.7008C15.0385 16.7119 14.964 16.6185 14.8528 16.6607C14.8031 16.5985 14.7534 16.5362 14.7613 16.4251C14.7574 16.4806 14.7782 16.5674 14.7494 16.5918C14.6292 16.3806 14.807 16.5429 14.6908 16.2761C14.7325 16.4495 14.6749 16.4984 14.667 16.6096C14.7584 16.8453 14.7743 16.6229 14.807 16.5429C14.9193 16.8653 14.9204 17.2299 14.8549 17.39C14.7933 17.4945 14.7595 17.2099 14.7307 17.2344C14.5698 17.2143 14.7408 17.8525 14.5381 17.659C14.4179 17.4478 14.4049 17.2499 14.388 17.1076C14.4496 17.0031 14.5162 17.2077 14.5986 17.1899L14.5241 17.0965C14.528 17.0409 14.5608 16.9609 14.6105 17.0231C14.5151 16.843 14.3383 17.0454 14.1317 16.9075C14.1277 16.9631 14.1198 17.0742 14.1407 17.161L14.1695 17.1365C14.2401 17.2855 14.1785 17.39 14.2282 17.4522C14.1915 17.5879 14.2044 17.7857 14.1011 17.7168L14.0097 17.4811C14.0305 17.5678 14.109 17.6056 14.0881 17.5189C14.0802 17.6301 13.8934 17.2143 13.9233 17.5545L13.9938 17.7035C13.9571 17.8391 13.9661 18.0925 13.8876 18.0547C13.9791 18.2904 13.9164 18.0303 14.0078 18.266C13.8955 17.9436 14.1727 18.2304 14.0356 17.8769C14.1767 18.1748 14.1637 17.9769 14.28 18.2438C14.2591 18.157 14.2094 18.0948 14.2879 18.1326C14.2631 18.1015 14.2919 18.077 14.2919 18.077C14.267 18.0459 14.2422 18.0147 14.2462 17.9592C14.2332 17.7613 14.3156 17.7435 14.3484 17.6635C14.3732 17.6946 14.3693 17.7502 14.3902 17.8369L14.402 17.6701C14.4438 17.8436 14.5719 17.9436 14.5104 18.0481L14.5928 18.0303C14.6673 18.1237 14.721 18.1304 14.7537 18.0503C14.7786 18.0815 14.7696 17.828 14.7865 17.9703L14.8768 17.8414L14.9017 17.8725C15.0378 17.8614 15.0615 17.5279 15.2851 17.808C15.289 17.7524 15.3466 17.7035 15.4003 17.7102L15.4708 17.8592C15.5036 17.7791 15.6526 17.9659 15.6109 17.7925C15.7728 18.1771 15.8542 17.7947 15.9863 17.8392L15.9197 17.6346C15.9734 17.6413 16.0061 17.5613 16.0677 17.4568L16.0259 17.2834C16.0378 17.1166 16.2365 17.3656 16.3229 17.2923C16.3438 17.379 16.3189 17.3479 16.2941 17.3167C16.5673 17.6591 16.4539 16.9721 16.6278 17.19C16.6318 17.1344 16.6606 17.11 16.7102 17.1722C16.739 17.1478 16.7678 17.1233 16.7718 17.0677L16.8672 17.2478C16.9169 17.3101 16.8463 17.1611 16.8006 17.0433C16.8046 16.9877 16.8046 16.9877 16.8085 16.9321C16.9496 17.2301 16.8452 16.7965 16.9864 17.0944C16.9446 16.921 17.1055 16.941 16.9932 16.6186C17.018 16.6498 17.0429 16.6809 17.0141 16.7053C17.0677 16.712 17.0926 16.7431 17.1253 16.6631L17.2167 16.8988L17.1869 16.5586C17.2862 16.6831 17.3359 16.7454 17.3489 16.9433C17.3438 16.6342 17.3856 16.8076 17.3805 16.4986L17.4511 16.6476C17.4799 16.6231 17.4421 16.3941 17.5127 16.5431C17.7114 16.7921 17.8712 16.4475 18.1563 16.6231C17.9407 16.2318 18.3341 16.7855 18.197 16.4319C18.2427 16.5498 18.2963 16.5564 18.2884 16.6676C18.3251 16.532 18.499 16.7499 18.4652 16.4653C18.5397 16.5587 18.5069 16.6387 18.5318 16.6699C18.5069 16.6387 18.5109 16.5831 18.5606 16.6454C18.6102 16.7077 18.5814 16.7321 18.5775 16.7877C18.6639 16.7143 18.5228 16.4164 18.4353 16.1251C18.5346 16.2496 18.5634 16.2252 18.4968 16.0206C18.5714 16.114 18.621 16.1763 18.5883 16.2563C18.6419 16.263 18.8277 16.3141 18.7362 16.0784C18.7859 16.1407 18.7899 16.0851 18.7938 16.0295C18.8763 16.0117 18.9011 16.0429 18.9587 15.994L18.9339 15.9628C18.6398 15.5337 18.7888 15.7205 18.8464 15.6716L18.8712 15.7027C19.0779 15.8406 18.8792 15.5915 19.1106 15.7605L19.0152 15.5804C18.8532 15.1958 19.2467 15.7494 19.2337 15.5515L19.1592 15.4581C19.1423 15.3158 19.507 15.8939 19.5854 15.9317C19.6103 15.9629 19.5815 15.9873 19.6063 16.0185C19.8378 16.1875 19.5149 15.7828 19.5764 15.6783C19.651 15.7717 19.6887 16.0007 19.7712 15.9829C19.8457 16.0763 19.7244 15.5004 19.9271 15.6939C19.8525 15.6005 19.8029 15.5382 19.8108 15.4271C19.8436 15.347 20.1416 15.7206 20.0293 15.3982C20.0541 15.4293 20.0541 15.4293 20.079 15.4604C20.0869 15.3493 20.1733 15.2759 20.1067 15.0713C20.4465 15.6183 20.2169 14.6645 20.503 15.2048L20.6182 15.1069L20.6679 15.1692C20.7752 15.1825 20.7334 15.0091 20.6877 14.8913C20.7126 14.9224 20.7374 14.9535 20.7334 15.0091C20.9192 15.0603 20.8943 15.0291 20.8645 14.689L20.9599 14.8691C20.9141 14.7512 21.2986 15.0514 21.2896 14.7979C21.3144 14.8291 21.3144 14.8291 21.3105 14.8846C21.3303 14.6067 21.8846 15.1804 21.6064 14.5289L21.5934 14.331C21.4574 14.3421 21.4523 14.0331 21.349 13.9642C21.3818 13.8841 21.5556 14.102 21.5517 14.1576L21.5268 14.1265C21.6928 14.4555 21.7414 14.1532 21.8328 14.3889C22.0593 14.2488 22.3523 14.3133 22.5787 14.1732L22.4048 13.9553L22.4873 13.9375C22.537 13.9998 22.6363 14.1243 22.5539 14.1421C22.6532 14.2666 22.5657 13.9754 22.5161 13.9131C22.677 13.9331 22.6572 14.211 22.682 14.2422L22.7108 14.2177L22.686 14.1866C22.6403 14.0687 22.5945 13.9509 22.677 13.9331C22.7555 13.9709 22.8012 14.0888 22.8012 14.0888C22.826 14.1199 22.826 14.1199 22.83 14.0643L22.9412 14.0221L22.7922 13.8353C22.7753 13.693 22.9034 13.7931 22.7008 13.5996C22.9491 13.9109 23.1129 13.5107 23.2162 13.5796C23.1745 13.4062 23.2321 13.3573 23.3145 13.3395C23.2897 13.3084 23.1158 13.0905 23.1983 13.0727C23.4635 13.5263 23.4337 13.1861 23.6821 13.4974C23.4794 13.3039 23.8012 13.344 23.5489 13.0883C23.6025 13.095 23.6443 13.2684 23.7476 13.3373C23.7386 13.0838 24.0773 13.2662 24.1677 13.1372C24.118 13.075 24.0683 13.0127 24.0226 12.8949L24.275 13.1506C24.2789 13.095 24.0842 12.7904 24.262 12.9527C24.2372 12.9216 24.1626 12.8282 24.1626 12.8282C24.6166 12.9127 24.5568 12.2323 25.2095 12.5659C25.0813 12.4658 25.1101 12.4414 25.1389 12.4169C25.0853 12.4102 25.0396 12.2924 24.9651 12.199L25.2253 12.3435C25.0802 12.1012 25.3405 12.2457 25.2203 12.0345L25.2163 12.0901C25.1001 11.8233 24.7653 11.5853 24.5705 11.2807C24.7116 11.5787 24.1612 10.9494 24.3441 11.4208C24.2944 11.3585 24.2984 11.303 24.2487 11.2407C24.3193 11.3897 24.3153 11.4453 24.2368 11.4074L24.212 11.3763C24.0928 11.5297 23.9398 11.3985 23.7213 11.4274L23.8455 11.5831C23.7919 11.5764 23.767 11.5453 23.7422 11.5141C23.8585 11.781 23.8534 11.4719 23.9697 11.7387C23.7213 11.4274 23.7145 11.9032 23.4701 11.5364C23.4125 11.5853 23.5943 11.692 23.5367 11.7409L23.4621 11.6475L23.5327 11.7965C23.4791 11.7898 23.4045 11.6964 23.33 11.6031L23.334 11.5475C23.2058 11.4474 23.2436 11.6764 23.2188 11.6453L23.2973 11.6831C23.203 11.8676 22.9596 11.8654 22.9398 12.1433L22.9895 12.2056C22.9736 12.4279 22.8574 12.1611 22.7918 12.3212L22.767 12.29C22.7879 12.3768 22.7839 12.4323 22.7551 12.4568C22.7343 12.3701 22.6021 12.3256 22.5852 12.1833C22.5694 12.4056 22.6021 12.3256 22.6856 12.6725L22.5863 12.5479C22.632 12.6658 22.6529 12.7525 22.6201 12.8325C22.6032 12.6902 22.4711 12.6458 22.4293 12.4723C22.1194 12.2655 22.4016 12.8614 22.1036 12.4879C22.2655 12.8725 22.339 12.6013 22.3311 12.7125C22.4056 12.8058 22.4185 13.0037 22.3649 12.9971C22.3361 13.0215 22.042 12.5924 21.9308 12.6346C21.9308 12.6346 21.9059 12.6035 21.9347 12.579C21.8314 12.5101 21.9228 12.7458 21.7947 12.6457C21.8861 12.8814 21.7123 12.6635 21.8822 12.937L21.9437 12.8325C21.9358 12.9437 22.0729 13.2972 21.8912 13.1905C21.8415 13.1282 21.8494 13.017 21.8246 12.9859C21.7749 12.9236 21.7918 13.0659 21.7421 13.0037C21.5722 12.7302 21.8325 12.8747 21.7411 12.6391C21.6665 12.5457 21.7501 12.8925 21.6089 12.5946C21.7958 13.0104 21.4729 12.6057 21.5852 12.9281L21.4898 12.748C21.5146 12.7791 21.5355 12.8658 21.5067 12.8903L21.4153 12.6546C21.4819 12.8592 21.2335 12.5479 21.2216 12.7146C21.308 12.6413 21.3706 12.9014 21.4739 12.9703C21.479 13.2794 21.1511 12.5656 21.0567 12.7502C21.0607 12.6946 21.1888 12.7947 21.2097 12.8814C21.1561 12.8747 21.0776 12.8369 21.0031 12.7435C20.9167 12.8169 21.1273 12.8992 21.1442 13.0414C20.9952 12.8547 21.1363 13.1526 21.1284 13.2638L21.033 13.0837C20.8472 13.0325 21.195 13.4683 21.0132 13.3616L20.9217 13.1259L20.889 13.206L20.7936 13.0259C20.8353 13.1993 20.7817 13.1926 20.7032 13.1548C20.7777 13.2482 20.8692 13.4839 20.8155 13.4772C20.7122 13.4083 20.745 13.3282 20.6874 13.3772C20.6417 13.2593 20.5711 13.1103 20.6953 13.266C20.6456 13.2037 20.6496 13.1481 20.6248 13.117C20.6327 13.0058 20.6247 13.117 20.5959 13.1415L20.6496 13.1481L20.6834 13.4327C20.6337 13.3705 20.6377 13.3149 20.588 13.2526C20.5592 13.2771 20.5801 13.3638 20.5761 13.4194C20.5056 13.2704 20.435 13.1214 20.439 13.0659L20.4232 13.2882C20.3735 13.2259 20.2702 13.157 20.2741 13.1014C20.1708 13.0325 20.2752 13.4661 20.147 13.366C20.1719 13.3971 20.1431 13.4216 20.1679 13.4527C20.0855 13.4705 19.9325 13.3393 19.9703 13.5683L19.7716 13.3193C19.7388 13.3993 19.9951 13.5994 19.9296 13.7595C19.8929 13.8952 19.7806 13.5728 19.7309 13.5105C19.7478 13.6528 19.8353 13.9441 19.6575 13.7817C19.6614 13.7262 19.6863 13.7573 19.6902 13.7017ZM18.9494 14.2264C18.9245 14.1953 18.9076 14.053 18.9821 14.1463C19.0487 14.3509 18.9742 14.2575 18.9494 14.2264ZM17.8759 15.2424C17.855 15.1557 17.8799 15.1868 17.9295 15.2491C17.9295 15.2491 17.9007 15.2735 17.8759 15.2424ZM14.5302 17.7702C14.6087 17.808 14.6087 17.808 14.5302 17.7702ZM14.4517 17.7324C14.4766 17.7635 14.4478 17.788 14.4726 17.8191C14.4766 17.7635 14.4766 17.7635 14.5302 17.7702C14.4805 17.7079 14.4557 17.6768 14.4517 17.7324ZM22.8091 13.9776L22.7843 13.9465C22.7634 13.8597 22.7843 13.9465 22.8091 13.9776Z" fill="#677380"/>
<path d="M14.0728 18.1529L14.1055 18.0725C14.0766 18.097 14.0516 18.0656 14.0266 18.0343C14.0516 18.0656 14.1016 18.1284 14.0728 18.1529Z" fill="#677380"/>
<path d="M13.3317 17.1034L13.3241 17.215C13.3529 17.1905 13.3856 17.1102 13.3317 17.1034Z" fill="#677380"/>
<path d="M13.8715 17.5365C13.8291 17.3621 13.7964 17.4424 13.7676 17.4669C13.835 17.6727 13.8388 17.6169 13.8715 17.5365Z" fill="#677380"/>
<path d="M13.7676 17.4678C13.7634 17.5239 13.7591 17.5801 13.7676 17.4678Z" fill="#677380"/>
<path d="M14.3642 17.8515C14.3393 17.8203 14.4309 18.0564 14.3811 17.9941C14.423 18.1678 14.4298 17.6911 14.3642 17.8515Z" fill="#677380"/>
<path d="M13.7155 17.0392L13.7862 17.1885L13.7693 17.0459L13.7155 17.0392Z" fill="#677380"/>
<path d="M14.0381 17.0803L13.9592 17.0421C13.9842 17.0734 13.9553 17.098 13.9553 17.098C14.0092 17.1048 14.0592 17.1675 14.0381 17.0803Z" fill="#677380"/>
<path d="M13.7762 16.935L13.8012 16.9664L13.8555 16.9729L13.7762 16.935Z" fill="#677380"/>
<path d="M14.6691 16.9648L14.7018 16.8844C14.6806 16.7972 14.6556 16.7658 14.6517 16.8217C14.6479 16.8775 14.6729 16.9089 14.6691 16.9648Z" fill="#677380"/>
<path d="M14.348 16.5021C14.3729 16.5333 14.3978 16.5645 14.4187 16.6514L14.356 16.3906L14.348 16.5021Z" fill="#677380"/>
<path d="M14.4917 16.3797C14.4707 16.2928 14.5324 16.1881 14.4498 16.2059C14.4707 16.2928 14.413 16.3418 14.4917 16.3797Z" fill="#677380"/>
<path d="M15.5208 16.3984L15.6543 16.8087L15.5208 16.3984Z" fill="#677380"/>
<path d="M16.0341 15.2285C15.9305 15.1594 16.0969 15.4893 15.9973 15.3644C16.0182 15.4514 16.1009 15.4335 16.0929 15.545C16.1009 15.4335 16.1258 15.4647 16.0341 15.2285Z" fill="#677380"/>
<path d="M16.0933 15.5449L16.0889 15.6009C16.064 15.5697 16.0933 15.5449 16.0933 15.5449Z" fill="#677380"/>
<path d="M25.4893 12.4467L25.5933 12.5155L25.4937 12.3906L25.4893 12.4467Z" fill="#677380"/>
<path d="M25.4009 12.1547L25.5754 12.3734L25.4551 12.1611C25.4551 12.1611 25.4508 12.2172 25.4009 12.1547Z" fill="#677380"/>
<path d="M18.5689 13.811L18.5939 13.8424C18.644 13.9051 18.644 13.9051 18.6733 13.8803L18.5689 13.811Z" fill="#677380"/>
<path d="M19.2537 13.7012L19.374 13.9135L19.2537 13.7012Z" fill="#677380"/>
<path d="M19.6143 13.1855C19.5854 13.2101 19.6104 13.2414 19.5565 13.2346C19.5854 13.2101 19.7317 13.4541 19.6143 13.1855Z" fill="#677380"/>
<path d="M13.3023 4.7525L13.255 4.77937L13.3853 4.7373L13.3023 4.7525Z" fill="#677380"/>
<path d="M13.5289 5.03744C13.7164 4.80411 13.3976 4.95242 13.432 4.83742L13.4792 4.81076L13.279 4.95574C13.3619 4.94075 13.5634 4.92244 13.5289 5.03744Z" fill="#677380"/>
<path d="M13.1984 5.60948C13.2689 5.50533 13.2931 5.55564 13.1742 5.55917C13.21 5.57087 13.21 5.57087 13.1984 5.60948C13.21 5.57087 13.21 5.57087 13.1984 5.60948Z" fill="#677380"/>
<path d="M13.2102 5.57129C13.1509 5.63632 13.1739 5.55943 13.2102 5.57129Z" fill="#677380"/>
<path d="M13.3403 5.65625L13.2572 5.67129C13.1983 5.73651 13.2341 5.74822 13.1868 5.77497C13.2584 5.79839 13.3058 5.77164 13.3403 5.65625Z" fill="#677380"/>
<path d="M13.5295 5.54688L13.4817 5.57367C13.4817 5.57367 13.4701 5.61232 13.5295 5.54688Z" fill="#677380"/>
<path d="M13.3991 5.58927L13.4822 5.57405C13.4938 5.53544 13.5885 5.4816 13.4465 5.56236C13.5054 5.49682 13.4465 5.56236 13.3991 5.58927Z" fill="#677380"/>
<path d="M13.3759 5.53918C13.399 5.46218 13.4105 5.42368 13.5054 5.37012C13.4336 5.34667 13.3157 5.47723 13.3759 5.53918Z" fill="#677380"/>
<path d="M13.741 4.85173L13.7642 4.77441L13.6694 4.82831C13.7283 4.76271 13.682 4.91734 13.741 4.85173Z" fill="#677380"/>
<path d="M13.4716 5.99398C13.5192 5.96716 13.5899 5.86324 13.613 5.78613L13.5295 5.80121C13.5063 5.87832 13.5307 5.92861 13.4716 5.99398Z" fill="#677380"/>
<path d="M13.6015 5.82384L13.7318 5.78174C13.7076 5.73148 13.6603 5.75837 13.6015 5.82384Z" fill="#677380"/>
<path d="M13.7536 5.32329L13.5291 5.41829L13.7893 5.33496L13.7536 5.32329Z" fill="#677380"/>
<path d="M13.6143 6.16832L13.4725 6.24849L13.6616 6.1416L13.6143 6.16832Z" fill="#677380"/>
<path d="M13.6969 6.2803C13.6023 6.33379 13.5678 6.44913 13.5204 6.47587C13.5562 6.48757 13.6509 6.43409 13.734 6.41905C13.6982 6.40735 13.6739 6.3572 13.6969 6.2803Z" fill="#677380"/>
<path d="M13.8752 6.33691C13.8395 6.32524 13.7923 6.35211 13.745 6.37898C13.7807 6.39065 13.828 6.36378 13.8752 6.33691Z" fill="#677380"/>
<path d="M13.7791 5.88184C13.7675 5.92041 13.7077 5.98566 13.6961 6.02423L13.7791 5.88184Z" fill="#677380"/>
<path d="M13.7548 5.57596C13.8495 5.52245 13.9686 5.51911 14.0146 5.36523C13.9199 5.41875 13.861 5.48398 13.7548 5.57596Z" fill="#677380"/>
<path d="M13.8738 5.70028L13.8612 5.61135C13.8139 5.63827 13.7907 5.71551 13.755 5.70381L13.8738 5.70028Z" fill="#677380"/>
<path d="M13.9563 5.68457L13.8732 5.6998L13.8974 5.75011L13.9563 5.68457Z" fill="#677380"/>
<path d="M13.8983 6.13249C13.9456 6.10558 13.9814 6.11727 14.0172 6.12896C14.0287 6.09036 14.0045 6.04007 13.9688 6.02838C13.9572 6.06698 13.8626 6.1208 13.8983 6.13249Z" fill="#677380"/>
<path d="M14.2183 6.36266C14.2659 6.33616 14.2544 6.37447 14.2183 6.36266Z" fill="#677380"/>
<path d="M14.0165 6.00132C14.028 5.96277 13.9807 5.98964 13.9335 6.01652C13.9335 6.01652 13.9692 6.0282 14.0165 6.00132Z" fill="#677380"/>
<path d="M13.9938 6.33313C14.0055 6.29435 14.0171 6.25558 14.0288 6.2168C13.9689 6.28246 13.9456 6.36001 13.9938 6.33313Z" fill="#677380"/>
<path d="M13.8387 6.07044C13.8744 6.08214 13.886 6.04352 13.9333 6.0166C13.8976 6.00491 13.8976 6.0049 13.8502 6.03183C13.8502 6.03183 13.8502 6.03183 13.8387 6.07044Z" fill="#677380"/>
<path d="M15.0332 5.61133C14.9154 5.74183 14.7848 5.78365 14.8668 5.64143C14.7361 5.68325 14.4185 6.08646 14.2661 6.3324C14.325 6.26716 14.3724 6.24039 14.4556 6.22534C14.4787 6.14837 14.489 5.98273 14.6311 5.90243C14.7502 5.89909 14.6439 5.99111 14.6209 6.06807C14.7143 5.88738 14.8578 5.93424 15.046 5.70001L14.9154 5.74183C14.9628 5.71506 15.0217 5.64981 15.0332 5.61133Z" fill="#677380"/>
<path d="M14.1821 6.22459C14.1705 6.26311 14.1115 6.32841 14.0769 6.44396C14.1603 6.42889 14.2077 6.40211 14.2308 6.32508L14.1821 6.22459Z" fill="#677380"/>
<path d="M14.0878 6.14996C14.2056 6.01952 14.3246 6.01618 14.4065 5.87402C14.3348 5.8506 14.2644 5.95429 14.1812 5.96934C14.2772 6.04294 14.0865 6.02285 14.0878 6.14996C14.052 6.13825 14.052 6.13825 14.0161 6.12654C14.0046 6.16501 13.9931 6.20347 13.9931 6.20347C14.0046 6.16501 14.0046 6.16501 14.0046 6.16501C14.0404 6.17672 14.0763 6.18843 14.0878 6.14996C14.0763 6.18843 14.0763 6.18843 14.0404 6.17672L14.0289 6.21519L14.1838 6.22356C14.1479 6.21185 14.1121 6.20014 14.0878 6.14996Z" fill="#677380"/>
<path d="M14.2856 5.11191C14.274 5.1506 14.274 5.1506 14.2856 5.11191C14.3219 5.12378 14.274 5.1506 14.2856 5.11191Z" fill="#677380"/>
<path d="M14.251 5.22847C14.251 5.22847 14.1919 5.29384 14.1674 5.24355C14.179 5.205 14.2266 5.17818 14.2742 5.15137C14.2266 5.17818 14.143 5.19326 14.1199 5.27037C14.0967 5.34747 14.0028 5.5285 13.9913 5.56705C14.1096 5.43632 14.1687 5.37095 14.251 5.22847Z" fill="#677380"/>
<path d="M14.193 5.67474L14.3119 5.6714L14.3938 5.5293L14.335 5.5945C14.3107 5.54434 14.2518 5.60954 14.193 5.67474Z" fill="#677380"/>
<path d="M14.195 6.44081L14.0417 6.55939L14.2781 6.42578L14.195 6.44081Z" fill="#677380"/>
<path d="M14.2903 6.51367L14.1838 6.60628L14.2787 6.55235L14.2903 6.51367Z" fill="#677380"/>
<path d="M20.5962 9.01495C20.6078 8.97626 20.6442 8.98813 20.5962 9.01495Z" fill="#677380"/>
<path d="M20.442 8.87985L20.3825 8.94532C20.4304 8.91852 20.4667 8.93039 20.442 8.87985Z" fill="#677380"/>
<path d="M16.533 8.50958C16.4866 8.66392 16.3803 8.88352 16.475 8.7025L16.558 8.56007C16.5098 8.58675 16.5214 8.54817 16.533 8.50958Z" fill="#677380"/>
<path d="M18.7018 8.82758L18.7134 8.78906C18.6659 8.81585 18.6428 8.89288 18.5954 8.91967C18.6428 8.89288 18.6544 8.85437 18.7018 8.82758Z" fill="#677380"/>
<path d="M21.5446 9.36205L21.6626 9.23145C21.6267 9.21972 21.6036 9.29675 21.5446 9.36205Z" fill="#677380"/>
<path d="M15.2151 7.32067C15.1919 7.39779 15.2168 7.44824 15.2168 7.44824C15.24 7.37113 15.3228 7.22878 15.2151 7.32067Z" fill="#677380"/>
<path d="M19.6533 10.5773C19.7013 10.5504 19.7013 10.5504 19.7129 10.5117C19.6765 10.4998 19.6649 10.5386 19.6533 10.5773Z" fill="#677380"/>
<path d="M15.3 7.56109L15.3115 7.52246C15.2757 7.51076 15.2284 7.53769 15.24 7.49906C15.2168 7.57631 15.2053 7.61494 15.3 7.56109Z" fill="#677380"/>
<path d="M14.9402 6.29895C14.9402 6.29895 14.9881 6.27211 14.9998 6.2334C14.9881 6.27211 14.9765 6.31082 14.9402 6.29895Z" fill="#677380"/>
<path d="M16.1379 6.85484C16.1741 6.86666 16.1856 6.82835 16.1379 6.85484Z" fill="#677380"/>
<path d="M14.5641 6.8981C14.5756 6.85949 14.5756 6.85949 14.5641 6.8981C14.5278 6.88625 14.5278 6.88625 14.5641 6.8981Z" fill="#677380"/>
<path d="M22.8038 10.7444C22.8154 10.7058 22.8517 10.7176 22.8038 10.7444Z" fill="#677380"/>
<path d="M18.0701 7.43555L18.0338 7.4237L18.0223 7.46211L18.0701 7.43555Z" fill="#677380"/>
<path d="M18.2002 7.39453C18.0345 7.55202 18.0461 7.51348 18.0576 7.47495L17.811 7.9022L18.2002 7.39453Z" fill="#677380"/>
<path d="M21.0095 9.20254L21.0197 9.03827C21.1953 8.84413 21.1966 8.97025 21.2653 8.74126C21.0095 9.20255 21.0515 8.67154 20.7956 9.13283L20.83 9.01834C20.83 9.01834 20.8415 8.98017 20.8656 9.02995C20.9102 8.75118 20.62 9.32696 20.5716 9.2274C20.5474 9.17761 20.5704 9.10128 20.6289 9.03657L20.4876 9.11621C20.452 9.10459 20.522 9.00171 20.5462 9.0515L20.4393 9.01664C20.3807 9.08135 20.2751 9.17261 20.2636 9.21077C20.2865 9.13444 20.3107 9.18423 20.3336 9.1079L20.228 9.19915C20.2738 9.04649 20.3794 8.95524 20.4036 9.00502C20.6353 8.49395 20.298 9.09628 20.3298 8.72955L20.4126 8.71463C20.5399 8.42092 20.4342 8.51218 20.4559 8.30974C20.4215 8.42423 20.3426 8.8175 20.2127 8.85897C20.2242 8.82081 20.2 8.77102 20.13 8.8739C20.2229 8.69469 20.1758 8.72124 20.1402 8.70962L20.2802 8.50387C20.1975 8.5188 20.1516 8.67146 20.0575 8.72455C20.0333 8.67476 20.1262 8.49556 20.172 8.3429C20.0524 8.22009 19.9735 8.61336 19.8666 8.5785C19.8653 8.45239 19.7711 8.50548 19.5827 8.61167C19.57 8.52372 19.6642 8.47062 19.6871 8.39429L19.5229 8.55026L19.5458 8.47393C19.4516 8.52702 19.4058 8.67968 19.3231 8.69461C19.1716 8.93853 19.4135 8.26318 19.1907 8.48385C19.2136 8.40752 19.2722 8.34281 19.3307 8.2781C19.1424 8.38429 19.1895 8.35774 18.9782 8.54025L18.9998 8.33781C18.9425 8.52863 18.7783 8.6846 18.6256 8.80241C18.6026 8.87874 18.5797 8.95507 18.5683 8.99323L18.427 9.07287C18.4384 9.03471 18.497 8.96999 18.567 8.86712L18.5199 8.89366C18.5543 8.77917 18.6243 8.67629 18.7299 8.58503C18.7185 8.6232 18.6956 8.69953 18.6841 8.7377C18.8012 8.60827 18.8827 8.46723 18.9527 8.36436C18.9413 8.40252 18.9056 8.3909 18.9056 8.3909C18.9171 8.35274 18.9642 8.32619 18.9642 8.32619C18.9756 8.28803 18.9171 8.35274 18.9056 8.3909L19.0215 8.13537L18.9515 8.23824L18.9375 8.02418C18.7262 8.20669 18.4334 8.53025 18.2438 8.51032C18.3723 8.34273 18.4423 8.23985 18.5824 8.0341C18.4665 8.28964 18.7478 8.00425 18.7606 8.0922C18.7364 8.04241 18.8064 7.93954 18.8535 7.91299L18.618 8.04572C18.7466 7.87813 18.6638 7.89306 18.6868 7.81673C18.5009 8.17514 18.4755 7.99924 18.3456 8.04072C18.4156 7.93784 18.4856 7.83496 18.5455 7.89637C18.6371 7.59104 18.2056 8.24647 18.2858 7.97931C18.2858 7.97931 18.31 8.0291 18.3329 7.95277C18.2273 8.04402 18.1904 7.90629 18.296 7.81503C18.2477 7.71546 18.0453 7.60759 17.8467 7.87805C17.8582 7.83988 18.1038 7.54287 18.1153 7.50471L17.3185 8.33433C17.5056 8.10204 17.8429 7.49971 17.9842 7.42007C17.9957 7.3819 17.983 7.29395 17.8888 7.34704C17.8773 7.38521 17.7029 7.70546 17.6558 7.732C17.7831 7.4383 17.7131 7.54118 17.7933 7.27402C17.7704 7.35035 17.5133 7.68553 17.4776 7.67391C17.5362 7.6092 17.7462 7.30057 17.7577 7.2624L17.4293 7.57434C17.4878 7.50963 17.6393 7.26571 17.7093 7.16283C17.6864 7.23916 17.6495 7.10143 17.6024 7.12798L17.568 7.24247C17.5311 7.10474 17.1225 7.68383 17.0385 7.57264C17.0971 7.50793 17.4013 7.14621 17.3886 7.05826C17.2244 7.21423 16.6745 7.87296 16.4619 7.92936L16.5319 7.82648L16.3906 7.90612C16.6249 7.64728 17.1531 7.19099 17.3644 7.00848C17.3988 6.89398 17.4459 6.86744 17.3746 6.8442C17.4446 6.74132 17.4917 6.71477 17.5274 6.72639L17.5376 6.56212C17.3975 6.76787 17.3021 6.69485 17.162 6.9006L17.4332 6.77949C17.2931 6.98524 16.9176 7.32372 16.8693 7.22415C16.9036 7.10966 17.1735 6.86243 17.1964 6.7861C17.1379 6.85081 17.0195 6.85412 17.031 6.81596L17.1366 6.7247C17.1353 6.59858 16.8426 6.92214 16.947 6.70477C16.9584 6.6666 17.0857 6.3729 17.0043 6.51394C16.8413 6.79602 16.3041 7.54271 16.1399 7.69867C16.1514 7.66051 16.196 7.38173 16.2774 7.24069C16.3818 7.02332 16.6758 6.82588 16.7688 6.64667C16.7102 6.71138 16.6517 6.7761 16.616 6.76448C16.639 6.68815 16.7446 6.59689 16.709 6.58527C16.5333 6.7794 16.625 6.47408 16.5448 6.74124C16.462 6.75616 16.532 6.65329 16.4608 6.63005C16.3793 6.77109 16.0623 7.04486 15.9681 7.09795C16.0267 7.03324 16.0496 6.95691 16.0967 6.93037C16.0127 6.81918 16.0471 6.70468 15.9517 6.63166C15.9746 6.55533 15.9975 6.479 16.0917 6.42591C16.0446 6.45245 15.986 6.51717 15.9504 6.50555C16.0548 6.28817 16.0217 6.52879 16.1732 6.28487C16.056 6.41429 15.9848 6.39105 15.8906 6.44414C15.7505 6.6499 15.9389 6.54371 16.0217 6.52878C15.8231 6.79925 15.529 6.99669 15.3636 7.02654C15.2452 7.02985 15.4565 6.84734 15.4209 6.83572C15.3483 6.68637 14.927 7.17751 14.9716 6.89873C15.076 6.68136 15.2287 6.56356 15.3344 6.4723C15.4527 6.46899 15.3242 6.63658 15.384 6.69798L15.4184 6.58349C15.4654 6.55694 15.5482 6.54202 15.5253 6.61835C15.6182 6.43914 15.3573 6.39597 15.3548 6.14374C15.3077 6.17029 15.2135 6.22338 15.1549 6.28809L15.1906 6.29971C15.1091 6.44075 14.9907 6.44406 14.9678 6.52039C14.838 6.56186 14.6852 6.67967 14.684 6.55355L14.824 6.3478C14.7654 6.41251 14.7782 6.50046 14.8367 6.43575C14.7425 6.48884 14.9755 6.10388 14.7171 6.31294L14.6356 6.45398C14.5058 6.49546 14.3059 6.6398 14.2932 6.55186C14.1532 6.75761 14.3288 6.56347 14.1888 6.76923C14.3874 6.49876 14.3085 6.89203 14.5185 6.58341C14.3555 6.86549 14.5083 6.74768 14.3568 6.9916C14.4154 6.92689 14.4383 6.85056 14.451 6.93851C14.4625 6.90035 14.4981 6.91196 14.4981 6.91196C14.5096 6.8738 14.521 6.83563 14.5681 6.80909C14.7209 6.69128 14.7807 6.75269 14.8634 6.73776C14.8519 6.77593 14.8048 6.80247 14.7463 6.86718L14.8876 6.78755C14.7705 6.91697 14.7603 7.08125 14.6419 7.08456L14.7017 7.14596C14.6673 7.26045 14.6915 7.31024 14.7743 7.29531C14.7628 7.33348 14.9626 7.18913 14.857 7.28038L15.011 7.2887L14.9995 7.32686C15.0835 7.43805 15.3661 7.27877 15.263 7.62226C15.3101 7.59571 15.3813 7.61895 15.4055 7.66874L15.324 7.80978C15.4068 7.79485 15.338 8.02384 15.4551 7.89442C15.2336 8.24121 15.5875 8.10517 15.6244 8.24291L15.7529 8.07532C15.7771 8.1251 15.8599 8.11018 15.9782 8.10687L16.0953 7.97745C16.2366 7.89781 16.145 8.20313 16.2519 8.23799C16.1933 8.3027 16.2048 8.26453 16.2162 8.22637C16.0902 8.64619 16.5828 8.17828 16.5026 8.44544C16.5497 8.41889 16.5853 8.43051 16.5624 8.50684C16.598 8.51846 16.6337 8.53008 16.6808 8.50353L16.5878 8.68274C16.5649 8.75907 16.6464 8.61803 16.7164 8.51515C16.7635 8.48861 16.7635 8.48861 16.8106 8.46206C16.6476 8.74414 16.9404 8.42059 16.7775 8.70267C16.8946 8.57325 16.9671 8.7226 17.1657 8.45214C17.1542 8.4903 17.1428 8.52847 17.1072 8.51685C17.1313 8.56663 17.1199 8.6048 17.2026 8.58987L17.0626 8.79562L17.321 8.58656C17.2751 8.73922 17.2522 8.81555 17.0995 8.93336C17.3464 8.76246 17.2293 8.89188 17.4762 8.72099L17.3948 8.86203C17.4304 8.87365 17.5946 8.71768 17.5131 8.85872C17.4215 9.16404 17.788 9.11595 17.8033 9.45613C18.0006 9.05956 17.7702 9.69674 17.9802 9.38812C17.9102 9.49099 17.9344 9.54077 17.8402 9.59387C17.97 9.55239 17.8898 9.81955 18.1011 9.63704C18.0667 9.75153 17.984 9.76646 17.9725 9.80462C17.984 9.76646 18.0311 9.73991 18.0082 9.81624C17.9852 9.89257 17.9496 9.88095 17.9025 9.9075C18.0094 9.94236 18.1724 9.66028 18.3595 9.42798C18.3137 9.58064 18.3493 9.59226 18.4779 9.42467C18.4435 9.53916 18.4206 9.61549 18.3378 9.63042C18.362 9.6802 18.4231 9.86772 18.5631 9.66197C18.5402 9.7383 18.5873 9.71175 18.6344 9.68521C18.6942 9.74661 18.6827 9.78478 18.754 9.80801L18.7655 9.76985C18.9501 9.28532 18.8813 9.51431 18.9526 9.53755L18.9411 9.57572C18.9437 9.82795 19.0353 9.52263 19.0264 9.81302L19.1193 9.63381C19.3408 9.28702 19.1104 9.92421 19.2631 9.8064L19.2975 9.69191C19.4032 9.60065 19.1371 10.2262 19.1498 10.3142C19.1383 10.3523 19.1027 10.3407 19.0912 10.3789C19.0823 10.6693 19.2313 10.1731 19.3496 10.1698C19.3153 10.2843 19.1511 10.4403 19.2109 10.5017C19.1765 10.6162 19.5749 10.2014 19.5303 10.4801C19.5647 10.3656 19.5876 10.2893 19.6818 10.2362C19.7646 10.2213 19.6271 10.6793 19.8256 10.4088C19.8142 10.447 19.8142 10.447 19.8027 10.4851C19.8969 10.4321 20.0038 10.4669 20.1324 10.2993C19.8778 10.8867 20.5219 10.1749 20.2431 10.7125L20.3856 10.759L20.3627 10.8353C20.4111 10.9349 20.5282 10.8055 20.5982 10.7026C20.5867 10.7408 20.5753 10.7789 20.5282 10.8055C20.5893 10.993 20.6007 10.9548 20.8591 10.7458L20.7662 10.925C20.8362 10.8221 20.8056 11.3149 21.0054 11.1706C20.994 11.2088 20.994 11.2088 20.9469 11.2353C21.1824 11.1026 21.0245 11.8891 21.3974 11.2984L21.5502 11.1806C21.4662 11.0694 21.7131 10.8985 21.7119 10.7724C21.7946 10.7575 21.7144 11.0246 21.6673 11.0512L21.6788 11.013C21.5044 11.3333 21.7755 11.2122 21.6354 11.4179C21.8734 11.5374 21.9829 11.8245 22.2209 11.944L22.3011 11.6768L22.3609 11.7382C22.338 11.8146 22.2921 11.9672 22.2323 11.9058C22.1865 12.0585 22.3736 11.8262 22.3965 11.7499C22.4691 11.8992 22.2336 12.0319 22.2221 12.0701L22.2578 12.0817L22.2692 12.0436C22.3392 11.9407 22.4093 11.8378 22.4691 11.8992C22.4818 11.9872 22.4118 12.09 22.4118 12.09C22.4003 12.1282 22.4003 12.1282 22.4474 12.1017L22.5429 12.1747L22.6116 11.9457C22.7173 11.8544 22.7071 12.0187 22.7517 11.7399C22.6371 12.1216 23.0507 12.0469 23.052 12.1731C23.1691 12.0436 23.2404 12.0669 23.3002 12.1283C23.3116 12.0901 23.3919 11.823 23.4517 11.8844C23.2314 12.3573 23.4898 12.1482 23.3752 12.5299C23.4198 12.2511 23.5649 12.5498 23.6324 12.1947C23.6565 12.2445 23.5394 12.3739 23.5407 12.5C23.7405 12.3557 23.78 12.7456 23.934 12.7539C23.9569 12.6776 23.9798 12.6013 24.0498 12.4984L23.9823 12.8535C24.0294 12.827 24.1682 12.4951 24.1351 12.7357C24.1465 12.6975 24.1809 12.583 24.1809 12.583C24.3629 13.0195 24.8797 12.6014 24.97 13.3431C24.9802 13.1788 25.0158 13.1905 25.0514 13.2021C25.0273 13.1523 25.0973 13.0494 25.1316 12.9349L25.1583 13.2369C25.2742 12.9814 25.3009 13.2834 25.4053 13.066L25.3582 13.0926C25.5097 12.8487 25.5174 12.4322 25.6561 12.1003C25.4932 12.3824 25.6982 11.5693 25.4181 11.9808C25.441 11.9045 25.4881 11.8779 25.511 11.8016C25.4296 11.9426 25.3825 11.9692 25.3698 11.8812L25.3812 11.8431C25.1916 11.8231 25.2132 11.6207 25.0694 11.4481L25.0121 11.6389C24.988 11.5891 24.9994 11.551 25.0109 11.5128C24.8594 11.7567 25.1063 11.5858 24.9548 11.8297C25.0694 11.4481 24.6812 11.6986 24.8429 11.2904C24.7716 11.2672 24.7856 11.4813 24.7143 11.458L24.7487 11.3435L24.6672 11.4846C24.643 11.4348 24.6774 11.3203 24.7118 11.2058L24.7589 11.1792C24.7691 11.015 24.6049 11.1709 24.6163 11.1328L24.6291 11.2207C24.428 11.2389 24.2956 11.0282 24.0601 11.1609L24.0372 11.2373C23.8488 11.3434 24.0003 11.0995 23.8349 11.1294L23.8463 11.0912C23.7878 11.1559 23.7407 11.1825 23.705 11.1708C23.7636 11.1061 23.7267 10.9684 23.8323 10.8771C23.6439 10.9833 23.7267 10.9684 23.4925 11.2272L23.5383 11.0746C23.4683 11.1775 23.4097 11.2422 23.327 11.2571C23.4326 11.1658 23.3957 11.0281 23.5129 10.8987C23.5091 10.5203 23.1832 11.0845 23.3207 10.6265C23.0992 10.9733 23.3589 10.8904 23.2647 10.9435C23.2303 11.058 23.0775 11.1758 23.0534 11.126C23.0177 11.1144 23.2023 10.6298 23.1069 10.5568C23.1069 10.5568 23.1183 10.5186 23.154 10.5303C23.1527 10.4042 23.0127 10.6099 23.0229 10.4456C22.8829 10.6514 22.9631 10.3842 22.8358 10.6779L22.9541 10.6746C22.8599 10.7277 22.6499 11.0363 22.6359 10.8223C22.6588 10.7459 22.753 10.6928 22.7645 10.6547C22.7874 10.5784 22.6818 10.6696 22.7047 10.5933C22.832 10.2996 22.8587 10.6016 22.9987 10.3958C23.0331 10.2813 22.7989 10.5402 22.9618 10.2581C22.7288 10.6431 22.8778 10.1469 22.6792 10.4174L22.7722 10.2382C22.7607 10.2763 22.7022 10.3411 22.6665 10.3294L22.8065 10.1237C22.678 10.2913 22.7926 9.90962 22.6513 9.98925C22.7582 10.0241 22.5825 10.2182 22.5838 10.3444C22.3368 10.5153 22.7327 9.84821 22.5316 9.86645C22.5787 9.8399 22.5685 10.0042 22.51 10.0689C22.4858 10.0191 22.4731 9.93116 22.5075 9.81666C22.4006 9.78181 22.4502 10.0075 22.3445 10.0987C22.4133 9.86976 22.2503 10.1518 22.1561 10.2049L22.2491 10.0257C22.188 9.83821 22.0276 10.3725 22.0136 10.1585L22.1536 9.9527L22.0709 9.96763L22.1638 9.78842C22.0467 9.91784 22.0225 9.86806 22.0098 9.78011C21.9754 9.8946 21.8354 10.1004 21.8112 10.0506C21.81 9.92446 21.8927 9.90953 21.8214 9.88629C21.8914 9.78342 21.9729 9.64238 21.9156 9.8332C21.9385 9.75687 21.9856 9.73033 21.9971 9.69216C22.0913 9.63907 21.9971 9.69216 21.9615 9.68054L21.9856 9.73033L21.7743 9.91284C21.7972 9.83651 21.8443 9.80996 21.8673 9.73363C21.8316 9.72201 21.7731 9.78673 21.726 9.81327C21.8074 9.67223 21.8889 9.53119 21.936 9.50464L21.7476 9.61083C21.7705 9.5345 21.7693 9.40838 21.8164 9.38183C21.8151 9.25572 21.5224 9.57928 21.5325 9.415C21.5211 9.45316 21.4855 9.44154 21.474 9.47971C21.4142 9.41831 21.4358 9.21586 21.2716 9.37183L21.3633 9.06651C21.2806 9.08143 21.2602 9.40999 21.0947 9.43985C20.9649 9.48132 21.1635 9.21086 21.1864 9.13453C21.0807 9.22578 20.8936 9.45808 20.9267 9.21747C20.9738 9.19093 20.9624 9.22909 21.0095 9.20254ZM20.1771 8.84736C20.1885 8.80919 20.2942 8.71793 20.2598 8.83243C20.1313 9.00002 20.1656 8.88552 20.1771 8.84736ZM18.7643 8.47054C18.8229 8.40583 18.8114 8.44399 18.7885 8.52032C18.7885 8.52032 18.7529 8.5087 18.7643 8.47054ZM14.8774 6.95183C14.8901 7.03978 14.8901 7.03978 14.8774 6.95183ZM14.8647 6.86388C14.8532 6.90204 14.8176 6.89042 14.8061 6.92859C14.8532 6.90204 14.8532 6.90204 14.8774 6.95183C14.9003 6.8755 14.9118 6.83733 14.8647 6.86388ZM22.506 12.0369L22.5174 11.9988C22.576 11.9341 22.5174 11.9988 22.506 12.0369Z" fill="#677380"/>
<path d="M14.3262 6.77913L14.4094 6.76388C14.3736 6.75217 14.3852 6.71349 14.3968 6.67481C14.3852 6.71349 14.362 6.79085 14.3262 6.77913Z" fill="#677380"/>
<path d="M14.7727 5.56615L14.6781 5.61996C14.7139 5.63165 14.7969 5.61643 14.7727 5.56615Z" fill="#677380"/>
<path d="M14.716 6.26944C14.834 6.13821 14.7508 6.15345 14.7149 6.14174C14.5854 6.31164 14.6328 6.28469 14.716 6.26944Z" fill="#677380"/>
<path d="M14.7153 6.1416C14.6675 6.16837 14.6197 6.19513 14.7153 6.1416Z" fill="#677380"/>
<path d="M14.7291 6.86714C14.7406 6.82869 14.5999 7.036 14.6229 6.95909C14.5052 7.08949 14.8954 6.83707 14.7291 6.86714Z" fill="#677380"/>
<path d="M15.0339 5.8623L14.9518 6.00463L15.0583 5.91254L15.0339 5.8623Z" fill="#677380"/>
<path d="M15.1775 6.16328L15.1648 6.07423C15.1533 6.1129 15.1174 6.10118 15.1174 6.10118C15.1417 6.15157 15.1185 6.22892 15.1775 6.16328Z" fill="#677380"/>
<path d="M15.1519 5.85726L15.1403 5.89598L15.165 5.94657L15.1519 5.85726Z" fill="#677380"/>
<path d="M15.6164 6.64482L15.6996 6.62958C15.7586 6.56399 15.7701 6.52534 15.7227 6.55228C15.6754 6.57923 15.6638 6.61788 15.6164 6.64482Z" fill="#677380"/>
<path d="M15.816 6.1151C15.8044 6.15362 15.7929 6.19213 15.7339 6.25743L15.9109 6.06152L15.816 6.1151Z" fill="#677380"/>
<path d="M15.9944 6.17139C16.0533 6.10617 16.1723 6.10284 16.1121 6.04095C16.0533 6.10617 15.9816 6.08275 15.9944 6.17139Z" fill="#677380"/>
<path d="M16.5415 7.07129L16.282 7.40973L16.5415 7.07129Z" fill="#677380"/>
<path d="M17.7726 6.87366C17.7713 6.74641 17.5956 7.06954 17.6418 6.9155C17.5828 6.9808 17.6431 7.04276 17.5482 7.09633C17.6431 7.04276 17.6315 7.08127 17.7726 6.87366Z" fill="#677380"/>
<path d="M17.5479 7.09766L17.5001 7.12422C17.5116 7.08581 17.5479 7.09766 17.5479 7.09766Z" fill="#677380"/>
<path d="M25.2031 13.513L25.2048 13.6406L25.2512 13.4863L25.2031 13.513Z" fill="#677380"/>
<path d="M25.3916 13.2772L25.3101 13.5474L25.4166 13.3277C25.4166 13.3277 25.3683 13.3544 25.3916 13.2772Z" fill="#677380"/>
<path d="M20.3095 8.28596L20.2978 8.32471C20.2746 8.40222 20.2746 8.40222 20.311 8.41411L20.3095 8.28596Z" fill="#677380"/>
<path d="M20.7737 8.81738L20.6673 9.03705L20.7737 8.81738Z" fill="#677380"/>
<path d="M21.3894 8.84668C21.3535 8.83496 21.342 8.87365 21.3177 8.82325C21.3535 8.83496 21.2366 9.09404 21.3894 8.84668Z" fill="#677380"/>
<path d="M26.1327 12.7013C26.1822 12.7158 26.1478 12.5761 26.1439 12.5232C26.0983 12.5616 26.1366 12.7543 26.1327 12.7013Z" fill="#677380"/>
<path d="M25.4903 12.8465L25.4865 12.7936L25.4258 12.957L25.4903 12.8465Z" fill="#677380"/>
<path d="M24.8731 12.6903C24.9419 12.9697 25.094 12.7292 25.2236 12.845L25.2275 12.8979L25.2616 12.7006C25.1397 12.6907 24.9799 12.8253 24.8731 12.6903Z" fill="#677380"/>
<path d="M24.4594 12.0239C24.4899 12.1106 24.3909 12.0816 24.5356 12.0722L24.5089 12.0384C24.5089 12.0384 24.5089 12.0384 24.4594 12.0239Z" fill="#677380"/>
<path d="M24.5583 12.053C24.4781 11.9516 24.6079 12.0676 24.5583 12.053Z" fill="#677380"/>
<path d="M24.2419 12.0371L24.3333 11.9602C24.3027 11.8735 24.2303 11.8782 24.2493 11.806C24.158 11.8829 24.1847 11.9166 24.2419 12.0371Z" fill="#677380"/>
<path d="M24.209 12.2344L24.2546 12.196C24.2279 12.1623 24.2279 12.1623 24.209 12.2344Z" fill="#677380"/>
<path d="M24.3229 12.1385L24.2317 12.2153C24.2583 12.249 24.2661 12.3548 24.2545 12.1961C24.2583 12.249 24.2773 12.1769 24.3229 12.1385Z" fill="#677380"/>
<path d="M24.3764 12.2059C24.4297 12.2734 24.506 12.3217 24.4146 12.3986C24.5822 12.37 24.5439 12.1773 24.3764 12.2059Z" fill="#677380"/>
<path d="M24.8703 12.9749L24.9504 13.0762L24.9923 12.9847C24.9466 13.0232 24.8626 12.8689 24.8703 12.9749Z" fill="#677380"/>
<path d="M23.6898 11.7694C23.6937 11.8225 23.751 11.9431 23.7549 11.9961L23.8235 11.9384C23.7739 11.9238 23.6976 11.8755 23.6898 11.7694Z" fill="#677380"/>
<path d="M23.7551 11.9957L23.6639 12.0725C23.74 12.1207 23.7856 12.0823 23.7551 11.9957Z" fill="#677380"/>
<path d="M24.2061 12.5179L24.339 12.35L24.1833 12.5371L24.2061 12.5179Z" fill="#677380"/>
<path d="M23.3197 11.6857L23.3615 11.5944L23.3008 11.7578L23.3197 11.6857Z" fill="#677380"/>
<path d="M23.0758 11.665C23.1176 11.5736 22.988 11.4578 23.0337 11.4193C22.9613 11.424 22.9195 11.5155 22.9005 11.5877C22.9462 11.5492 22.9957 11.5637 23.0758 11.665Z" fill="#677380"/>
<path d="M22.8364 11.6982C22.8592 11.679 22.8554 11.6262 22.901 11.5878C22.8782 11.607 22.8554 11.6262 22.8364 11.6982Z" fill="#677380"/>
<path d="M23.515 12.0285C23.4882 11.9947 23.4805 11.8886 23.4041 11.8403L23.515 12.0285C23.4921 12.0478 23.4653 12.014 23.515 12.0285Z" fill="#677380"/>
<path d="M23.4658 12.0143C23.4163 11.9997 23.3896 11.966 23.3668 11.9852C23.4163 11.9997 23.4163 11.9997 23.4658 12.0143Z" fill="#677380"/>
<path d="M23.9509 12.3393C23.9091 12.4307 23.8178 12.5076 23.9246 12.6426C23.9397 12.5174 23.8863 12.4499 23.9509 12.3393Z" fill="#677380"/>
<path d="M23.5808 12.2562L23.7065 12.319C23.7027 12.266 23.676 12.2323 23.6949 12.1601L23.5808 12.2562Z" fill="#677380"/>
<path d="M23.5581 12.2744L23.5809 12.2552L23.5542 12.2214L23.5581 12.2744Z" fill="#677380"/>
<path d="M23.0199 11.8818C23.0009 11.954 22.9514 11.9394 22.8791 11.9441C22.9553 11.9924 23.0048 12.0069 23.0543 12.0214C23.0733 11.9492 23.0922 11.8771 23.0199 11.8818Z" fill="#677380"/>
<path d="M23.0815 12.0561C23.1082 12.0898 23.1538 12.0514 23.1766 12.0322C23.1271 12.0177 23.1271 12.0177 23.0815 12.0561Z" fill="#677380"/>
<path d="M23.2178 11.9404C23.2139 11.8874 23.2139 11.8874 23.2178 11.9404Z" fill="#677380"/>
<path d="M23.2183 11.9409C23.1955 11.9601 23.1993 12.013 23.1765 12.0322C23.1993 12.013 23.2221 11.9938 23.2221 11.9938C23.2183 11.9409 23.2183 11.9409 23.2183 11.9409Z" fill="#677380"/>
<path d="M22.3904 12.8621C22.3788 12.7031 22.4435 12.5924 22.577 12.7612C22.6416 12.6505 22.5077 12.1447 22.3893 11.8507C22.3932 11.9037 22.4238 11.9904 22.3324 12.0673C22.363 12.1541 22.5917 12.2989 22.5271 12.4096C22.409 12.4527 22.4013 12.3468 22.3212 12.2455C22.409 12.4527 22.2186 12.5006 22.2875 12.78L22.3788 12.7031C22.3827 12.7561 22.3637 12.8283 22.3904 12.8621Z" fill="#677380"/>
<path d="M22.586 11.9084L22.6089 11.8891C22.5593 11.8746 22.5287 11.7878 22.4219 11.6527C22.3533 11.7104 22.3572 11.7635 22.361 11.8165L22.586 11.9084Z" fill="#677380"/>
<path d="M22.7806 11.9147C22.7922 12.0737 22.6742 12.1169 22.7849 12.3049C22.9068 12.3147 22.8495 12.1942 22.918 12.1365C22.7009 12.1507 22.937 12.0643 22.7806 11.9147C22.8302 11.9293 22.853 11.91 22.8759 11.8908C22.8491 11.8571 22.7996 11.8425 22.7729 11.8088C22.7996 11.8425 22.7996 11.8425 22.7729 11.8088C22.8035 11.8955 22.7806 11.9147 22.7806 11.9147C22.7044 11.8665 22.7768 11.8618 22.7768 11.8618L22.5863 11.9096C22.6359 11.9242 22.7083 11.9195 22.7806 11.9147Z" fill="#677380"/>
<path d="M23.796 12.8635C23.8189 12.8442 23.815 12.7911 23.8646 12.8057C23.9181 12.8733 23.8952 12.8925 23.8991 12.9456C23.922 12.9263 23.9638 12.8348 23.8836 12.7334L23.8607 12.7526C23.7576 12.6705 23.6429 12.4292 23.6429 12.4292C23.6774 12.5691 23.7119 12.709 23.796 12.8635Z" fill="#677380"/>
<path d="M23.3039 12.4319L23.1631 12.4943L23.2471 12.6484L23.2165 12.5617C23.3155 12.5908 23.285 12.5041 23.3039 12.4319Z" fill="#677380"/>
<path d="M22.3304 11.7299L22.3188 11.571L22.2886 11.8213L22.3304 11.7299Z" fill="#677380"/>
<path d="M22.1357 11.7236L22.1013 11.5838L22.0823 11.6561L22.1357 11.7236Z" fill="#677380"/>
<path d="M11.4297 12.9558L11.3841 12.9942C11.4335 13.0088 11.4335 13.0088 11.4297 12.9558Z" fill="#677380"/>
<path d="M11.7454 12.9717L11.7148 12.8849C11.7186 12.9379 11.7454 12.9717 11.7454 12.9717Z" fill="#677380"/>
<path d="M17.0786 11.1317C16.9717 10.9965 16.857 10.7553 16.8953 10.9482L16.9565 11.1219C17.0251 11.0641 17.0519 11.0979 17.0786 11.1317Z" fill="#677380"/>
<path d="M14.0216 12.0141L14.0483 12.0479C14.0445 11.9949 14.0406 11.9419 14.0367 11.8889C14.0406 11.9419 14.0445 11.9949 14.0216 12.0141Z" fill="#677380"/>
<path d="M14.1957 12.7132L14.0658 12.5972C14.1422 12.6455 14.169 12.6794 14.1957 12.7132Z" fill="#677380"/>
<path d="M9.83212 13.2851L9.84373 13.4441C9.91612 13.4394 9.8627 13.3719 9.83212 13.2851Z" fill="#677380"/>
<path d="M20.0338 11.4637C19.9803 11.3961 19.904 11.3477 19.8543 11.3332C19.9346 11.4346 20.0187 11.589 20.0338 11.4637Z" fill="#677380"/>
<path d="M10.9315 11.1762C10.9086 11.1955 10.9125 11.2485 10.9392 11.2822C10.962 11.263 10.9582 11.21 10.9315 11.1762Z" fill="#677380"/>
<path d="M19.6828 11.3079C19.7095 11.3417 19.7095 11.3417 19.7095 11.3417C19.7324 11.3225 19.778 11.284 19.8543 11.3323C19.8009 11.2648 19.7246 11.2165 19.6828 11.3079Z" fill="#677380"/>
<path d="M21.6169 12.2179C21.594 12.2371 21.6207 12.2708 21.5979 12.29C21.594 12.2371 21.6169 12.2179 21.6169 12.2179Z" fill="#677380"/>
<path d="M21.3207 11.5083C21.3207 11.5083 21.3474 11.542 21.3702 11.5228C21.3931 11.5036 21.3664 11.4698 21.3207 11.5083Z" fill="#677380"/>
<path d="M21.2256 11.5321C21.2485 11.5128 21.2752 11.5466 21.3019 11.5804L21.2752 11.5466C21.2713 11.4936 21.2485 11.5128 21.2256 11.5321Z" fill="#677380"/>
<path d="M6.80865 13.0113C6.7897 13.0835 6.7897 13.0835 6.80865 13.0113Z" fill="#677380"/>
<path d="M16.3428 12.9346C16.3273 12.7226 16.4036 12.7709 16.4531 12.7854L16.2735 12.3178L16.3428 12.9346Z" fill="#677380"/>
<path d="M12.1046 13.0546L12.2418 13.2041C12.2152 13.4543 12.1048 13.3915 12.2655 13.5747C12.1046 13.0546 12.5799 13.4984 12.4391 12.959L12.5294 13.041L12.5094 13.0603C12.7169 13.311 12.4857 12.6896 12.6597 12.7478C12.7266 12.796 12.7735 12.8635 12.7769 12.9164L12.8538 12.7867C12.8973 12.8012 12.9241 12.8879 12.8806 12.8734L13.0478 12.8256C13.041 12.7197 13.0544 12.5946 13.0945 12.5562C13.1413 12.6237 13.0978 12.6091 13.1247 12.6958L13.2015 12.566C13.2953 12.701 13.2385 12.8116 13.1749 12.8162C13.4194 13.3125 13.2083 12.6719 13.4827 12.9709L13.4025 13.0477C13.5499 13.3561 13.6067 13.2455 13.7439 13.395C13.6736 13.2938 13.3958 12.9418 13.4726 12.8121C13.4961 12.8458 13.5395 12.8603 13.5763 12.769C13.6299 12.9423 13.67 12.9039 13.7336 12.8992L13.814 13.1593C13.8742 13.1017 13.844 12.962 13.8373 12.8562C13.9243 12.8852 14.0013 13.0923 14.075 13.2465C14.2255 13.2709 13.8841 12.9236 14.0313 12.8951C14.1652 12.9916 14.222 12.881 14.3189 12.7321C14.4093 12.8141 14.3491 12.8717 14.3959 12.9392L14.4259 12.7419C14.4259 12.7419 14.4728 12.8094 14.4527 12.8286C14.4895 12.7372 14.3723 12.5685 14.4526 12.4917C14.3922 12.2124 14.7538 12.8774 14.7771 12.5742C14.8239 12.6417 14.8073 12.7139 14.8575 12.8343C14.9511 12.6323 14.9544 12.6853 15.0011 12.4159L15.1618 12.5991C15.0212 12.3967 15.0712 12.1802 15.1246 12.0167C15.0543 11.9155 15.0275 11.8288 15.0041 11.795L15.1244 11.6798C15.1479 11.7135 15.1546 11.8194 15.1614 11.9253C15.1814 11.9061 15.158 11.8724 15.1781 11.8532C15.2484 11.9544 15.2786 12.094 15.2653 12.2191C15.2418 12.1854 15.1949 12.1179 15.1715 12.0842C15.1816 12.243 15.1918 12.4018 15.222 12.5415C15.242 12.5223 15.2386 12.4693 15.2386 12.4693C15.242 12.5223 15.242 12.5223 15.2454 12.5752C15.2688 12.609 15.2654 12.556 15.2621 12.5031L15.3659 12.7969L15.3592 12.691L15.5834 12.8695C15.6502 12.5809 15.6466 12.1911 15.8305 12.0711C15.844 12.2829 15.8942 12.4034 15.9512 12.6297C15.8273 12.3551 15.8309 12.7449 15.7004 12.7013C15.7673 12.7496 15.7941 12.8363 15.7975 12.8892L15.9312 12.6489C15.9647 12.8415 16.0049 12.803 16.0952 12.8851C15.9645 12.5046 16.1854 12.6302 16.2422 12.5196C16.2724 12.6592 16.3026 12.7989 16.1922 12.7361C16.3596 13.0252 16.2053 12.2741 16.3927 12.544C16.3727 12.5632 16.3493 12.5295 16.3526 12.5824C16.3659 12.4573 16.5433 12.5684 16.55 12.6743L16.53 12.6935C16.704 12.7516 17.0217 12.7282 16.958 12.396C16.9614 12.449 17.0251 12.7812 17.0519 12.8679L17.0881 11.7658C17.1284 12.0643 17.383 12.7194 17.2861 12.8684C17.353 12.9166 17.3764 12.9504 17.4567 12.8735C17.4332 12.8398 17.3026 12.4593 17.3226 12.4401C17.5135 12.763 17.4398 12.6088 17.6273 12.8787C17.5804 12.8112 17.5099 12.3731 17.5969 12.4022C17.6003 12.4551 17.7109 12.8548 17.6908 12.874L17.7274 12.4458C17.7107 12.5179 17.8146 12.8117 17.8648 12.9322C17.838 12.8455 18.0154 12.9565 18.012 12.9036L17.9417 12.8024C18.1391 12.8942 17.9681 12.2153 18.1621 12.2542C18.1689 12.3601 18.2394 12.7982 18.3298 12.8802C18.3163 12.6684 18.2622 11.8213 18.3792 11.6531L18.4295 11.7735L18.5264 11.6245C18.5266 11.9614 18.4634 12.6399 18.4168 12.9093C18.4871 13.0105 18.4704 13.0827 18.554 13.0588C18.6042 13.1792 18.5441 13.2368 18.524 13.256L18.7649 13.3624C18.6845 13.1024 18.8986 13.1221 18.8416 12.8958L18.6444 13.1408C18.5639 12.8807 18.6406 12.4141 18.8146 12.4722C18.8849 12.5734 18.865 12.9295 18.8918 13.0162C18.8851 12.9103 19.0088 12.848 19.0356 12.9347L19.0022 13.079C19.116 13.1947 19.0656 12.7374 19.2531 13.0073C19.2966 13.0219 19.4239 13.3494 19.4138 13.1906C19.2865 12.863 19.102 11.9723 19.0884 11.7605C19.1119 11.7942 19.3429 12.0787 19.4366 12.2136C19.5371 12.4545 19.4503 12.7623 19.5474 12.9502C19.544 12.8973 19.5373 12.7914 19.5574 12.7722C19.6042 12.8396 19.5709 12.9839 19.6545 12.9601C19.6175 12.7145 19.8485 12.999 19.641 12.7483C19.7011 12.6906 19.7514 12.8111 19.8584 12.8209C19.8048 12.6476 19.8213 12.2385 19.925 12.1954C19.9284 12.2484 19.9786 12.3688 20.002 12.4025C20.176 12.4607 20.2898 12.5764 20.4604 12.5816C20.4872 12.6683 20.5776 12.7503 20.5844 12.8562C20.581 12.8032 20.5977 12.7311 20.6612 12.7264C20.8052 12.9818 20.5575 12.7695 20.6815 13.0441C20.6513 12.9044 20.775 12.8421 20.8352 12.7845C20.5573 12.4326 20.4604 12.5816 20.3802 12.6584C20.3164 12.3262 20.3832 12.0376 20.5236 11.9031C20.6473 11.8408 20.6241 12.144 20.6408 12.0718C20.9017 12.159 20.7776 11.5475 21.0286 11.8128C21.1492 12.0344 21.1192 12.2317 21.1494 12.3713C21.0457 12.4144 20.9486 12.2265 20.885 12.2312L20.9988 12.3469C20.9822 12.4191 20.8986 12.443 20.8517 12.3755C20.9488 12.5634 21.2833 12.4678 21.5309 12.6801C21.5476 12.608 21.6078 12.5504 21.5609 12.4829L21.4974 12.4876C21.4002 12.2996 21.5909 12.2856 21.4771 12.1699C21.5339 12.0593 21.6074 11.8766 21.7446 12.0261L21.8016 12.2524C21.7982 12.1994 21.6844 12.0837 21.6678 12.1558C21.7045 12.0645 21.9021 12.4932 21.9053 12.2093L21.7881 12.0406C21.8449 11.93 21.915 11.6943 22.0489 11.7909C21.9685 11.5308 22.0288 11.8101 21.9049 11.5355C22.0121 11.8823 21.6239 11.4675 21.7746 11.8288C21.6473 11.5013 21.6139 11.6456 21.47 11.3902C21.4968 11.4769 21.5436 11.5444 21.4332 11.4816C21.4332 11.4816 21.4366 11.5345 21.4165 11.5537C21.44 11.5875 21.4634 11.6212 21.4668 11.6741C21.4568 11.8522 21.3063 11.8278 21.2896 11.9C21.2227 11.8517 21.3063 11.8278 21.2561 11.7074L21.1992 11.8179C21.1657 11.6254 21.0084 11.4951 21.1321 11.4328L21.0251 11.4229C20.9548 11.3217 20.8443 11.2589 20.7842 11.3165C20.7172 11.2683 20.6672 11.4847 20.7005 11.3404L20.5568 11.4219L20.5534 11.369C20.3794 11.3109 20.2491 11.6041 19.9713 11.2522C19.9311 11.2906 19.871 11.3483 19.7605 11.2855L19.7069 11.1121C19.6467 11.1697 19.4626 10.9527 19.4493 11.0778C19.2952 10.6636 19.0579 10.9471 18.924 10.8505L18.9576 11.0431C18.8706 11.014 18.7903 11.0909 18.6867 11.134L18.7403 11.3073C18.6634 11.4371 18.4759 11.1672 18.3053 11.162C18.302 11.1091 18.3455 11.1236 18.3689 11.1573C18.0877 10.7525 18.0446 11.4117 17.8136 11.1273C17.7969 11.1994 17.7534 11.1849 17.7065 11.1174C17.663 11.1029 17.6229 11.1413 17.5828 11.1797L17.5292 11.0064C17.4823 10.9389 17.5125 11.0785 17.5661 11.2519C17.5461 11.2711 17.5494 11.324 17.5294 11.3432C17.4255 11.0494 17.4291 11.4393 17.3018 11.1117C17.3119 11.2706 17.0944 11.1979 17.1381 11.5494C17.1347 11.4964 17.0913 11.4819 17.1347 11.4964C17.0678 11.4481 17.0009 11.3999 16.9876 11.525L16.9071 11.2649L16.8638 11.5873C16.7701 11.4523 16.6998 11.3511 16.7298 11.1538C16.6196 11.4279 16.6295 11.2499 16.5628 11.5385L16.5326 11.3989C16.469 11.4035 16.439 11.6008 16.3888 11.4804C16.2214 11.1913 15.81 11.4166 15.472 11.1223C15.6496 11.5702 15.2879 10.9053 15.3751 11.2713C15.3248 11.1508 15.2579 11.1026 15.2947 11.0112C15.1743 11.1264 15.0269 10.8181 15.0037 11.1213C14.9534 11.0008 14.9936 10.9624 14.9467 10.8949C14.9266 10.9142 14.91 10.9863 14.9066 10.9334C14.8597 10.8659 14.8998 10.8275 14.9199 10.8083C14.7727 10.8368 14.8565 11.1498 14.9203 11.482C14.8031 11.3133 14.763 11.3518 14.7765 11.5635C14.7262 11.4431 14.6559 11.3419 14.7395 11.318C14.696 11.3035 14.3681 11.168 14.4486 11.4281C14.4017 11.3606 14.3616 11.399 14.365 11.452C14.2579 11.4421 14.2345 11.4084 14.1308 11.4515L14.1542 11.4852C14.1946 11.7837 14.074 11.562 13.9904 11.5859L13.967 11.5522C13.6992 11.3591 13.9102 11.6628 13.6391 11.4167L13.6927 11.5901C13.8033 11.9898 13.445 11.3778 13.3682 11.5076L13.4385 11.6088C13.4051 11.7531 13.107 11.0835 13.0166 11.0015C12.9932 10.9678 13.0133 10.9486 13.0333 10.9293C12.8057 10.6978 13.0702 11.1749 12.9666 11.218C12.9163 11.0975 12.9028 10.8858 12.8158 10.8567C12.7455 10.7555 12.6957 11.3088 12.5082 11.0389C12.5785 11.1401 12.6053 11.2268 12.5686 11.3182C12.485 11.3421 12.2037 10.9372 12.224 11.2549C12.2005 11.2211 12.2005 11.2211 12.1771 11.1874C12.1404 11.2788 11.9966 11.3603 12.0067 11.5191C11.732 10.8832 11.6657 11.8456 11.5014 11.2726L11.2907 11.3058L11.2873 11.2529C11.1368 11.2285 11.1235 11.3536 11.1336 11.5124C11.0901 11.4979 11.1068 11.4257 11.0834 11.392C10.8425 11.2856 10.8458 11.3386 10.7791 11.6272L10.7021 11.4201C10.6887 11.5452 10.3239 11.1642 10.2103 11.3853C10.2103 11.3853 10.2069 11.3324 10.2035 11.2794C10.0699 11.5198 9.51419 10.8159 9.66512 11.5141L9.59164 11.6968C9.78568 11.7357 9.67545 12.0098 9.78925 12.1256C9.72907 12.1832 9.52153 11.9325 9.60514 11.9086L9.62858 11.9423C9.54139 11.5764 9.36761 11.8552 9.28717 11.5951C8.92928 11.6569 8.51439 11.4924 8.1565 11.5542L8.28043 11.8288L8.15332 11.8381C8.10645 11.7706 8.03277 11.6165 8.11976 11.6455C8.02602 11.5106 8.02284 11.7945 8.04965 11.8812C7.85223 11.7893 7.9859 11.549 7.9424 11.5345L7.90228 11.5729L7.92572 11.6066C7.91241 11.7317 7.96266 11.8521 7.83555 11.8615C7.74856 11.8324 7.73843 11.6736 7.71837 11.6928C7.71837 11.6928 7.69494 11.6591 7.67488 11.6783L7.50427 11.6731L7.64489 11.8755C7.63158 12.0006 7.49772 11.9041 7.66177 12.1403C7.40398 11.7691 7.06296 12.0957 6.9726 12.0137C6.94261 12.2109 6.85899 12.2348 6.75195 12.2249C6.79544 12.2395 6.91937 12.5141 6.81232 12.5042C6.65145 11.9841 6.5446 12.3111 6.3303 11.9545C6.49435 12.1907 6.08284 12.0791 6.33725 12.3973C6.25026 12.3683 6.26019 12.1902 6.14639 12.0745C6.05622 12.3293 5.6747 12.0205 5.49416 12.1934C5.52098 12.2801 5.61134 12.3621 5.59803 12.4872L5.34362 12.169C5.3035 12.2074 5.45424 12.5687 5.27014 12.3517C5.31701 12.4192 5.36388 12.4867 5.34382 12.5059C5.03935 12.4042 4.85544 12.5241 4.62804 12.6295C4.42069 12.7157 4.19328 12.8211 3.83857 12.5989C3.95237 12.7147 3.93231 12.7339 3.86876 12.7385C3.91225 12.7531 3.94244 12.8927 3.99269 13.0131L3.70491 12.8393C3.78534 13.0993 3.51762 12.9062 3.59805 13.1663L3.63817 13.1279C3.67849 13.4264 4.03658 13.7014 4.18732 14.0627C4.12357 13.7305 4.63915 14.4728 4.54183 13.948C4.60876 13.9962 4.57202 14.0876 4.61889 14.1551C4.56527 13.9817 4.60539 13.9433 4.73587 13.9869L4.73925 14.0398C4.96665 13.9344 5.10051 14.031 5.4016 14.0798L5.30449 13.8919C5.36804 13.8872 5.41491 13.9547 5.43835 13.9884C5.37797 13.7091 5.29118 14.017 5.20737 13.704C5.44172 14.0413 5.60538 13.6037 5.82305 14.0133C5.90666 13.9894 5.72593 13.8254 5.80954 13.8015L5.87985 13.9027L5.84966 13.7631C5.91322 13.7584 6.00696 13.8934 6.05721 14.0138L6.01709 14.0522C6.13089 14.168 6.201 13.9323 6.24787 13.9998L6.13744 13.937C6.31798 13.7641 6.66256 13.8274 6.81629 13.5678L6.76942 13.5004C6.86296 13.2984 6.94339 13.5585 7.10725 13.4578C7.10049 13.3519 7.14061 13.3135 7.20417 13.3088C7.19086 13.4339 7.36484 13.492 7.35153 13.6171C7.46514 13.396 7.3849 13.4728 7.40476 13.1167L7.4985 13.2517C7.48838 13.0928 7.46494 13.0591 7.54518 12.9822C7.51181 13.1266 7.68579 13.1847 7.67586 13.3627C7.99045 13.6233 7.84289 12.9781 8.12749 13.4359C8.08043 13.0315 7.85977 13.2428 7.89651 13.1514C7.80277 13.0165 7.8562 12.853 7.94319 12.882C8.00674 12.8774 8.25123 13.3736 8.39839 13.345C8.37833 13.3642 8.37833 13.3642 8.37833 13.3642C8.4687 13.4462 8.43176 13.2007 8.569 13.3502C8.53206 13.1047 8.67605 13.3601 8.5688 13.0133L8.44845 13.1286C8.50525 13.018 8.46155 12.6666 8.66235 12.8114C8.66572 12.8643 8.67247 12.9702 8.63236 13.0086C8.70266 13.1099 8.69253 12.951 8.75946 12.9993C8.86333 13.2931 8.59561 13.1 8.58906 13.331C8.6828 13.466 8.67923 13.0761 8.74298 13.4083C8.65241 12.9894 8.91358 13.4135 8.91339 13.0766L8.96701 13.25C8.98707 13.2308 8.98032 13.1249 9.02381 13.1394L9.06075 13.3849C9.0673 13.1539 9.30504 13.5443 9.3384 13.4C9.17118 13.4477 9.21785 13.1783 9.10405 13.0626C9.23434 12.7693 9.38865 13.5204 9.63612 13.3958C9.61606 13.415 9.4822 13.3185 9.4955 13.1934C9.56243 13.2416 9.64942 13.2707 9.71973 13.3719C9.86352 13.2904 9.62261 13.184 9.65598 13.0397C9.79659 13.2421 9.71278 12.9291 9.74952 12.8378L9.80315 13.0111C10.0441 13.1175 9.73602 12.626 9.93343 12.7178L9.95031 12.9826L10.0306 12.9058L10.0876 13.1321C10.141 12.9686 10.1644 13.0023 10.2949 13.0459C10.2447 12.9255 10.1877 12.6991 10.2713 12.6753C10.3616 12.7573 10.3048 12.8678 10.4085 12.8247C10.4153 12.9306 10.4254 13.0895 10.3316 12.9545C10.335 13.0075 10.3384 13.0604 10.3652 13.1471C10.479 13.2629 10.5358 13.1523 10.5793 13.1668C10.5793 13.1668 10.5358 13.1523 10.5124 13.1185L10.6025 12.8637C10.6494 12.9311 10.6528 12.9841 10.6562 13.037C10.6762 13.0178 10.6695 12.9119 10.733 12.9073C10.7632 13.0469 10.8168 13.2203 10.7801 13.3116L10.8971 13.1434C10.9439 13.2109 11.0577 13.3267 11.0411 13.3988C11.1515 13.4616 11.1714 13.1055 11.3253 13.1828C11.3219 13.1299 11.3219 13.1299 11.342 13.1107C11.4724 13.1543 11.6097 13.3038 11.7032 13.1018L11.8472 13.3572C11.9274 13.2804 11.6329 13.0006 11.7767 12.9191C11.877 12.8231 11.8973 13.1408 11.9676 13.242C12.0009 13.0977 12.0041 12.8137 12.1882 13.0307C12.1916 13.0836 12.1247 13.0354 12.1046 13.0546ZM13.4124 12.8697C13.3924 12.8889 13.3791 13.014 13.3322 12.9465C13.2953 12.701 13.3455 12.8214 13.4124 12.8697ZM15.3389 12.3733C15.3423 12.4262 15.2988 12.4117 15.2519 12.3442C15.272 12.325 15.272 12.325 15.3389 12.3733ZM20.9917 11.5672C20.9683 11.5335 20.9448 11.4998 20.9917 11.5672ZM21.1456 11.6446C21.1657 11.6254 21.1422 11.5916 21.1422 11.5916C21.1456 11.6446 21.1021 11.63 21.0787 11.5963C21.0821 11.6492 21.1055 11.683 21.1456 11.6446ZM7.83555 11.8615L7.85898 11.8952C7.8423 11.9674 7.83893 11.9144 7.83555 11.8615Z" fill="#677380"/>
<path d="M14.2143 12.6405C14.1876 12.6067 14.1837 12.5537 14.1837 12.5537C14.1609 12.5729 14.138 12.5922 14.2143 12.6405Z" fill="#677380"/>
<path d="M19.0846 12.9953C19.0579 12.9615 19.0311 12.9277 19.0043 12.8939C19.0311 12.9277 19.035 12.9808 19.0846 12.9953Z" fill="#677380"/>
<path d="M21.7319 11.4998L21.6367 11.5237C21.6862 11.5382 21.7129 11.572 21.7396 11.6058C21.7129 11.572 21.6824 11.4853 21.7319 11.4998Z" fill="#677380"/>
<path d="M22.7494 12.7858C22.7722 12.7665 22.7722 12.7665 22.7722 12.7665L22.7417 12.6798C22.7188 12.699 22.6732 12.7375 22.7494 12.7858Z" fill="#677380"/>
<path d="M21.9246 12.1274C21.959 12.2671 22.0047 12.2286 22.077 12.2239C22.0387 12.0312 21.9931 12.0697 21.9246 12.1274Z" fill="#677380"/>
<path d="M22.0773 12.2251C22.1001 12.2058 22.1268 12.2396 22.1268 12.2396C22.1458 12.1674 22.1001 12.2058 22.0773 12.2251Z" fill="#677380"/>
<path d="M21.1838 11.6227C21.2105 11.6565 21.1683 11.4109 21.1989 11.4976C21.1834 11.2857 21.0202 11.7043 21.1838 11.6227Z" fill="#677380"/>
<path d="M22.0863 12.6673L21.9984 12.4599L22.01 12.619L22.0863 12.6673Z" fill="#677380"/>
<path d="M21.5107 12.4193L21.6365 12.4821C21.6098 12.4483 21.6326 12.4291 21.6555 12.4098C21.5831 12.4146 21.5069 12.3663 21.5107 12.4193Z" fill="#677380"/>
<path d="M21.6327 12.4292C21.6822 12.4437 21.6822 12.4437 21.7051 12.4245C21.7051 12.4245 21.6556 12.41 21.6327 12.4292Z" fill="#677380"/>
<path d="M21.9191 12.6956L21.8924 12.6618L21.816 12.6134L21.9191 12.6956Z" fill="#677380"/>
<path d="M20.3834 12.2406L20.2654 12.2838C20.2693 12.3367 20.3227 12.4042 20.3455 12.385C20.3644 12.3128 20.4368 12.3081 20.3834 12.2406Z" fill="#677380"/>
<path d="M20.8387 12.8157C20.812 12.782 20.8081 12.729 20.7547 12.6614L20.7969 12.9072L20.8387 12.8157Z" fill="#677380"/>
<path d="M20.5226 12.8003C20.5265 12.8533 20.3895 12.9686 20.5342 12.9592C20.5303 12.9063 20.6255 12.8823 20.5226 12.8003Z" fill="#677380"/>
<path d="M18.7654 12.3057L18.6887 11.92L18.7654 12.3057Z" fill="#677380"/>
<path d="M17.5201 13.1284C17.6726 13.2249 17.4779 12.8826 17.6343 13.0322C17.6266 12.9262 17.5046 12.9164 17.5236 12.8442C17.4818 12.9356 17.4055 12.8873 17.5201 13.1284Z" fill="#677380"/>
<path d="M17.5232 12.8437C17.546 12.8245 17.546 12.8245 17.5421 12.7716C17.546 12.8245 17.5232 12.8437 17.5232 12.8437Z" fill="#677380"/>
<path d="M1.02534 12.748L0.899422 12.6852L1.02921 12.8011L1.02534 12.748Z" fill="#677380"/>
<path d="M1.02668 13.0855L0.889152 12.8635L0.954225 13.0902C0.977086 13.071 0.973218 13.0179 1.02668 13.0855Z" fill="#677380"/>
<path d="M12.5996 13.3799L12.5957 13.3268C12.5422 13.2592 12.5422 13.2592 12.4926 13.2446L12.5996 13.3799Z" fill="#677380"/>
<path d="M11.4268 13.2402L11.4496 13.221L11.312 12.9989L11.4268 13.2402Z" fill="#677380"/>
<path d="M10.6059 13.5922C10.6554 13.6067 10.6744 13.5345 10.7239 13.549C10.6287 13.573 10.4874 13.2982 10.6059 13.5922Z" fill="#677380"/>
</g>
</svg>
