<svg width="72" height="72" viewBox="0 0 72 72" fill="none" xmlns="http://www.w3.org/2000/svg">
<path d="M32.4844 16.7725C32.7244 16.6825 33.0545 16.6525 33.2645 16.7725C33.3245 16.8025 33.3845 16.8625 33.3545 16.9225V16.9825H33.3845C33.3245 17.1626 33.0245 17.1326 32.8744 17.1926C32.7244 17.2526 32.6044 17.4026 32.4544 17.4026C32.3044 17.4026 32.0643 17.3426 32.0343 17.1926C32.0043 16.9825 32.3044 16.7725 32.4844 16.7725ZM35.5448 17.1926C35.3948 17.1326 35.0948 17.1626 35.0648 16.9825V16.9225C35.0348 16.8625 35.0948 16.8025 35.1248 16.7725C35.3846 16.6674 35.6751 16.6674 35.9349 16.7725C36.1149 16.7725 36.415 16.9825 36.3849 17.1926C36.3549 17.3426 36.1149 17.3726 35.9649 17.3726C35.8149 17.3726 35.6949 17.2526 35.5448 17.1926ZM30.2641 21.5432C31.1642 22.1433 32.3344 22.9534 33.8046 22.9534C35.2748 22.9534 37.015 22.1433 38.0652 21.5432C38.6353 21.1531 39.4154 20.5531 40.0155 20.133C40.4955 19.7429 40.4655 19.3529 40.8856 19.3529C41.2756 19.3829 40.9756 19.7429 40.4355 20.343C39.8654 20.7331 39.0253 21.3332 38.3352 21.7532C37.015 22.3533 35.4548 23.3435 33.8046 23.3435C32.1844 23.3435 30.8642 22.5333 29.934 21.9333C29.454 21.5432 29.0939 21.1531 28.7939 20.9431C28.3138 20.5531 28.3738 19.953 28.5838 19.953C28.9139 19.983 28.9739 20.343 29.1839 20.5531C29.484 20.7331 29.844 21.1531 30.2641 21.5432Z" fill="#F9C105"/>
<path d="M36.385 17.1927C36.355 17.3428 36.115 17.3728 35.9649 17.3728C35.8149 17.3728 35.6949 17.2527 35.5449 17.1927C35.3949 17.1327 35.0948 17.1627 35.0648 16.9827V16.9227C35.0348 16.8627 35.0948 16.8027 35.1248 16.7727C35.3846 16.6676 35.6751 16.6676 35.9349 16.7727C36.115 16.7727 36.415 16.9827 36.385 17.1927Z" fill="black"/>
<path d="M49.8869 32.9447V35.7051H48.2367C49.7349 38.4367 50.8075 41.381 51.4171 44.4363C51.8672 44.4063 52.4073 44.4963 52.9774 44.6164C53.2174 43.9863 53.3674 43.3562 53.4574 42.7261C54.0275 38.5555 51.3871 34.4749 49.8869 32.9447ZM49.8869 32.9447V35.7051H48.2367C49.7349 38.4367 50.8075 41.381 51.4171 44.4363C51.8672 44.4063 52.4073 44.4963 52.9774 44.6164C53.2174 43.9863 53.3674 43.3562 53.4574 42.7261C54.0275 38.5555 51.3871 34.4749 49.8869 32.9447ZM63.8389 56.8581V56.5881L63.8089 56.5581C63.2988 55.958 63.0588 54.9678 62.7888 53.7977C62.5487 52.5975 62.2487 51.4273 61.2885 50.6472C61.1085 50.4972 60.9285 50.4672 60.7185 50.2572C60.5475 50.1436 60.3522 50.0717 60.1484 50.0471C60.9885 47.5868 61.0785 45.0964 60.6585 42.7261C60.4484 41.4359 60.0884 40.1757 59.6083 38.9756C57.9881 34.745 55.1677 31.0544 53.0074 28.5341C51.8972 27.1239 50.757 25.7137 49.8869 24.2135C48.8968 22.5032 48.2367 20.6729 48.2667 18.4226C48.3267 14.252 48.5967 7.7411 45.6563 3.69053C44.0961 1.50021 41.5457 0 37.5252 0C37.0451 0 36.565 0.0300043 36.0549 0.0600086C32.2444 0.360051 29.8741 1.74025 28.4039 3.69053C24.9534 8.25118 26.5736 15.8123 26.4536 18.9627C26.2135 22.2332 25.5534 24.8135 23.2731 28.024C22.343 29.1041 21.2628 30.4243 20.2127 31.9246C18.2024 34.745 16.1921 38.1054 15.0219 41.5859C14.2718 43.8362 13.8518 46.1466 14.0618 48.3669L14.1518 49.057C14.0318 49.147 13.9118 49.267 13.8218 49.447C13.0117 50.2572 12.4416 51.2473 11.8115 51.9674C11.1814 52.5675 10.3413 52.7775 9.38114 53.1676C8.42101 53.5876 7.37086 53.9777 6.77077 55.2079C6.47073 55.778 6.35071 56.408 6.35071 57.0081C6.35071 57.6082 6.44072 58.2383 6.53074 58.6284C6.71076 59.8285 6.89079 60.8187 6.65075 61.5388C5.90065 63.5791 5.81063 64.9893 6.32071 66.0094C6.86078 66.9996 7.94094 67.3896 9.17111 67.8097C11.6315 68.4098 14.9619 68.1997 17.6023 69.6099C20.3927 70.9901 23.2731 71.6202 25.5234 71.0201C27.1437 70.6601 28.4939 69.6099 29.214 68.1697C29.364 68.1697 29.484 68.1697 29.634 68.1397C31.3143 68.0497 33.1745 67.3596 36.0549 67.1796C36.8651 67.1196 37.7352 67.2096 38.6953 67.3296C40.2255 67.5696 41.9658 67.8997 43.8861 67.7797C43.9461 68.1697 44.0661 68.3497 44.2161 68.7698H44.2461C45.4163 71.1101 47.6066 72.1603 49.9469 71.9803C52.2873 71.8002 54.7776 70.39 56.8179 68.0797C58.7082 65.7694 61.9186 64.8092 64.0189 63.5491C65.0691 62.979 65.9392 62.1689 65.9992 60.9987C66.0592 59.7985 65.3991 58.5684 63.8389 56.8581ZM40.4956 13.922C40.3756 13.5319 40.1955 13.3219 39.9555 12.9318C39.6855 12.7218 39.4454 12.5118 39.1454 12.5118H39.0854C38.8153 12.5118 38.5453 12.6018 38.3053 12.9318C38.0052 13.2019 37.7952 13.5319 37.6752 13.922C37.5252 14.312 37.4351 14.7021 37.4051 15.1222V15.1822C37.4051 15.4522 37.4351 15.7222 37.4651 15.9923C36.8651 15.7822 36.145 15.5722 35.6349 15.3622C35.6049 15.1822 35.5749 14.9721 35.5749 14.7921V14.7321C35.5449 13.922 35.6949 13.1419 36.0249 12.4218C36.265 11.7617 36.715 11.1916 37.3151 10.8015C37.8552 10.4115 38.4853 10.2015 39.1154 10.2015H39.1754C39.8055 10.2015 40.3756 10.4115 40.9456 10.8015C41.5157 11.2216 41.9358 11.7917 42.2658 12.4218C42.5959 13.1719 42.7459 13.772 42.7759 14.5821C42.7759 14.5221 42.8059 14.4621 42.8059 14.4021V14.7021C42.7759 14.7021 42.7759 14.6721 42.7759 14.6421C42.7759 15.3322 42.5959 16.0523 42.3258 16.7124C42.1758 17.0724 41.9658 17.4325 41.6657 17.7025C41.5757 17.6425 41.4857 17.6125 41.3957 17.5825C41.0957 17.4325 40.7956 17.3725 40.5256 17.1925C40.3167 17.0912 40.0944 17.0205 39.8655 16.9824C40.0155 16.8024 40.3156 16.5924 40.4356 16.3823C40.5856 15.9923 40.6756 15.6022 40.7056 15.1822V15.1222C40.7056 14.7321 40.6456 14.312 40.4956 13.922ZM28.0138 12.6018C28.1638 12.0017 28.4639 11.4616 28.8839 10.9816C29.274 10.5915 29.664 10.3815 30.1441 10.3815H30.2341C30.6783 10.3879 31.109 10.535 31.4643 10.8015C31.9144 11.1916 32.2744 11.6717 32.5144 12.1817C32.7845 12.7818 32.9345 13.3819 32.9645 14.192C32.9945 14.4021 32.9945 14.5521 32.9945 14.7021C32.9945 14.8221 32.9945 14.9121 32.9645 15.0021V15.2422C32.8875 15.2728 32.8068 15.293 32.7245 15.3022C32.2444 15.4822 31.8844 15.7222 31.5243 15.9023C31.5543 15.6622 31.5543 15.3922 31.5243 15.1222V15.0621C31.4943 14.6721 31.4043 14.4621 31.2843 14.072C31.1842 13.7638 31.0089 13.4854 30.7742 13.2619C30.696 13.1953 30.6053 13.1451 30.5074 13.1141C30.4095 13.0832 30.3063 13.0722 30.2041 13.0819H30.1441C29.9341 13.0819 29.754 13.2019 29.604 13.4719C29.394 13.712 29.274 13.982 29.214 14.282C29.154 14.6121 29.124 14.9421 29.154 15.2722V15.3322C29.184 15.7222 29.274 15.9323 29.394 16.3223C29.544 16.7124 29.694 16.9224 29.9041 17.1324C29.9341 17.1624 29.9641 17.1925 29.9941 17.1925C29.7841 17.3725 29.664 17.4025 29.484 17.6125C29.3606 17.7117 29.2173 17.7833 29.0639 17.8225C28.7639 17.4325 28.4939 17.0424 28.2538 16.5924C27.9538 15.9623 27.8038 15.3022 27.7738 14.6121C27.7138 13.922 27.8038 13.2319 28.0138 12.6018ZM28.3438 18.9327C29.0039 18.5126 29.484 18.0926 29.8141 17.9126C30.1141 17.7025 30.2341 17.6125 30.3241 17.5225H30.3541C30.8642 16.8924 31.6743 16.1123 32.8745 15.6922C33.2946 15.6022 33.7746 15.5122 34.3147 15.5122C35.3048 15.5122 36.535 15.6922 37.9752 16.7124C38.8753 17.3125 39.5654 17.5225 41.1857 18.1226C41.9658 18.5126 42.4159 18.9027 42.6559 19.3228V18.9027C42.8659 19.3528 42.8659 19.8628 42.6859 20.3129C42.3258 21.273 41.1257 22.2632 39.4754 22.8633C38.6353 23.2533 37.9452 23.8534 37.1051 24.2435C36.265 24.6635 35.3348 25.1436 34.0447 25.0536C33.5843 25.0917 33.1215 25.0197 32.6945 24.8435C32.3344 24.6635 32.0044 24.4835 31.7043 24.2735C31.1042 23.8534 30.5942 23.2533 29.8441 22.8633C28.6139 22.1132 27.9538 21.303 27.7438 20.733C27.5337 19.9228 27.7438 19.3228 28.3438 18.9327ZM28.8239 65.9194C28.6439 68.1397 27.3537 69.3399 25.4034 69.7899C23.4231 70.18 20.7828 69.7899 18.1124 68.4097C15.202 66.7895 11.6915 66.9996 9.47116 66.5795C8.33099 66.3995 7.61089 65.9794 7.25084 65.3793C6.92079 64.7792 6.92079 63.5791 7.64089 61.6888C8.00095 60.6686 7.73091 59.4085 7.55088 58.3283C7.40086 57.1281 7.31085 56.198 7.7009 55.5079C8.18097 54.4878 8.90107 54.3077 9.7712 53.8877C10.6713 53.4976 11.7215 53.2876 12.5616 52.5075V52.4775C13.3417 51.6674 13.9118 50.6772 14.6019 49.9571C15.172 49.357 15.742 48.967 16.6122 48.967H16.6422C16.7922 48.967 16.9422 48.967 17.1222 48.997C18.2624 49.177 19.2525 50.0171 20.2127 51.2473L22.9731 56.258H23.0031C23.7232 57.8482 25.2834 59.4685 26.6036 61.1787C27.9238 62.979 28.9439 64.5692 28.8239 65.8894V65.9194ZM38.6953 63.9991C35.7249 64.6892 32.5745 64.4792 29.634 62.859C29.274 62.6789 28.9139 62.4689 28.5839 62.2289C28.2538 61.6588 27.8338 61.1187 27.3537 60.6386C27.1329 60.2626 26.8486 59.9276 26.5136 59.6485C27.0837 59.6485 27.5637 59.5585 27.9538 59.4385C28.3739 59.2284 28.7339 58.8684 28.8839 58.4483C29.214 57.6382 28.8839 56.348 27.8338 54.9378C26.7836 53.5576 25.0134 51.9674 22.433 50.3772C21.4429 49.7471 20.6928 49.087 20.1227 48.3669C19.5526 47.6768 19.1625 46.9567 18.9225 46.2066C18.4424 44.5864 18.5024 42.9361 18.8925 41.2559C19.3426 39.2756 20.2427 37.3553 21.1128 35.7051C21.7129 34.6549 22.283 33.7248 22.7631 32.9747C23.0631 32.7647 22.8531 33.3348 21.5929 35.7051L21.5029 35.8851C20.3027 38.1354 18.0524 43.3862 21.1428 47.4668C21.2628 44.4963 21.9229 41.5559 23.0931 38.8255C23.4832 37.9254 23.9932 36.8753 24.5333 35.7051C26.3036 31.9546 28.4639 27.0939 28.6739 23.0133C28.8239 23.1333 29.334 23.4333 29.544 23.6134C30.2041 24.0334 30.7142 24.6335 31.3443 25.0236C31.9744 25.6237 32.7845 26.0137 34.0147 26.0137C34.1347 26.0437 34.2247 26.0437 34.3447 26.0437C35.5749 26.0437 36.565 25.6537 37.3751 25.2336C38.2453 24.8435 38.9354 24.2435 39.5955 24.0334H39.6255C41.0357 23.6434 42.1458 22.8333 42.8059 21.9331C43.8861 26.1937 46.4364 32.3746 48.0567 35.375C49.6495 38.1985 50.7838 41.257 51.4171 44.4363C51.8672 44.4063 52.4073 44.4963 52.9774 44.6164C53.2174 43.9863 53.3674 43.3562 53.4574 42.7261C54.0275 38.5555 51.3871 34.4749 49.8869 32.9447C49.7969 32.8847 49.7069 32.7947 49.6469 32.7347C48.9868 32.1346 48.9568 31.7145 49.2868 31.7145C49.4969 31.8945 49.6769 32.0746 49.8869 32.2846C51.5672 34.0249 53.5174 36.8152 54.2675 39.9957C54.5076 40.8658 54.6276 41.796 54.6276 42.7261C54.6276 43.4762 54.5376 44.2563 54.3576 45.0064C54.5376 45.0964 54.7476 45.1864 54.9576 45.2164C58.1081 46.8067 59.2483 48.0068 58.7082 49.8071V49.6871H58.1081C58.5582 48.2769 57.568 47.1967 54.8676 46.0266C52.1072 44.8264 49.8869 45.0064 49.4969 47.4068C49.4669 47.5268 49.4669 47.6168 49.4369 47.8268C49.2268 47.8868 49.0168 47.9768 48.8068 48.0068C47.5166 48.817 46.7965 50.0171 46.4064 51.5774C46.0164 53.1676 45.8963 55.0278 45.7763 57.1882C45.7163 58.1783 45.2663 59.7085 44.8162 61.2387C42.9859 62.5289 40.9156 63.5191 38.6953 63.9991ZM63.5989 62.4689C61.7086 63.6691 58.3181 64.5992 56.1578 67.1796C54.2675 69.3999 51.9872 70.6001 49.9769 70.7501C47.9666 70.9001 46.2264 70.15 45.2062 68.0497H45.1762C44.5462 66.8495 44.8162 64.9593 45.3563 62.979C45.8963 60.9687 46.6465 58.9284 46.7665 57.2782C46.8565 55.1479 46.9765 53.2876 47.3366 51.8474C47.7266 50.4372 48.2967 49.4471 49.2868 48.877L49.4369 48.817C49.5269 50.6172 50.457 52.5375 52.1072 52.9575C53.8775 53.3476 56.4579 51.9374 57.538 50.6472L58.1681 50.6172C59.1282 50.5872 59.9384 50.6472 60.7485 51.4273C61.3786 52.0274 61.6786 53.0176 61.9486 54.0677C62.2187 55.2679 62.4287 56.408 63.1788 57.2482C64.679 58.8384 65.1591 59.9785 65.1291 60.6686C65.0691 61.4788 64.559 61.8688 63.5989 62.4689ZM49.8869 32.9447V35.7051H48.2367C49.7349 38.4367 50.8075 41.381 51.4171 44.4363C51.8672 44.4063 52.4073 44.4963 52.9774 44.6164C53.2174 43.9863 53.3674 43.3562 53.4574 42.7261C54.0275 38.5555 51.3871 34.4749 49.8869 32.9447Z" fill="black"/>
<path d="M49.8869 32.9447V35.7051H48.2367C49.7349 38.4367 50.8075 41.381 51.4171 44.4363C51.8672 44.4063 52.4073 44.4963 52.9774 44.6164C53.2174 43.9863 53.3674 43.3562 53.4574 42.7261C54.0275 38.5555 51.3871 34.4749 49.8869 32.9447ZM49.8869 32.9447V35.7051H48.2367C49.7349 38.4367 50.8075 41.381 51.4171 44.4363C51.8672 44.4063 52.4073 44.4963 52.9774 44.6164C53.2174 43.9863 53.3674 43.3562 53.4574 42.7261C54.0275 38.5555 51.3871 34.4749 49.8869 32.9447ZM63.8389 56.8581V56.5881L63.8089 56.5581C63.2988 55.958 63.0588 54.9678 62.7888 53.7977C62.5487 52.5975 62.2487 51.4273 61.2885 50.6472C61.1085 50.4972 60.9285 50.4672 60.7185 50.2572C60.5475 50.1436 60.3522 50.0717 60.1484 50.0471C60.9885 47.5868 61.0785 45.0964 60.6585 42.7261C60.4484 41.4359 60.0884 40.1757 59.6083 38.9756C57.9881 34.745 55.1677 31.0544 53.0074 28.5341C51.8972 27.1239 50.757 25.7137 49.8869 24.2135C48.8968 22.5032 48.2367 20.6729 48.2667 18.4226C48.3267 14.252 48.5967 7.7411 45.6563 3.69053C44.0961 1.50021 41.5457 0 37.5252 0C37.0451 0 36.565 0.0300043 36.0549 0.0600086C32.2444 0.360051 29.8741 1.74025 28.4039 3.69053C24.9534 8.25118 26.5736 15.8123 26.4536 18.9627C26.2135 22.2332 25.5534 24.8135 23.2731 28.024C22.343 29.1041 21.2628 30.4243 20.2127 31.9246C18.2024 34.745 16.1921 38.1054 15.0219 41.5859C14.2718 43.8362 13.8518 46.1466 14.0618 48.3669L14.1518 49.057C14.0318 49.147 13.9118 49.267 13.8218 49.447C13.0117 50.2572 12.4416 51.2473 11.8115 51.9674C11.1814 52.5675 10.3413 52.7775 9.38114 53.1676C8.42101 53.5876 7.37086 53.9777 6.77077 55.2079C6.47073 55.778 6.35071 56.408 6.35071 57.0081C6.35071 57.6082 6.44072 58.2383 6.53074 58.6284C6.71076 59.8285 6.89079 60.8187 6.65075 61.5388C5.90065 63.5791 5.81063 64.9893 6.32071 66.0094C6.86078 66.9996 7.94094 67.3896 9.17111 67.8097C11.6315 68.4098 14.9619 68.1997 17.6023 69.6099C20.3927 70.9901 23.2731 71.6202 25.5234 71.0201C27.1437 70.6601 28.4939 69.6099 29.214 68.1697C29.364 68.1697 29.484 68.1697 29.634 68.1397C31.3143 68.0497 33.1745 67.3596 36.0549 67.1796C36.8651 67.1196 37.7352 67.2096 38.6953 67.3296C40.2255 67.5696 41.9658 67.8997 43.8861 67.7797C43.9461 68.1697 44.0661 68.3497 44.2161 68.7698H44.2461C45.4163 71.1101 47.6066 72.1603 49.9469 71.9803C52.2873 71.8002 54.7776 70.39 56.8179 68.0797C58.7082 65.7694 61.9186 64.8092 64.0189 63.5491C65.0691 62.979 65.9392 62.1689 65.9992 60.9987C66.0592 59.7985 65.3991 58.5684 63.8389 56.8581ZM40.4956 13.922C40.3756 13.5319 40.1955 13.3219 39.9555 12.9318C39.6855 12.7218 39.4454 12.5118 39.1454 12.5118H39.0854C38.8153 12.5118 38.5453 12.6018 38.3053 12.9318C38.0052 13.2019 37.7952 13.5319 37.6752 13.922C37.5252 14.312 37.4351 14.7021 37.4051 15.1222V15.1822C37.4051 15.4522 37.4351 15.7222 37.4651 15.9923C36.8651 15.7822 36.145 15.5722 35.6349 15.3622C35.6049 15.1822 35.5749 14.9721 35.5749 14.7921V14.7321C35.5449 13.922 35.6949 13.1419 36.0249 12.4218C36.265 11.7617 36.715 11.1916 37.3151 10.8015C37.8552 10.4115 38.4853 10.2015 39.1154 10.2015H39.1754C39.8055 10.2015 40.3756 10.4115 40.9456 10.8015C41.5157 11.2216 41.9358 11.7917 42.2658 12.4218C42.5959 13.1719 42.7459 13.772 42.7759 14.5821C42.7759 14.5221 42.8059 14.4621 42.8059 14.4021V14.7021C42.7759 14.7021 42.7759 14.6721 42.7759 14.6421C42.7759 15.3322 42.5959 16.0523 42.3258 16.7124C42.1758 17.0724 41.9658 17.4325 41.6657 17.7025C41.5757 17.6425 41.4857 17.6125 41.3957 17.5825C41.0957 17.4325 40.7956 17.3725 40.5256 17.1925C40.3167 17.0912 40.0944 17.0205 39.8655 16.9824C40.0155 16.8024 40.3156 16.5924 40.4356 16.3823C40.5856 15.9923 40.6756 15.6022 40.7056 15.1822V15.1222C40.7056 14.7321 40.6456 14.312 40.4956 13.922ZM28.0138 12.6018C28.1638 12.0017 28.4639 11.4616 28.8839 10.9816C29.274 10.5915 29.664 10.3815 30.1441 10.3815H30.2341C30.6783 10.3879 31.109 10.535 31.4643 10.8015C31.9144 11.1916 32.2744 11.6717 32.5144 12.1817C32.7845 12.7818 32.9345 13.3819 32.9645 14.192C32.9945 14.4021 32.9945 14.5521 32.9945 14.7021C32.9945 14.8221 32.9945 14.9121 32.9645 15.0021V15.2422C32.8875 15.2728 32.8068 15.293 32.7245 15.3022C32.2444 15.4822 31.8844 15.7222 31.5243 15.9023C31.5543 15.6622 31.5543 15.3922 31.5243 15.1222V15.0621C31.4943 14.6721 31.4043 14.4621 31.2843 14.072C31.1842 13.7638 31.0089 13.4854 30.7742 13.2619C30.696 13.1953 30.6053 13.1451 30.5074 13.1141C30.4095 13.0832 30.3063 13.0722 30.2041 13.0819H30.1441C29.9341 13.0819 29.754 13.2019 29.604 13.4719C29.394 13.712 29.274 13.982 29.214 14.282C29.154 14.6121 29.124 14.9421 29.154 15.2722V15.3322C29.184 15.7222 29.274 15.9323 29.394 16.3223C29.544 16.7124 29.694 16.9224 29.9041 17.1324C29.9341 17.1624 29.9641 17.1925 29.9941 17.1925C29.7841 17.3725 29.664 17.4025 29.484 17.6125C29.3606 17.7117 29.2173 17.7833 29.0639 17.8225C28.7639 17.4325 28.4939 17.0424 28.2538 16.5924C27.9538 15.9623 27.8038 15.3022 27.7738 14.6121C27.7138 13.922 27.8038 13.2319 28.0138 12.6018ZM28.3438 18.9327C29.0039 18.5126 29.484 18.0926 29.8141 17.9126C30.1141 17.7025 30.2341 17.6125 30.3241 17.5225H30.3541C30.8642 16.8924 31.6743 16.1123 32.8745 15.6922C33.2946 15.6022 33.7746 15.5122 34.3147 15.5122C35.3048 15.5122 36.535 15.6922 37.9752 16.7124C38.8753 17.3125 39.5654 17.5225 41.1857 18.1226C41.9658 18.5126 42.4159 18.9027 42.6559 19.3228V18.9027C42.8659 19.3528 42.8659 19.8628 42.6859 20.3129C42.3258 21.273 41.1257 22.2632 39.4754 22.8633C38.6353 23.2533 37.9452 23.8534 37.1051 24.2435C36.265 24.6635 35.3348 25.1436 34.0447 25.0536C33.5843 25.0917 33.1215 25.0197 32.6945 24.8435C32.3344 24.6635 32.0044 24.4835 31.7043 24.2735C31.1042 23.8534 30.5942 23.2533 29.8441 22.8633C28.6139 22.1132 27.9538 21.303 27.7438 20.733C27.5337 19.9228 27.7438 19.3228 28.3438 18.9327ZM28.8239 65.9194C28.6439 68.1397 27.3537 69.3399 25.4034 69.7899C23.4231 70.18 20.7828 69.7899 18.1124 68.4097C15.202 66.7895 11.6915 66.9996 9.47116 66.5795C8.33099 66.3995 7.61089 65.9794 7.25084 65.3793C6.92079 64.7792 6.92079 63.5791 7.64089 61.6888C8.00095 60.6686 7.73091 59.4085 7.55088 58.3283C7.40086 57.1281 7.31085 56.198 7.7009 55.5079C8.18097 54.4878 8.90107 54.3077 9.7712 53.8877C10.6713 53.4976 11.7215 53.2876 12.5616 52.5075V52.4775C13.3417 51.6674 13.9118 50.6772 14.6019 49.9571C15.172 49.357 15.742 48.967 16.6122 48.967H16.6422C16.7922 48.967 16.9422 48.967 17.1222 48.997C18.2624 49.177 19.2525 50.0171 20.2127 51.2473L22.9731 56.258H23.0031C23.7232 57.8482 25.2834 59.4685 26.6036 61.1787C27.9238 62.979 28.9439 64.5692 28.8239 65.8894V65.9194ZM38.6953 63.9991C35.7249 64.6892 32.5745 64.4792 29.634 62.859C29.274 62.6789 28.9139 62.4689 28.5839 62.2289C28.2538 61.6588 27.8338 61.1187 27.3537 60.6386C27.1329 60.2626 26.8486 59.9276 26.5136 59.6485C27.0837 59.6485 27.5637 59.5585 27.9538 59.4385C28.3739 59.2284 28.7339 58.8684 28.8839 58.4483C29.214 57.6382 28.8839 56.348 27.8338 54.9378C26.7836 53.5576 25.0134 51.9674 22.433 50.3772C21.4429 49.7471 20.6928 49.087 20.1227 48.3669C19.5526 47.6768 19.1625 46.9567 18.9225 46.2066C18.4424 44.5864 18.5024 42.9361 18.8925 41.2559C19.3426 39.2756 20.2427 37.3553 21.1128 35.7051C21.7129 34.6549 22.283 33.7248 22.7631 32.9747C23.0631 32.7647 22.8531 33.3348 21.5929 35.7051L21.5029 35.8851C20.3027 38.1354 18.0524 43.3862 21.1428 47.4668C21.2628 44.4963 21.9229 41.5559 23.0931 38.8255C23.4832 37.9254 23.9932 36.8753 24.5333 35.7051C26.3036 31.9546 28.4639 27.0939 28.6739 23.0133C28.8239 23.1333 29.334 23.4333 29.544 23.6134C30.2041 24.0334 30.7142 24.6335 31.3443 25.0236C31.9744 25.6237 32.7845 26.0137 34.0147 26.0137C34.1347 26.0437 34.2247 26.0437 34.3447 26.0437C35.5749 26.0437 36.565 25.6537 37.3751 25.2336C38.2453 24.8435 38.9354 24.2435 39.5955 24.0334H39.6255C41.0357 23.6434 42.1458 22.8333 42.8059 21.9331C43.8861 26.1937 46.4364 32.3746 48.0567 35.375C49.6495 38.1985 50.7838 41.257 51.4171 44.4363C51.8672 44.4063 52.4073 44.4963 52.9774 44.6164C53.2174 43.9863 53.3674 43.3562 53.4574 42.7261C54.0275 38.5555 51.3871 34.4749 49.8869 32.9447C49.7969 32.8847 49.7069 32.7947 49.6469 32.7347C48.9868 32.1346 48.9568 31.7145 49.2868 31.7145C49.4969 31.8945 49.6769 32.0746 49.8869 32.2846C51.5672 34.0249 53.5174 36.8152 54.2675 39.9957C54.5076 40.8658 54.6276 41.796 54.6276 42.7261C54.6276 43.4762 54.5376 44.2563 54.3576 45.0064C54.5376 45.0964 54.7476 45.1864 54.9576 45.2164C58.1081 46.8067 59.2483 48.0068 58.7082 49.8071V49.6871H58.1081C58.5582 48.2769 57.568 47.1967 54.8676 46.0266C52.1072 44.8264 49.8869 45.0064 49.4969 47.4068C49.4669 47.5268 49.4669 47.6168 49.4369 47.8268C49.2268 47.8868 49.0168 47.9768 48.8068 48.0068C47.5166 48.817 46.7965 50.0171 46.4064 51.5774C46.0164 53.1676 45.8963 55.0278 45.7763 57.1882C45.7163 58.1783 45.2663 59.7085 44.8162 61.2387C42.9859 62.5289 40.9156 63.5191 38.6953 63.9991ZM63.5989 62.4689C61.7086 63.6691 58.3181 64.5992 56.1578 67.1796C54.2675 69.3999 51.9872 70.6001 49.9769 70.7501C47.9666 70.9001 46.2264 70.15 45.2062 68.0497H45.1762C44.5462 66.8495 44.8162 64.9593 45.3563 62.979C45.8963 60.9687 46.6465 58.9284 46.7665 57.2782C46.8565 55.1479 46.9765 53.2876 47.3366 51.8474C47.7266 50.4372 48.2967 49.4471 49.2868 48.877L49.4369 48.817C49.5269 50.6172 50.457 52.5375 52.1072 52.9575C53.8775 53.3476 56.4579 51.9374 57.538 50.6472L58.1681 50.6172C59.1282 50.5872 59.9384 50.6472 60.7485 51.4273C61.3786 52.0274 61.6786 53.0176 61.9486 54.0677C62.2187 55.2679 62.4287 56.408 63.1788 57.2482C64.679 58.8384 65.1591 59.9785 65.1291 60.6686C65.0691 61.4788 64.559 61.8688 63.5989 62.4689ZM49.8869 32.9447V35.7051H48.2367C49.7349 38.4367 50.8075 41.381 51.4171 44.4363C51.8672 44.4063 52.4073 44.4963 52.9774 44.6164C53.2174 43.9863 53.3674 43.3562 53.4574 42.7261C54.0275 38.5555 51.3871 34.4749 49.8869 32.9447Z" fill="black"/>
<path d="M42.6559 18.9027V19.3228C42.4159 18.9027 41.9658 18.5126 41.1857 18.1226C39.5654 17.5225 38.8753 17.3125 37.9752 16.7124C36.535 15.6922 35.3048 15.5122 34.3147 15.5122C33.7746 15.5122 33.2946 15.6022 32.8745 15.6922C31.6743 16.1123 30.8642 16.8924 30.3541 17.5225H30.3241C30.2341 17.6125 30.1141 17.7025 29.8141 17.9125C29.484 18.0926 29.0039 18.5126 28.3438 18.9327C27.7438 19.3228 27.5337 19.9228 27.7438 20.733C27.9538 21.303 28.6139 22.1131 29.8441 22.8633C30.5942 23.2533 31.1042 23.8534 31.7043 24.2735C32.0044 24.4835 32.3344 24.6635 32.6945 24.8435C33.1145 25.0236 33.5646 25.0836 34.0447 25.0536C35.3348 25.1436 36.265 24.6635 37.1051 24.2435C37.9452 23.8534 38.6353 23.2533 39.4754 22.8633C41.1257 22.2632 42.3258 21.273 42.6859 20.3129C42.8659 19.8628 42.8659 19.3528 42.6559 18.9027ZM35.0648 16.9224C35.0348 16.8624 35.0948 16.8024 35.1248 16.7724C35.3846 16.6673 35.6751 16.6673 35.9349 16.7724C36.115 16.7724 36.415 16.9824 36.385 17.1924C36.355 17.3425 36.115 17.3725 35.9649 17.3725C35.8149 17.3725 35.6949 17.2525 35.5449 17.1924C35.3949 17.1324 35.0948 17.1624 35.0648 16.9824V16.9224ZM32.4844 16.7724C32.7245 16.6824 33.0545 16.6524 33.2645 16.7724C33.3246 16.8024 33.3846 16.8624 33.3546 16.9224V16.9824H33.3846C33.3246 17.1624 33.0245 17.1324 32.8745 17.1924C32.7245 17.2525 32.6045 17.4025 32.4544 17.4025C32.3044 17.4025 32.0644 17.3425 32.0344 17.1924C32.0044 16.9824 32.3044 16.7724 32.4844 16.7724ZM40.4356 20.3429C39.8655 20.733 39.0254 21.333 38.3353 21.7531C37.0151 22.3532 35.4549 23.3433 33.8046 23.3433C32.1844 23.3433 30.8642 22.5332 29.9341 21.9331C29.454 21.5431 29.094 21.153 28.7939 20.943C28.3138 20.5529 28.3738 19.9528 28.5839 19.9528C28.9139 19.9828 28.9739 20.3429 29.184 20.5529C29.484 20.733 29.8441 21.153 30.2641 21.5431C31.1642 22.1432 32.3344 22.9533 33.8046 22.9533C35.2748 22.9533 37.0151 22.1432 38.0652 21.5431C38.6353 21.153 39.4154 20.5529 40.0155 20.1329C40.4956 19.7428 40.4656 19.3528 40.8856 19.3528C41.2757 19.3828 40.9756 19.7428 40.4356 20.3429ZM65.1291 60.6686C65.0691 61.4788 64.559 61.8688 63.5989 62.4689C61.7086 63.6691 58.3181 64.5992 56.1578 67.1796C54.2675 69.3999 51.9872 70.6001 49.9769 70.7501C47.9666 70.9001 46.2264 70.15 45.2062 68.0497H45.1762C44.5462 66.8495 44.8162 64.9593 45.3563 62.979C45.8963 60.9687 46.6465 58.9284 46.7665 57.2782C46.8565 55.1479 46.9765 53.2876 47.3366 51.8474C47.7266 50.4372 48.2967 49.447 49.2868 48.877L49.4369 48.817C49.5269 50.6172 50.457 52.5375 52.1072 52.9575C53.8775 53.3476 56.4579 51.9374 57.538 50.6472L58.1681 50.6172C59.1282 50.5872 59.9384 50.6472 60.7485 51.4273C61.3786 52.0274 61.6786 53.0176 61.9486 54.0677C62.2187 55.2679 62.4287 56.408 63.1788 57.2482C64.679 58.8384 65.1591 59.9785 65.1291 60.6686ZM28.8239 65.8894V65.9194C28.6439 68.1397 27.3537 69.3399 25.4034 69.7899C23.4231 70.18 20.7828 69.7899 18.1124 68.4097C15.202 66.7895 11.6915 66.9996 9.47115 66.5795C8.33099 66.3995 7.61089 65.9794 7.25084 65.3793C6.92079 64.7792 6.92079 63.5791 7.64089 61.6888C8.00094 60.6686 7.73091 59.4085 7.55088 58.3283C7.40086 57.1281 7.31085 56.198 7.7009 55.5079C8.18097 54.4878 8.90107 54.3077 9.7712 53.8877C10.6713 53.4976 11.7215 53.2876 12.5616 52.5075V52.4775C13.3417 51.6674 13.9118 50.6772 14.6019 49.9571C15.172 49.357 15.742 48.967 16.6122 48.967H16.6422C16.7922 48.967 16.9422 48.967 17.1222 48.997C18.2624 49.177 19.2525 50.0171 20.2127 51.2473L22.9731 56.258H23.0031C23.7232 57.8482 25.2834 59.4685 26.6036 61.1787C27.9238 62.979 28.9439 64.5692 28.8239 65.8894Z" fill="#F9C105"/>
<path d="M33.3845 16.9825C33.3245 17.1626 33.0245 17.1326 32.8744 17.1926C32.7244 17.2526 32.6044 17.4026 32.4544 17.4026C32.3044 17.4026 32.0643 17.3426 32.0343 17.1926C32.0043 16.9825 32.3044 16.7725 32.4844 16.7725C32.7244 16.6825 33.0545 16.6525 33.2645 16.7725C33.3245 16.8025 33.3845 16.8625 33.3545 16.9225V16.9825H33.3845ZM40.4355 20.343C39.8654 20.7331 39.0253 21.3332 38.3352 21.7532C37.015 22.3533 35.4548 23.3435 33.8046 23.3435C32.1844 23.3435 30.8642 22.5333 29.934 21.9333C29.454 21.5432 29.0939 21.1531 28.7939 20.9431C28.3138 20.5531 28.3738 19.953 28.5838 19.953C28.9139 19.983 28.9739 20.343 29.1839 20.5531C29.484 20.7331 29.844 21.1531 30.2641 21.5432C31.1642 22.1433 32.3344 22.9534 33.8046 22.9534C35.2748 22.9534 37.015 22.1433 38.0652 21.5432C38.6353 21.1531 39.4154 20.5531 40.0155 20.133C40.4955 19.7429 40.4655 19.3529 40.8856 19.3529C41.2756 19.3829 40.9756 19.7429 40.4355 20.343Z" fill="black"/>
</svg>
