<svg width="109" height="32" viewBox="0 0 109 32" fill="none" xmlns="http://www.w3.org/2000/svg">
<path d="M50.0781 18.6126C50.1807 18.6126 50.2717 18.6523 50.3511 18.7316L51.0931 19.5366C50.6824 20.0453 50.1761 20.435 49.5741 20.7056C48.9767 20.9763 48.2581 21.1116 47.4181 21.1116C46.6667 21.1116 45.9901 20.9833 45.3881 20.7266C44.7907 20.47 44.2797 20.113 43.8551 19.6556C43.4304 19.1983 43.1037 18.6523 42.8751 18.0176C42.6511 17.383 42.5391 16.69 42.5391 15.9386C42.5391 15.178 42.6604 14.4826 42.9031 13.8526C43.1457 13.218 43.4864 12.672 43.9251 12.2146C44.3684 11.7573 44.8957 11.4026 45.5071 11.1506C46.1184 10.894 46.7951 10.7656 47.5371 10.7656C48.2744 10.7656 48.9277 10.887 49.4971 11.1296C50.0711 11.3723 50.5587 11.6896 50.9601 12.0816L50.3301 12.9566C50.2927 13.0126 50.2437 13.0616 50.1831 13.1036C50.1271 13.1456 50.0477 13.1666 49.9451 13.1666C49.8751 13.1666 49.8027 13.148 49.7281 13.1106C49.6534 13.0686 49.5717 13.0196 49.4831 12.9636C49.3944 12.903 49.2917 12.8376 49.1751 12.7676C49.0584 12.6976 48.9231 12.6346 48.7691 12.5786C48.6151 12.518 48.4354 12.469 48.2301 12.4316C48.0294 12.3896 47.7961 12.3686 47.5301 12.3686C47.0774 12.3686 46.6621 12.4503 46.2841 12.6136C45.9107 12.7723 45.5887 13.0056 45.3181 13.3136C45.0474 13.617 44.8374 13.9903 44.6881 14.4336C44.5387 14.8723 44.4641 15.374 44.4641 15.9386C44.4641 16.508 44.5434 17.0143 44.7021 17.4576C44.8654 17.901 45.0847 18.2743 45.3601 18.5776C45.6354 18.881 45.9597 19.1143 46.3331 19.2776C46.7064 19.4363 47.1077 19.5156 47.5371 19.5156C47.7937 19.5156 48.0247 19.5016 48.2301 19.4736C48.4401 19.4456 48.6314 19.4013 48.8041 19.3406C48.9814 19.28 49.1471 19.203 49.3011 19.1096C49.4597 19.0116 49.6161 18.8926 49.7701 18.7526C49.8167 18.7106 49.8657 18.678 49.9171 18.6546C49.9684 18.6266 50.0221 18.6126 50.0781 18.6126Z" fill="#2D343C"/>
<path d="M61.8172 15.9386C61.8172 16.6806 61.6935 17.369 61.4462 18.0036C61.2035 18.6336 60.8582 19.1796 60.4102 19.6416C59.9622 20.1036 59.4232 20.4653 58.7932 20.7266C58.1632 20.9833 57.4632 21.1116 56.6932 21.1116C55.9278 21.1116 55.2302 20.9833 54.6002 20.7266C53.9702 20.4653 53.4288 20.1036 52.9762 19.6416C52.5282 19.1796 52.1805 18.6336 51.9332 18.0036C51.6858 17.369 51.5622 16.6806 51.5622 15.9386C51.5622 15.1966 51.6858 14.5106 51.9332 13.8806C52.1805 13.246 52.5282 12.6976 52.9762 12.2356C53.4288 11.7736 53.9702 11.4143 54.6002 11.1576C55.2302 10.8963 55.9278 10.7656 56.6932 10.7656C57.2065 10.7656 57.6895 10.8263 58.1422 10.9476C58.5948 11.0643 59.0102 11.2323 59.3882 11.4516C59.7662 11.6663 60.1045 11.93 60.4032 12.2426C60.7065 12.5506 60.9632 12.896 61.1732 13.2786C61.3832 13.6613 61.5418 14.0766 61.6492 14.5246C61.7612 14.9726 61.8172 15.444 61.8172 15.9386ZM59.8922 15.9386C59.8922 15.3833 59.8175 14.8863 59.6682 14.4476C59.5188 14.0043 59.3065 13.6286 59.0312 13.3206C58.7558 13.0126 58.4198 12.777 58.0232 12.6136C57.6312 12.4503 57.1878 12.3686 56.6932 12.3686C56.1985 12.3686 55.7528 12.4503 55.3562 12.6136C54.9642 12.777 54.6282 13.0126 54.3482 13.3206C54.0728 13.6286 53.8605 14.0043 53.7112 14.4476C53.5618 14.8863 53.4872 15.3833 53.4872 15.9386C53.4872 16.494 53.5618 16.9933 53.7112 17.4366C53.8605 17.8753 54.0728 18.2486 54.3482 18.5566C54.6282 18.86 54.9642 19.0933 55.3562 19.2566C55.7528 19.42 56.1985 19.5016 56.6932 19.5016C57.1878 19.5016 57.6312 19.42 58.0232 19.2566C58.4198 19.0933 58.7558 18.86 59.0312 18.5566C59.3065 18.2486 59.5188 17.8753 59.6682 17.4366C59.8175 16.9933 59.8922 16.494 59.8922 15.9386Z" fill="#2D343C"/>
<path d="M74.4468 10.8776V20.9996H72.7878V14.4616C72.7878 14.2003 72.8018 13.918 72.8298 13.6146L69.7708 19.3616C69.6261 19.637 69.4045 19.7746 69.1058 19.7746H68.8398C68.5411 19.7746 68.3195 19.637 68.1748 19.3616L65.0808 13.5936C65.0948 13.7476 65.1065 13.8993 65.1158 14.0486C65.1251 14.198 65.1298 14.3356 65.1298 14.4616V20.9996H63.4708V10.8776H64.8918C64.9758 10.8776 65.0481 10.88 65.1088 10.8846C65.1695 10.8893 65.2231 10.901 65.2698 10.9196C65.3211 10.9383 65.3655 10.9686 65.4028 11.0106C65.4448 11.0526 65.4845 11.1086 65.5218 11.1786L68.5528 16.7996C68.6321 16.949 68.7045 17.103 68.7698 17.2616C68.8398 17.4203 68.9075 17.5836 68.9728 17.7516C69.0381 17.579 69.1058 17.4133 69.1758 17.2546C69.2458 17.0913 69.3205 16.935 69.3998 16.7856L72.3888 11.1786C72.4261 11.1086 72.4658 11.0526 72.5078 11.0106C72.5498 10.9686 72.5941 10.9383 72.6408 10.9196C72.6921 10.901 72.7481 10.8893 72.8088 10.8846C72.8695 10.88 72.9418 10.8776 73.0258 10.8776H74.4468Z" fill="#2D343C"/>
<path d="M79.9952 15.9666C80.3405 15.9666 80.6415 15.9246 80.8982 15.8406C81.1549 15.752 81.3672 15.6283 81.5352 15.4696C81.7079 15.3063 81.8362 15.1103 81.9202 14.8816C82.0042 14.6483 82.0462 14.3893 82.0462 14.1046C82.0462 13.834 82.0042 13.589 81.9202 13.3696C81.8362 13.1503 81.7102 12.9636 81.5422 12.8096C81.3742 12.6556 81.1619 12.539 80.9052 12.4596C80.6485 12.3756 80.3452 12.3336 79.9952 12.3336H78.5882V15.9666H79.9952ZM79.9952 10.8776C80.6719 10.8776 81.2575 10.957 81.7522 11.1156C82.2469 11.2743 82.6552 11.496 82.9772 11.7806C83.2992 12.0653 83.5372 12.406 83.6912 12.8026C83.8499 13.1993 83.9292 13.6333 83.9292 14.1046C83.9292 14.5946 83.8475 15.045 83.6842 15.4556C83.5209 15.8616 83.2759 16.2116 82.9492 16.5056C82.6225 16.7996 82.2119 17.0283 81.7172 17.1916C81.2272 17.355 80.6532 17.4366 79.9952 17.4366H78.5882V20.9996H76.7052V10.8776H79.9952Z" fill="#2D343C"/>
<path d="M90.0102 17.1776L88.7782 13.8106C88.7176 13.6613 88.6546 13.484 88.5892 13.2786C88.5239 13.0733 88.4586 12.8516 88.3932 12.6136C88.3326 12.8516 88.2695 13.0756 88.2042 13.2856C88.1389 13.491 88.0759 13.6706 88.0152 13.8246L86.7902 17.1776H90.0102ZM93.3352 20.9996H91.8792C91.7159 20.9996 91.5829 20.96 91.4802 20.8806C91.3775 20.7966 91.3006 20.694 91.2492 20.5726L90.4932 18.5076H86.3002L85.5442 20.5726C85.5069 20.68 85.4346 20.778 85.3272 20.8666C85.2199 20.9553 85.0869 20.9996 84.9282 20.9996H83.4582L87.4412 10.8776H89.3592L93.3352 20.9996Z" fill="#2D343C"/>
<path d="M99.7729 12.7186C99.7169 12.8166 99.6563 12.889 99.5909 12.9356C99.5303 12.9776 99.4533 12.9986 99.3599 12.9986C99.2619 12.9986 99.1546 12.9636 99.0379 12.8936C98.9259 12.819 98.7906 12.7373 98.6319 12.6486C98.4733 12.56 98.2866 12.4806 98.0719 12.4106C97.8619 12.336 97.6123 12.2986 97.3229 12.2986C97.0616 12.2986 96.8329 12.3313 96.6369 12.3966C96.4409 12.4573 96.2753 12.5436 96.1399 12.6556C96.0093 12.7676 95.9113 12.903 95.8459 13.0616C95.7806 13.2156 95.7479 13.386 95.7479 13.5726C95.7479 13.8106 95.8133 14.009 95.9439 14.1676C96.0793 14.3263 96.2566 14.4616 96.4759 14.5736C96.6953 14.6856 96.9449 14.786 97.2249 14.8746C97.5049 14.9633 97.7919 15.059 98.0859 15.1616C98.3799 15.2596 98.6669 15.3763 98.9469 15.5116C99.2269 15.6423 99.4766 15.8103 99.6959 16.0156C99.9153 16.2163 100.09 16.4636 100.221 16.7576C100.356 17.0516 100.424 17.4086 100.424 17.8286C100.424 18.286 100.345 18.7153 100.186 19.1166C100.032 19.5133 99.8033 19.861 99.4999 20.1596C99.2013 20.4536 98.8349 20.687 98.4009 20.8596C97.9669 21.0276 97.4699 21.1116 96.9099 21.1116C96.5879 21.1116 96.2706 21.079 95.9579 21.0136C95.6453 20.953 95.3443 20.8643 95.0549 20.7476C94.7703 20.631 94.5019 20.491 94.2499 20.3276C93.9979 20.1643 93.7739 19.9823 93.5779 19.7816L94.1309 18.8786C94.1776 18.8133 94.2383 18.7596 94.3129 18.7176C94.3876 18.671 94.4669 18.6476 94.5509 18.6476C94.6676 18.6476 94.7936 18.6966 94.9289 18.7946C95.0643 18.888 95.2253 18.993 95.4119 19.1096C95.5986 19.2263 95.8156 19.3336 96.0629 19.4316C96.3149 19.525 96.6159 19.5716 96.9659 19.5716C97.5026 19.5716 97.9179 19.4456 98.2119 19.1936C98.5059 18.937 98.6529 18.5706 98.6529 18.0946C98.6529 17.8286 98.5853 17.6116 98.4499 17.4436C98.3193 17.2756 98.1443 17.1356 97.9249 17.0236C97.7056 16.907 97.4559 16.809 97.1759 16.7296C96.8959 16.6503 96.6113 16.564 96.3219 16.4706C96.0326 16.3773 95.7479 16.2653 95.4679 16.1346C95.1879 16.004 94.9383 15.8336 94.7189 15.6236C94.4996 15.4136 94.3223 15.1523 94.1869 14.8396C94.0563 14.5223 93.9909 14.1326 93.9909 13.6706C93.9909 13.302 94.0633 12.9426 94.2079 12.5926C94.3573 12.2426 94.5719 11.9323 94.8519 11.6616C95.1319 11.391 95.4773 11.174 95.8879 11.0106C96.2986 10.8473 96.7699 10.7656 97.3019 10.7656C97.8993 10.7656 98.4499 10.859 98.9539 11.0456C99.4579 11.2323 99.8873 11.4936 100.242 11.8296L99.7729 12.7186Z" fill="#2D343C"/>
<path d="M107.457 12.7186C107.401 12.8166 107.34 12.889 107.275 12.9356C107.214 12.9776 107.137 12.9986 107.044 12.9986C106.946 12.9986 106.838 12.9636 106.722 12.8936C106.61 12.819 106.474 12.7373 106.316 12.6486C106.157 12.56 105.97 12.4806 105.756 12.4106C105.546 12.336 105.296 12.2986 105.007 12.2986C104.745 12.2986 104.517 12.3313 104.321 12.3966C104.125 12.4573 103.959 12.5436 103.824 12.6556C103.693 12.7676 103.595 12.903 103.53 13.0616C103.464 13.2156 103.432 13.386 103.432 13.5726C103.432 13.8106 103.497 14.009 103.628 14.1676C103.763 14.3263 103.94 14.4616 104.16 14.5736C104.379 14.6856 104.629 14.786 104.909 14.8746C105.189 14.9633 105.476 15.059 105.77 15.1616C106.064 15.2596 106.351 15.3763 106.631 15.5116C106.911 15.6423 107.16 15.8103 107.38 16.0156C107.599 16.2163 107.774 16.4636 107.905 16.7576C108.04 17.0516 108.108 17.4086 108.108 17.8286C108.108 18.286 108.028 18.7153 107.87 19.1166C107.716 19.5133 107.487 19.861 107.184 20.1596C106.885 20.4536 106.519 20.687 106.085 20.8596C105.651 21.0276 105.154 21.1116 104.594 21.1116C104.272 21.1116 103.954 21.079 103.642 21.0136C103.329 20.953 103.028 20.8643 102.739 20.7476C102.454 20.631 102.186 20.491 101.934 20.3276C101.682 20.1643 101.458 19.9823 101.262 19.7816L101.815 18.8786C101.861 18.8133 101.922 18.7596 101.997 18.7176C102.071 18.671 102.151 18.6476 102.235 18.6476C102.351 18.6476 102.477 18.6966 102.613 18.7946C102.748 18.888 102.909 18.993 103.096 19.1096C103.282 19.2263 103.499 19.3336 103.747 19.4316C103.999 19.525 104.3 19.5716 104.65 19.5716C105.186 19.5716 105.602 19.4456 105.896 19.1936C106.19 18.937 106.337 18.5706 106.337 18.0946C106.337 17.8286 106.269 17.6116 106.134 17.4436C106.003 17.2756 105.828 17.1356 105.609 17.0236C105.389 16.907 105.14 16.809 104.86 16.7296C104.58 16.6503 104.295 16.564 104.006 16.4706C103.716 16.3773 103.432 16.2653 103.152 16.1346C102.872 16.004 102.622 15.8336 102.403 15.6236C102.183 15.4136 102.006 15.1523 101.871 14.8396C101.74 14.5223 101.675 14.1326 101.675 13.6706C101.675 13.302 101.747 12.9426 101.892 12.5926C102.041 12.2426 102.256 11.9323 102.536 11.6616C102.816 11.391 103.161 11.174 103.572 11.0106C103.982 10.8473 104.454 10.7656 104.986 10.7656C105.583 10.7656 106.134 10.859 106.638 11.0456C107.142 11.2323 107.571 11.4936 107.926 11.8296L107.457 12.7186Z" fill="#2D343C"/>
<path d="M0 6.66667C0 2.98477 2.98477 0 6.66667 0H25.3333C29.0152 0 32 2.98477 32 6.66667V25.3333C32 29.0152 29.0152 32 25.3333 32H6.66667C2.98477 32 0 29.0152 0 25.3333V6.66667Z" fill="white"/>
<path fill-rule="evenodd" clip-rule="evenodd" d="M25.3333 1H6.66667C3.53705 1 1 3.53705 1 6.66667V25.3333C1 28.4629 3.53705 31 6.66667 31H25.3333C28.4629 31 31 28.4629 31 25.3333V6.66667C31 3.53705 28.4629 1 25.3333 1ZM6.66667 0C2.98477 0 0 2.98477 0 6.66667V25.3333C0 29.0152 2.98477 32 6.66667 32H25.3333C29.0152 32 32 29.0152 32 25.3333V6.66667C32 2.98477 29.0152 0 25.3333 0H6.66667Z" fill="#F0F0F0"/>
<path fill-rule="evenodd" clip-rule="evenodd" d="M14.9179 6.3552L8.06773 25.6991C7.69624 26.7482 8.93253 27.6354 9.83719 26.969L15.3126 22.9355C15.72 22.6354 16.28 22.6354 16.6874 22.9355L22.1628 26.969C23.0675 27.6354 24.3038 26.7482 23.9323 25.6991L17.0821 6.3552C16.7253 5.34775 15.2747 5.34774 14.9179 6.3552Z" fill="url(#paint0_linear_1_22957)"/>
<defs>
<linearGradient id="paint0_linear_1_22957" x1="16" y1="5.59961" x2="16" y2="27.1996" gradientUnits="userSpaceOnUse">
<stop stop-color="#FD5A09"/>
<stop offset="1" stop-color="#F33202"/>
</linearGradient>
</defs>
</svg>
