<svg width="390" height="99" viewBox="0 0 390 99" fill="none" xmlns="http://www.w3.org/2000/svg">
<g clip-path="url(#clip0_3075_13104)">
<rect width="390" height="99" fill="white" fill-opacity="0.04"/>
<path d="M360.98 38.3408C354.911 38.3408 349.884 33.3242 349.884 27.2441C349.884 21.1748 354.9 16.1475 360.97 16.1475C367.05 16.1475 372.077 21.1748 372.077 27.2441C372.077 33.3242 367.05 38.3408 360.98 38.3408ZM360.98 36.1602C365.922 36.1602 369.896 32.1855 369.896 27.2441C369.896 22.3027 365.911 18.3389 360.97 18.3389C356.028 18.3389 352.075 22.3027 352.075 27.2441C352.075 32.1855 356.039 36.1602 360.98 36.1602ZM359.82 32.3467C359.423 32.3467 359.111 32.1855 358.821 31.8096L356.286 28.7158C356.104 28.4902 356.007 28.2539 356.007 27.9961C356.007 27.459 356.426 27.04 356.952 27.04C357.264 27.04 357.521 27.1582 357.779 27.4912L359.777 30.0371L364.021 23.2266C364.246 22.8613 364.536 22.6895 364.858 22.6895C365.363 22.6895 365.836 23.0439 365.836 23.5703C365.836 23.8174 365.707 24.0752 365.567 24.3008L360.766 31.8096C360.54 32.1533 360.207 32.3467 359.82 32.3467Z" fill="#04A45A"/>
<path d="M334.072 35H332.048C331.842 35 331.74 34.89 331.74 34.67V19.6C331.74 19.38 331.842 19.27 332.048 19.27H334.072C334.277 19.27 334.38 19.38 334.38 19.6V25.98L339.88 19.468C340.012 19.336 340.144 19.27 340.276 19.27H342.85C342.996 19.27 343.084 19.314 343.114 19.402C343.158 19.4754 343.136 19.5634 343.048 19.666L337.218 26.288L343.532 34.604C343.62 34.7214 343.642 34.8167 343.598 34.89C343.554 34.9634 343.466 35 343.334 35H340.76C340.569 35 340.437 34.934 340.364 34.802L335.48 28.224L334.38 29.412V34.67C334.38 34.89 334.277 35 334.072 35Z" fill="white" fill-opacity="0.85"/>
<path d="M328.665 29.1479C328.665 31.0692 328.123 32.5725 327.037 33.6579C325.952 34.7285 324.434 35.2639 322.483 35.2639C320.533 35.2639 319.015 34.7285 317.929 33.6579C316.844 32.5725 316.301 31.0692 316.301 29.1479V25.0999C316.301 23.1785 316.844 21.6825 317.929 20.6119C319.015 19.5412 320.533 19.0059 322.483 19.0059C324.434 19.0059 325.952 19.5412 327.037 20.6119C328.123 21.6825 328.665 23.1785 328.665 25.0999V29.1479ZM319.007 29.1479C319.007 30.3212 319.301 31.2159 319.887 31.8319C320.474 32.4479 321.339 32.7559 322.483 32.7559C323.627 32.7559 324.493 32.4479 325.079 31.8319C325.666 31.2159 325.959 30.3212 325.959 29.1479V25.1219C325.959 22.7019 324.801 21.4919 322.483 21.4919C320.166 21.4919 319.007 22.7019 319.007 25.1219V29.1479Z" fill="white" fill-opacity="0.85"/>
<path d="M75.6817 34.9998H73.7897C73.5697 34.9998 73.4597 34.8898 73.4597 34.6698V24.5498C73.4597 24.3592 73.5404 24.2345 73.7017 24.1758C74.8457 23.6185 76.1291 23.3398 77.5517 23.3398C78.2997 23.3398 79.0477 23.3985 79.7957 23.5158C79.9864 23.5305 80.0817 23.6405 80.0817 23.8458V25.4298C80.0817 25.6498 79.9644 25.7378 79.7297 25.6938C79.3631 25.6352 78.7691 25.6058 77.9477 25.6058C77.1411 25.6058 76.4957 25.7085 76.0117 25.9138V34.6698C76.0117 34.8898 75.9017 34.9998 75.6817 34.9998Z" fill="white" fill-opacity="0.85"/>
<path d="M71.1846 27.8498V30.0718C71.1846 30.2772 71.0746 30.3798 70.8546 30.3798H64.1666V30.9958C64.1666 31.6558 64.3719 32.1618 64.7826 32.5138C65.2079 32.8512 65.7799 33.0198 66.4986 33.0198C67.5693 33.0198 68.6033 32.6825 69.6006 32.0078C69.7766 31.8905 69.9233 31.9125 70.0406 32.0738L70.9426 33.2838C71.0893 33.4452 71.0673 33.5992 70.8766 33.7458C69.6006 34.7578 68.1119 35.2638 66.4106 35.2638C65.0613 35.2638 63.9173 34.8972 62.9786 34.1638C62.0546 33.4158 61.5926 32.3525 61.5926 30.9738V27.8498C61.5926 26.3392 62.0619 25.2098 63.0006 24.4618C63.9393 23.7138 65.0833 23.3398 66.4326 23.3398C67.7673 23.3398 68.8893 23.7138 69.7986 24.4618C70.7226 25.2098 71.1846 26.3392 71.1846 27.8498ZM68.6986 27.8278C68.6986 27.0652 68.4859 26.5005 68.0606 26.1338C67.6353 25.7672 67.0926 25.5838 66.4326 25.5838C64.9219 25.5838 64.1666 26.3318 64.1666 27.8278V28.3998H68.6986V27.8278Z" fill="white" fill-opacity="0.85"/>
<path d="M56.2712 35H53.9612C53.7705 35 53.6458 34.912 53.5872 34.736L49.7372 23.956C49.6932 23.8533 49.6932 23.7727 49.7372 23.714C49.7812 23.6407 49.8618 23.604 49.9792 23.604H52.0252C52.2305 23.604 52.3552 23.6847 52.3992 23.846L55.1052 32.36H55.1492L57.8552 23.846C57.8992 23.6847 58.0165 23.604 58.2072 23.604H60.2752C60.5098 23.604 60.5905 23.7213 60.5172 23.956L56.6452 34.736C56.5718 34.912 56.4472 35 56.2712 35Z" fill="white" fill-opacity="0.85"/>
<path d="M44.7012 34.9998H42.8092C42.5892 34.9998 42.4792 34.8898 42.4792 34.6698V24.5498C42.4792 24.3592 42.5599 24.2345 42.7212 24.1758C43.8652 23.6185 45.1486 23.3398 46.5712 23.3398C47.3192 23.3398 48.0672 23.3985 48.8152 23.5158C49.0059 23.5305 49.1012 23.6405 49.1012 23.8458V25.4298C49.1012 25.6498 48.9839 25.7378 48.7492 25.6938C48.3826 25.6352 47.7886 25.6058 46.9672 25.6058C46.1606 25.6058 45.5152 25.7085 45.0312 25.9138V34.6698C45.0312 34.8898 44.9212 34.9998 44.7012 34.9998Z" fill="white" fill-opacity="0.85"/>
<path d="M40.2041 27.8498V30.0718C40.2041 30.2772 40.0941 30.3798 39.8741 30.3798H33.1861V30.9958C33.1861 31.6558 33.3915 32.1618 33.8021 32.5138C34.2275 32.8512 34.7995 33.0198 35.5181 33.0198C36.5888 33.0198 37.6228 32.6825 38.6201 32.0078C38.7961 31.8905 38.9428 31.9125 39.0601 32.0738L39.9621 33.2838C40.1088 33.4452 40.0868 33.5992 39.8961 33.7458C38.6201 34.7578 37.1315 35.2638 35.4301 35.2638C34.0808 35.2638 32.9368 34.8972 31.9981 34.1638C31.0741 33.4158 30.6121 32.3525 30.6121 30.9738V27.8498C30.6121 26.3392 31.0815 25.2098 32.0201 24.4618C32.9588 23.7138 34.1028 23.3398 35.4521 23.3398C36.7868 23.3398 37.9088 23.7138 38.8181 24.4618C39.7421 25.2098 40.2041 26.3392 40.2041 27.8498ZM37.7181 27.8278C37.7181 27.0652 37.5055 26.5005 37.0801 26.1338C36.6548 25.7672 36.1121 25.5838 35.4521 25.5838C33.9415 25.5838 33.1861 26.3318 33.1861 27.8278V28.3998H37.7181V27.8278Z" fill="white" fill-opacity="0.85"/>
<path d="M28.738 30.5339C28.738 32.0885 28.166 33.2692 27.022 34.0759C25.878 34.8679 24.4407 35.2639 22.71 35.2639C21.6393 35.2639 20.664 35.0952 19.784 34.7579C18.9187 34.4205 18.024 33.8852 17.1 33.1519C16.9533 33.0052 16.9313 32.8512 17.034 32.6899L18.134 31.1499C18.2513 30.9885 18.398 30.9665 18.574 31.0839C20.0553 32.1545 21.4707 32.7119 22.82 32.7559C23.7 32.7559 24.448 32.5725 25.064 32.2059C25.6947 31.8245 26.01 31.2819 26.01 30.5779C26.01 30.1965 25.922 29.8739 25.746 29.6099C25.57 29.3312 25.2913 29.1039 24.91 28.9279C24.5287 28.7519 24.1693 28.6199 23.832 28.5319C23.5093 28.4292 23.0473 28.3192 22.446 28.2019C18.882 27.4539 17.1 25.8479 17.1 23.3839C17.1 21.9319 17.65 20.8392 18.75 20.1059C19.8647 19.3725 21.2727 19.0059 22.974 19.0059C24.7193 19.0059 26.4427 19.5852 28.144 20.7439C28.3347 20.8612 28.364 21.0079 28.232 21.1839L27.176 22.7019C27.0733 22.8779 26.9193 22.8999 26.714 22.7679C25.4673 21.9612 24.1547 21.5359 22.776 21.4919C21.8373 21.4919 21.104 21.6679 20.576 22.0199C20.048 22.3572 19.784 22.8265 19.784 23.4279C19.784 23.7065 19.8427 23.9559 19.96 24.1759C20.0773 24.3812 20.2167 24.5572 20.378 24.7039C20.554 24.8359 20.8033 24.9679 21.126 25.0999C21.4487 25.2172 21.742 25.3125 22.006 25.3859C22.2847 25.4592 22.6587 25.5472 23.128 25.6499C23.656 25.7672 24.096 25.8772 24.448 25.9799C24.8147 26.0825 25.2327 26.2219 25.702 26.3979C26.186 26.5739 26.5893 26.7792 26.912 27.0139C27.2347 27.2485 27.5427 27.5272 27.836 27.8499C28.144 28.1725 28.3713 28.5612 28.518 29.0159C28.6647 29.4705 28.738 29.9765 28.738 30.5339Z" fill="white" fill-opacity="0.85"/>
<rect x="16" y="54" width="8" height="27" rx="2" fill="#04A45A"/>
<rect x="28" y="54" width="8" height="27" rx="2" fill="#04A45A"/>
<rect x="40" y="54" width="8" height="27" rx="2" fill="#04A45A"/>
<rect x="52" y="54" width="8" height="27" rx="2" fill="#04A45A"/>
<rect x="64" y="54" width="8" height="27" rx="2" fill="#04A45A"/>
<rect x="76" y="54" width="8" height="27" rx="2" fill="#04A45A"/>
<rect x="88" y="54" width="8" height="27" rx="2" fill="#04A45A"/>
<rect x="100" y="54" width="8" height="27" rx="2" fill="#04A45A"/>
<rect x="112" y="54" width="8" height="27" rx="2" fill="#04A45A"/>
<rect x="124" y="54" width="8" height="27" rx="2" fill="#04A45A"/>
<rect x="136" y="54" width="8" height="27" rx="2" fill="#04A45A"/>
<rect x="148" y="54" width="8" height="27" rx="2" fill="#04A45A"/>
<rect x="160" y="54" width="8" height="27" rx="2" fill="#04A45A"/>
<rect x="172" y="54" width="8" height="27" rx="2" fill="#04A45A"/>
<rect x="184" y="54" width="8" height="27" rx="2" fill="#04A45A"/>
<rect x="196" y="54" width="8" height="27" rx="2" fill="#04A45A"/>
<rect x="208" y="54" width="8" height="27" rx="2" fill="#04A45A"/>
<rect x="220" y="54" width="8" height="27" rx="2" fill="#04A45A"/>
<rect x="232" y="54" width="8" height="27" rx="2" fill="#04A45A"/>
<rect x="244" y="54" width="8" height="27" rx="2" fill="#04A45A"/>
<rect x="256" y="54" width="8" height="27" rx="2" fill="#04A45A"/>
<rect x="268" y="54" width="8" height="27" rx="2" fill="#04A45A"/>
<rect x="280" y="54" width="8" height="27" rx="2" fill="#04A45A"/>
<rect x="292" y="54" width="8" height="27" rx="2" fill="#04A45A"/>
<rect x="304" y="54" width="8" height="27" rx="2" fill="#04A45A"/>
<rect x="316" y="54" width="8" height="27" rx="2" fill="#04A45A"/>
<rect x="328" y="54" width="8" height="27" rx="2" fill="#04A45A"/>
<rect x="340" y="54" width="8" height="27" rx="2" fill="#04A45A"/>
<rect x="352" y="54" width="8" height="27" rx="2" fill="#04A45A"/>
<rect x="364" y="54" width="8" height="27" rx="2" fill="#04A45A"/>
</g>
<defs>
<clipPath id="clip0_3075_13104">
<rect width="390" height="99" fill="white"/>
</clipPath>
</defs>
</svg>
