<svg width="370" height="40" viewBox="0 0 370 40" fill="none" xmlns="http://www.w3.org/2000/svg">
<rect y="18" width="2" height="4" rx="1" fill="#009FE6"/>
<rect x="5" y="12" width="4" height="16" rx="2" fill="#009FE6"/>
<rect x="12" y="15" width="2" height="10" rx="1" fill="#009FE6"/>
<rect x="17" y="17" width="3" height="6" rx="1.5" fill="#009FE6"/>
<rect x="24" y="15" width="2" height="10" rx="1" fill="#009FE6"/>
<rect x="29" y="13" width="3" height="14" rx="1.5" fill="#009FE6"/>
<rect width="2" height="18" rx="1" transform="matrix(1 0 0 -1 36 29)" fill="#009FE6"/>
<rect x="41" y="11" width="3" height="18" rx="1.5" fill="#009FE6"/>
<rect x="47" y="15" width="3" height="10" rx="1.5" fill="#009FE6"/>
<rect x="53" y="18" width="3" height="4" rx="1.5" fill="#009FE6"/>
<rect x="59" y="15" width="2" height="10" rx="1" fill="#009FE6"/>
<rect x="65" y="13" width="3" height="14" rx="1.5" fill="#009FE6"/>
<rect width="2" height="20" rx="1" transform="matrix(1 0 0 -1 71 30)" fill="#009FE6"/>
<rect x="77" y="10" width="3" height="20" rx="1.5" fill="#009FE6"/>
<rect width="2" height="14" rx="1" transform="matrix(1 0 0 -1 83 27)" fill="#009FE6"/>
<rect width="4" height="10" rx="2" transform="matrix(1 0 0 -1 88 25)" fill="#009FE6"/>
<rect width="2" height="4" rx="1" transform="matrix(1 0 0 -1 95 22)" fill="#009FE6"/>
<rect width="4" height="10" rx="2" transform="matrix(1 0 0 -1 100 25)" fill="#009FE6"/>
<rect x="107" y="17" width="2" height="6" rx="1" fill="#009FE6"/>
<rect x="112" y="12" width="3" height="16" rx="1.5" fill="#009FE6"/>
<rect x="119" y="9" width="2" height="22" rx="1" fill="#009FE6"/>
<rect x="124" y="6" width="3" height="28" rx="1.5" fill="#009FE6"/>
<rect width="2" height="22" rx="1" transform="matrix(1 0 0 -1 131 31)" fill="#009FE6"/>
<rect width="3" height="10" rx="1.5" transform="matrix(1 0 0 -1 136 25)" fill="#009FE6"/>
<rect x="142" y="15" width="3" height="10" rx="1.5" fill="#009FE6"/>
<rect x="148" y="11" width="3" height="18" rx="1.5" fill="#009FE6"/>
<rect x="154" y="6" width="2" height="28" rx="1" fill="#009FE6"/>
<rect x="160" y="8" width="3" height="24" rx="1.5" fill="#009FE6"/>
<rect width="2" height="16" rx="1" transform="matrix(1 0 0 -1 166 28)" fill="#009FE6"/>
<rect width="3" height="6" rx="1.5" transform="matrix(1 0 0 -1 172 23)" fill="#009FE6"/>
<rect x="178" y="15" width="2" height="10" rx="1" fill="#009FE6"/>
<rect x="183" y="17" width="4" height="6" rx="2" fill="#009FE6"/>
<rect x="190" y="15" width="2" height="10" rx="1" fill="#009FE6"/>
<rect x="195" y="12" width="3" height="16" rx="1.5" fill="#009FE6"/>
<rect width="2" height="18" rx="1" transform="matrix(1 0 0 -1 202 29)" fill="#009FE6"/>
<rect x="207" y="11" width="3" height="18" rx="1.5" fill="#DCDCDC"/>
<rect width="2" height="16" rx="1" transform="matrix(1 0 0 -1 214 28)" fill="#DCDCDC"/>
<rect width="3" height="10" rx="1.5" transform="matrix(1 0 0 -1 219 25)" fill="#DCDCDC"/>
<rect width="3" height="6" rx="1.5" transform="matrix(1 0 0 -1 225 23)" fill="#DCDCDC"/>
<rect width="3" height="12" rx="1.5" transform="matrix(1 0 0 -1 231 26)" fill="#DCDCDC"/>
<rect x="237" y="17" width="2" height="6" rx="1" fill="#DCDCDC"/>
<rect x="243" y="12" width="3" height="16" rx="1.5" fill="#DCDCDC"/>
<rect width="2" height="24" rx="1" transform="matrix(1 0 0 -1 249 32)" fill="#DCDCDC"/>
<rect width="3" height="28" rx="1.5" transform="matrix(1 0 0 -1 255 34)" fill="#DCDCDC"/>
<rect width="2" height="18" rx="1" transform="matrix(1 0 0 -1 261 29)" fill="#DCDCDC"/>
<rect width="4" height="12" rx="2" transform="matrix(1 0 0 -1 266 26)" fill="#DCDCDC"/>
<rect x="273" y="15" width="2" height="10" rx="1" fill="#DCDCDC"/>
<rect x="278" y="11" width="4" height="18" rx="2" fill="#DCDCDC"/>
<rect width="2" height="30" rx="1" transform="matrix(1 0 0 -1 285 35)" fill="#DCDCDC"/>
<rect width="3" height="36" rx="1.5" transform="matrix(1 0 0 -1 290 38)" fill="#DCDCDC"/>
<rect width="2" height="40" rx="1" transform="matrix(1 0 0 -1 297 40)" fill="#DCDCDC"/>
<rect width="3" height="34" rx="1.5" transform="matrix(1 0 0 -1 302 37)" fill="#DCDCDC"/>
<rect width="2" height="40" rx="1" transform="matrix(1 0 0 -1 309 40)" fill="#DCDCDC"/>
<rect width="3" height="28" rx="1.5" transform="matrix(1 0 0 -1 314 34)" fill="#DCDCDC"/>
<rect width="3" height="34" rx="1.5" transform="matrix(1 0 0 -1 320 37)" fill="#DCDCDC"/>
<rect width="3" height="30" rx="1.5" transform="matrix(1 0 0 -1 326 35)" fill="#DCDCDC"/>
<rect width="2" height="24" rx="1" transform="matrix(1 0 0 -1 332 32)" fill="#DCDCDC"/>
<rect width="3" height="18" rx="1.5" transform="matrix(1 0 0 -1 338 29)" fill="#DCDCDC"/>
<rect width="2" height="12" rx="1" transform="matrix(1 0 0 -1 344 26)" fill="#DCDCDC"/>
<rect width="3" height="4" rx="1.5" transform="matrix(1 0 0 -1 350 22)" fill="#DCDCDC"/>
<rect width="2" height="6" rx="1" transform="matrix(1 0 0 -1 356 23)" fill="#DCDCDC"/>
<rect width="4" height="10" rx="2" transform="matrix(1 0 0 -1 361 25)" fill="#DCDCDC"/>
<rect width="2" height="16" rx="1" transform="matrix(1 0 0 -1 368 28)" fill="#DCDCDC"/>
</svg>
