<svg width="570" height="570" viewBox="0 0 570 570" fill="none" xmlns="http://www.w3.org/2000/svg">
<path d="M97.1048 172.839L99.3274 177.325L104.294 178.052L100.699 181.551L101.55 186.49L97.1048 184.158L92.6732 186.49L93.5238 181.551L89.9292 178.052L94.8958 177.325L97.1048 172.839Z" fill="#EBEBEB"/>
<path opacity="0.6" d="M541.153 384.442L543.375 388.943L548.342 389.67L544.747 393.155L545.598 398.107L541.153 395.775L536.721 398.107L537.572 393.155L533.977 389.67L538.944 388.943L541.153 384.442Z" fill="#7FA6FE"/>
<path d="M453.207 514.905L455.43 519.392L460.383 520.119L456.788 523.617L457.639 528.557L453.207 526.224L448.776 528.557L449.613 523.617L446.032 520.119L450.985 519.392L453.207 514.905Z" fill="#F5F5F5"/>
<path d="M251.99 93.1256L252.813 94.7995L254.665 95.0739C254.769 95.0874 254.866 95.1301 254.946 95.1969C255.026 95.2638 255.085 95.352 255.117 95.4513C255.149 95.5506 255.151 95.6569 255.125 95.7577C255.098 95.8585 255.044 95.9497 254.967 96.0205L253.595 97.3239L253.911 99.1624C253.927 99.2648 253.915 99.3696 253.875 99.4653C253.835 99.561 253.77 99.644 253.686 99.705C253.603 99.766 253.504 99.8027 253.401 99.8111C253.297 99.8195 253.194 99.7991 253.101 99.7524L251.455 98.8743L249.808 99.7524C249.716 99.7991 249.612 99.8195 249.509 99.8111C249.406 99.8027 249.307 99.766 249.223 99.705C249.14 99.644 249.074 99.561 249.035 99.4653C248.995 99.3696 248.983 99.2648 248.999 99.1624L249.301 97.3239L247.929 96.0205C247.852 95.9488 247.797 95.8565 247.772 95.7547C247.746 95.6528 247.75 95.5456 247.783 95.4459C247.816 95.3462 247.877 95.2582 247.959 95.1922C248.041 95.1262 248.14 95.0852 248.244 95.0739L250.083 94.7995L250.906 93.1256C250.939 93.0072 251.01 92.9028 251.108 92.8285C251.206 92.7541 251.325 92.7139 251.448 92.7139C251.571 92.7139 251.69 92.7541 251.788 92.8285C251.886 92.9028 251.957 93.0072 251.99 93.1256Z" fill="#EBEBEB"/>
<path d="M25.3903 493.543L26.2135 495.203L28.052 495.478C28.1564 495.492 28.2546 495.536 28.3355 495.603C28.4165 495.671 28.4768 495.759 28.5097 495.859C28.5426 495.96 28.5467 496.067 28.5216 496.169C28.4964 496.272 28.4431 496.365 28.3676 496.438L26.9956 497.728L27.3111 499.566C27.3273 499.669 27.315 499.773 27.2754 499.869C27.2358 499.965 27.1706 500.048 27.0869 500.109C27.0031 500.17 26.9042 500.207 26.8009 500.215C26.6977 500.223 26.5941 500.203 26.5017 500.156L24.8553 499.292L23.2089 500.156C23.1164 500.203 23.0128 500.223 22.9096 500.215C22.8063 500.207 22.7074 500.17 22.6237 500.109C22.5399 500.048 22.4747 499.965 22.4351 499.869C22.3955 499.773 22.3832 499.669 22.3994 499.566L22.7149 497.728L21.3429 496.438C21.2677 496.366 21.2141 496.273 21.1883 496.172C21.1625 496.071 21.1654 495.964 21.1968 495.865C21.2281 495.765 21.2866 495.676 21.3658 495.608C21.4449 495.539 21.5415 495.494 21.6448 495.478L23.4833 495.203L24.3202 493.543C24.3568 493.43 24.4284 493.332 24.5245 493.262C24.6206 493.192 24.7364 493.154 24.8553 493.154C24.9741 493.154 25.0899 493.192 25.186 493.262C25.2821 493.332 25.3537 493.43 25.3903 493.543Z" fill="#F5F5F5"/>
<path d="M62.393 75.4953L63.2162 77.1691L65.0684 77.4298C65.1716 77.4463 65.2682 77.4912 65.3473 77.5595C65.4265 77.6278 65.485 77.7169 65.5164 77.8166C65.5477 77.9164 65.5506 78.0229 65.5248 78.1242C65.499 78.2255 65.4455 78.3176 65.3702 78.3902L63.9982 79.7622L64.3138 81.5869C64.3357 81.6905 64.3272 81.7982 64.2893 81.8971C64.2514 81.9959 64.1856 82.0817 64.1001 82.1441C64.0145 82.2064 63.9127 82.2427 63.807 82.2485C63.7013 82.2544 63.5962 82.2295 63.5043 82.1769L61.8579 81.3125L60.2115 82.1769C60.1196 82.2295 60.0144 82.2544 59.9087 82.2485C59.803 82.2427 59.7012 82.2064 59.6157 82.1441C59.5301 82.0817 59.4644 81.9959 59.4265 81.8971C59.3886 81.7982 59.3801 81.6905 59.402 81.5869L59.7038 79.7622L58.3318 78.3902C58.2563 78.3167 58.203 78.2235 58.1778 78.1212C58.1527 78.0189 58.1568 77.9115 58.1897 77.8114C58.2226 77.7114 58.283 77.6225 58.3639 77.555C58.4448 77.4876 58.543 77.4442 58.6474 77.4298L60.4859 77.1691L61.364 75.4953C61.408 75.3956 61.4801 75.3108 61.5715 75.2513C61.6628 75.1918 61.7694 75.1602 61.8785 75.1602C61.9875 75.1602 62.0941 75.1918 62.1855 75.2513C62.2768 75.3108 62.3489 75.3956 62.393 75.4953Z" fill="#EBEBEB"/>
<path d="M60.1705 406.174C60.1732 406.536 60.0685 406.89 59.8696 407.192C59.6708 407.494 59.3867 407.73 59.0536 407.87C58.7204 408.01 58.3531 408.048 57.9982 407.979C57.6433 407.911 57.3169 407.738 57.0603 407.483C56.8038 407.229 56.6286 406.903 56.5571 406.549C56.4855 406.195 56.5209 405.827 56.6586 405.493C56.7963 405.159 57.0301 404.873 57.3305 404.672C57.6309 404.471 57.9842 404.363 58.3457 404.363C58.8273 404.363 59.2894 404.554 59.6312 404.893C59.973 405.232 60.1668 405.693 60.1705 406.174Z" fill="#EBEBEB"/>
<path d="M320.219 177.833C320.222 178.194 320.117 178.548 319.918 178.85C319.72 179.152 319.436 179.388 319.102 179.528C318.769 179.668 318.402 179.707 318.047 179.638C317.692 179.569 317.366 179.396 317.109 179.141C316.853 178.887 316.677 178.562 316.606 178.207C316.534 177.853 316.57 177.485 316.707 177.151C316.845 176.817 317.079 176.531 317.379 176.33C317.68 176.129 318.033 176.022 318.395 176.022C318.633 176.02 318.87 176.065 319.092 176.155C319.313 176.246 319.514 176.379 319.684 176.547C319.854 176.715 319.988 176.916 320.08 177.136C320.172 177.357 320.219 177.594 320.219 177.833Z" fill="#EBEBEB"/>
<path d="M225.606 77.0044C225.606 77.3654 225.499 77.7181 225.299 78.0182C225.098 78.3183 224.813 78.5522 224.48 78.6903C224.146 78.8284 223.78 78.8646 223.426 78.7941C223.072 78.7237 222.746 78.5499 222.491 78.2948C222.236 78.0396 222.062 77.7144 221.992 77.3604C221.921 77.0065 221.958 76.6396 222.096 76.3061C222.234 75.9727 222.468 75.6877 222.768 75.4872C223.068 75.2867 223.421 75.1797 223.782 75.1797C224.264 75.1833 224.726 75.3767 225.068 75.7181C225.409 76.0596 225.603 76.5216 225.606 77.0044Z" fill="#F5F5F5"/>
<path d="M228.496 521.73C233.916 520.45 237.273 515.019 235.994 509.599C234.715 504.178 229.284 500.821 223.863 502.101C218.443 503.38 215.086 508.811 216.365 514.232C217.644 519.652 223.076 523.009 228.496 521.73Z" fill="#DCE7FF"/>
<path d="M222.711 506.016C220.646 506.011 218.632 506.665 216.963 507.882C216.11 509.838 215.901 512.014 216.365 514.097C216.829 516.179 217.943 518.061 219.545 519.469C221.148 520.878 223.157 521.741 225.282 521.935C227.407 522.128 229.538 521.642 231.369 520.545C232.179 519.046 232.586 517.363 232.55 515.659C232.514 513.956 232.037 512.291 231.164 510.828C230.291 509.364 229.053 508.153 227.572 507.312C226.09 506.471 224.415 506.029 222.711 506.029V506.016Z" fill="#CCDCFF"/>
<path d="M144.617 336.642H61.1309V298.954L144.617 199.703H184.57V301.094H205.273V336.642H184.57V367.485H144.617V336.642ZM144.617 301.094V249.177L100.494 301.094H144.617Z" fill="#7FA6FE"/>
<path d="M219.556 284.328C219.556 252.964 225.199 231.012 236.486 218.472C247.773 205.932 264.973 199.667 288.087 199.676C299.182 199.676 308.297 201.048 315.431 203.792C321.912 206.127 327.847 209.764 332.869 214.48C337.102 218.522 340.689 223.191 343.502 228.323C346.286 233.682 348.383 239.37 349.745 245.254C352.847 257.822 354.395 270.724 354.355 283.67C354.355 313.598 349.292 335.499 339.167 349.375C329.041 363.25 311.603 370.193 286.852 370.202C272.968 370.202 261.749 367.988 253.197 363.561C244.576 359.062 237.315 352.341 232.164 344.093C228.186 338.019 225.089 329.709 222.876 319.163C220.578 307.696 219.465 296.023 219.556 284.328ZM265.024 284.438C265.024 305.475 266.876 319.822 270.58 327.478C274.285 335.133 279.668 338.98 286.729 339.016C288.97 339.041 291.193 338.621 293.27 337.78C295.348 336.94 297.237 335.695 298.83 334.118C302.251 330.853 304.766 325.694 306.376 318.642C307.986 311.59 308.79 300.614 308.79 285.714C308.79 263.817 306.934 249.095 303.22 241.549C299.507 234.003 293.936 230.235 286.509 230.244C278.936 230.244 273.448 234.09 270.045 241.782C266.643 249.475 264.969 263.693 265.024 284.438Z" fill="#7FA6FE"/>
<path d="M452.027 336.642H368.541V298.954L452.027 199.703H491.98V301.094H512.752V336.642H491.98V367.485H452.027V336.642ZM452.027 301.094V249.177L407.918 301.094H452.027Z" fill="#7FA6FE"/>
<g opacity="0.3">
<path d="M217.772 141.791C217.772 142.299 217.621 142.796 217.339 143.218C217.056 143.64 216.655 143.969 216.185 144.163C215.715 144.357 215.199 144.407 214.701 144.307C214.203 144.206 213.745 143.961 213.387 143.601C213.029 143.24 212.786 142.782 212.688 142.283C212.591 141.785 212.644 141.268 212.84 140.8C213.036 140.331 213.367 139.932 213.791 139.651C214.215 139.371 214.712 139.223 215.22 139.226C215.556 139.226 215.889 139.292 216.2 139.421C216.51 139.55 216.792 139.739 217.029 139.978C217.266 140.216 217.454 140.499 217.582 140.81C217.709 141.122 217.774 141.455 217.772 141.791Z" fill="#7FA6FE"/>
<path d="M42.1148 240.342C43.115 240.342 43.9258 239.531 43.9258 238.531C43.9258 237.531 43.115 236.72 42.1148 236.72C41.1145 236.72 40.3037 237.531 40.3037 238.531C40.3037 239.531 41.1145 240.342 42.1148 240.342Z" fill="#7FA6FE"/>
<path d="M341.321 504.822C342.753 504.822 343.914 503.661 343.914 502.229C343.914 500.797 342.753 499.636 341.321 499.636C339.888 499.636 338.728 500.797 338.728 502.229C338.728 503.661 339.888 504.822 341.321 504.822Z" fill="#7FA6FE"/>
<path d="M403.678 399.315C404.678 399.315 405.489 398.505 405.489 397.504C405.489 396.504 404.678 395.693 403.678 395.693C402.678 395.693 401.867 396.504 401.867 397.504C401.867 398.505 402.678 399.315 403.678 399.315Z" fill="#7FA6FE"/>
<path d="M523.961 73.1909C523.961 73.5491 523.855 73.8993 523.656 74.1971C523.457 74.4949 523.174 74.727 522.843 74.8641C522.512 75.0012 522.148 75.037 521.797 74.9672C521.446 74.8973 521.123 74.7248 520.87 74.4715C520.616 74.2182 520.444 73.8955 520.374 73.5442C520.304 73.1929 520.34 72.8288 520.477 72.4979C520.614 72.1669 520.846 71.8841 521.144 71.6851C521.442 71.4861 521.792 71.3799 522.15 71.3799C522.63 71.3799 523.091 71.5707 523.431 71.9103C523.77 72.25 523.961 72.7106 523.961 73.1909Z" fill="#7FA6FE"/>
<path d="M179.013 36.6685C179.013 37.0267 178.907 37.3768 178.708 37.6746C178.509 37.9724 178.226 38.2046 177.895 38.3416C177.564 38.4787 177.2 38.5146 176.849 38.4447C176.497 38.3748 176.175 38.2023 175.921 37.9491C175.668 37.6958 175.496 37.3731 175.426 37.0218C175.356 36.6705 175.392 36.3063 175.529 35.9754C175.666 35.6445 175.898 35.3616 176.196 35.1626C176.494 34.9636 176.844 34.8574 177.202 34.8574C177.681 34.861 178.14 35.053 178.479 35.3918C178.817 35.7307 179.009 36.1893 179.013 36.6685Z" fill="#7FA6FE"/>
<path d="M323.004 131.693C324.005 131.693 324.815 130.883 324.815 129.882C324.815 128.882 324.005 128.071 323.004 128.071C322.004 128.071 321.193 128.882 321.193 129.882C321.193 130.883 322.004 131.693 323.004 131.693Z" fill="#7FA6FE"/>
</g>
<path d="M135.768 131.707C152.37 131.707 165.828 118.248 165.828 101.646C165.828 85.0445 152.37 71.5859 135.768 71.5859C119.166 71.5859 105.707 85.0445 105.707 101.646C105.707 118.248 119.166 131.707 135.768 131.707Z" fill="#7FA6FE"/>
<path opacity="0.7" d="M135.768 131.707C152.37 131.707 165.828 118.248 165.828 101.646C165.828 85.0445 152.37 71.5859 135.768 71.5859C119.166 71.5859 105.707 85.0445 105.707 101.646C105.707 118.248 119.166 131.707 135.768 131.707Z" fill="white"/>
<path opacity="0.2" d="M125.409 78.9669C121.315 78.9544 117.262 79.7809 113.5 81.3954C108.876 86.4771 106.132 92.9888 105.724 99.847C105.315 106.705 107.267 113.497 111.255 119.091C115.243 124.686 121.026 128.746 127.643 130.597C134.259 132.448 141.31 131.978 147.622 129.264C151.535 124.952 154.112 119.596 155.04 113.846C155.968 108.097 155.206 102.202 152.848 96.8775C150.49 91.5527 146.637 87.027 141.756 83.85C136.876 80.6731 131.178 78.9815 125.354 78.9807L125.409 78.9669Z" fill="#7FA6FE"/>
<path opacity="0.2" d="M122.418 86.911C122.418 87.4537 122.257 87.9842 121.955 88.4355C121.654 88.8867 121.225 89.2384 120.724 89.4461C120.222 89.6538 119.671 89.7081 119.138 89.6023C118.606 89.4964 118.117 89.235 117.733 88.8513C117.35 88.4675 117.088 87.9786 116.982 87.4463C116.877 86.914 116.931 86.3623 117.139 85.8609C117.346 85.3595 117.698 84.931 118.149 84.6294C118.6 84.3279 119.131 84.167 119.674 84.167C120.401 84.167 121.099 84.4561 121.614 84.9707C122.129 85.4853 122.418 86.1832 122.418 86.911Z" fill="#7FA6FE"/>
<path opacity="0.2" d="M154.742 84.1669C154.742 84.7096 154.581 85.2401 154.28 85.6913C153.978 86.1426 153.55 86.4943 153.048 86.702C152.547 86.9097 151.995 86.964 151.463 86.8581C150.931 86.7522 150.442 86.4909 150.058 86.1071C149.674 85.7234 149.413 85.2345 149.307 84.7022C149.201 84.1699 149.255 83.6182 149.463 83.1168C149.671 82.6154 150.022 82.1868 150.474 81.8853C150.925 81.5838 151.455 81.4229 151.998 81.4229C152.726 81.4229 153.424 81.7119 153.938 82.2265C154.453 82.7411 154.742 83.4391 154.742 84.1669Z" fill="#7FA6FE"/>
<path opacity="0.2" d="M149.254 103.759C149.254 104.649 148.99 105.519 148.496 106.259C148.001 106.999 147.299 107.576 146.476 107.917C145.654 108.257 144.749 108.346 143.876 108.173C143.003 107.999 142.201 107.57 141.572 106.941C140.943 106.312 140.514 105.51 140.34 104.637C140.167 103.764 140.256 102.859 140.596 102.037C140.937 101.215 141.514 100.512 142.254 100.017C142.994 99.5227 143.864 99.2588 144.754 99.2588C145.948 99.2588 147.092 99.7329 147.936 100.577C148.78 101.421 149.254 102.565 149.254 103.759Z" fill="#7FA6FE"/>
<path opacity="0.2" d="M134.958 116.587C134.958 117.776 134.606 118.938 133.945 119.926C133.285 120.914 132.347 121.685 131.249 122.139C130.15 122.594 128.942 122.713 127.776 122.481C126.611 122.249 125.54 121.677 124.7 120.837C123.859 119.996 123.287 118.926 123.055 117.76C122.823 116.594 122.942 115.386 123.397 114.288C123.852 113.19 124.622 112.251 125.61 111.591C126.598 110.931 127.76 110.578 128.949 110.578C130.543 110.578 132.071 111.211 133.198 112.338C134.325 113.465 134.958 114.994 134.958 116.587Z" fill="#7FA6FE"/>
<path d="M492.034 464.247C495.382 450.065 486.598 435.855 472.417 432.508C458.235 429.161 444.025 437.944 440.678 452.126C437.331 466.307 446.114 480.517 460.296 483.864C474.477 487.211 488.687 478.428 492.034 464.247Z" fill="#7FA6FE"/>
<path opacity="0.3" d="M492.034 464.247C495.382 450.065 486.598 435.855 472.417 432.508C458.235 429.161 444.025 437.944 440.678 452.126C437.331 466.307 446.114 480.517 460.296 483.864C474.477 487.211 488.687 478.428 492.034 464.247Z" fill="white"/>
<path opacity="0.4" d="M483.021 437.759C477.172 435.993 470.892 436.314 465.253 438.665C459.614 441.016 454.967 445.252 452.104 450.649C449.242 456.046 448.343 462.27 449.56 468.257C450.777 474.244 454.035 479.622 458.777 483.474C461.237 484.221 463.794 484.6 466.365 484.599C471.811 484.597 477.124 482.911 481.574 479.769C486.024 476.628 489.392 472.187 491.217 467.055C493.042 461.923 493.234 456.352 491.766 451.106C490.299 445.861 487.244 441.198 483.021 437.759Z" fill="#7FA6FE"/>
<path d="M441.175 466.105C413.008 479.358 434.013 489.58 473.705 475.311C510.461 462.098 524.469 445.442 491.541 450.615C493.311 457.543 447.28 475.475 441.175 466.105Z" fill="#7FA6FE"/>
<path opacity="0.15" d="M482.705 199.702C445.812 224.631 398.053 257.559 384.868 336.641H382.055C394.883 258.437 440.9 224.727 477.807 199.702H482.705Z" fill="black"/>
<path d="M291.86 447.266C268.536 447.266 245.473 436.743 234.236 419.565C227.307 408.946 219.254 386.706 243.236 357.029L245.363 358.758C228.405 379.75 225.277 400.81 236.541 418.07C250.261 439.061 282.626 449.626 310.258 442.107C338.563 434.41 355.74 409.797 357.4 374.577C363.067 254.102 427.07 216.989 473.801 189.892C502.846 173.058 523.824 160.902 519.214 135.232C518.569 131.678 517.156 129.223 514.865 127.713C508.897 123.776 497.235 126.506 483.734 129.648C457.241 135.822 420.965 144.273 399.356 107.518L401.73 106.146C422.31 141.173 456.02 133.311 483.117 127C497.235 123.721 509.418 120.881 516.374 125.45C519.324 127.384 521.135 130.444 521.862 134.779C526.815 162.329 504.026 175.555 475.145 192.293C428.95 219.075 365.701 255.748 360.103 374.769C358.374 411.265 340.456 436.797 310.931 444.824C304.71 446.48 298.297 447.301 291.86 447.266Z" fill="#7FA6FE"/>
<path opacity="0.2" d="M291.86 447.266C268.536 447.266 245.473 436.743 234.236 419.565C227.307 408.946 219.254 386.706 243.236 357.029L245.363 358.758C228.405 379.75 225.277 400.81 236.541 418.07C250.261 439.061 282.626 449.626 310.258 442.107C338.563 434.41 355.74 409.797 357.4 374.577C363.067 254.102 427.07 216.989 473.801 189.892C502.846 173.058 523.824 160.902 519.214 135.232C518.569 131.678 517.156 129.223 514.865 127.713C508.897 123.776 497.235 126.506 483.734 129.648C457.241 135.822 420.965 144.273 399.356 107.518L401.73 106.146C422.31 141.173 456.02 133.311 483.117 127C497.235 123.721 509.418 120.881 516.374 125.45C519.324 127.384 521.135 130.444 521.862 134.779C526.815 162.329 504.026 175.555 475.145 192.293C428.95 219.075 365.701 255.748 360.103 374.769C358.374 411.265 340.456 436.797 310.931 444.824C304.71 446.48 298.297 447.301 291.86 447.266Z" fill="white"/>
<path d="M371.107 75.084C377.429 75.1205 383.709 76.1055 389.738 78.0063C389.738 78.0063 404.83 103.759 406.614 109.658C405.983 115.476 396.173 125.011 396.173 125.011L371.107 75.084Z" fill="#7FA6FE"/>
<path opacity="0.3" d="M371.107 75.084C377.429 75.1205 383.709 76.1055 389.738 78.0063C389.738 78.0063 404.83 103.759 406.614 109.658C405.983 115.476 396.173 125.011 396.173 125.011L371.107 75.084Z" fill="white"/>
<path d="M415.806 200.114C409.995 193.008 404.694 185.498 399.946 177.641C398.794 175.656 397.701 173.635 396.667 171.577C396.077 170.41 395.514 169.244 394.966 168.064C394.246 166.916 393.687 165.674 393.306 164.374C391.659 146.99 397.614 134.19 391.934 120.236L369.323 129.072C369.323 129.072 371.244 153.933 375.634 168.86C378.378 178.094 384.525 186.079 390.466 193.474C392.318 195.779 394.101 198.152 395.954 200.471C397.806 202.79 399.672 204.669 401.442 206.851C404.117 210.157 404.995 213.327 402.978 217.223L402.635 217.84C402.059 218.856 404.748 220.008 406.449 217.84C409.193 214.301 408.809 214.52 411.196 211.502C412.651 209.677 414.311 207.688 415.751 206.014C416.446 205.191 416.832 204.151 416.842 203.074C416.852 201.997 416.486 200.95 415.806 200.114Z" fill="#7FA6FE"/>
<path opacity="0.5" d="M415.806 200.114C409.995 193.008 404.694 185.498 399.946 177.641C398.794 175.656 397.701 173.635 396.667 171.577C396.077 170.41 395.514 169.244 394.966 168.064C394.246 166.916 393.687 165.674 393.306 164.374C391.659 146.99 397.614 134.19 391.934 120.236L369.323 129.072C369.323 129.072 371.244 153.933 375.634 168.86C378.378 178.094 384.525 186.079 390.466 193.474C392.318 195.779 394.101 198.152 395.954 200.471C397.806 202.79 399.672 204.669 401.442 206.851C404.117 210.157 404.995 213.327 402.978 217.223L402.635 217.84C402.059 218.856 404.748 220.008 406.449 217.84C409.193 214.301 408.809 214.52 411.196 211.502C412.651 209.677 414.311 207.688 415.751 206.014C416.446 205.191 416.832 204.151 416.842 203.074C416.852 201.997 416.486 200.95 415.806 200.114Z" fill="white"/>
<path opacity="0.3" d="M410.277 192.966C406.689 196.812 402.707 200.27 398.396 203.283C398.986 203.942 399.562 204.655 400.152 205.286C404.468 202.37 408.388 198.907 411.814 194.983L410.277 192.966Z" fill="#7FA6FE"/>
<path opacity="0.3" d="M415.806 200.114L415.642 199.922C414.586 201.133 413.972 202.666 413.899 204.271C413.811 205.372 413.99 206.478 414.421 207.495L415.724 205.945C416.405 205.13 416.786 204.106 416.801 203.044C416.815 201.982 416.464 200.948 415.806 200.114Z" fill="#7FA6FE"/>
<path d="M365.728 91.5474C363.277 95.2176 360.337 98.5364 356.989 101.412C355.132 103.012 353.097 104.393 350.925 105.528C349.783 106.113 348.6 106.613 347.385 107.024L346.452 107.325L346.15 107.408L345.505 107.586C345.108 107.68 344.704 107.744 344.298 107.778C343.14 107.867 341.976 107.76 340.854 107.463C339.439 107.061 338.083 106.475 336.82 105.72C335.805 105.126 334.82 104.481 333.871 103.786C332.155 102.51 330.515 101.135 328.959 99.6696C325.958 96.8261 323.204 93.7325 320.727 90.4223C320.25 89.7775 320.013 88.9863 320.057 88.1854C320.101 87.3846 320.423 86.6242 320.968 86.0355C321.513 85.4468 322.246 85.0667 323.041 84.9609C323.836 84.855 324.643 85.03 325.323 85.4557H325.433C328.671 87.5137 331.936 89.6815 335.119 91.616C336.738 92.5627 338.302 93.5231 339.853 94.2639C340.56 94.6345 341.289 94.9643 342.034 95.2518C342.498 95.4568 342.995 95.5776 343.502 95.6085C343.584 95.6085 343.502 95.5125 342.994 95.5262C342.834 95.5166 342.674 95.5166 342.514 95.5262L342.212 95.5948L342.665 95.3615C343.275 95.0335 343.866 94.6717 344.435 94.2776C345.663 93.4121 346.81 92.4387 347.865 91.369C350.262 88.8571 352.507 86.2044 354.588 83.4251C355.728 82.1495 357.304 81.346 359.006 81.1722C360.708 80.9984 362.413 81.4669 363.788 82.4857C365.162 83.5045 366.106 85.0001 366.435 86.6791C366.763 88.3581 366.453 90.0993 365.564 91.5611L365.728 91.5474Z" fill="#7FA6FE"/>
<path opacity="0.5" d="M365.728 91.5474C363.277 95.2176 360.337 98.5364 356.989 101.412C355.132 103.012 353.097 104.393 350.925 105.528C349.783 106.113 348.6 106.613 347.385 107.024L346.452 107.325L346.15 107.408L345.505 107.586C345.108 107.68 344.704 107.744 344.298 107.778C343.14 107.867 341.976 107.76 340.854 107.463C339.439 107.061 338.083 106.475 336.82 105.72C335.805 105.126 334.82 104.481 333.871 103.786C332.155 102.51 330.515 101.135 328.959 99.6696C325.958 96.8261 323.204 93.7325 320.727 90.4223C320.25 89.7775 320.013 88.9863 320.057 88.1854C320.101 87.3846 320.423 86.6242 320.968 86.0355C321.513 85.4468 322.246 85.0667 323.041 84.9609C323.836 84.855 324.643 85.03 325.323 85.4557H325.433C328.671 87.5137 331.936 89.6815 335.119 91.616C336.738 92.5627 338.302 93.5231 339.853 94.2639C340.56 94.6345 341.289 94.9643 342.034 95.2518C342.498 95.4568 342.995 95.5776 343.502 95.6085C343.584 95.6085 343.502 95.5125 342.994 95.5262C342.834 95.5166 342.674 95.5166 342.514 95.5262L342.212 95.5948L342.665 95.3615C343.275 95.0335 343.866 94.6717 344.435 94.2776C345.663 93.4121 346.81 92.4387 347.865 91.369C350.262 88.8571 352.507 86.2044 354.588 83.4251C355.728 82.1495 357.304 81.346 359.006 81.1722C360.708 80.9984 362.413 81.4669 363.788 82.4857C365.162 83.5045 366.106 85.0001 366.435 86.6791C366.763 88.3581 366.453 90.0993 365.564 91.5611L365.728 91.5474Z" fill="white"/>
<path d="M315.582 82.5203L317.187 85.2643C317.187 85.2643 318.408 88.859 320.864 89.5175L327.532 87.3635L327.189 86.801C326.338 85.5113 326.434 83.0005 326.722 80.9151C327.01 78.8296 325.94 78.761 325.144 79.2824C324.58 79.9311 324.185 80.7085 323.992 81.5462C323.665 81.0931 323.302 80.6665 322.908 80.2702L320.878 78.2397C320.452 77.8233 319.884 77.5834 319.288 77.5682C318.693 77.5529 318.114 77.7634 317.667 78.1574L316.021 79.6254C315.63 79.9867 315.374 80.47 315.294 80.996C315.214 81.522 315.316 82.0595 315.582 82.5203Z" fill="#7FA6FE"/>
<path opacity="0.5" d="M315.582 82.5203L317.187 85.2643C317.187 85.2643 318.408 88.859 320.864 89.5175L327.532 87.3635L327.189 86.801C326.338 85.5113 326.434 83.0005 326.722 80.9151C327.01 78.8296 325.94 78.761 325.144 79.2824C324.58 79.9311 324.185 80.7085 323.992 81.5462C323.665 81.0931 323.302 80.6665 322.908 80.2702L320.878 78.2397C320.452 77.8233 319.884 77.5834 319.288 77.5682C318.693 77.5529 318.114 77.7634 317.667 78.1574L316.021 79.6254C315.63 79.9867 315.374 80.47 315.294 80.996C315.214 81.522 315.316 82.0595 315.582 82.5203Z" fill="white"/>
<path d="M377.843 72.6417C370.447 74.602 363.363 77.5901 356.797 81.5185C355.772 82.1596 354.968 83.0985 354.493 84.2093C354.017 85.3202 353.892 86.5499 354.135 87.7337C356.783 100.685 362.806 118.027 369.309 129.072L399.644 116.518C399.85 111.167 392.482 93.8528 384.978 77.1144C383.633 74.1097 381.04 71.8733 377.843 72.6417Z" fill="#7FA6FE"/>
<path opacity="0.6" d="M377.843 72.6417C370.447 74.602 363.363 77.5901 356.797 81.5185C355.772 82.1596 354.968 83.0985 354.493 84.2093C354.017 85.3202 353.892 86.5499 354.135 87.7337C356.783 100.685 362.806 118.027 369.309 129.072L399.644 116.518C399.85 111.167 392.482 93.8528 384.978 77.1144C383.633 74.1097 381.04 71.8733 377.843 72.6417Z" fill="white"/>
<path opacity="0.3" d="M389.683 87.72L383.66 85.7031C385.032 89.2292 389.876 93.6882 393.264 96.3087C392.167 93.5647 390.946 90.6835 389.683 87.72Z" fill="#7FA6FE"/>
<path d="M375.854 59.0588C373.343 54.2842 367.924 51.8832 361.42 52.4183C355.932 52.8848 351.075 58.4825 351.652 61.5009C352.228 64.5193 356.838 65.809 357.716 66.8517L353.915 69.5957C353.465 69.9207 353.085 70.3334 352.799 70.8089C352.512 71.2845 352.325 71.8132 352.248 72.363C352.171 72.9129 352.206 73.4727 352.351 74.0086C352.496 74.5446 352.748 75.0456 353.092 75.4816C354.697 77.5122 356.81 79.5976 358.031 81.1343C368.541 80.8599 376.32 76.8536 379.133 72.9983C378.076 68.114 378.296 63.8059 375.854 59.0588Z" fill="#7FA6FE"/>
<path opacity="0.6" d="M375.854 59.0588C373.343 54.2842 367.924 51.8832 361.42 52.4183C355.932 52.8848 351.075 58.4825 351.652 61.5009C352.228 64.5193 356.838 65.809 357.716 66.8517L353.915 69.5957C353.465 69.9207 353.085 70.3334 352.799 70.8089C352.512 71.2845 352.325 71.8132 352.248 72.363C352.171 72.9129 352.206 73.4727 352.351 74.0086C352.496 74.5446 352.748 75.0456 353.092 75.4816C354.697 77.5122 356.81 79.5976 358.031 81.1343C368.541 80.8599 376.32 76.8536 379.133 72.9983C378.076 68.114 378.296 63.8059 375.854 59.0588Z" fill="white"/>
<path d="M370.695 62.0221C371.441 63.9355 371.603 66.0271 371.161 68.0326C370.718 70.0381 369.691 71.8674 368.209 73.2893C366.727 74.7112 364.857 75.6618 362.835 76.021C360.813 76.3802 358.73 76.1319 356.849 75.3074C354.968 74.483 353.374 73.1193 352.268 71.3889C351.162 69.6586 350.593 67.6391 350.635 65.5858C350.676 63.5325 351.325 61.5375 352.5 59.8531C353.675 58.1687 355.323 56.8705 357.236 56.1224C359.803 55.1223 362.662 55.1818 365.186 56.2879C367.709 57.394 369.691 59.4564 370.695 62.0221Z" fill="#263238"/>
<path d="M459.779 185.667C459.628 181.153 459.422 181.551 459.299 177.751C459.216 175.419 459.203 172.825 459.189 170.589C459.184 169.527 458.813 168.499 458.138 167.679C457.463 166.859 456.526 166.298 455.485 166.089C453.674 165.718 451.849 165.375 449.997 164.991C447.623 164.484 445.277 163.935 442.958 163.263C441.147 162.741 439.364 162.165 437.594 161.52C435.824 160.875 433.834 160.148 431.996 159.298C429.828 158.378 427.688 157.39 425.575 156.361C423.201 155.236 420.855 154.056 418.509 152.863C409.481 137.922 409.289 128.071 399.603 116.519L378.803 125.93C378.803 125.93 394.088 153.041 404.487 164.539C410.483 171.152 419.881 174.143 428.264 176.31C434.315 177.861 440.447 179.054 446.58 180.193C448.968 180.632 451.561 180.797 453.619 182.224C455.141 183.391 456.185 185.074 456.555 186.957C456.646 187.341 456.729 187.725 456.802 188.11C457.062 189.262 459.875 188.384 459.779 185.667Z" fill="#7FA6FE"/>
<path opacity="0.6" d="M459.779 185.667C459.628 181.153 459.422 181.551 459.299 177.751C459.216 175.419 459.203 172.825 459.189 170.589C459.184 169.527 458.813 168.499 458.138 167.679C457.463 166.859 456.526 166.298 455.485 166.089C453.674 165.718 451.849 165.375 449.997 164.991C447.623 164.484 445.277 163.935 442.958 163.263C441.147 162.741 439.364 162.165 437.594 161.52C435.824 160.875 433.834 160.148 431.996 159.298C429.828 158.378 427.688 157.39 425.575 156.361C423.201 155.236 420.855 154.056 418.509 152.863C409.481 137.922 409.289 128.071 399.603 116.519L378.803 125.93C378.803 125.93 394.088 153.041 404.487 164.539C410.483 171.152 419.881 174.143 428.264 176.31C434.315 177.861 440.447 179.054 446.58 180.193C448.968 180.632 451.561 180.797 453.619 182.224C455.141 183.391 456.185 185.074 456.555 186.957C456.646 187.341 456.729 187.725 456.802 188.11C457.062 189.262 459.875 188.384 459.779 185.667Z" fill="white"/>
<path opacity="0.3" d="M449.228 164.813C448.405 164.634 447.582 164.456 446.745 164.25C446.814 168.997 444.591 177.174 443.781 179.658L446.388 180.151C448.097 175.209 449.054 170.039 449.228 164.813Z" fill="#7FA6FE"/>
<path opacity="0.3" d="M459.244 170.589C459.24 169.529 458.871 168.503 458.198 167.683C457.526 166.863 456.592 166.3 455.553 166.089L454.181 165.828C454.402 167.388 455.2 168.808 456.418 169.807C457.201 170.531 458.139 171.066 459.162 171.371C459.244 171.124 459.244 170.85 459.244 170.589Z" fill="#7FA6FE"/>
<path d="M368.76 62.1049C369.309 64.1903 366.977 66.3718 365.125 64.5745C363.396 62.721 361.504 61.0266 359.472 59.5118C357.565 58.3182 360.103 56.2327 363.108 57.0422C364.39 57.3643 365.575 57.9935 366.559 58.8755C367.544 59.7575 368.299 60.8658 368.76 62.1049Z" fill="white"/>
<path d="M368.911 128.4C367.951 128.757 369.707 130.403 369.707 130.403C369.707 130.403 388.915 123.831 400.577 117.067C400.605 116.658 400.535 116.247 400.373 115.87C400.211 115.493 399.961 115.16 399.644 114.899C389.663 119.977 379.403 124.484 368.911 128.4Z" fill="#7FA6FE"/>
<path opacity="0.5" d="M368.911 128.4C367.951 128.757 369.707 130.403 369.707 130.403C369.707 130.403 388.915 123.831 400.577 117.067C400.605 116.658 400.535 116.247 400.373 115.87C400.211 115.493 399.961 115.16 399.644 114.899C389.663 119.977 379.403 124.484 368.911 128.4Z" fill="white"/>
<path d="M383.043 71.7363C386.83 73.6571 390.383 75.674 394.019 77.9103C395.789 79.0354 397.545 80.1741 399.287 81.4089C401.03 82.6437 402.759 83.906 404.501 85.3328L405.146 85.8679L405.955 86.6088C406.438 87.0404 406.896 87.4984 407.327 87.9808C407.766 88.461 408.137 88.9275 408.494 89.3528C408.85 89.7781 409.235 90.2858 409.55 90.7248C410.829 92.4886 412.01 94.3207 413.09 96.2128C415.216 99.882 417.051 103.713 418.578 107.669C418.86 108.417 418.875 109.239 418.619 109.996C418.364 110.753 417.854 111.398 417.176 111.822C416.499 112.245 415.696 112.421 414.903 112.32C414.11 112.218 413.378 111.845 412.829 111.264L412.761 111.181C410.017 108.259 407.369 105.186 404.707 102.318C402.045 99.4507 399.342 96.5421 397.106 95.2661C393.992 93.3316 390.52 91.3971 387.077 89.5037L376.704 83.7413C375.096 82.8899 373.892 81.4343 373.357 79.695C372.821 77.9556 372.999 76.0749 373.851 74.4666C374.702 72.8583 376.158 71.6541 377.897 71.1189C379.636 70.5837 381.517 70.7614 383.125 71.6129L383.043 71.7363Z" fill="#7FA6FE"/>
<path opacity="0.6" d="M383.043 71.7363C386.83 73.6571 390.383 75.674 394.019 77.9103C395.789 79.0354 397.545 80.1741 399.287 81.4089C401.03 82.6437 402.759 83.906 404.501 85.3328L405.146 85.8679L405.955 86.6088C406.438 87.0404 406.896 87.4984 407.327 87.9808C407.766 88.461 408.137 88.9275 408.494 89.3528C408.85 89.7781 409.235 90.2858 409.55 90.7248C410.829 92.4886 412.01 94.3207 413.09 96.2128C415.216 99.882 417.051 103.713 418.578 107.669C418.86 108.417 418.875 109.239 418.619 109.996C418.364 110.753 417.854 111.398 417.176 111.822C416.499 112.245 415.696 112.421 414.903 112.32C414.11 112.218 413.378 111.845 412.829 111.264L412.761 111.181C410.017 108.259 407.369 105.186 404.707 102.318C402.045 99.4507 399.342 96.5421 397.106 95.2661C393.992 93.3316 390.52 91.3971 387.077 89.5037L376.704 83.7413C375.096 82.8899 373.892 81.4343 373.357 79.695C372.821 77.9556 372.999 76.0749 373.851 74.4666C374.702 72.8583 376.158 71.6541 377.897 71.1189C379.636 70.5837 381.517 70.7614 383.125 71.6129L383.043 71.7363Z" fill="white"/>
<path d="M421.829 114.515L420.663 111.593C420.663 111.593 420.018 107.861 417.7 106.818L410.84 107.902L411.073 108.506C411.704 109.878 411.224 112.389 410.606 114.392C409.989 116.395 411.032 116.656 411.91 116.258C412.404 116.038 412.884 115.146 413.405 114.2C413.661 114.677 413.95 115.135 414.27 115.572L415.957 117.89C416.31 118.371 416.831 118.7 417.416 118.812C418.002 118.924 418.608 118.811 419.113 118.494L420.979 117.3C421.415 117.002 421.738 116.563 421.892 116.057C422.047 115.551 422.025 115.007 421.829 114.515Z" fill="#7FA6FE"/>
<path opacity="0.6" d="M421.829 114.515L420.663 111.593C420.663 111.593 420.018 107.861 417.7 106.818L410.84 107.902L411.073 108.506C411.704 109.878 411.224 112.389 410.606 114.392C409.989 116.395 411.032 116.656 411.91 116.258C412.404 116.038 412.884 115.146 413.405 114.2C413.661 114.677 413.95 115.135 414.27 115.572L415.957 117.89C416.31 118.371 416.831 118.7 417.416 118.812C418.002 118.924 418.608 118.811 419.113 118.494L420.979 117.3C421.415 117.002 421.738 116.563 421.892 116.057C422.047 115.551 422.025 115.007 421.829 114.515Z" fill="white"/>
<path opacity="0.3" d="M377.253 87.5137L375.579 87.6509L365.303 112.457C365.865 112.497 366.429 112.451 366.977 112.319C366.977 112.319 380.368 107.325 384.415 105.459C381.698 99.848 377.253 87.5137 377.253 87.5137Z" fill="#7FA6FE"/>
<path d="M358.498 94.0174C359.747 100.502 362.065 106.733 365.358 112.457C370.38 110.728 378.749 107.463 382.81 105.597C380.08 99.7454 377.658 93.7554 375.552 87.6514C371.258 87.9395 361.832 91.5478 358.498 94.0174Z" fill="white"/>
<path opacity="0.3" d="M368.692 99.3818C368.491 100.053 368.096 100.649 367.557 101.095C367.017 101.542 366.357 101.818 365.661 101.889C364.964 101.961 364.262 101.824 363.643 101.496C363.024 101.168 362.517 100.664 362.184 100.047C361.852 99.4308 361.71 98.7297 361.777 98.0325C361.843 97.3354 362.115 96.6736 362.557 96.1309C363 95.5882 363.593 95.1889 364.263 94.9836C364.932 94.7784 365.648 94.7763 366.318 94.9776C367.217 95.2474 367.972 95.8628 368.417 96.6885C368.862 97.5143 368.961 98.483 368.692 99.3818Z" fill="#7FA6FE"/>
<path opacity="0.6" d="M371.312 94.6618C371.259 94.8908 371.137 95.0983 370.964 95.2571C370.79 95.4158 370.573 95.5184 370.34 95.5514C370.107 95.5843 369.87 95.5461 369.659 95.4417C369.448 95.3373 369.274 95.1717 369.159 94.9665C369.044 94.7613 368.994 94.5261 369.015 94.2919C369.036 94.0577 369.128 93.8353 369.278 93.654C369.427 93.4727 369.628 93.3409 369.854 93.2759C370.08 93.2109 370.321 93.2158 370.544 93.2898C370.822 93.3787 371.056 93.5698 371.199 93.8244C371.341 94.0791 371.382 94.3784 371.312 94.6618Z" fill="#7FA6FE"/>
<path opacity="0.6" d="M374.386 93.4687C374.353 93.6278 374.288 93.7785 374.195 93.911C374.101 94.0436 373.98 94.1551 373.841 94.2384C373.702 94.3217 373.546 94.375 373.385 94.3948C373.224 94.4147 373.06 94.4006 372.905 94.3536C372.75 94.3066 372.606 94.2277 372.483 94.1218C372.359 94.016 372.26 93.8856 372.19 93.739C372.12 93.5924 372.082 93.4328 372.077 93.2705C372.072 93.1082 372.102 92.9467 372.163 92.7964C372.207 92.6512 372.279 92.5161 372.375 92.3989C372.472 92.2816 372.59 92.1845 372.724 92.1131C372.858 92.0417 373.004 91.9975 373.155 91.9829C373.306 91.9683 373.459 91.9836 373.604 92.0281C373.897 92.117 374.144 92.3181 374.29 92.5878C374.437 92.8574 374.471 93.1739 374.386 93.4687Z" fill="#7FA6FE"/>
<path opacity="0.5" d="M378.694 104.156L366.003 109.164L365.248 106.667L377.925 101.659L378.694 104.156Z" fill="#7FA6FE"/>
<path opacity="0.15" d="M308.681 294.837C308.651 302.826 307.88 310.794 306.376 318.641C304.757 325.693 302.241 330.851 298.83 334.117C297.241 335.694 295.353 336.94 293.278 337.781C291.203 338.622 288.981 339.041 286.742 339.015C279.69 339.015 274.307 335.169 270.594 327.476C269.941 326.095 269.387 324.669 268.934 323.209C261.091 329.945 253.788 337.285 247.091 345.161L239.806 353.75C243.727 357.724 248.251 361.053 253.211 363.615C261.754 368.033 272.967 370.246 286.852 370.255C289.294 370.255 291.654 370.187 293.945 370.05C302.345 357.62 309.296 344.271 314.662 330.262L335.037 277.138L308.681 294.837Z" fill="black"/>
<path d="M125.011 367.319L149.021 391.329L216.249 327.984C193.076 319.135 148.019 344.256 125.011 367.319Z" fill="#263238"/>
<path d="M208.744 451.011C201.075 443.328 184.734 427.001 184.734 427.001L248.079 359.773C256.874 382.892 231.753 427.989 208.744 451.011Z" fill="#263238"/>
<path d="M300.641 299.68L326.832 249.177L276.329 275.396C260.107 283.809 245.129 294.428 231.821 306.952L145.728 387.996L188.027 430.294L269.071 344.201C281.6 330.891 292.224 315.908 300.641 299.68Z" fill="#7FA6FE"/>
<path opacity="0.6" d="M300.641 299.68L326.832 249.177L276.329 275.396C260.107 283.809 245.129 294.428 231.821 306.952L145.728 387.996L188.027 430.294L269.071 344.201C281.6 330.891 292.224 315.908 300.641 299.68Z" fill="white"/>
<path d="M246.858 346.85C256.633 346.85 264.557 338.926 264.557 329.151C264.557 319.376 256.633 311.452 246.858 311.452C237.083 311.452 229.159 319.376 229.159 329.151C229.159 338.926 237.083 346.85 246.858 346.85Z" fill="white"/>
<path d="M246.858 340.524C253.14 340.524 258.232 335.432 258.232 329.15C258.232 322.869 253.14 317.776 246.858 317.776C240.577 317.776 235.484 322.869 235.484 329.15C235.484 335.432 240.577 340.524 246.858 340.524Z" fill="#7FA6FE"/>
<path opacity="0.3" d="M202.337 415.093L160.916 373.673L194.832 341.76L234.25 381.191L202.337 415.093Z" fill="#7FA6FE"/>
<path d="M134.382 405.214C103.374 407.725 93.0982 427.577 89.5859 453.961C87.8023 467.42 87.0065 481.044 75.715 488.92C75.0357 489.381 74.5242 490.051 74.2572 490.827C73.9902 491.604 73.982 492.446 74.2338 493.228C74.4857 494.01 74.984 494.689 75.6542 495.164C76.3243 495.639 77.1303 495.884 77.9513 495.862C119.578 494.559 138.992 474.184 141.434 465.678C140.793 470.125 139.647 474.484 138.017 478.671C137.718 479.41 137.659 480.224 137.85 480.998C138.04 481.772 138.47 482.467 139.079 482.982C139.687 483.497 140.442 483.808 141.237 483.869C142.032 483.93 142.826 483.738 143.505 483.322C155.181 476.009 169.834 462.536 170.808 440.68C162.22 428.51 134.382 405.214 134.382 405.214Z" fill="#7FA6FE"/>
<path opacity="0.2" d="M134.382 405.214C103.374 407.725 93.0982 427.577 89.5859 453.961C87.8023 467.42 87.0065 481.044 75.715 488.92C75.0357 489.381 74.5242 490.051 74.2572 490.827C73.9902 491.604 73.982 492.446 74.2338 493.228C74.4857 494.01 74.984 494.689 75.6542 495.164C76.3243 495.639 77.1303 495.884 77.9513 495.862C119.578 494.559 138.992 474.184 141.434 465.678C140.793 470.125 139.647 474.484 138.017 478.671C137.718 479.41 137.659 480.224 137.85 480.998C138.04 481.772 138.47 482.467 139.079 482.982C139.687 483.497 140.442 483.808 141.237 483.869C142.032 483.93 142.826 483.738 143.505 483.322C155.181 476.009 169.834 462.536 170.808 440.68C162.22 428.51 134.382 405.214 134.382 405.214Z" fill="white"/>
<path d="M175.624 450.052L125.958 400.385L152.41 394.664L181.345 423.6L175.624 450.052Z" fill="#7FA6FE"/>
</svg>
