<svg width="62" height="62" viewBox="0 0 62 62" fill="none" xmlns="http://www.w3.org/2000/svg">
    <path d="M47.133 30.9829C47.133 26.2756 49.3032 22.8406 53.5159 20.1689C51.0904 16.7339 47.5159 14.9528 42.7925 14.5711C38.1968 14.1895 33.2181 17.1156 31.4308 17.1156C29.5159 17.1156 25.1755 14.6983 21.7287 14.6983C14.5798 14.8256 7.04785 20.2961 7.04785 31.619C7.04785 34.9268 7.55849 38.3618 8.83509 41.924C10.4947 46.6313 16.367 58.0813 22.4947 57.8269C25.6861 57.8269 27.984 55.5369 32.1968 55.5369C36.2819 55.5369 38.3244 57.8269 41.8989 57.8269C48.1542 57.8269 53.5159 47.3946 55.0479 42.6874C46.75 38.7435 47.133 31.2373 47.133 30.9829ZM39.984 10.1183C43.4308 6.04719 43.0479 2.23051 43.0479 0.831055C39.984 1.0855 36.4096 2.99384 34.367 5.28385C32.0691 7.82831 30.7925 11.0089 31.0479 14.4439C34.367 14.6983 37.4308 13.0444 39.984 10.1183Z" fill="#FFFFFFCC"/>
</svg>