<svg width="72" height="72" viewBox="0 0 72 72" fill="none" xmlns="http://www.w3.org/2000/svg">
<path d="M56.5836 38.0865C56.5836 32.1405 59.3222 27.8015 64.6383 24.4268C61.5775 20.0878 57.0669 17.838 51.1064 17.3559C45.307 16.8738 39.0243 20.5699 36.769 20.5699C34.3526 20.5699 28.8754 17.5166 24.5258 17.5166C15.5046 17.6773 6 24.5875 6 38.89C6 43.0683 6.64438 47.4072 8.25532 51.9069C10.3495 57.8529 17.7599 72.3161 25.4924 71.9947C29.5198 71.9947 32.4195 69.1021 37.7356 69.1021C42.8906 69.1021 45.4681 71.9947 49.9787 71.9947C57.8723 71.9947 64.6383 58.8171 66.5714 52.8711C56.1003 47.8894 56.5836 38.4079 56.5836 38.0865ZM47.5623 11.7313C51.9119 6.5888 51.4286 1.76773 51.4286 0C47.5623 0.321405 43.0517 2.73194 40.4742 5.62459C37.5745 8.83864 35.9635 12.8562 36.2857 17.1952C40.4742 17.5166 44.3404 15.4274 47.5623 11.7313Z" fill="#333333"/>
</svg>
