<svg width="32" height="32" viewBox="0 0 32 32" fill="none" xmlns="http://www.w3.org/2000/svg">
<path d="M16.9998 10.6665C16.9998 10.1142 16.5521 9.6665 15.9998 9.6665C15.4476 9.6665 14.9998 10.1142 14.9998 10.6665V14.9998H10.6665C10.1142 14.9998 9.6665 15.4476 9.6665 15.9998C9.6665 16.5521 10.1142 16.9998 10.6665 16.9998H14.9998V21.3332C14.9998 21.8855 15.4476 22.3332 15.9998 22.3332C16.5521 22.3332 16.9998 21.8855 16.9998 21.3332V16.9998H21.3332C21.8855 16.9998 22.3332 16.5521 22.3332 15.9998C22.3332 15.4476 21.8855 14.9998 21.3332 14.9998H16.9998V10.6665Z" fill="#665EBE"/>
<path fill-rule="evenodd" clip-rule="evenodd" d="M29.3332 15.9998C29.3332 23.3636 23.3636 29.3332 15.9998 29.3332C8.63604 29.3332 2.6665 23.3636 2.6665 15.9998C2.6665 8.63604 8.63604 2.6665 15.9998 2.6665C23.3636 2.6665 29.3332 8.63604 29.3332 15.9998ZM27.3332 15.9998C27.3332 22.2591 22.2591 27.3332 15.9998 27.3332C9.74061 27.3332 4.6665 22.2591 4.6665 15.9998C4.6665 9.74061 9.74061 4.6665 15.9998 4.6665C22.2591 4.6665 27.3332 9.74061 27.3332 15.9998Z" fill="#665EBE"/>
</svg>
