<svg width="14" height="14" viewBox="0 0 14 14" fill="none" xmlns="http://www.w3.org/2000/svg">
<path fill-rule="evenodd" clip-rule="evenodd" d="M12.8678 10.8454L9.02185 6.99944L12.8678 3.1535C13.4124 2.60892 13.4124 1.67568 12.8678 1.1311C12.3232 0.58651 11.39 0.58651 10.8454 1.1311L6.99944 4.97703L3.1535 1.1311C2.60892 0.58651 1.67568 0.58651 1.1311 1.1311C0.58651 1.67568 0.58651 2.60892 1.1311 3.1535L4.97703 6.99944L1.1311 10.8454C0.58651 11.39 0.58651 12.3232 1.1311 12.8678C1.67568 13.4124 2.60892 13.4124 3.1535 12.8678L6.99944 9.02185L10.8454 12.8678C11.39 13.4124 12.3232 13.4124 12.8678 12.8678C13.4124 12.3232 13.4124 11.39 12.8678 10.8454ZM12.4637 2.74944L8.21373 6.99944L12.4637 11.2494C12.7852 11.5709 12.7852 12.1423 12.4637 12.4637C12.4378 12.4896 12.4103 12.5134 12.3814 12.5352C12.4099 12.5137 12.437 12.4901 12.4626 12.4646C12.784 12.1431 12.784 11.5717 12.4626 11.2503L8.21261 7.00028L12.4626 2.75028C12.784 2.42885 12.784 1.85742 12.4626 1.53599C12.1671 1.24047 11.6602 1.21665 11.3307 1.46454C11.6602 1.21576 12.1679 1.2393 12.4637 1.53516C12.7852 1.85658 12.7852 2.42801 12.4637 2.74944ZM6.99846 8.2147L6.99833 8.21456L2.74833 12.4646C2.72275 12.4901 2.6956 12.5137 2.66711 12.5352C2.69601 12.5134 2.72354 12.4896 2.74944 12.4637L6.99846 8.2147ZM1.61753 1.46367C1.94714 1.21671 2.45315 1.24082 2.74833 1.53599L6.99833 5.78599L6.9993 5.78502L2.74944 1.53516C2.45393 1.23965 1.94711 1.21582 1.61753 1.46367Z" fill="#374151"/>
</svg>
