<svg width="586" height="250" viewBox="0 0 586 250" fill="none" xmlns="http://www.w3.org/2000/svg">
<rect x="131" y="52" width="174" height="174" rx="87" fill="#E9EEF7" fill-opacity="0.05"/>
<rect x="131" y="52" width="174" height="174" rx="87" fill="url(#paint0_linear_18_20444)" fill-opacity="0.05"/>
<path d="M177.094 141.438C177.094 139.312 178.344 137.844 180.719 137.375C184.656 136.688 186.25 134.719 186.25 129.844V121.875C186.25 112.906 190.375 108.75 199.094 108.75C199.875 108.75 200.531 108.844 201.094 109.031C202.562 109.5 203.281 110.469 203.281 111.781C203.281 113.156 202.656 114 201.5 114.375C201.156 114.5 200.688 114.594 200.188 114.625C195.188 115 193.344 117.125 193.344 122.688V132.344C193.344 137.719 190.312 140.812 185.188 141.344C184.969 141.344 184.969 141.625 185.188 141.625C190.312 142.156 193.344 145.25 193.344 150.625V160.281C193.344 165.812 195.188 167.969 200.188 168.375C200.594 168.406 200.938 168.469 201.281 168.531C202.625 168.906 203.281 169.719 203.281 171.156C203.281 172.469 202.562 173.5 201.094 173.969C200.625 174.094 200 174.188 199.344 174.188C190.406 174.188 186.25 170.094 186.25 161.125V153.125C186.25 148.25 184.688 146.25 180.719 145.562C178.344 145.125 177.094 143.625 177.094 141.438ZM258.906 141.438C258.906 143.625 257.656 145.125 255.281 145.562C251.312 146.25 249.75 148.25 249.75 153.125V161.125C249.75 170.094 245.625 174.188 236.656 174.188C236.031 174.188 235.375 174.094 234.906 173.969C233.438 173.5 232.719 172.469 232.719 171.156C232.719 169.719 233.375 168.906 234.719 168.531C235.062 168.469 235.406 168.406 235.812 168.375C240.812 167.969 242.656 165.812 242.656 160.281V150.625C242.656 145.25 245.688 142.156 250.812 141.625C251.031 141.625 251.031 141.344 250.812 141.344C245.688 140.812 242.656 137.719 242.656 132.344V122.688C242.656 117.125 240.812 115 235.812 114.625C235.312 114.594 234.844 114.5 234.5 114.375C233.344 114 232.719 113.156 232.719 111.781C232.719 110.469 233.438 109.5 234.906 109.031C235.469 108.844 236.125 108.75 236.906 108.75C245.625 108.75 249.75 112.906 249.75 121.875V129.844C249.75 134.719 251.344 136.688 255.281 137.375C257.656 137.844 258.906 139.312 258.906 141.438ZM203.469 146.125C200.875 146.125 198.75 144 198.75 141.406C198.75 138.844 200.875 136.719 203.469 136.719C206 136.719 208.156 138.844 208.156 141.406C208.156 144 206.031 146.125 203.469 146.125ZM218.125 146.125C215.531 146.125 213.438 144 213.438 141.406C213.438 138.844 215.531 136.719 218.125 136.719C220.688 136.719 222.812 138.844 222.812 141.406C222.812 144 220.688 146.125 218.125 146.125ZM232.781 146.125C230.188 146.125 228.094 144 228.094 141.406C228.094 138.844 230.188 136.719 232.781 136.719C235.344 136.719 237.469 138.844 237.469 141.406C237.469 144 235.344 146.125 232.781 146.125Z" fill="white" fill-opacity="0.5"/>
<circle cx="368" cy="139" r="88" fill="#191919" stroke="#191919" stroke-width="2"/>
<path fill-rule="evenodd" clip-rule="evenodd" d="M368.072 52C319.923 52 281 90.9686 281 139.178C281 177.714 305.94 210.335 340.537 221.88C344.863 222.748 346.447 220.004 346.447 217.696C346.447 215.675 346.305 208.748 346.305 201.53C322.084 206.727 317.04 191.137 317.04 191.137C313.147 181.034 307.38 178.437 307.38 178.437C299.452 173.097 307.957 173.097 307.957 173.097C316.751 173.674 321.365 182.045 321.365 182.045C329.149 195.323 341.691 191.571 346.736 189.262C347.456 183.632 349.764 179.735 352.215 177.571C332.897 175.55 312.571 168.045 312.571 134.559C312.571 125.032 316.029 117.239 321.508 111.177C320.643 109.013 317.615 100.062 322.374 88.0831C322.374 88.0831 329.726 85.7734 346.303 97.0317C353.4 95.1235 360.72 94.1527 368.072 94.1445C375.424 94.1445 382.918 95.1559 389.839 97.0317C406.418 85.7734 413.77 88.0831 413.77 88.0831C418.529 100.062 415.499 109.013 414.634 111.177C420.257 117.239 423.572 125.032 423.572 134.559C423.572 168.045 403.247 175.405 383.785 177.571C386.957 180.313 389.695 185.508 389.695 193.736C389.695 205.426 389.552 214.809 389.552 217.694C389.552 220.004 391.138 222.748 395.462 221.882C430.06 210.333 455 177.714 455 139.178C455.142 90.9686 416.076 52 368.072 52Z" fill="#282828"/>
<defs>
<linearGradient id="paint0_linear_18_20444" x1="-31.9524" y1="32.6667" x2="142.285" y2="-133.506" gradientUnits="userSpaceOnUse">
<stop stop-color="#808080" stop-opacity="0.8"/>
<stop offset="0.175288" stop-color="#808080" stop-opacity="0.5"/>
<stop offset="0.553328" stop-color="#808080" stop-opacity="0.8"/>
<stop offset="0.897554" stop-color="#808080" stop-opacity="0.5"/>
<stop offset="1" stop-color="#808080" stop-opacity="0.8"/>
</linearGradient>
</defs>
</svg>
