<svg width="109" height="32" viewBox="0 0 109 32" fill="none" xmlns="http://www.w3.org/2000/svg">
<path opacity="0.8" d="M107.456 12.7191C107.4 12.8171 107.34 12.8894 107.274 12.9361C107.214 12.9781 107.137 12.9991 107.043 12.9991C106.945 12.9991 106.838 12.9641 106.721 12.8941C106.609 12.8194 106.474 12.7378 106.315 12.6491C106.157 12.5604 105.97 12.4811 105.755 12.4111C105.545 12.3364 105.296 12.2991 105.006 12.2991C104.745 12.2991 104.516 12.3318 104.32 12.3971C104.124 12.4578 103.959 12.5441 103.823 12.6561C103.693 12.7681 103.595 12.9034 103.529 13.0621C103.464 13.2161 103.431 13.3864 103.431 13.5731C103.431 13.8111 103.497 14.0094 103.627 14.1681C103.763 14.3268 103.94 14.4621 104.159 14.5741C104.379 14.6861 104.628 14.7864 104.908 14.8751C105.188 14.9638 105.475 15.0594 105.769 15.1621C106.063 15.2601 106.35 15.3768 106.63 15.5121C106.91 15.6428 107.16 15.8108 107.379 16.0161C107.599 16.2168 107.774 16.4641 107.904 16.7581C108.04 17.0521 108.107 17.4091 108.107 17.8291C108.107 18.2864 108.028 18.7158 107.869 19.1171C107.715 19.5138 107.487 19.8614 107.183 20.1601C106.885 20.4541 106.518 20.6874 106.084 20.8601C105.65 21.0281 105.153 21.1121 104.593 21.1121C104.271 21.1121 103.954 21.0794 103.641 21.0141C103.329 20.9534 103.028 20.8648 102.738 20.7481C102.454 20.6314 102.185 20.4914 101.933 20.3281C101.681 20.1648 101.457 19.9828 101.261 19.7821L101.814 18.8791C101.861 18.8138 101.922 18.7601 101.996 18.7181C102.071 18.6714 102.15 18.6481 102.234 18.6481C102.351 18.6481 102.477 18.6971 102.612 18.7951C102.748 18.8884 102.909 18.9934 103.095 19.1101C103.282 19.2268 103.499 19.3341 103.746 19.4321C103.998 19.5254 104.299 19.5721 104.649 19.5721C105.186 19.5721 105.601 19.4461 105.895 19.1941C106.189 18.9374 106.336 18.5711 106.336 18.0951C106.336 17.8291 106.269 17.6121 106.133 17.4441C106.003 17.2761 105.828 17.1361 105.608 17.0241C105.389 16.9074 105.139 16.8094 104.859 16.7301C104.579 16.6508 104.295 16.5644 104.005 16.4711C103.716 16.3778 103.431 16.2658 103.151 16.1351C102.871 16.0044 102.622 15.8341 102.402 15.6241C102.183 15.4141 102.006 15.1528 101.87 14.8401C101.74 14.5228 101.674 14.1331 101.674 13.6711C101.674 13.3024 101.747 12.9431 101.891 12.5931C102.041 12.2431 102.255 11.9328 102.535 11.6621C102.815 11.3914 103.161 11.1744 103.571 11.0111C103.982 10.8478 104.453 10.7661 104.985 10.7661C105.583 10.7661 106.133 10.8594 106.637 11.0461C107.141 11.2328 107.571 11.4941 107.925 11.8301L107.456 12.7191Z" fill="white"/>
<path opacity="0.8" d="M99.7729 12.7191C99.7169 12.8171 99.6562 12.8894 99.5909 12.9361C99.5302 12.9781 99.4532 12.9991 99.3599 12.9991C99.2619 12.9991 99.1546 12.9641 99.0379 12.8941C98.9259 12.8194 98.7905 12.7378 98.6319 12.6491C98.4732 12.5604 98.2866 12.4811 98.0719 12.4111C97.8619 12.3364 97.6122 12.2991 97.3229 12.2991C97.0616 12.2991 96.8329 12.3318 96.6369 12.3971C96.4409 12.4578 96.2752 12.5441 96.1399 12.6561C96.0092 12.7681 95.9112 12.9034 95.8459 13.0621C95.7805 13.2161 95.7479 13.3864 95.7479 13.5731C95.7479 13.8111 95.8132 14.0094 95.9439 14.1681C96.0792 14.3268 96.2566 14.4621 96.4759 14.5741C96.6952 14.6861 96.9449 14.7864 97.2249 14.8751C97.5049 14.9638 97.7919 15.0594 98.0859 15.1621C98.3799 15.2601 98.6669 15.3768 98.9469 15.5121C99.2269 15.6428 99.4765 15.8108 99.6959 16.0161C99.9152 16.2168 100.09 16.4641 100.221 16.7581C100.356 17.0521 100.424 17.4091 100.424 17.8291C100.424 18.2864 100.345 18.7158 100.186 19.1171C100.032 19.5138 99.8032 19.8614 99.4999 20.1601C99.2012 20.4541 98.8349 20.6874 98.4009 20.8601C97.9669 21.0281 97.4699 21.1121 96.9099 21.1121C96.5879 21.1121 96.2705 21.0794 95.9579 21.0141C95.6452 20.9534 95.3442 20.8648 95.0549 20.7481C94.7702 20.6314 94.5019 20.4914 94.2499 20.3281C93.9979 20.1648 93.7739 19.9828 93.5779 19.7821L94.1309 18.8791C94.1775 18.8138 94.2382 18.7601 94.3129 18.7181C94.3875 18.6714 94.4669 18.6481 94.5509 18.6481C94.6675 18.6481 94.7935 18.6971 94.9289 18.7951C95.0642 18.8884 95.2252 18.9934 95.4119 19.1101C95.5986 19.2268 95.8155 19.3341 96.0629 19.4321C96.3149 19.5254 96.6159 19.5721 96.9659 19.5721C97.5025 19.5721 97.9179 19.4461 98.2119 19.1941C98.5059 18.9374 98.6529 18.5711 98.6529 18.0951C98.6529 17.8291 98.5852 17.6121 98.4499 17.4441C98.3192 17.2761 98.1442 17.1361 97.9249 17.0241C97.7055 16.9074 97.4559 16.8094 97.1759 16.7301C96.8959 16.6508 96.6112 16.5644 96.3219 16.4711C96.0326 16.3778 95.7479 16.2658 95.4679 16.1351C95.1879 16.0044 94.9382 15.8341 94.7189 15.6241C94.4996 15.4141 94.3222 15.1528 94.1869 14.8401C94.0562 14.5228 93.9909 14.1331 93.9909 13.6711C93.9909 13.3024 94.0632 12.9431 94.2079 12.5931C94.3572 12.2431 94.5719 11.9328 94.8519 11.6621C95.1319 11.3914 95.4772 11.1744 95.8879 11.0111C96.2985 10.8478 96.7699 10.7661 97.3019 10.7661C97.8992 10.7661 98.4499 10.8594 98.9539 11.0461C99.4579 11.2328 99.8872 11.4941 100.242 11.8301L99.7729 12.7191Z" fill="white"/>
<path opacity="0.8" d="M90.0103 17.1779L88.7783 13.8109C88.7176 13.6616 88.6546 13.4843 88.5893 13.2789C88.5239 13.0736 88.4586 12.8519 88.3933 12.6139C88.3326 12.8519 88.2696 13.0759 88.2043 13.2859C88.1389 13.4913 88.0759 13.6709 88.0153 13.8249L86.7903 17.1779H90.0103ZM93.3353 20.9999H91.8793C91.7159 20.9999 91.5829 20.9603 91.4803 20.8809C91.3776 20.7969 91.3006 20.6943 91.2493 20.5729L90.4933 18.5079H86.3003L85.5443 20.5729C85.5069 20.6803 85.4346 20.7783 85.3273 20.8669C85.2199 20.9556 85.0869 20.9999 84.9283 20.9999H83.4583L87.4413 10.8779H89.3593L93.3353 20.9999Z" fill="white"/>
<path opacity="0.8" d="M79.9952 15.9669C80.3405 15.9669 80.6415 15.9249 80.8982 15.8409C81.1549 15.7523 81.3672 15.6286 81.5352 15.4699C81.7079 15.3066 81.8362 15.1106 81.9202 14.8819C82.0042 14.6486 82.0462 14.3896 82.0462 14.1049C82.0462 13.8343 82.0042 13.5893 81.9202 13.3699C81.8362 13.1506 81.7102 12.9639 81.5422 12.8099C81.3742 12.6559 81.1619 12.5393 80.9052 12.4599C80.6485 12.3759 80.3452 12.3339 79.9952 12.3339H78.5882V15.9669H79.9952ZM79.9952 10.8779C80.6719 10.8779 81.2575 10.9573 81.7522 11.1159C82.2469 11.2746 82.6552 11.4963 82.9772 11.7809C83.2992 12.0656 83.5372 12.4063 83.6912 12.8029C83.8499 13.1996 83.9292 13.6336 83.9292 14.1049C83.9292 14.5949 83.8475 15.0453 83.6842 15.4559C83.5209 15.8619 83.2759 16.2119 82.9492 16.5059C82.6225 16.7999 82.2119 17.0286 81.7172 17.1919C81.2272 17.3553 80.6532 17.4369 79.9952 17.4369H78.5882V20.9999H76.7052V10.8779H79.9952Z" fill="white"/>
<path opacity="0.8" d="M74.4468 10.8779V20.9999H72.7878V14.4619C72.7878 14.2006 72.8018 13.9183 72.8298 13.6149L69.7708 19.3619C69.6262 19.6373 69.4045 19.7749 69.1058 19.7749H68.8398C68.5412 19.7749 68.3195 19.6373 68.1748 19.3619L65.0808 13.5939C65.0948 13.7479 65.1065 13.8996 65.1158 14.0489C65.1252 14.1983 65.1298 14.3359 65.1298 14.4619V20.9999H63.4708V10.8779H64.8918C64.9758 10.8779 65.0482 10.8803 65.1088 10.8849C65.1695 10.8896 65.2232 10.9013 65.2698 10.9199C65.3212 10.9386 65.3655 10.9689 65.4028 11.0109C65.4448 11.0529 65.4845 11.1089 65.5218 11.1789L68.5528 16.7999C68.6322 16.9493 68.7045 17.1033 68.7698 17.2619C68.8398 17.4206 68.9075 17.5839 68.9728 17.7519C69.0382 17.5793 69.1058 17.4136 69.1758 17.2549C69.2458 17.0916 69.3205 16.9353 69.3998 16.7859L72.3888 11.1789C72.4262 11.1089 72.4658 11.0529 72.5078 11.0109C72.5498 10.9689 72.5942 10.9386 72.6408 10.9199C72.6922 10.9013 72.7482 10.8896 72.8088 10.8849C72.8695 10.8803 72.9418 10.8779 73.0258 10.8779H74.4468Z" fill="white"/>
<path opacity="0.8" d="M61.8171 15.9391C61.8171 16.6811 61.6935 17.3694 61.4461 18.0041C61.2035 18.6341 60.8581 19.1801 60.4101 19.6421C59.9621 20.1041 59.4231 20.4658 58.7931 20.7271C58.1631 20.9838 57.4631 21.1121 56.6931 21.1121C55.9278 21.1121 55.2301 20.9838 54.6001 20.7271C53.9701 20.4658 53.4288 20.1041 52.9761 19.6421C52.5281 19.1801 52.1805 18.6341 51.9331 18.0041C51.6858 17.3694 51.5621 16.6811 51.5621 15.9391C51.5621 15.1971 51.6858 14.5111 51.9331 13.8811C52.1805 13.2464 52.5281 12.6981 52.9761 12.2361C53.4288 11.7741 53.9701 11.4148 54.6001 11.1581C55.2301 10.8968 55.9278 10.7661 56.6931 10.7661C57.2065 10.7661 57.6895 10.8268 58.1421 10.9481C58.5948 11.0648 59.0101 11.2328 59.3881 11.4521C59.7661 11.6668 60.1045 11.9304 60.4031 12.2431C60.7065 12.5511 60.9631 12.8964 61.1731 13.2791C61.3831 13.6618 61.5418 14.0771 61.6491 14.5251C61.7611 14.9731 61.8171 15.4444 61.8171 15.9391ZM59.8921 15.9391C59.8921 15.3838 59.8175 14.8868 59.6681 14.4481C59.5188 14.0048 59.3065 13.6291 59.0311 13.3211C58.7558 13.0131 58.4198 12.7774 58.0231 12.6141C57.6311 12.4508 57.1878 12.3691 56.6931 12.3691C56.1985 12.3691 55.7528 12.4508 55.3561 12.6141C54.9641 12.7774 54.6281 13.0131 54.3481 13.3211C54.0728 13.6291 53.8605 14.0048 53.7111 14.4481C53.5618 14.8868 53.4871 15.3838 53.4871 15.9391C53.4871 16.4944 53.5618 16.9938 53.7111 17.4371C53.8605 17.8758 54.0728 18.2491 54.3481 18.5571C54.6281 18.8604 54.9641 19.0938 55.3561 19.2571C55.7528 19.4204 56.1985 19.5021 56.6931 19.5021C57.1878 19.5021 57.6311 19.4204 58.0231 19.2571C58.4198 19.0938 58.7558 18.8604 59.0311 18.5571C59.3065 18.2491 59.5188 17.8758 59.6681 17.4371C59.8175 16.9938 59.8921 16.4944 59.8921 15.9391Z" fill="white"/>
<path opacity="0.8" d="M50.0781 18.6131C50.1807 18.6131 50.2717 18.6528 50.3511 18.7321L51.0931 19.5371C50.6824 20.0458 50.1761 20.4354 49.5741 20.7061C48.9767 20.9768 48.2581 21.1121 47.4181 21.1121C46.6667 21.1121 45.9901 20.9838 45.3881 20.7271C44.7907 20.4704 44.2797 20.1134 43.8551 19.6561C43.4304 19.1988 43.1037 18.6528 42.8751 18.0181C42.6511 17.3834 42.5391 16.6904 42.5391 15.9391C42.5391 15.1784 42.6604 14.4831 42.9031 13.8531C43.1457 13.2184 43.4864 12.6724 43.9251 12.2151C44.3684 11.7578 44.8957 11.4031 45.5071 11.1511C46.1184 10.8944 46.7951 10.7661 47.5371 10.7661C48.2744 10.7661 48.9277 10.8874 49.4971 11.1301C50.0711 11.3728 50.5587 11.6901 50.9601 12.0821L50.3301 12.9571C50.2927 13.0131 50.2437 13.0621 50.1831 13.1041C50.1271 13.1461 50.0477 13.1671 49.9451 13.1671C49.8751 13.1671 49.8027 13.1484 49.7281 13.1111C49.6534 13.0691 49.5717 13.0201 49.4831 12.9641C49.3944 12.9034 49.2917 12.8381 49.1751 12.7681C49.0584 12.6981 48.9231 12.6351 48.7691 12.5791C48.6151 12.5184 48.4354 12.4694 48.2301 12.4321C48.0294 12.3901 47.7961 12.3691 47.5301 12.3691C47.0774 12.3691 46.6621 12.4508 46.2841 12.6141C45.9107 12.7728 45.5887 13.0061 45.3181 13.3141C45.0474 13.6174 44.8374 13.9908 44.6881 14.4341C44.5387 14.8728 44.4641 15.3744 44.4641 15.9391C44.4641 16.5084 44.5434 17.0148 44.7021 17.4581C44.8654 17.9014 45.0847 18.2748 45.3601 18.5781C45.6354 18.8814 45.9597 19.1148 46.3331 19.2781C46.7064 19.4368 47.1077 19.5161 47.5371 19.5161C47.7937 19.5161 48.0247 19.5021 48.2301 19.4741C48.4401 19.4461 48.6314 19.4018 48.8041 19.3411C48.9814 19.2804 49.1471 19.2034 49.3011 19.1101C49.4597 19.0121 49.6161 18.8931 49.7701 18.7531C49.8167 18.7111 49.8657 18.6784 49.9171 18.6551C49.9684 18.6271 50.0221 18.6131 50.0781 18.6131Z" fill="white"/>
<path fill-rule="evenodd" clip-rule="evenodd" d="M14.9179 6.3552L8.06773 25.6991C7.69624 26.7482 8.93253 27.6354 9.83719 26.969L15.3126 22.9355C15.72 22.6354 16.28 22.6354 16.6874 22.9355L22.1628 26.969C23.0675 27.6354 24.3038 26.7482 23.9323 25.6991L17.0821 6.3552C16.7253 5.34775 15.2747 5.34774 14.9179 6.3552Z" fill="url(#paint0_linear_3179_20728)"/>
<defs>
<linearGradient id="paint0_linear_3179_20728" x1="16" y1="5.59961" x2="16" y2="27.1996" gradientUnits="userSpaceOnUse">
<stop stop-color="#FD5A09"/>
<stop offset="1" stop-color="#F33202"/>
</linearGradient>
</defs>
</svg>
