<svg width="46" height="46" viewBox="0 0 46 46" fill="none" xmlns="http://www.w3.org/2000/svg">
<rect width="46" height="46" fill="white"/>
<path d="M12.3131 8.60693C11.9206 9.07519 11.7222 9.67448 11.758 10.283V36.7191C11.7242 37.3274 11.9224 37.926 12.3131 38.3952L12.4039 38.4855L27.2886 23.6717V23.3204L12.4039 8.5166L12.3131 8.60693Z" fill="url(#paint0_linear_8049_38720)"/>
<path d="M32.252 28.6097L27.2871 23.6718V23.3205L32.252 18.3926L32.363 18.4528L38.2463 21.7749C39.9315 22.7183 39.9315 24.274 38.2463 25.2274L32.363 28.5495L32.252 28.6097Z" fill="url(#paint1_linear_8049_38720)"/>
<path d="M32.364 28.5495L27.3183 23.5312L12.3125 38.3953C12.6584 38.6781 13.089 38.8385 13.5366 38.8512C13.9842 38.8639 14.4233 38.7283 14.7849 38.4655L32.3337 28.5495" fill="url(#paint2_linear_8049_38720)"/>
<path d="M32.364 18.453L14.7849 8.52688C14.4272 8.25339 13.9851 8.11188 13.5342 8.12652C13.0833 8.14116 12.6515 8.31105 12.3125 8.60717L27.288 23.5013L32.364 18.453Z" fill="url(#paint3_linear_8049_38720)"/>
<path opacity="0.1" d="M32.2539 28.439L14.7859 38.2948C14.4374 38.553 14.0145 38.6925 13.5799 38.6925C13.1454 38.6925 12.7225 38.553 12.374 38.2948L12.2832 38.3851L12.374 38.4754C12.7225 38.7337 13.1454 38.8732 13.5799 38.8732C14.0145 38.8732 14.4374 38.7337 14.7859 38.4754L32.3347 28.5594L32.2539 28.439Z" fill="black"/>
<path opacity="0.07" d="M12.3128 38.235C11.9215 37.7621 11.7233 37.1602 11.7577 36.5488V36.7194C11.7239 37.3277 11.9221 37.9263 12.3128 38.3955L12.4036 38.3052L12.3128 38.235Z" fill="black"/>
<path opacity="0.07" d="M38.2482 25.0477L32.2539 28.44L32.3649 28.5504L38.2482 25.1882C38.5932 25.0373 38.8919 24.7979 39.1135 24.4946C39.3351 24.1913 39.4718 23.835 39.5096 23.4619C39.4407 23.8067 39.2904 24.1304 39.0711 24.4061C38.8518 24.6818 38.5697 24.9017 38.2482 25.0477Z" fill="black"/>
<path opacity="0.3" d="M14.7852 8.7083L38.2475 21.9464C38.566 22.0888 38.8462 22.3039 39.0653 22.5742C39.2845 22.8445 39.4365 23.1624 39.509 23.5021C39.4732 23.1284 39.3373 22.7711 39.1155 22.4675C38.8936 22.1638 38.5939 21.925 38.2475 21.7758L14.7852 8.52765C13.1302 7.58422 11.7578 8.36706 11.7578 10.284V10.4547C11.7578 8.54772 13.1302 7.75484 14.7852 8.7083Z" fill="white"/>
<defs>
<linearGradient id="paint0_linear_8049_38720" x1="25.9767" y1="10.002" x2="5.91408" y2="30.1743" gradientUnits="userSpaceOnUse">
<stop stop-color="#008EFF"/>
<stop offset="0.01" stop-color="#008FFF"/>
<stop offset="0.26" stop-color="#00ACFF"/>
<stop offset="0.51" stop-color="#00C0FF"/>
<stop offset="0.76" stop-color="#00CDFF"/>
<stop offset="1" stop-color="#00D1FF"/>
</linearGradient>
<linearGradient id="paint1_linear_8049_38720" x1="38.4481" y1="23.5011" x2="9.36492" y2="23.5011" gradientUnits="userSpaceOnUse">
<stop stop-color="#FFD800"/>
<stop offset="1" stop-color="#FF8A00"/>
</linearGradient>
<linearGradient id="paint2_linear_8049_38720" x1="29.609" y1="26.2411" x2="2.41057" y2="53.5882" gradientUnits="userSpaceOnUse">
<stop stop-color="#FF3A44"/>
<stop offset="1" stop-color="#B11162"/>
</linearGradient>
<linearGradient id="paint3_linear_8049_38720" x1="8.53834" y1="-0.194826" x2="20.6924" y2="12.0156" gradientUnits="userSpaceOnUse">
<stop stop-color="#328E71"/>
<stop offset="0.07" stop-color="#2D9571"/>
<stop offset="0.48" stop-color="#15BD74"/>
<stop offset="0.8" stop-color="#06D575"/>
<stop offset="1" stop-color="#00DE76"/>
</linearGradient>
</defs>
</svg>
