<svg width="50" height="50" viewBox="0 0 50 50" fill="none" xmlns="http://www.w3.org/2000/svg">
<g clip-path="url(#clip0_2119_3948)">
<path opacity="0.08" d="M50 25C50 38.8071 38.8071 50 25 50C11.1929 50 0 38.8071 0 25C0 11.1929 11.1929 0 25 0C38.8071 0 50 11.1929 50 25Z" fill="#677380"/>
<path d="M14.666 32.6348C13.1299 32.6348 12.1953 31.7002 12.1953 30.1533V17.2734C12.1953 15.7266 13.1299 14.8027 14.666 14.8027H35.3232C36.8701 14.8027 37.8047 15.7266 37.8047 17.2734V30.1533C37.8047 31.7002 36.8701 32.6348 35.3232 32.6348H28.3945V34.708H28.459C28.9316 34.708 29.3184 35.0947 29.3184 35.5781C29.3184 36.0615 28.9316 36.4482 28.459 36.4482H21.541C21.0684 36.4482 20.6709 36.0615 20.6709 35.5781C20.6709 35.0947 21.0684 34.708 21.541 34.708H21.6055V32.6348H14.666ZM14.3867 27.8975H35.6025C35.9248 27.8975 36.0752 27.7793 36.0752 27.4355V17.3057C36.0752 16.8223 35.7744 16.5322 35.3018 16.5322H14.6982C14.2256 16.5322 13.9248 16.8223 13.9248 17.3057V27.4355C13.9248 27.7793 14.0645 27.8975 14.3867 27.8975Z" fill="#677380"/>
</g>
<defs>
<clipPath id="clip0_2119_3948">
<rect width="50" height="50" fill="white"/>
</clipPath>
</defs>
</svg>
