<svg width="63" height="63" viewBox="0 0 63 63" fill="none" xmlns="http://www.w3.org/2000/svg">
<g clip-path="url(#clip0_594_42777)">
<path d="M28.9634 14.6097C29.1701 14.5322 29.4542 14.5063 29.6351 14.6097C29.6867 14.6355 29.7384 14.6872 29.7126 14.7388V14.7905H29.7384C29.6867 14.9455 29.4284 14.9197 29.2992 14.9713C29.1701 15.023 29.0667 15.1522 28.9376 15.1522C28.8084 15.1522 28.6017 15.1005 28.5759 14.9713C28.5501 14.7905 28.8084 14.6097 28.9634 14.6097ZM31.5984 14.9713C31.4692 14.9197 31.2109 14.9455 31.1851 14.7905V14.7388C31.1592 14.6872 31.2109 14.6355 31.2367 14.6097C31.4604 14.5192 31.7105 14.5192 31.9342 14.6097C32.0892 14.6097 32.3476 14.7905 32.3217 14.9713C32.2959 15.1005 32.0892 15.1263 31.9601 15.1263C31.8309 15.1263 31.7276 15.023 31.5984 14.9713ZM27.0517 18.7172C27.8267 19.2338 28.8342 19.9313 30.1001 19.9313C31.3659 19.9313 32.8642 19.2338 33.7684 18.7172C34.2592 18.3813 34.9309 17.8647 35.4476 17.503C35.8609 17.1672 35.8351 16.8313 36.1967 16.8313C36.5326 16.8572 36.2742 17.1672 35.8092 17.6838C35.3184 18.0197 34.5951 18.5363 34.0009 18.898C32.8642 19.4147 31.5209 20.2672 30.1001 20.2672C28.7051 20.2672 27.5684 19.5697 26.7676 19.053C26.3542 18.7172 26.0442 18.3813 25.7859 18.2005C25.3726 17.8647 25.4242 17.348 25.6051 17.348C25.8892 17.3738 25.9409 17.6838 26.1217 17.8647C26.3801 18.0197 26.6901 18.3813 27.0517 18.7172Z" fill="#F9C105"/>
<path d="M32.3217 14.9715C32.2959 15.1007 32.0892 15.1265 31.96 15.1265C31.8309 15.1265 31.7275 15.0232 31.5984 14.9715C31.4692 14.9199 31.2109 14.9457 31.185 14.7907V14.739C31.1592 14.6874 31.2109 14.6357 31.2367 14.6099C31.4604 14.5194 31.7105 14.5194 31.9342 14.6099C32.0892 14.6099 32.3475 14.7907 32.3217 14.9715Z" fill="black"/>
<path d="M42.5258 30.9106H42.5288C42.4768 30.8156 42.4241 30.7209 42.3708 30.6264C40.9758 28.0431 38.78 22.7214 37.85 19.0531C37.2816 19.8281 36.3258 20.5256 35.1116 20.8614H35.0858C34.7812 20.9584 34.4692 21.1518 34.1298 21.3621C33.8361 21.5442 33.5218 21.7389 33.1741 21.8948C32.4766 22.2564 31.6241 22.5923 30.565 22.5923C30.4616 22.5923 30.3841 22.5923 30.2808 22.5664C29.2216 22.5664 28.5241 22.2306 27.9816 21.7139C27.7087 21.545 27.4619 21.3302 27.2117 21.1125C26.9645 20.8975 26.714 20.6795 26.4316 20.4998C26.3265 20.4096 26.1339 20.2845 25.9658 20.1753C25.8448 20.0967 25.7365 20.0263 25.6825 19.9831C25.5016 23.4964 23.6416 27.6814 22.1175 30.9106C21.9563 31.2599 21.7982 31.5968 21.6464 31.9202C21.3604 32.5295 21.0969 33.091 20.8775 33.5973C19.87 35.9481 19.3016 38.4798 19.1983 41.0373C16.5375 37.5239 18.475 33.0031 19.5083 31.0656L19.5858 30.9106C20.6708 28.8698 20.8516 28.3789 20.5933 28.5598C20.18 29.2056 19.6891 30.0064 19.1725 30.9106C18.4233 32.3314 17.6483 33.9848 17.2608 35.6898C16.925 37.1364 16.8733 38.5573 17.2866 39.9523C17.4933 40.5981 17.8291 41.2181 18.32 41.8123C18.8108 42.4323 19.4566 43.0006 20.3091 43.5431C22.5308 44.9123 24.055 46.2814 24.9591 47.4698C25.8633 48.6839 26.1475 49.7948 25.8633 50.4923C25.7341 50.8539 25.4241 51.1639 25.0625 51.3448C24.7266 51.4481 24.3133 51.5256 23.8225 51.5256C24.111 51.7659 24.3557 52.0544 24.5458 52.3781C24.9591 52.7914 25.3208 53.2564 25.605 53.7473C25.8891 53.9539 26.1991 54.1348 26.5091 54.2898C29.0408 55.6848 31.7533 55.8656 34.3108 55.2714C36.2225 54.8581 38.005 54.0056 39.5808 52.8948C39.9683 51.5773 40.3558 50.2598 40.4075 49.4073C40.5108 47.5473 40.6141 45.9456 40.95 44.5764C41.2858 43.2331 41.9058 42.1998 43.0166 41.5023C43.1372 41.4851 43.2578 41.4449 43.3783 41.4047C43.4386 41.3846 43.4989 41.3645 43.5591 41.3473C43.569 41.2782 43.5751 41.2242 43.5803 41.1781C43.5887 41.1035 43.5948 41.0495 43.6108 40.9856C43.9466 38.9189 45.8583 38.7639 48.235 39.7973C50.56 40.8048 51.4125 41.7348 51.025 42.9489H51.5416V43.0523C52.0066 41.5023 51.025 40.4689 48.3125 39.0998C48.1317 39.0739 47.9508 38.9964 47.7958 38.9189C47.9508 38.2731 48.0283 37.6014 48.0283 36.9556C48.0283 36.1548 47.925 35.3539 47.7183 34.6048C47.0725 31.8664 45.3933 29.4639 43.9466 27.9656C43.7658 27.7848 43.6108 27.6298 43.43 27.4748C43.1458 27.4748 43.1716 27.8364 43.74 28.3531C43.7916 28.4048 43.8691 28.4823 43.9466 28.5339C45.2383 29.8514 47.5116 33.3648 47.0208 36.9556C46.9433 37.4981 46.8141 38.0406 46.6075 38.5831C46.1166 38.4798 45.6516 38.4023 45.2641 38.4281C44.7392 35.7975 43.8158 33.2625 42.5258 30.9106Z" fill="white"/>
<path d="M35.8608 12.1556C35.7827 11.9017 35.6751 11.7364 35.5379 11.5258C35.4936 11.4578 35.4463 11.3851 35.3958 11.3031C35.3763 11.2879 35.357 11.2728 35.3378 11.2577C35.1283 11.0932 34.935 10.9414 34.6983 10.9414H34.6466C34.4141 10.9414 34.1816 11.0189 33.975 11.3031C33.7166 11.5356 33.5358 11.8198 33.4325 12.1556C33.3033 12.4914 33.2258 12.8273 33.2 13.1889V13.2406C33.2 13.4731 33.2258 13.7056 33.2516 13.9381C33.0638 13.8724 32.8622 13.8066 32.6607 13.7408C32.308 13.6258 31.9553 13.5107 31.6758 13.3956C31.65 13.2406 31.6241 13.0598 31.6241 12.9048V12.8531C31.5983 12.1556 31.7275 11.4839 32.0116 10.8639C32.2183 10.2956 32.6058 9.80478 33.1225 9.46894C33.5875 9.13311 34.13 8.95228 34.6725 8.95228H34.7241C35.2666 8.95228 35.7575 9.13311 36.2483 9.46894C36.7391 9.83061 37.1008 10.3214 37.385 10.8639C37.6691 11.5098 37.7983 12.0264 37.8241 12.7239C37.8241 12.6981 37.8306 12.6723 37.8371 12.6464C37.8435 12.6206 37.85 12.5948 37.85 12.5689V12.8273C37.8241 12.8273 37.8241 12.8014 37.8241 12.7756C37.8241 13.3698 37.6691 13.9898 37.4366 14.5581C37.3075 14.8681 37.1266 15.1781 36.8683 15.4106C36.7908 15.3589 36.7133 15.3331 36.6358 15.3073C36.5308 15.2548 36.4257 15.2151 36.3224 15.176C36.1717 15.119 36.0246 15.0634 35.8866 14.9714C35.7068 14.8843 35.5154 14.8234 35.3183 14.7906C35.3693 14.7295 35.4403 14.6643 35.5141 14.5967C35.6272 14.4929 35.7466 14.3834 35.8091 14.2739C35.9383 13.9381 36.0158 13.6023 36.0416 13.2406V13.1889C36.0416 12.8531 35.99 12.4914 35.8608 12.1556Z" fill="white"/>
<path d="M25.1141 11.0189C25.2433 10.5023 25.5016 10.0373 25.8633 9.62395C26.1991 9.28811 26.535 9.10728 26.9483 9.10728H27.0258C27.4082 9.1128 27.7791 9.23942 28.085 9.46894C28.4725 9.80478 28.7825 10.2181 28.9891 10.6573C29.2216 11.1739 29.3508 11.6906 29.3766 12.3881C29.4025 12.5689 29.4025 12.6981 29.4025 12.8273C29.4025 12.9306 29.4025 13.0081 29.3766 13.0856V13.2923C29.3104 13.3186 29.2409 13.336 29.17 13.3439C28.8897 13.4491 28.6569 13.5779 28.4394 13.6984C28.3362 13.7555 28.2364 13.8107 28.1366 13.8606C28.1625 13.6539 28.1625 13.4214 28.1366 13.1889V13.1373C28.1157 12.8656 28.061 12.6954 27.9862 12.4625C27.9685 12.4075 27.9497 12.349 27.93 12.2848C27.8438 12.0194 27.6929 11.7797 27.4908 11.5873C27.4235 11.5299 27.3454 11.4867 27.2611 11.4601C27.1768 11.4334 27.088 11.424 27 11.4323H26.9483C26.7675 11.4323 26.6125 11.5356 26.4833 11.7681C26.3025 11.9748 26.1991 12.2073 26.1475 12.4656C26.0958 12.7498 26.07 13.0339 26.0958 13.3181V13.3698C26.1167 13.6414 26.1714 13.8117 26.2462 14.0446C26.2639 14.0996 26.2827 14.1581 26.3025 14.2223C26.4316 14.5581 26.5608 14.7389 26.7416 14.9198C26.7675 14.9456 26.7933 14.9714 26.8191 14.9714C26.7491 15.0315 26.6907 15.0721 26.6364 15.1099C26.5505 15.1697 26.475 15.2223 26.38 15.3331C26.2737 15.4185 26.1504 15.4801 26.0183 15.5139C25.76 15.1781 25.5275 14.8423 25.3208 14.4548C25.0625 13.9123 24.9333 13.3439 24.9075 12.7498C24.8558 12.1556 24.9333 11.5614 25.1141 11.0189Z" fill="white"/>
<path fill-rule="evenodd" clip-rule="evenodd" d="M45.2641 38.4281C44.7392 35.7975 43.8158 33.2625 42.5258 30.9106H42.5288C43.8175 33.2621 44.74 35.7971 45.2641 38.4281ZM43.9466 28.5339V30.9106H42.5288C42.4768 30.8156 42.4241 30.7209 42.3708 30.6264C40.9758 28.0431 38.78 22.7214 37.85 19.0531C37.2816 19.8281 36.3258 20.5256 35.1116 20.8614H35.0858C34.7812 20.9584 34.4692 21.1518 34.1298 21.3621C33.8361 21.5442 33.5218 21.7389 33.1741 21.8948C32.4766 22.2564 31.6241 22.5923 30.565 22.5923C30.4616 22.5923 30.3841 22.5923 30.2808 22.5664C29.2216 22.5664 28.5241 22.2306 27.9816 21.7139C27.7087 21.545 27.4619 21.3302 27.2117 21.1125C26.9645 20.8975 26.714 20.6795 26.4316 20.4998C26.3265 20.4096 26.1339 20.2845 25.9658 20.1753C25.8448 20.0967 25.7365 20.0263 25.6825 19.9831C25.5016 23.4964 23.6416 27.6814 22.1175 30.9106C21.9563 31.2599 21.7982 31.5968 21.6464 31.9202C21.3604 32.5295 21.0969 33.091 20.8775 33.5973C19.87 35.9481 19.3016 38.4798 19.1983 41.0373C16.5375 37.5239 18.475 33.0031 19.5083 31.0656L19.5858 30.9106C20.6708 28.8698 20.8516 28.3789 20.5933 28.5598C20.18 29.2056 19.6891 30.0064 19.1725 30.9106C18.4233 32.3314 17.6483 33.9848 17.2608 35.6898C16.925 37.1364 16.8733 38.5573 17.2866 39.9523C17.4933 40.5981 17.8291 41.2181 18.32 41.8123C18.8108 42.4323 19.4566 43.0006 20.3091 43.5431C22.5308 44.9123 24.055 46.2814 24.9591 47.4698C25.8633 48.6839 26.1475 49.7948 25.8633 50.4923C25.7341 50.8539 25.4241 51.1639 25.0625 51.3448C24.7266 51.4481 24.3133 51.5256 23.8225 51.5256C24.111 51.7659 24.3557 52.0544 24.5458 52.3781C24.9591 52.7914 25.3208 53.2564 25.605 53.7473C25.8891 53.9539 26.1991 54.1348 26.5091 54.2898C29.0408 55.6848 31.7533 55.8656 34.3108 55.2714C36.2225 54.8581 38.005 54.0056 39.5808 52.8948C39.9683 51.5773 40.3558 50.2598 40.4075 49.4073C40.5108 47.5473 40.6141 45.9456 40.95 44.5764C41.2858 43.2331 41.9058 42.1998 43.0166 41.5023C43.1372 41.4851 43.2578 41.4449 43.3783 41.4047C43.4386 41.3846 43.4989 41.3645 43.5591 41.3473C43.569 41.2782 43.5751 41.2242 43.5803 41.1781C43.5887 41.1035 43.5948 41.0495 43.6108 40.9856C43.9466 38.9189 45.8583 38.7639 48.235 39.7973C50.56 40.8048 51.4125 41.7348 51.025 42.9489H51.5416V43.0523C52.0066 41.5023 51.025 40.4689 48.3125 39.0998C48.1317 39.0739 47.9508 38.9964 47.7958 38.9189C47.9508 38.2731 48.0283 37.6014 48.0283 36.9556C48.0283 36.1548 47.925 35.3539 47.7183 34.6048C47.0725 31.8664 45.3933 29.4639 43.9466 27.9656C43.7658 27.7848 43.6108 27.6298 43.43 27.4748C43.1458 27.4748 43.1716 27.8364 43.74 28.3531C43.7916 28.4048 43.8691 28.4823 43.9466 28.5339ZM55.9592 48.8906V49.1231C57.3025 50.5956 57.8708 51.6548 57.8191 52.6881C57.7675 53.6956 57.0183 54.3931 56.1142 54.8839C55.5789 55.2051 54.9598 55.5037 54.3113 55.8164C52.769 56.5602 51.0599 57.3844 49.9142 58.7848C48.1575 60.7739 46.0133 61.9881 43.9983 62.1431C41.9833 62.2981 40.0975 61.3939 39.09 59.3789H39.0641C39.023 59.2638 38.9845 59.1696 38.9495 59.0839C38.8744 58.9003 38.8152 58.7554 38.78 58.5264C37.3004 58.6189 35.945 58.4011 34.7322 58.2061C34.5897 58.1832 34.4493 58.1607 34.3108 58.1389C33.4841 58.0356 32.735 57.9581 32.0375 58.0098C30.6504 58.0965 29.5381 58.3205 28.574 58.5148C27.8143 58.6678 27.1467 58.8023 26.5091 58.8364C26.38 58.8623 26.2766 58.8623 26.1475 58.8623C25.5275 60.1023 24.365 61.0064 22.97 61.3164C21.0325 61.8331 18.5525 61.2906 16.15 60.1023C14.6695 59.3116 12.9369 59.1125 11.3235 58.9271C10.4594 58.8278 9.62957 58.7325 8.89081 58.5523C7.83165 58.1906 6.90165 57.8548 6.43665 57.0023C5.99748 56.1239 6.07498 54.9098 6.72081 53.1531C6.91142 52.5813 6.79439 51.8117 6.65345 50.8849C6.64157 50.8068 6.62953 50.7276 6.61748 50.6473C6.53998 50.3114 6.46248 49.7689 6.46248 49.2523C6.46248 48.7356 6.56581 48.1931 6.82415 47.7023C7.30853 46.7093 8.1335 46.3521 8.91588 46.0133C8.96803 45.9907 9.01999 45.9682 9.07165 45.9456C9.25653 45.8705 9.43625 45.8031 9.60993 45.738C10.2128 45.5121 10.743 45.3134 11.1641 44.9123C11.386 44.6587 11.5992 44.3663 11.8215 44.0615C12.1427 43.6209 12.4827 43.1545 12.895 42.7423C12.9725 42.5873 13.0758 42.4839 13.1791 42.4064L13.1016 41.8123C12.9208 39.9006 13.2825 37.9114 13.9283 35.9739C14.9358 32.9773 16.6666 30.0839 18.3975 27.6556C19.3016 26.3639 20.2316 25.2273 21.0325 24.2973C22.9958 21.5331 23.5641 19.3114 23.7708 16.4956C23.7945 15.8749 23.7396 15.0552 23.6766 14.1132C23.4643 10.9388 23.159 6.3745 25.45 3.34645C26.7158 1.66728 28.7566 0.478945 32.0375 0.220612C32.062 0.219172 32.0864 0.217733 32.1107 0.216297C32.5227 0.191979 32.913 0.168945 33.3033 0.168945C36.765 0.168945 38.9608 1.46061 40.3041 3.34645C42.7059 6.65502 42.6199 11.8701 42.5606 15.4626C42.5574 15.6569 42.5543 15.8464 42.5516 16.0306C42.5258 17.9681 43.0941 19.5439 43.9466 21.0164C44.6352 22.2037 45.5202 23.3254 46.4011 24.4418C46.4786 24.5401 46.556 24.6383 46.6333 24.7364C48.4933 26.9064 50.9217 30.0839 52.3167 33.7264C52.73 34.7598 53.04 35.8448 53.2208 36.9556C53.5825 38.9964 53.505 41.1406 52.7817 43.2589C52.9571 43.2801 53.1252 43.342 53.2725 43.4398C53.3768 43.5441 53.4725 43.5968 53.5645 43.6475C53.6321 43.6848 53.6977 43.7209 53.7633 43.7756C54.59 44.4473 54.8483 45.4548 55.055 46.4881C55.2875 47.4956 55.4942 48.3481 55.9333 48.8648L55.9592 48.8906ZM35.5379 11.5258C35.6751 11.7364 35.7827 11.9017 35.8608 12.1556C35.99 12.4914 36.0416 12.8531 36.0416 13.1889V13.2406C36.0158 13.6023 35.9383 13.9381 35.8091 14.2739C35.7466 14.3834 35.6272 14.4929 35.5141 14.5967C35.4403 14.6643 35.3693 14.7295 35.3183 14.7906C35.5154 14.8234 35.7068 14.8843 35.8866 14.9714C36.0246 15.0634 36.1717 15.119 36.3224 15.176C36.4257 15.2151 36.5308 15.2548 36.6358 15.3073C36.7133 15.3331 36.7908 15.3589 36.8683 15.4106C37.1266 15.1781 37.3075 14.8681 37.4366 14.5581C37.6691 13.9898 37.8241 13.3698 37.8241 12.7756C37.8241 12.8014 37.8241 12.8273 37.85 12.8273V12.5689C37.85 12.5948 37.8435 12.6206 37.8371 12.6464C37.8306 12.6723 37.8241 12.6981 37.8241 12.7239C37.7983 12.0264 37.6691 11.5098 37.385 10.8639C37.1008 10.3214 36.7391 9.83061 36.2483 9.46894C35.7575 9.13311 35.2666 8.95228 34.7241 8.95228H34.6725C34.13 8.95228 33.5875 9.13311 33.1225 9.46894C32.6058 9.80478 32.2183 10.2956 32.0116 10.8639C31.7275 11.4839 31.5983 12.1556 31.6241 12.8531V12.9048C31.6241 13.0598 31.65 13.2406 31.6758 13.3956C31.9553 13.5107 32.308 13.6258 32.6607 13.7408C32.8622 13.8066 33.0638 13.8724 33.2516 13.9381C33.2258 13.7056 33.2 13.4731 33.2 13.2406V13.1889C33.2258 12.8273 33.3033 12.4914 33.4325 12.1556C33.5358 11.8198 33.7166 11.5356 33.975 11.3031C34.1816 11.0189 34.4141 10.9414 34.6466 10.9414H34.6983C34.935 10.9414 35.1283 11.0932 35.3378 11.2577C35.357 11.2728 35.3763 11.2879 35.3958 11.3031C35.4463 11.3851 35.4936 11.4578 35.5379 11.5258ZM25.8633 9.62395C25.5016 10.0373 25.2433 10.5023 25.1141 11.0189C24.9333 11.5614 24.8558 12.1556 24.9075 12.7498C24.9333 13.3439 25.0625 13.9123 25.3208 14.4548C25.5275 14.8423 25.76 15.1781 26.0183 15.5139C26.1504 15.4801 26.2737 15.4185 26.38 15.3331C26.475 15.2223 26.5505 15.1697 26.6364 15.1099C26.6907 15.0721 26.7491 15.0315 26.8191 14.9714C26.7933 14.9714 26.7675 14.9456 26.7416 14.9198C26.5608 14.7389 26.4316 14.5581 26.3025 14.2223C26.2827 14.1581 26.2639 14.0996 26.2462 14.0446C26.1714 13.8117 26.1167 13.6414 26.0958 13.3698V13.3181C26.07 13.0339 26.0958 12.7498 26.1475 12.4656C26.1991 12.2073 26.3025 11.9748 26.4833 11.7681C26.6125 11.5356 26.7675 11.4323 26.9483 11.4323H27C27.088 11.424 27.1768 11.4334 27.2611 11.4601C27.3454 11.4867 27.4235 11.5299 27.4908 11.5873C27.6929 11.7797 27.8438 12.0194 27.93 12.2848C27.9497 12.349 27.9685 12.4075 27.9862 12.4625C28.061 12.6954 28.1157 12.8656 28.1366 13.1373V13.1889C28.1625 13.4214 28.1625 13.6539 28.1366 13.8606C28.2364 13.8107 28.3362 13.7555 28.4394 13.6984C28.6569 13.5779 28.8897 13.4491 29.17 13.3439C29.2409 13.336 29.3104 13.3186 29.3766 13.2923V13.0856C29.4025 13.0081 29.4025 12.9306 29.4025 12.8273C29.4025 12.6981 29.4025 12.5689 29.3766 12.3881C29.3508 11.6906 29.2216 11.1739 28.9891 10.6573C28.7825 10.2181 28.4725 9.80478 28.085 9.46894C27.7791 9.23942 27.4082 9.1128 27.0258 9.10728H26.9483C26.535 9.10728 26.1991 9.28811 25.8633 9.62395ZM26.1467 15.9466C25.9348 16.103 25.6865 16.2864 25.3983 16.4698C24.8816 16.8056 24.7008 17.3223 24.8816 18.0198C25.0625 18.5106 25.6308 19.2081 26.69 19.8539C27.0892 20.0616 27.4095 20.3383 27.7179 20.6048C27.9084 20.7693 28.0944 20.93 28.2916 21.0681C28.55 21.2489 28.8341 21.4039 29.1441 21.5589C29.5118 21.7106 29.9103 21.7726 30.3066 21.7398C31.3957 21.8158 32.1869 21.4199 32.8991 21.0636L32.9416 21.0423C33.3033 20.8744 33.6327 20.6612 33.9621 20.4481C34.2914 20.235 34.6208 20.0219 34.9825 19.8539C36.4033 19.3373 37.4366 18.4848 37.7466 17.6581C37.9016 17.2706 37.9016 16.8314 37.7208 16.4439V16.8056C37.5141 16.4439 37.1266 16.1081 36.455 15.7723C36.2648 15.7018 36.0895 15.6376 35.9266 15.578C34.8946 15.2001 34.3602 15.0043 33.6908 14.5581C32.4508 13.6798 31.3916 13.5248 30.5391 13.5248C30.0741 13.5248 29.6608 13.6023 29.2991 13.6798C28.2658 14.0414 27.5683 14.7131 27.1291 15.2556H27.1033C27.0258 15.3331 26.9225 15.4106 26.6641 15.5914C26.5241 15.6678 26.3526 15.7945 26.1467 15.9466ZM22.8666 60.2573C24.5458 59.8698 25.6566 58.8364 25.8116 56.9248V56.8989C25.915 55.7623 25.0366 54.3931 23.9 52.8431C23.5839 52.4336 23.2518 52.0301 22.9237 51.6315C22.0721 50.5967 21.2476 49.5949 20.8 48.6064H20.7741L18.3975 44.2923C17.5708 43.2331 16.7183 42.5098 15.7366 42.3548C15.5816 42.3289 15.4525 42.3289 15.3233 42.3289H15.2975C14.5483 42.3289 14.0575 42.6648 13.5666 43.1814C13.2799 43.4807 13.0172 43.834 12.7466 44.198C12.4566 44.5882 12.1575 44.9906 11.81 45.3514V45.3773C11.2793 45.8701 10.6512 46.0987 10.0482 46.3181C9.82936 46.3978 9.61384 46.4762 9.40748 46.5656C9.2924 46.6212 9.18038 46.6718 9.07168 46.721C8.47272 46.992 7.97482 47.2172 7.62498 47.9606C7.28915 48.5548 7.36665 49.3556 7.49581 50.3889C7.50995 50.4738 7.52474 50.5599 7.53969 50.647C7.68872 51.5152 7.85503 52.4841 7.57331 53.2823C6.95331 54.9098 6.95331 55.9431 7.23748 56.4598C7.54748 56.9764 8.16748 57.3381 9.14915 57.4931C9.69311 57.596 10.327 57.655 11.0134 57.7189C12.7391 57.8795 14.7964 58.0709 16.5891 59.0689C18.8883 60.2573 21.1616 60.5931 22.8666 60.2573ZM53.9655 54.8834C54.6371 54.5638 55.2551 54.2697 55.7525 53.9539C56.5792 53.4373 57.0183 53.1014 57.07 52.4039C57.0958 51.8098 56.6825 50.8281 55.3908 49.4589C54.7911 48.7873 54.5924 47.8929 54.3809 46.9412C54.3646 46.868 54.3483 46.7944 54.3316 46.7206C54.0992 45.8164 53.8408 44.9639 53.2983 44.4473C52.6008 43.7756 51.9033 43.7239 51.0766 43.7498L50.5342 43.7756C49.6042 44.8864 47.3825 46.1006 45.8583 45.7648C44.4375 45.4031 43.6366 43.7498 43.5591 42.1998L43.43 42.2514C42.5775 42.7423 42.0866 43.5948 41.7508 44.8089C41.4408 46.0489 41.3375 47.6506 41.26 49.4848C41.1857 50.5062 40.8311 51.7012 40.4648 52.9353C40.3215 53.4179 40.1765 53.9065 40.0458 54.3931C39.5808 56.0981 39.3483 57.7256 39.8908 58.7589H39.9166C40.795 60.5673 42.2933 61.2131 44.0241 61.0839C45.755 60.9548 47.7183 59.9214 49.3458 58.0098C50.6374 56.4671 52.4397 55.6095 53.9655 54.8834Z" fill="black"/>
<path d="M43.9466 28.5339V30.9106H42.5288C43.8175 33.2621 44.74 35.7971 45.2641 38.4281C45.6516 38.4023 46.1166 38.4798 46.6075 38.5831C46.8141 38.0406 46.9433 37.4981 47.0208 36.9556C47.5116 33.3648 45.2383 29.8514 43.9466 28.5339Z" fill="black"/>
<path d="M37.7209 16.4438V16.8055C37.5142 16.4438 37.1267 16.108 36.4551 15.7722C35.0601 15.2555 34.4659 15.0747 33.6909 14.558C32.4509 13.6797 31.3917 13.5247 30.5392 13.5247C30.0742 13.5247 29.6609 13.6022 29.2992 13.6797C28.2659 14.0413 27.5684 14.713 27.1292 15.2555H27.1034C27.0259 15.333 26.9226 15.4105 26.6642 15.5913C26.3801 15.7463 25.9667 16.108 25.3984 16.4697C24.8817 16.8055 24.7009 17.3222 24.8817 18.0197C25.0626 18.5105 25.6309 19.208 26.6901 19.8538C27.3359 20.1897 27.7751 20.7063 28.2917 21.068C28.5501 21.2488 28.8342 21.4038 29.1442 21.5588C29.5059 21.7138 29.8934 21.7655 30.3067 21.7397C31.4176 21.8172 32.2184 21.4038 32.9417 21.0422C33.6651 20.7063 34.2592 20.1897 34.9826 19.8538C36.4034 19.3372 37.4367 18.4847 37.7467 17.658C37.9017 17.2705 37.9017 16.8313 37.7209 16.4438ZM31.1851 14.7388C31.1592 14.6872 31.2109 14.6355 31.2367 14.6097C31.4604 14.5192 31.7105 14.5192 31.9342 14.6097C32.0892 14.6097 32.3476 14.7905 32.3217 14.9713C32.2959 15.1005 32.0892 15.1263 31.9601 15.1263C31.8309 15.1263 31.7276 15.023 31.5984 14.9713C31.4692 14.9197 31.2109 14.9455 31.1851 14.7905V14.7388ZM28.9634 14.6097C29.1701 14.5322 29.4542 14.5063 29.6351 14.6097C29.6867 14.6355 29.7384 14.6872 29.7126 14.7388V14.7905H29.7384C29.6867 14.9455 29.4284 14.9197 29.2992 14.9713C29.1701 15.023 29.0667 15.1522 28.9376 15.1522C28.8084 15.1522 28.6017 15.1005 28.5759 14.9713C28.5501 14.7905 28.8084 14.6097 28.9634 14.6097ZM35.8092 17.6838C35.3184 18.0197 34.5951 18.5363 34.0009 18.898C32.8642 19.4147 31.5209 20.2672 30.1001 20.2672C28.7051 20.2672 27.5684 19.5697 26.7676 19.053C26.3542 18.7172 26.0442 18.3813 25.7859 18.2005C25.3726 17.8647 25.4242 17.348 25.6051 17.348C25.8892 17.3738 25.9409 17.6838 26.1217 17.8647C26.3801 18.0197 26.6901 18.3813 27.0517 18.7172C27.8267 19.2338 28.8342 19.9313 30.1001 19.9313C31.3659 19.9313 32.8642 19.2338 33.7684 18.7172C34.2592 18.3813 34.9309 17.8647 35.4476 17.503C35.8609 17.1672 35.8351 16.8313 36.1967 16.8313C36.5326 16.8572 36.2742 17.1672 35.8092 17.6838ZM57.0701 52.4038C57.0184 53.1013 56.5792 53.4372 55.7526 53.9538C54.1251 54.9872 51.2059 55.788 49.3459 58.0097C47.7184 59.9213 45.7551 60.9547 44.0242 61.0838C42.2934 61.213 40.7951 60.5672 39.9167 58.7588H39.8909C39.3484 57.7255 39.5809 56.098 40.0459 54.393C40.5109 52.6622 41.1567 50.9055 41.2601 49.4847C41.3376 47.6505 41.4409 46.0488 41.7509 44.8088C42.0867 43.5947 42.5776 42.7422 43.4301 42.2513L43.5592 42.1997C43.6367 43.7497 44.4376 45.403 45.8584 45.7647C47.3826 46.1005 49.6042 44.8863 50.5342 43.7755L51.0767 43.7497C51.9034 43.7238 52.6009 43.7755 53.2984 44.4472C53.8409 44.9638 54.0992 45.8163 54.3317 46.7205C54.5642 47.7538 54.7451 48.7355 55.3909 49.4588C56.6826 50.828 57.0959 51.8097 57.0701 52.4038ZM25.8117 56.8988V56.9247C25.6567 58.8363 24.5459 59.8697 22.8667 60.2572C21.1617 60.593 18.8884 60.2571 16.5892 59.0688C14.0834 57.6738 11.0609 57.8547 9.14923 57.493C8.16757 57.338 7.54757 56.9763 7.23757 56.4597C6.9534 55.943 6.9534 54.9097 7.5734 53.2822C7.8834 52.4038 7.6509 51.3188 7.4959 50.3888C7.36673 49.3555 7.28923 48.5547 7.62507 47.9605C8.0384 47.0822 8.6584 46.9272 9.40757 46.5655C10.1826 46.2297 11.0867 46.0488 11.8101 45.3772V45.3513C12.4817 44.6538 12.9726 43.8013 13.5667 43.1813C14.0576 42.6647 14.5484 42.3288 15.2976 42.3288H15.3234C15.4526 42.3288 15.5817 42.3288 15.7367 42.3547C16.7184 42.5097 17.5709 43.233 18.3976 44.2922L20.7742 48.6063H20.8001C21.4201 49.9755 22.7634 51.3705 23.9001 52.843C25.0367 54.393 25.9151 55.7621 25.8117 56.8988Z" fill="#F9C105"/>
<path d="M29.7384 14.7905C29.6867 14.9455 29.4284 14.9197 29.2992 14.9713C29.1701 15.023 29.0667 15.1522 28.9376 15.1522C28.8084 15.1522 28.6017 15.1005 28.5759 14.9713C28.5501 14.7905 28.8084 14.6097 28.9634 14.6097C29.1701 14.5322 29.4542 14.5063 29.6351 14.6097C29.6867 14.6355 29.7384 14.6872 29.7126 14.7388V14.7905H29.7384ZM35.8092 17.6838C35.3184 18.0197 34.5951 18.5363 34.0009 18.898C32.8642 19.4147 31.5209 20.2672 30.1001 20.2672C28.7051 20.2672 27.5684 19.5697 26.7676 19.053C26.3542 18.7172 26.0442 18.3813 25.7859 18.2005C25.3726 17.8647 25.4242 17.348 25.6051 17.348C25.8892 17.3738 25.9409 17.6838 26.1217 17.8647C26.3801 18.0197 26.6901 18.3813 27.0517 18.7172C27.8267 19.2338 28.8342 19.9313 30.1001 19.9313C31.3659 19.9313 32.8642 19.2338 33.7684 18.7172C34.2592 18.3813 34.9309 17.8647 35.4476 17.503C35.8609 17.1672 35.8351 16.8313 36.1967 16.8313C36.5326 16.8572 36.2742 17.1672 35.8092 17.6838Z" fill="black"/>
</g>
<defs>
<clipPath id="clip0_594_42777">
<rect width="62" height="62" fill="white" transform="translate(0.98584 0.168945)"/>
</clipPath>
</defs>
</svg>
