<svg width="50" height="50" viewBox="0 0 50 50" fill="none" xmlns="http://www.w3.org/2000/svg">
<path opacity="0.08" d="M50 25C50 38.8071 38.8071 50 25 50C11.1929 50 0 38.8071 0 25C0 11.1929 11.1929 0 25 0C38.8071 0 50 11.1929 50 25Z" fill="#677380"/>
<path d="M17.9805 36.502C16.874 36.502 16.5303 35.5674 17.0996 34.8154C17.583 34.1816 18.4854 32.9141 18.9688 31.9795C15.5742 30.4111 13.3184 27.2852 13.3184 23.7617C13.3184 18.3584 18.7324 13.9971 25.5 13.9971C32.2676 13.9971 37.6816 18.3584 37.6816 23.7617C37.6816 24.7285 37.5098 25.6631 37.209 26.5439C37.166 26.5332 37.1016 26.5117 37.0479 26.5117C36.7256 26.0283 36.2314 25.6846 35.6514 25.5557C35.8232 24.9863 35.9092 24.3848 35.9092 23.7617C35.9092 19.3574 31.3008 15.7695 25.5 15.7695C19.71 15.7695 15.1016 19.3574 15.1016 23.7617C15.1016 26.6191 17.0352 29.1221 20.4082 30.6904C21.0957 31.0127 21.1709 31.5068 20.8701 32.0654C20.5049 32.7529 19.6455 33.8701 19.0439 34.6113C18.9902 34.6865 19.0225 34.751 19.1084 34.7188C20.0859 34.3213 21.998 33.1396 23.3193 32.1836C23.7275 31.8613 24.0713 31.7217 24.5225 31.7217C24.9521 31.7324 25.2852 31.7432 25.5 31.7432C26.2305 31.7432 26.9609 31.668 27.7344 31.5391C27.7236 31.6357 27.7129 31.7432 27.7129 31.8613V32.9785C27.7129 33.0752 27.7236 33.1826 27.7344 33.29C26.6709 33.4727 25.6396 33.5479 24.5762 33.4834C22.3955 35.041 19.4307 36.502 17.9805 36.502ZM35.1035 37.2109C34.749 37.2109 34.4912 36.9531 34.4912 36.6094V27.6719C34.4912 27.3281 34.7598 27.0596 35.1035 27.0596C35.4365 27.0596 35.7051 27.3281 35.7051 27.6719V36.6094C35.7051 36.9424 35.4365 37.2109 35.1035 37.2109ZM37.6064 36.1367C37.2734 36.1367 37.0156 35.8682 37.0156 35.5352V28.7246C37.0156 28.3916 37.2734 28.123 37.6064 28.123C37.9609 28.123 38.2188 28.3916 38.2188 28.7246V35.5352C38.2188 35.8682 37.9609 36.1367 37.6064 36.1367ZM32.5791 35.3525C32.2354 35.3525 31.9775 35.084 31.9775 34.7402V29.5195C31.9775 29.1758 32.2354 28.9072 32.5791 28.9072C32.9229 28.9072 33.1807 29.1758 33.1807 29.5195V34.7402C33.1807 35.084 32.9229 35.3525 32.5791 35.3525ZM40.1416 34.1064C39.7979 34.1064 39.5293 33.8486 39.5293 33.5049V30.7549C39.5293 30.4219 39.7979 30.1426 40.1416 30.1426C40.4854 30.1426 40.7432 30.4111 40.7432 30.7549V33.5049C40.7432 33.8594 40.4854 34.1064 40.1416 34.1064ZM30.0547 33.5479C29.7217 33.5479 29.4531 33.2793 29.4531 32.9463V31.3135C29.4531 30.9805 29.7217 30.7119 30.0547 30.7119C30.3984 30.7119 30.667 30.9805 30.667 31.3135V32.9463C30.667 33.2793 30.3984 33.5479 30.0547 33.5479Z" fill="#677380"/>
</svg>
