<svg width="290" height="290" viewBox="0 0 290 290" fill="none" xmlns="http://www.w3.org/2000/svg">
<path fill-rule="evenodd" clip-rule="evenodd" d="M282.776 118.449C278.876 96.548 268.143 79.3368 254.348 63.4309C252.769 61.6099 251.208 59.8802 249.667 58.2418H208.645C208.511 58.5982 208.284 58.9123 207.988 59.1515C207.691 59.3907 207.337 59.5464 206.96 59.6023C206.583 59.6583 206.199 59.6125 205.846 59.4697C205.493 59.3269 205.184 59.0923 204.952 58.7903C204.721 58.4882 204.574 58.1297 204.527 57.7517C204.48 57.3738 204.536 56.9903 204.687 56.641C204.839 56.2916 205.081 55.9891 205.388 55.7648C205.696 55.5404 206.058 55.4025 206.437 55.3652V45.9296H182.651V58.2579H154.578V80.5777H153.772V57.4521H181.845V45.1239H226.283C226.383 44.6 226.675 44.1323 227.102 43.8122C227.529 43.4921 228.06 43.3426 228.591 43.393C229.122 43.4433 229.615 43.6899 229.974 44.0845C230.333 44.4791 230.532 44.9933 230.532 45.5268C230.532 46.0602 230.333 46.5744 229.974 46.969C229.615 47.3636 229.122 47.6102 228.591 47.6605C228.06 47.7109 227.529 47.5614 227.102 47.2413C226.675 46.9212 226.383 46.4536 226.283 45.9296H207.259V55.4296C207.694 55.5573 208.077 55.8194 208.354 56.1785C208.63 56.5375 208.786 56.9749 208.798 57.428H248.869C218.548 25.584 193.948 25.8499 174.569 30.6926C155.641 35.4305 146.673 46.1714 126.07 55.8728V59.9017H143.499V60.7074H125.264V56.2677C123.773 56.9526 122.234 57.6294 120.623 58.3062C87 67.5 84.5 61.602 52.0196 68.604C22.1176 75.0501 5.11584 115.451 5.11584 138.553C5.11584 161.654 6.91271 195.045 32.6731 212.353C58.4335 229.661 119.454 196.923 143.49 198.22C167.527 199.517 195.06 226.422 229.708 226.422C278.15 226.422 290.769 163.483 282.776 118.449ZM263.663 143.548H250.77V158.737H251.576V144.37H264.469V122.083C264.992 121.983 265.46 121.691 265.78 121.264C266.1 120.837 266.25 120.306 266.199 119.775C266.149 119.244 265.902 118.751 265.508 118.392C265.113 118.033 264.599 117.834 264.066 117.834C263.532 117.834 263.018 118.033 262.623 118.392C262.229 118.751 261.982 119.244 261.932 119.775C261.881 120.306 262.031 120.837 262.351 121.264C262.671 121.691 263.139 121.983 263.663 122.083V143.548ZM231.206 98.8928H204.237L204.213 99.6986H231.206C231.307 100.222 231.599 100.69 232.025 101.01C232.452 101.33 232.983 101.48 233.514 101.429C234.045 101.379 234.538 101.133 234.897 100.738C235.256 100.343 235.455 99.8291 235.455 99.2957C235.455 98.7623 235.256 98.248 234.897 97.8534C234.538 97.4588 234.045 97.2123 233.514 97.1619C232.983 97.1116 232.452 97.261 232.025 97.5811C231.599 97.9012 231.307 98.3689 231.206 98.8928ZM61.3191 97.722C60.9286 97.3597 60.4166 97.1565 59.8839 97.1523L59.8517 97.2007C59.4519 97.1987 59.0596 97.3085 58.719 97.5177C58.3784 97.7269 58.1031 98.0272 57.9241 98.3847C57.7452 98.7422 57.6699 99.1425 57.7065 99.5406C57.7432 99.9387 57.8904 100.319 58.1316 100.637C58.3729 100.956 58.6984 101.201 59.0715 101.345C59.4446 101.488 59.8504 101.524 60.243 101.449C60.6357 101.374 60.9995 101.191 61.2935 100.92C61.5874 100.649 61.7997 100.301 61.9064 99.9161H101.856V99.1104H61.995C61.9508 98.5795 61.7097 98.0843 61.3191 97.722ZM86.6999 188.486H100.309L100.277 187.697H85.8941V194.143C85.4732 194.224 85.0863 194.429 84.7832 194.732C84.4801 195.035 84.2749 195.422 84.194 195.843H59.0217V182.314H47.2092C47.1532 181.79 46.9054 181.305 46.5134 180.953C46.1214 180.6 45.613 180.406 45.086 180.406C44.5589 180.406 44.0505 180.6 43.6586 180.953C43.2666 181.305 43.0188 181.79 42.9628 182.314H26.5332C26.48 181.781 26.2302 181.287 25.8324 180.929C25.4346 180.571 24.9174 180.374 24.382 180.376C23.8466 180.379 23.3314 180.581 22.9371 180.943C22.5427 181.305 22.2976 181.801 22.2496 182.335C22.2016 182.868 22.3542 183.4 22.6775 183.827C23.0009 184.253 23.4717 184.544 23.998 184.642C24.5244 184.741 25.0684 184.639 25.5238 184.357C25.9792 184.076 26.3132 183.635 26.4606 183.12H43.0917C43.1985 183.493 43.4048 183.831 43.6887 184.096C43.9726 184.362 44.3233 184.545 44.7032 184.627V204.457H32.7698C32.7573 203.924 32.5468 203.415 32.1793 203.029C31.8118 202.643 31.3138 202.408 30.7822 202.369C30.2507 202.33 29.7239 202.491 29.3045 202.82C28.8852 203.149 28.6033 203.622 28.514 204.148C28.4247 204.673 28.5343 205.213 28.8215 205.662C29.1086 206.111 29.5527 206.436 30.0671 206.576C30.5815 206.715 31.1294 206.658 31.6037 206.415C32.0781 206.172 32.445 205.761 32.6328 205.262H45.5251V184.627C45.9051 184.545 46.2558 184.362 46.5397 184.096C46.8235 183.831 47.0299 183.493 47.1367 183.12H58.216V196.633H84.194C84.2667 197.015 84.4425 197.371 84.7024 197.661C84.9622 197.952 85.2963 198.166 85.6687 198.281C86.0411 198.395 86.4378 198.406 86.816 198.312C87.1942 198.219 87.5396 198.023 87.8152 197.748C88.0907 197.472 88.2859 197.127 88.3798 196.749C88.4737 196.37 88.4627 195.974 88.348 195.601C88.2333 195.229 88.0192 194.895 87.7288 194.635C87.4385 194.375 87.0827 194.199 86.6999 194.127V188.486ZM47.9503 160.97C48.3338 160.655 48.596 160.216 48.6918 159.728L266.878 159.753C266.978 160.276 267.27 160.744 267.697 161.064C268.123 161.384 268.654 161.534 269.185 161.483C269.716 161.433 270.209 161.186 270.568 160.792C270.927 160.397 271.126 159.883 271.126 159.35C271.126 158.816 270.927 158.302 270.568 157.907C270.209 157.513 269.716 157.266 269.185 157.216C268.654 157.165 268.123 157.315 267.697 157.635C267.27 157.955 266.978 158.423 266.878 158.947H48.6999C48.632 158.589 48.4755 158.254 48.2446 157.972C48.0138 157.691 47.7159 157.472 47.3784 157.335V150.309H27.9271C27.7591 149.801 27.4077 149.373 26.9415 149.11C26.4754 148.847 25.9279 148.768 25.406 148.887C24.8841 149.006 24.4254 149.315 24.1194 149.754C23.8133 150.193 23.682 150.731 23.751 151.261C23.82 151.792 24.0844 152.278 24.4925 152.625C24.9007 152.971 25.4233 153.153 25.9582 153.134C26.4931 153.116 27.002 152.899 27.3855 152.525C27.7689 152.152 27.9994 151.649 28.0319 151.115H46.5646V157.182C46.0705 157.188 45.5938 157.365 45.215 157.682C44.8361 157.999 44.5785 158.437 44.4857 158.923H37.3788C37.2785 158.399 36.9865 157.931 36.5598 157.611C36.1331 157.291 35.6024 157.141 35.0713 157.192C34.5403 157.242 34.0471 157.489 33.6882 157.883C33.3292 158.278 33.1303 158.792 33.1303 159.325C33.1303 159.859 33.3292 160.373 33.6882 160.768C34.0471 161.162 34.5403 161.409 35.0713 161.459C35.6024 161.51 36.1331 161.36 36.5598 161.04C36.9865 160.72 37.2785 160.252 37.3788 159.728H44.4857C44.5815 160.216 44.8436 160.655 45.2272 160.97C45.6108 161.286 46.0921 161.458 46.5887 161.458C47.0854 161.458 47.5667 161.286 47.9503 160.97ZM268.217 196.343C267.808 196.683 267.54 197.162 267.466 197.688H237.395V190.372C237.848 190.322 238.274 190.129 238.611 189.82C238.947 189.511 239.176 189.103 239.264 188.655H267.466C267.566 189.179 267.858 189.647 268.285 189.967C268.712 190.287 269.242 190.437 269.773 190.386C270.305 190.336 270.798 190.089 271.157 189.695C271.516 189.3 271.714 188.786 271.714 188.253C271.714 187.719 271.516 187.205 271.157 186.81C270.798 186.416 270.305 186.169 269.773 186.119C269.242 186.068 268.712 186.218 268.285 186.538C267.858 186.858 267.566 187.326 267.466 187.85H239.264C239.168 187.362 238.906 186.923 238.523 186.608C238.139 186.292 237.658 186.12 237.161 186.12C236.664 186.12 236.183 186.292 235.8 186.608C235.416 186.923 235.154 187.362 235.058 187.85H200.708V188.655H235.058C235.131 189.047 235.314 189.41 235.585 189.703C235.856 189.995 236.204 190.204 236.589 190.307V198.494H267.506C267.633 199.01 267.947 199.46 268.387 199.757C268.828 200.054 269.363 200.176 269.889 200.099C270.414 200.022 270.893 199.752 271.23 199.342C271.567 198.932 271.739 198.41 271.713 197.88C271.686 197.349 271.463 196.847 271.087 196.473C270.71 196.098 270.207 195.877 269.677 195.853C269.146 195.829 268.625 196.004 268.217 196.343Z" fill="#464C4F" fill-opacity="0.2"/>
<path d="M160.49 58.4829H143.252C142.873 58.4829 142.509 58.3326 142.24 58.065C141.971 57.7974 141.819 57.4342 141.817 57.0549V48.9357C141.817 46.2701 142.876 43.7138 144.761 41.8289C146.646 39.9441 149.202 38.8853 151.868 38.8853C154.533 38.8853 157.09 39.9441 158.974 41.8289C160.859 43.7138 161.918 46.2701 161.918 48.9357V57.0549C161.918 57.4336 161.768 57.7968 161.5 58.0646C161.232 58.3324 160.869 58.4829 160.49 58.4829ZM144.687 55.6201H159.055V48.9357C159.085 47.9736 158.921 47.0154 158.573 46.1179C158.226 45.2205 157.701 44.4019 157.031 43.711C156.361 43.02 155.559 42.4706 154.673 42.0955C153.786 41.7203 152.834 41.527 151.871 41.527C150.909 41.527 149.956 41.7203 149.07 42.0955C148.183 42.4706 147.381 43.02 146.711 43.711C146.041 44.4019 145.517 45.2205 145.169 46.1179C144.821 47.0154 144.657 47.9736 144.687 48.9357V55.6201Z" fill="#008AC7" stroke="#253B54" stroke-width="0.68" stroke-linecap="round" stroke-linejoin="round"/>
<path d="M162.701 54.5732H140.757V73.1168H162.701V54.5732Z" fill="#253B54" stroke="#253B54" stroke-width="0.68" stroke-linecap="round" stroke-linejoin="round"/>
<path d="M154.01 62.2708C154.012 61.8469 153.901 61.4302 153.688 61.0633C153.476 60.6963 153.171 60.3923 152.802 60.1822C152.434 59.9722 152.017 59.8637 151.593 59.8678C151.169 59.8719 150.754 59.9885 150.39 60.2056C150.026 60.4228 149.726 60.7327 149.521 61.1037C149.316 61.4747 149.213 61.8935 149.223 62.3172C149.233 62.741 149.355 63.1545 149.578 63.5155C149.8 63.8765 150.114 64.1721 150.487 64.372L150.086 68.588H153.16L152.759 64.372C153.138 64.1677 153.454 63.8644 153.675 63.4944C153.895 63.1243 154.011 62.7015 154.01 62.2708Z" fill="#008AC7" stroke="#253B54" stroke-width="0.68" stroke-miterlimit="10"/>
<path d="M240.723 150.019H223.485C223.297 150.019 223.111 149.982 222.937 149.909C222.764 149.837 222.606 149.731 222.473 149.598C222.34 149.465 222.235 149.306 222.164 149.132C222.093 148.958 222.056 148.772 222.057 148.584V140.471C222.022 139.13 222.257 137.795 222.746 136.546C223.235 135.296 223.969 134.157 224.906 133.196C225.842 132.235 226.962 131.471 228.198 130.95C229.434 130.428 230.763 130.16 232.104 130.16C233.446 130.16 234.774 130.428 236.011 130.95C237.247 131.471 238.366 132.235 239.303 133.196C240.239 134.157 240.974 135.296 241.463 136.546C241.952 137.795 242.186 139.13 242.151 140.471V148.584C242.152 148.772 242.116 148.958 242.045 149.132C241.973 149.306 241.868 149.465 241.736 149.598C241.603 149.731 241.445 149.837 241.271 149.909C241.098 149.982 240.911 150.019 240.723 150.019ZM224.92 147.156H239.289V140.471C239.318 139.509 239.154 138.551 238.807 137.654C238.459 136.756 237.934 135.938 237.264 135.247C236.594 134.556 235.792 134.006 234.906 133.631C234.02 133.256 233.067 133.063 232.104 133.063C231.142 133.063 230.189 133.256 229.303 133.631C228.416 134.006 227.614 134.556 226.944 135.247C226.274 135.938 225.75 136.756 225.402 137.654C225.054 138.551 224.891 139.509 224.92 140.471V147.156Z" fill="#008AC7" stroke="#253B54" stroke-width="0.68" stroke-linecap="round" stroke-linejoin="round"/>
<path d="M242.934 146.108H220.99V164.652H242.934V146.108Z" fill="#253B54" stroke="#253B54" stroke-width="0.68" stroke-linecap="round" stroke-linejoin="round"/>
<path d="M234.243 153.841C234.245 153.417 234.134 153 233.922 152.633C233.71 152.266 233.404 151.962 233.036 151.752C232.668 151.542 232.25 151.433 231.826 151.438C231.403 151.442 230.987 151.558 230.623 151.775C230.259 151.993 229.96 152.303 229.755 152.674C229.55 153.045 229.447 153.463 229.457 153.887C229.467 154.311 229.589 154.724 229.811 155.085C230.033 155.446 230.347 155.742 230.721 155.942L230.32 160.151H233.4L232.992 155.881C233.362 155.681 233.672 155.387 233.892 155.029C234.111 154.671 234.233 154.261 234.243 153.841Z" fill="#008AC7" stroke="#253B54" stroke-width="0.68" stroke-miterlimit="10"/>
<path d="M79.2914 150.019H62.0398C61.8511 150.019 61.6641 149.983 61.4897 149.911C61.3152 149.839 61.1566 149.734 61.0232 149.6C60.8898 149.467 60.7842 149.308 60.7124 149.134C60.6406 148.959 60.6041 148.772 60.605 148.584V140.471C60.605 137.806 61.6639 135.249 63.5487 133.365C65.4335 131.48 67.9899 130.421 70.6554 130.421C73.3209 130.421 75.8773 131.48 77.7621 133.365C79.6469 135.249 80.7058 137.806 80.7058 140.471V148.584C80.7076 148.961 80.5598 149.324 80.2948 149.593C80.0297 149.862 79.6689 150.015 79.2914 150.019ZM63.4882 147.156H77.8634V140.471C77.8634 138.565 77.1061 136.737 75.7582 135.389C74.4103 134.041 72.5821 133.284 70.6758 133.284C68.7695 133.284 66.9413 134.041 65.5934 135.389C64.2455 136.737 63.4882 138.565 63.4882 140.471V147.156Z" fill="#008AC7" stroke="#253B54" stroke-width="0.68" stroke-linecap="round" stroke-linejoin="round"/>
<path d="M81.5083 146.108H59.5647V164.652H81.5083V146.108Z" fill="#253B54" stroke="#253B54" stroke-width="0.68" stroke-linecap="round" stroke-linejoin="round"/>
<path d="M72.818 153.84C72.819 153.417 72.7077 153 72.4955 152.634C72.2832 152.268 71.9776 151.964 71.6098 151.755C71.242 151.545 70.8251 151.437 70.4018 151.441C69.9784 151.445 69.5637 151.561 69.1999 151.777C68.8361 151.994 68.5363 152.303 68.331 152.673C68.1257 153.044 68.0223 153.462 68.0313 153.885C68.0403 154.308 68.1615 154.722 68.3824 155.083C68.6033 155.444 68.9161 155.74 69.2888 155.941L68.8876 160.15H71.9612L71.56 155.88C71.9314 155.682 72.2435 155.388 72.4645 155.03C72.6855 154.671 72.8075 154.261 72.818 153.84Z" fill="#008AC7" stroke="#253B54" stroke-width="0.68" stroke-miterlimit="10"/>
<path d="M253.977 136.84C251.257 139.683 249.638 144.035 249.666 148.461C249.693 152.888 251.4 157.301 254.222 160.117C254.437 160.332 254.729 160.453 255.034 160.453C255.339 160.453 255.631 160.332 255.847 160.117C255.955 160.01 256.04 159.883 256.097 159.743C256.154 159.602 256.182 159.452 256.18 159.301C256.178 158.998 256.058 158.708 255.847 158.491C253.44 156.105 251.991 152.371 251.964 148.455C251.937 144.538 253.324 140.859 255.636 138.438C255.74 138.329 255.822 138.201 255.877 138.06C255.932 137.92 255.959 137.769 255.956 137.619C255.952 137.468 255.92 137.319 255.859 137.181C255.798 137.042 255.711 136.917 255.602 136.813C255.493 136.709 255.365 136.627 255.224 136.572C255.083 136.517 254.933 136.49 254.782 136.493C254.631 136.497 254.483 136.529 254.344 136.59C254.206 136.651 254.081 136.738 253.977 136.847V136.84Z" fill="#008AC7"/>
<path d="M257.329 139.933C255.417 142.355 254.39 145.358 254.418 148.444C254.447 151.53 255.529 154.513 257.485 156.899C257.685 157.13 257.968 157.273 258.273 157.296C258.577 157.319 258.879 157.22 259.111 157.022C259.237 156.912 259.338 156.776 259.406 156.624C259.474 156.471 259.508 156.305 259.505 156.138C259.506 155.868 259.41 155.607 259.233 155.403C257.628 153.428 256.741 150.967 256.718 148.422C256.694 145.877 257.535 143.4 259.104 141.395C259.298 141.16 259.39 140.857 259.361 140.554C259.332 140.25 259.183 139.971 258.947 139.777C258.712 139.583 258.409 139.491 258.106 139.52C257.802 139.549 257.523 139.698 257.329 139.933Z" fill="#008AC7"/>
<path d="M260.641 143.069C259.404 144.601 258.747 146.521 258.786 148.489C258.824 150.458 259.556 152.35 260.851 153.833C261.002 154.019 261.208 154.152 261.438 154.216C261.669 154.279 261.913 154.269 262.138 154.186C262.363 154.104 262.556 153.954 262.691 153.756C262.826 153.559 262.896 153.324 262.891 153.085C262.892 152.818 262.795 152.559 262.619 152.358C261.671 151.274 261.135 149.889 261.106 148.449C261.078 147.009 261.558 145.604 262.463 144.483C262.635 144.242 262.707 143.944 262.665 143.651C262.622 143.358 262.468 143.093 262.235 142.911C262.002 142.729 261.707 142.643 261.413 142.673C261.118 142.702 260.847 142.844 260.654 143.069H260.641Z" fill="#008AC7"/>
<path d="M49.5889 136.841C52.3089 139.683 53.9341 144.035 53.9001 148.462C53.8661 152.889 52.1661 157.302 49.3441 160.117C49.237 160.223 49.1099 160.307 48.9703 160.365C48.8306 160.422 48.681 160.451 48.5301 160.45C48.3792 160.45 48.2299 160.419 48.0907 160.361C47.9515 160.303 47.8252 160.217 47.7189 160.11C47.6127 160.003 47.5286 159.876 47.4714 159.736C47.4142 159.597 47.3851 159.447 47.3858 159.296C47.3864 159.145 47.4167 158.996 47.4751 158.857C47.5334 158.718 47.6186 158.591 47.7257 158.485C50.1261 156.098 51.5745 152.365 51.6017 148.448C51.6289 144.531 50.2417 140.853 47.9297 138.432C47.7159 138.215 47.5959 137.924 47.5959 137.619C47.5959 137.315 47.7159 137.023 47.9297 136.807C48.0388 136.696 48.1693 136.609 48.3132 136.55C48.4571 136.492 48.6114 136.463 48.7667 136.467C48.922 136.47 49.075 136.505 49.2164 136.569C49.3577 136.633 49.4845 136.726 49.5889 136.841Z" fill="#008AC7"/>
<path d="M46.2436 139.933C48.1562 142.356 49.1828 145.359 49.1532 148.445C49.1235 151.531 48.0392 154.514 46.0804 156.899C45.8818 157.13 45.5999 157.272 45.2965 157.295C44.9931 157.318 44.693 157.22 44.462 157.022C44.3357 156.912 44.2346 156.776 44.1653 156.623C44.0961 156.471 44.0605 156.305 44.0608 156.138C44.0628 155.867 44.1617 155.607 44.3396 155.403C45.9447 153.428 46.8316 150.967 46.8551 148.422C46.8786 145.877 46.0372 143.4 44.4688 141.395C44.2749 141.16 44.1825 140.857 44.2118 140.554C44.2411 140.25 44.3898 139.971 44.6252 139.777C44.8605 139.583 45.1633 139.491 45.4668 139.52C45.7703 139.549 46.0497 139.698 46.2436 139.933Z" fill="#008AC7"/>
<path d="M42.9319 143.068C44.1668 144.603 44.8218 146.524 44.782 148.493C44.7422 150.463 44.0102 152.356 42.7143 153.839C42.6179 153.956 42.4994 154.052 42.3656 154.122C42.2318 154.192 42.0854 154.235 41.9349 154.249C41.7844 154.262 41.6327 154.245 41.4887 154.2C41.3447 154.154 41.2112 154.08 41.0959 153.982C40.9668 153.873 40.8634 153.736 40.7929 153.582C40.7224 153.428 40.6865 153.261 40.6879 153.091C40.6902 152.824 40.7865 152.567 40.9599 152.364C41.9172 151.284 42.4592 149.899 42.4891 148.457C42.519 147.014 42.0348 145.608 41.1231 144.489C41.0295 144.371 40.9603 144.235 40.9196 144.09C40.8788 143.944 40.8672 143.792 40.8856 143.643C40.9039 143.493 40.9518 143.348 41.0264 143.217C41.101 143.085 41.2009 142.97 41.3203 142.878C41.5601 142.692 41.8636 142.607 42.1651 142.643C42.4667 142.678 42.7421 142.831 42.9319 143.068Z" fill="#008AC7"/>
<path d="M163.414 31.6507C160.565 34.3707 156.22 35.9891 151.787 35.9619C147.353 35.9347 142.96 34.2279 140.138 31.4399C139.923 31.2243 139.802 30.932 139.802 30.6273C139.802 30.3225 139.923 30.0302 140.138 29.8147C140.358 29.5998 140.653 29.4801 140.961 29.4815C141.111 29.4814 141.259 29.5114 141.397 29.5698C141.535 29.6282 141.659 29.7138 141.763 29.8215C144.15 32.2219 147.883 33.6703 151.8 33.6975C155.485 33.7859 159.067 32.4737 161.823 30.0255C162.043 29.8144 162.338 29.6995 162.643 29.7059C162.948 29.7122 163.237 29.8394 163.449 30.0595C163.66 30.2795 163.774 30.5743 163.768 30.8791C163.762 31.1839 163.635 31.4736 163.414 31.6847V31.6507Z" fill="#008AC7"/>
<path d="M160.3 28.2984C157.88 30.2143 154.876 31.2437 151.789 31.2152C148.703 31.1867 145.719 30.1022 143.334 28.142C143.211 28.0466 143.108 27.9272 143.032 27.7908C142.956 27.6545 142.909 27.5042 142.893 27.3491C142.878 27.194 142.894 27.0372 142.94 26.8884C142.987 26.7397 143.063 26.602 143.165 26.4837C143.267 26.3654 143.391 26.2691 143.531 26.2005C143.671 26.132 143.824 26.0926 143.98 26.0849C144.136 26.0772 144.291 26.1012 144.437 26.1556C144.584 26.21 144.717 26.2935 144.83 26.4012C146.805 28.0063 149.266 28.8932 151.811 28.9167C154.356 28.9402 156.834 28.0988 158.838 26.5304C159.074 26.3578 159.368 26.282 159.658 26.3185C159.949 26.3549 160.214 26.5008 160.401 26.7264C160.587 26.952 160.681 27.2403 160.662 27.5324C160.643 27.8246 160.514 28.0985 160.3 28.2984Z" fill="#008AC7"/>
<path d="M157.159 24.9932C155.624 26.2263 153.705 26.8802 151.737 26.8404C149.769 26.8007 147.877 26.0697 146.394 24.7756C146.209 24.6245 146.075 24.4194 146.012 24.1888C145.948 23.9581 145.959 23.7135 146.041 23.4889C146.123 23.2644 146.274 23.0711 146.471 22.9361C146.668 22.801 146.903 22.7309 147.142 22.7356C147.412 22.7345 147.673 22.8311 147.877 23.0076C148.957 23.9621 150.341 24.5018 151.782 24.5305C153.223 24.5591 154.627 24.0748 155.744 23.164C155.985 22.9764 156.29 22.8922 156.593 22.9298C156.896 22.9674 157.172 23.1238 157.359 23.3646C157.547 23.6053 157.631 23.9107 157.593 24.2136C157.556 24.5165 157.399 24.792 157.159 24.9796V24.9932Z" fill="#008AC7"/>
<path d="M150.018 264.66C210.561 264.66 259.641 249.316 259.641 230.388C259.641 211.46 210.561 196.116 150.018 196.116C89.4753 196.116 40.3955 211.46 40.3955 230.388C40.3955 249.316 89.4753 264.66 150.018 264.66Z" fill="#008AC7"/>
<path d="M151.12 257.085C206.281 257.085 250.999 243.503 250.999 226.75C250.999 209.996 206.281 196.415 151.12 196.415C95.9588 196.415 51.2417 209.996 51.2417 226.75C51.2417 243.503 95.9588 257.085 151.12 257.085Z" fill="#253B54" stroke="#253B54" stroke-width="0.68" stroke-miterlimit="10"/>
<path d="M151.12 245.063C200.302 245.063 240.173 233.545 240.173 219.338C240.173 205.131 200.302 193.614 151.12 193.614C101.937 193.614 62.0671 205.131 62.0671 219.338C62.0671 233.545 101.937 245.063 151.12 245.063Z" fill="#008AC7" stroke="#253B54" stroke-width="0.68" stroke-miterlimit="10"/>
<path d="M151.12 241.105C195.976 241.105 232.339 230.979 232.339 218.488C232.339 205.997 195.976 195.872 151.12 195.872C106.264 195.872 69.9006 205.997 69.9006 218.488C69.9006 230.979 106.264 241.105 151.12 241.105Z" fill="#005895" stroke="#253B54" stroke-width="0.68" stroke-miterlimit="10"/>
<path d="M151.12 241.098C195.383 241.098 231.265 232.619 231.265 222.16C231.265 211.701 195.383 203.222 151.12 203.222C106.857 203.222 70.9751 211.701 70.9751 222.16C70.9751 232.619 106.857 241.098 151.12 241.098Z" fill="#21282C" stroke="#253B54" stroke-width="0.68" stroke-miterlimit="10"/>
<path d="M74.6472 237.8C74.7221 238.361 74.6237 238.931 74.3653 239.434C74.107 239.937 73.701 240.35 73.2017 240.616C72.7024 240.882 72.1338 240.989 71.572 240.922C71.0102 240.856 70.4821 240.619 70.0585 240.245C69.6349 239.87 69.336 239.374 69.2019 238.825C69.0678 238.275 69.1049 237.698 69.3082 237.17C69.5115 236.642 69.8713 236.189 70.3395 235.871C70.8076 235.554 71.3616 235.387 71.9272 235.393C72.6057 235.357 73.2709 235.59 73.7797 236.04C74.2885 236.49 74.6 237.122 74.6472 237.8Z" fill="#E3E3E3" stroke="#253B54" stroke-width="0.68" stroke-miterlimit="10"/>
<path d="M111.469 250.714C112.987 250.714 114.217 249.636 114.217 248.307C114.217 246.977 112.987 245.899 111.469 245.899C109.952 245.899 108.722 246.977 108.722 248.307C108.722 249.636 109.952 250.714 111.469 250.714Z" fill="#E3E3E3" stroke="#253B54" stroke-width="0.68" stroke-miterlimit="10"/>
<path d="M161.32 250.026C161.395 250.587 161.296 251.157 161.038 251.661C160.78 252.164 160.374 252.576 159.874 252.842C159.375 253.108 158.806 253.215 158.245 253.149C157.683 253.082 157.155 252.846 156.731 252.471C156.307 252.096 156.009 251.601 155.874 251.051C155.74 250.502 155.777 249.924 155.981 249.396C156.184 248.868 156.544 248.415 157.012 248.098C157.48 247.78 158.034 247.613 158.6 247.619C159.278 247.584 159.944 247.816 160.452 248.266C160.961 248.717 161.273 249.349 161.32 250.026Z" fill="#E3E3E3" stroke="#253B54" stroke-width="0.68" stroke-miterlimit="10"/>
<path d="M205.282 248.306C206.799 248.306 208.029 247.228 208.029 245.899C208.029 244.569 206.799 243.492 205.282 243.492C203.765 243.492 202.535 244.569 202.535 245.899C202.535 247.228 203.765 248.306 205.282 248.306Z" fill="#E3E3E3" stroke="#253B54" stroke-width="0.68" stroke-miterlimit="10"/>
<path d="M235.522 237.31C237.039 237.31 238.269 236.232 238.269 234.903C238.269 233.573 237.039 232.496 235.522 232.496C234.004 232.496 232.774 233.573 232.774 234.903C232.774 236.232 234.004 237.31 235.522 237.31Z" fill="#E3E3E3" stroke="#253B54" stroke-width="0.68" stroke-miterlimit="10"/>
<path d="M247.83 221.657C247.374 222.527 245.79 222.595 244.28 221.813C242.77 221.031 241.92 219.685 242.376 218.814C242.832 217.944 244.416 217.876 245.926 218.658C247.435 219.44 248.285 220.786 247.83 221.657Z" fill="#E3E3E3" stroke="#253B54" stroke-width="0.68" stroke-miterlimit="10"/>
<path d="M54.4105 221.657C54.8661 222.527 56.4505 222.595 57.9601 221.813C59.4697 221.031 60.3197 219.685 59.8641 218.814C59.4085 217.944 57.8241 217.876 56.3145 218.658C54.8049 219.44 53.9549 220.786 54.4105 221.657Z" fill="#E3E3E3" stroke="#253B54" stroke-width="0.68" stroke-miterlimit="10"/>
<path d="M195.762 148.835H192.532V157.376H195.762V148.835Z" fill="#253B54" stroke="#253B54" stroke-width="0.68" stroke-miterlimit="10"/>
<path d="M193.6 85.4189H108.579V103.833H193.6V85.4189Z" fill="#253B54" stroke="#253B54" stroke-width="0.68" stroke-miterlimit="10"/>
<path d="M195.762 199.224H192.532V207.765H195.762V199.224Z" fill="#253B54" stroke="#253B54" stroke-width="0.68" stroke-miterlimit="10"/>
<path d="M109.354 199.224H106.124V207.765H109.354V199.224Z" fill="#253B54" stroke="#253B54" stroke-width="0.68" stroke-miterlimit="10"/>
<path d="M108.885 99.4194H105.655V107.96H108.885V99.4194Z" fill="#253B54" stroke="#253B54" stroke-width="0.68" stroke-miterlimit="10"/>
<path d="M108.885 174.35H105.655V182.89H108.885V174.35Z" fill="#253B54" stroke="#253B54" stroke-width="0.68" stroke-miterlimit="10"/>
<path d="M108.885 148.781H105.655V157.322H108.885V148.781Z" fill="#253B54" stroke="#253B54" stroke-width="0.68" stroke-miterlimit="10"/>
<path d="M196.592 99.4194H193.362V107.96H196.592V99.4194Z" fill="#253B54" stroke="#253B54" stroke-width="0.68" stroke-miterlimit="10"/>
<path d="M196.591 174.35H193.361V182.89H196.591V174.35Z" fill="#253B54" stroke="#253B54" stroke-width="0.68" stroke-miterlimit="10"/>
<path d="M108.885 124.057H105.655V132.597H108.885V124.057Z" fill="#253B54" stroke="#253B54" stroke-width="0.68" stroke-miterlimit="10"/>
<path d="M196.591 124.057H193.361V132.597H196.591V124.057Z" fill="#253B54" stroke="#253B54" stroke-width="0.68" stroke-miterlimit="10"/>
<path d="M193.6 94.6934H108.579V113.108H193.6V94.6934Z" fill="#E3E3E3" stroke="#253B54" stroke-width="0.68" stroke-miterlimit="10"/>
<path d="M131.42 99.3916H126.565V108.408H131.42V99.3916Z" fill="#008AC7" stroke="#253B54" stroke-width="0.68" stroke-miterlimit="10"/>
<path d="M123.974 99.3916H119.119V108.408H123.974V99.3916Z" fill="#008AC7" stroke="#253B54" stroke-width="0.68" stroke-miterlimit="10"/>
<path d="M116.535 99.3916H112.666V108.408H116.535V99.3916Z" fill="#008AC7" stroke="#253B54" stroke-width="0.68" stroke-miterlimit="10"/>
<path d="M138.866 99.3916H134.011V108.408H138.866V99.3916Z" fill="#008AC7" stroke="#253B54" stroke-width="0.68" stroke-miterlimit="10"/>
<path d="M171.255 99.3916H141.45V108.408H171.255V99.3916Z" fill="#008AC7" stroke="#253B54" stroke-width="0.68" stroke-miterlimit="10"/>
<path d="M179.197 105.778C180.451 105.778 181.468 104.761 181.468 103.507C181.468 102.252 180.451 101.235 179.197 101.235C177.943 101.235 176.926 102.252 176.926 103.507C176.926 104.761 177.943 105.778 179.197 105.778Z" fill="#E3E3E3" stroke="#253B54" stroke-width="0.68" stroke-miterlimit="10"/>
<path d="M190.37 103.521C190.37 103.07 190.236 102.629 189.985 102.254C189.735 101.88 189.379 101.588 188.962 101.415C188.545 101.243 188.087 101.198 187.645 101.287C187.203 101.375 186.797 101.593 186.479 101.912C186.16 102.232 185.944 102.638 185.857 103.08C185.77 103.523 185.816 103.981 185.989 104.397C186.163 104.813 186.456 105.169 186.831 105.418C187.207 105.668 187.648 105.8 188.099 105.799C188.702 105.797 189.279 105.556 189.705 105.129C190.131 104.702 190.37 104.124 190.37 103.521Z" fill="#008AC7" stroke="#253B54" stroke-width="0.68" stroke-miterlimit="10"/>
<path d="M165.937 105.778C167.192 105.778 168.209 104.761 168.209 103.507C168.209 102.252 167.192 101.235 165.937 101.235C164.683 101.235 163.666 102.252 163.666 103.507C163.666 104.761 164.683 105.778 165.937 105.778Z" fill="#E3E3E3" stroke="#253B54" stroke-width="0.68" stroke-miterlimit="10"/>
<path d="M190.37 113.108H111.802V119.412H190.37V113.108Z" fill="#253B54" stroke="#253B54" stroke-width="0.68" stroke-miterlimit="10"/>
<path d="M193.599 119.419H108.579V137.833H193.599V119.419Z" fill="#E3E3E3" stroke="#253B54" stroke-width="0.68" stroke-miterlimit="10"/>
<path d="M123.974 124.118H119.119V133.134H123.974V124.118Z" fill="#008AC7" stroke="#253B54" stroke-width="0.68" stroke-miterlimit="10"/>
<path d="M138.866 124.118H134.011V133.134H138.866V124.118Z" fill="#008AC7" stroke="#253B54" stroke-width="0.68" stroke-miterlimit="10"/>
<path d="M131.42 124.118H126.565V133.134H131.42V124.118Z" fill="#008AC7" stroke="#253B54" stroke-width="0.68" stroke-miterlimit="10"/>
<path d="M116.535 124.118H112.666V133.134H116.535V124.118Z" fill="#008AC7" stroke="#253B54" stroke-width="0.68" stroke-miterlimit="10"/>
<path d="M171.255 124.118H141.45V133.134H171.255V124.118Z" fill="#008AC7" stroke="#253B54" stroke-width="0.68" stroke-miterlimit="10"/>
<path d="M179.197 130.503C180.452 130.503 181.468 129.486 181.468 128.232C181.468 126.977 180.452 125.96 179.197 125.96C177.943 125.96 176.926 126.977 176.926 128.232C176.926 129.486 177.943 130.503 179.197 130.503Z" fill="#008AC7" stroke="#253B54" stroke-width="0.68" stroke-miterlimit="10"/>
<path d="M190.369 128.231C190.371 127.779 190.238 127.338 189.988 126.962C189.739 126.587 189.383 126.294 188.966 126.121C188.55 125.947 188.091 125.902 187.649 125.989C187.206 126.077 186.8 126.294 186.481 126.613C186.162 126.932 185.945 127.339 185.857 127.781C185.769 128.224 185.815 128.682 185.988 129.099C186.161 129.515 186.454 129.871 186.83 130.121C187.206 130.371 187.647 130.503 188.098 130.502C188.701 130.502 189.278 130.263 189.704 129.837C190.13 129.411 190.369 128.833 190.369 128.231Z" fill="#E3E3E3" stroke="#253B54" stroke-width="0.68" stroke-miterlimit="10"/>
<path d="M165.937 130.503C167.192 130.503 168.208 129.486 168.208 128.232C168.208 126.977 167.192 125.96 165.937 125.96C164.683 125.96 163.666 126.977 163.666 128.232C163.666 129.486 164.683 130.503 165.937 130.503Z" fill="#E3E3E3" stroke="#253B54" stroke-width="0.68" stroke-miterlimit="10"/>
<path d="M190.37 137.834H111.802V144.138H190.37V137.834Z" fill="#253B54" stroke="#253B54" stroke-width="0.68" stroke-miterlimit="10"/>
<path d="M193.6 144.137H108.579V162.552H193.6V144.137Z" fill="#E3E3E3" stroke="#253B54" stroke-width="0.68" stroke-miterlimit="10"/>
<path d="M131.42 148.835H126.565V157.852H131.42V148.835Z" fill="#008AC7" stroke="#253B54" stroke-width="0.68" stroke-miterlimit="10"/>
<path d="M138.866 148.835H134.011V157.852H138.866V148.835Z" fill="#008AC7" stroke="#253B54" stroke-width="0.68" stroke-miterlimit="10"/>
<path d="M123.974 148.835H119.119V157.852H123.974V148.835Z" fill="#008AC7" stroke="#253B54" stroke-width="0.68" stroke-miterlimit="10"/>
<path d="M171.255 148.835H141.45V157.852H171.255V148.835Z" fill="#008AC7" stroke="#253B54" stroke-width="0.68" stroke-miterlimit="10"/>
<path d="M116.535 148.835H112.666V157.852H116.535V148.835Z" fill="#008AC7" stroke="#253B54" stroke-width="0.68" stroke-miterlimit="10"/>
<path d="M179.197 155.221C180.452 155.221 181.468 154.204 181.468 152.95C181.468 151.696 180.452 150.679 179.197 150.679C177.943 150.679 176.926 151.696 176.926 152.95C176.926 154.204 177.943 155.221 179.197 155.221Z" fill="#E3E3E3" stroke="#253B54" stroke-width="0.68" stroke-miterlimit="10"/>
<path d="M190.369 152.949C190.369 152.499 190.236 152.058 189.985 151.683C189.734 151.308 189.378 151.016 188.962 150.844C188.545 150.672 188.087 150.627 187.645 150.716C187.202 150.804 186.797 151.022 186.478 151.341C186.16 151.66 185.944 152.067 185.856 152.509C185.769 152.951 185.815 153.41 185.989 153.826C186.162 154.242 186.455 154.597 186.831 154.847C187.206 155.096 187.647 155.229 188.098 155.227C188.701 155.226 189.279 154.985 189.705 154.558C190.13 154.131 190.369 153.552 190.369 152.949Z" fill="#008AC7" stroke="#253B54" stroke-width="0.68" stroke-miterlimit="10"/>
<path d="M165.937 155.221C167.192 155.221 168.208 154.204 168.208 152.95C168.208 151.696 167.192 150.679 165.937 150.679C164.683 150.679 163.666 151.696 163.666 152.95C163.666 154.204 164.683 155.221 165.937 155.221Z" fill="#E3E3E3" stroke="#253B54" stroke-width="0.68" stroke-miterlimit="10"/>
<path d="M190.37 162.552H111.802V168.856H190.37V162.552Z" fill="#253B54" stroke="#253B54" stroke-width="0.68" stroke-miterlimit="10"/>
<path d="M193.599 168.862H108.579V187.277H193.599V168.862Z" fill="#E3E3E3" stroke="#253B54" stroke-width="0.68" stroke-miterlimit="10"/>
<path d="M138.866 173.56H134.011V182.577H138.866V173.56Z" fill="#008AC7" stroke="#253B54" stroke-width="0.68" stroke-miterlimit="10"/>
<path d="M123.974 173.56H119.119V182.577H123.974V173.56Z" fill="#008AC7" stroke="#253B54" stroke-width="0.68" stroke-miterlimit="10"/>
<path d="M131.42 173.56H126.565V182.577H131.42V173.56Z" fill="#008AC7" stroke="#253B54" stroke-width="0.68" stroke-miterlimit="10"/>
<path d="M116.535 173.56H112.666V182.577H116.535V173.56Z" fill="#008AC7" stroke="#253B54" stroke-width="0.68" stroke-miterlimit="10"/>
<path d="M171.255 173.56H141.45V182.577H171.255V173.56Z" fill="#008AC7" stroke="#253B54" stroke-width="0.68" stroke-miterlimit="10"/>
<path d="M179.197 179.945C180.452 179.945 181.468 178.928 181.468 177.674C181.468 176.42 180.452 175.403 179.197 175.403C177.943 175.403 176.926 176.42 176.926 177.674C176.926 178.928 177.943 179.945 179.197 179.945Z" fill="#008AC7" stroke="#253B54" stroke-width="0.68" stroke-miterlimit="10"/>
<path d="M190.37 177.674C190.371 177.223 190.238 176.782 189.989 176.406C189.739 176.031 189.383 175.738 188.967 175.564C188.55 175.391 188.091 175.345 187.649 175.433C187.206 175.521 186.8 175.738 186.481 176.057C186.162 176.376 185.945 176.782 185.857 177.225C185.769 177.667 185.815 178.126 185.988 178.543C186.162 178.959 186.455 179.315 186.83 179.565C187.206 179.814 187.647 179.947 188.099 179.946C188.701 179.946 189.279 179.706 189.704 179.28C190.13 178.854 190.37 178.277 190.37 177.674Z" fill="#E3E3E3" stroke="#253B54" stroke-width="0.68" stroke-miterlimit="10"/>
<path d="M165.937 179.945C167.192 179.945 168.208 178.928 168.208 177.674C168.208 176.42 167.192 175.403 165.937 175.403C164.683 175.403 163.666 176.42 163.666 177.674C163.666 178.928 164.683 179.945 165.937 179.945Z" fill="#E3E3E3" stroke="#253B54" stroke-width="0.68" stroke-miterlimit="10"/>
<path d="M190.37 187.276H111.802V193.58H190.37V187.276Z" fill="#253B54" stroke="#253B54" stroke-width="0.68" stroke-miterlimit="10"/>
<path d="M193.6 193.58H108.579V211.994H193.6V193.58Z" fill="#E3E3E3" stroke="#253B54" stroke-width="0.68" stroke-miterlimit="10"/>
<path d="M123.974 198.279H119.119V207.296H123.974V198.279Z" fill="#008AC7" stroke="#253B54" stroke-width="0.68" stroke-miterlimit="10"/>
<path d="M131.42 198.279H126.565V207.296H131.42V198.279Z" fill="#008AC7" stroke="#253B54" stroke-width="0.68" stroke-miterlimit="10"/>
<path d="M138.866 198.279H134.011V207.296H138.866V198.279Z" fill="#008AC7" stroke="#253B54" stroke-width="0.68" stroke-miterlimit="10"/>
<path d="M116.535 198.279H112.666V207.296H116.535V198.279Z" fill="#008AC7" stroke="#253B54" stroke-width="0.68" stroke-miterlimit="10"/>
<path d="M171.255 198.279H141.45V207.296H171.255V198.279Z" fill="#008AC7" stroke="#253B54" stroke-width="0.68" stroke-miterlimit="10"/>
<path d="M179.197 204.664C180.452 204.664 181.468 203.647 181.468 202.393C181.468 201.138 180.452 200.122 179.197 200.122C177.943 200.122 176.926 201.138 176.926 202.393C176.926 203.647 177.943 204.664 179.197 204.664Z" fill="#E3E3E3" stroke="#253B54" stroke-width="0.68" stroke-miterlimit="10"/>
<path d="M190.37 202.392C190.37 201.941 190.236 201.501 189.985 201.126C189.735 200.751 189.379 200.459 188.962 200.287C188.545 200.115 188.087 200.07 187.645 200.159C187.203 200.247 186.797 200.465 186.479 200.784C186.16 201.103 185.944 201.51 185.857 201.952C185.77 202.394 185.816 202.853 185.989 203.269C186.163 203.685 186.456 204.04 186.831 204.29C187.207 204.539 187.648 204.672 188.099 204.67C188.702 204.668 189.279 204.428 189.705 204.001C190.131 203.574 190.37 202.995 190.37 202.392Z" fill="#008AC7" stroke="#253B54" stroke-width="0.68" stroke-miterlimit="10"/>
<path d="M165.937 204.664C167.192 204.664 168.208 203.647 168.208 202.393C168.208 201.138 167.192 200.122 165.937 200.122C164.683 200.122 163.666 201.138 163.666 202.393C163.666 203.647 164.683 204.664 165.937 204.664Z" fill="#E3E3E3" stroke="#253B54" stroke-width="0.68" stroke-miterlimit="10"/>
</svg>
