<svg width="319" height="90" viewBox="0 0 319 90" fill="none" xmlns="http://www.w3.org/2000/svg">
<path d="M300.196 35.0371C296.389 35.0371 293.224 31.8721 293.224 28.0645C293.224 24.25 296.382 21.0918 300.189 21.0918C304.004 21.0918 307.169 24.25 307.169 28.0645C307.169 31.8721 304.011 35.0371 300.196 35.0371ZM299.431 31.4072C299.663 31.4072 299.861 31.2979 300.005 31.0723L303.218 26.0137C303.3 25.8701 303.389 25.7129 303.389 25.5625C303.389 25.2412 303.108 25.0361 302.808 25.0361C302.63 25.0361 302.452 25.1455 302.322 25.3506L299.403 30.04L298.016 28.249C297.845 28.0234 297.694 27.9619 297.496 27.9619C297.188 27.9619 296.949 28.2148 296.949 28.5225C296.949 28.6797 297.011 28.8301 297.113 28.9668L298.829 31.0723C299.007 31.3115 299.198 31.4072 299.431 31.4072Z" fill="url(#paint0_linear_3077_13451)"/>
<path d="M300.196 70.0371C296.389 70.0371 293.224 66.8721 293.224 63.0645C293.224 59.25 296.382 56.0918 300.189 56.0918C304.004 56.0918 307.169 59.25 307.169 63.0645C307.169 66.8721 304.011 70.0371 300.196 70.0371ZM299.431 66.4072C299.663 66.4072 299.861 66.2979 300.005 66.0723L303.218 61.0137C303.3 60.8701 303.389 60.7129 303.389 60.5625C303.389 60.2412 303.108 60.0361 302.808 60.0361C302.63 60.0361 302.452 60.1455 302.322 60.3506L299.403 65.04L298.016 63.249C297.845 63.0234 297.694 62.9619 297.496 62.9619C297.188 62.9619 296.949 63.2148 296.949 63.5225C296.949 63.6797 297.011 63.8301 297.113 63.9668L298.829 66.0723C299.007 66.3115 299.198 66.4072 299.431 66.4072Z" fill="url(#paint1_linear_3077_13451)"/>
<path d="M12 18C12 16.8954 12.8954 16 14 16H21.7639C22.5215 16 23.214 16.428 23.5528 17.1056L23.9472 17.8944C24.286 18.572 24.9785 19 25.7361 19H41C42.1046 19 43 19.8954 43 21V37C43 38.1046 42.1046 39 41 39H14C12.8954 39 12 38.1046 12 37V18Z" fill="url(#paint2_linear_3077_13451)"/>
<path d="M59 29C59 26.7909 60.7909 25 63 25H276C278.209 25 280 26.7909 280 29C280 31.2091 278.209 33 276 33H63C60.7909 33 59 31.2091 59 29Z" fill="url(#paint3_linear_3077_13451)"/>
<path d="M12 53C12 51.8954 12.8954 51 14 51H21.7639C22.5215 51 23.214 51.428 23.5528 52.1056L23.9472 52.8944C24.286 53.572 24.9785 54 25.7361 54H41C42.1046 54 43 54.8954 43 56V72C43 73.1046 42.1046 74 41 74H14C12.8954 74 12 73.1046 12 72V53Z" fill="url(#paint4_linear_3077_13451)"/>
<path d="M59 64C59 61.7909 60.7909 60 63 60H276C278.209 60 280 61.7909 280 64C280 66.2091 278.209 68 276 68H63C60.7909 68 59 66.2091 59 64Z" fill="url(#paint5_linear_3077_13451)"/>
<defs>
<linearGradient id="paint0_linear_3077_13451" x1="300.196" y1="21.0918" x2="300" y2="70" gradientUnits="userSpaceOnUse">
<stop stop-color="#04A45A" stop-opacity="0.3"/>
<stop offset="1" stop-color="#04A45A" stop-opacity="0"/>
</linearGradient>
<linearGradient id="paint1_linear_3077_13451" x1="300.196" y1="21.0918" x2="300" y2="70" gradientUnits="userSpaceOnUse">
<stop stop-color="#04A45A" stop-opacity="0.3"/>
<stop offset="1" stop-color="#04A45A" stop-opacity="0"/>
</linearGradient>
<linearGradient id="paint2_linear_3077_13451" x1="146.377" y1="16" x2="146.377" y2="74" gradientUnits="userSpaceOnUse">
<stop stop-color="white" stop-opacity="0.05"/>
<stop offset="1" stop-color="white" stop-opacity="0"/>
</linearGradient>
<linearGradient id="paint3_linear_3077_13451" x1="146.377" y1="16" x2="146.377" y2="74" gradientUnits="userSpaceOnUse">
<stop stop-color="white" stop-opacity="0.05"/>
<stop offset="1" stop-color="white" stop-opacity="0"/>
</linearGradient>
<linearGradient id="paint4_linear_3077_13451" x1="146.377" y1="16" x2="146.377" y2="74" gradientUnits="userSpaceOnUse">
<stop stop-color="white" stop-opacity="0.05"/>
<stop offset="1" stop-color="white" stop-opacity="0"/>
</linearGradient>
<linearGradient id="paint5_linear_3077_13451" x1="146.377" y1="16" x2="146.377" y2="74" gradientUnits="userSpaceOnUse">
<stop stop-color="white" stop-opacity="0.05"/>
<stop offset="1" stop-color="white" stop-opacity="0"/>
</linearGradient>
</defs>
</svg>
